# Converted from SynchroCircleAccent.asset
o SynchroCircleAccent
v -2.21733904 0 11.0435658
v -1.96866441 0 11.0931568
v -2.01028299 0 11.3276844
v -2.26421618 0 11.2770452
v -1.73351395 0 11.1297808
v -1.48291171 0 11.1684704
v -1.5142616 0 11.4045935
v -1.77016366 0 11.3650703
v -1.24639046 0 11.1947908
v -0.994338214 0 11.2225161
v -1.0153594 0 11.4598007
v -1.27274227 0 11.4314747
v -0.756895304 0 11.2384987
v -0.503872395 0 11.2552071
v -0.5145244 0 11.4931726
v -0.772896171 0 11.4761086
v -0.265958011 0 11.2608347
v -0.0124470061 0 11.2664795
v -0.0127096232 0 11.504673
v -0.271580398 0 11.498889
v 0.22548534 0 11.2617064
v 0.479001999 0 11.256299
v 0.489129335 0 11.4942818
v 0.230252787 0 11.4997931
v 0.716499388 0 11.2411566
v 0.969539762 0 11.2246876
v 0.99003762 0 11.4620028
v 0.731648326 0 11.478816
v 1.20614946 0 11.1992006
v 1.45822966 0 11.1717291
v 1.48906052 0 11.4079151
v 1.23164952 0 11.4359655
v 1.69350064 0 11.1359301
v 1.94414794 0 11.0974827
v 1.98524833 0 11.3320923
v 1.72930706 0 11.3713741
v 2.17763352 0 11.051466
v 2.42636061 0 11.0021143
v 2.47765875 0 11.2347145
v 2.22367501 0 11.2851105
v 2.65762091 0 10.9459457
v 2.90395617 0 10.8858004
v 2.9653511 0 11.1159563
v 2.71380663 0 11.1773739
v 3.13254762 0 10.8196173
v 3.37602067 0 10.7487631
v 3.44739914 0 10.9760284
v 3.19877338 0 11.0483551
v 3.60151005 0 10.6726704
v 3.84166718 0 10.5912962
v 3.92288589 0 10.8152084
v 3.67765379 0 10.8983107
v 4.06361818 0 10.505414
v 4.29999828 0 10.4136276
v 4.39090681 0 10.6338034
v 4.1495285 0 10.7275209
v 4.51798868 0 10.3181715
v 4.75013971 0 10.216157
v 4.85056639 0 10.432148
v 4.61350822 0 10.5363245
v 4.96376133 0 10.1112804
v 5.19123936 0 9.99924088
v 5.3009901 0 10.2106428
v 5.06870747 0 10.3250332
v 5.40008354 0 9.88512897
v 5.62246132 0 9.76327705
v 5.7413311 0 9.969697
v 5.51425028 0 10.0941296
v 5.82613039 0 9.64018059
v 6.04297304 0 9.50873852
v 6.17073536 0 9.70977402
v 5.94930029 0 9.84399128
v 6.24108505 0 9.37687206
v 6.4519906 0 9.2361002
v 6.58839989 0 9.43136787
v 6.37302732 0 9.57511425
v 6.64414787 0 9.09571838
v 6.84872532 0 8.94588089
v 6.99351978 0 9.13500786
v 6.78462029 0 9.28801537
v 7.03458643 0 8.79724407
v 7.23241329 0 8.63862133
v 7.38532925 0 8.82126808
v 7.18330574 0 8.98323345
v 7.41161776 0 8.4820261
v 7.60234833 0 8.31493378
v 7.76307106 0 8.49072647
v 7.56830788 0 8.66135693
v 7.7745409 0 8.15066051
v 7.95780993 0 7.97540379
v 8.12605 0 8.14401817
v 7.93891239 0 8.32297802
v 8.12267971 0 7.80378151
v 8.29811478 0 7.62070894
v 8.47354794 0 7.78181744
v 8.29439259 0 7.96877003
v 8.45533562 0 7.44205379
v 8.6226263 0 7.25149107
v 8.8049221 0 7.4048028
v 8.63409042 0 7.59939337
v 8.77190018 0 7.0661459
v 8.93071365 0 6.86846828
v 9.11953449 0 7.01368093
v 8.9573555 0 7.21554232
v 9.07178593 0 6.6767931
v 9.2781086 0 6.51189518
v 9.41678905 0 6.60922289
v 9.2635746 0 6.81796026
v 9.35438251 0 6.27474403
v 9.49536705 0 6.0639739
v 9.69611835 0 6.19218063
v 9.55214787 0 6.40739679
v 9.61918449 0 5.86073637
v 9.75083065 0 5.64402151
v 9.95698929 0 5.76334095
v 9.82254124 0 5.98464108
v 9.86566067 0 5.43557405
v 9.98774529 0 5.21332645
v 10.198904 0 5.32353497
v 10.0742388 0 5.55049324
v 10.0933809 0 5.000072
v 10.2056408 0 4.77270222
v 10.4214106 0 4.87360525
v 10.3067579 0 5.10577822
v 10.3018579 0 4.5550437
v 10.4041014 0 4.32299328
v 10.6240797 0 4.41438961
v 10.5196743 0 4.6513443
v 10.4907465 0 4.10134935
v 10.5827656 0 3.86506033
v 10.8065166 0 3.94677448
v 10.7125483 0 4.18805456
v 10.6596584 0 3.63984585
v 10.7413006 0 3.39976645
v 10.9683704 0 3.47164536
v 10.8850183 0 3.71679592
v 10.8082857 0 3.1714139
v 10.8793592 0 2.92800164
v 11.1093721 0 2.98990679
v 11.0367918 0 3.23845935
v 11.0030956 0 2.71340299
v 11.0638599 0 2.46562529
v 11.2292242 0 2.50247574
v 11.1675377 0 2.75396109
v 11.0435658 0 2.21733904
v 11.0931568 0 1.96866417
v 11.3276844 0 2.01028299
v 11.2770452 0 2.26421618
v 11.1297827 0 1.73351395
v 11.1684704 0 1.48291147
v 11.4045935 0 1.51426184
v 11.3650703 0 1.77016366
v 11.1947908 0 1.24639046
v 11.2225161 0 0.994338274
v 11.4598007 0 1.01535976
v 11.4314747 0 1.27274227
v 11.2384987 0 0.756895304
v 11.2552071 0 0.503872335
v 11.4931726 0 0.51452446
v 11.4761086 0 0.772896171
v 11.2608347 0 0.265958011
v 11.2664795 0 0.0124470647
v 11.504674 0 0.0127096912
v 11.498889 0 0.271580398
v 11.2617064 0 -0.225485221
v 11.256299 0 -0.47900179
v 11.4942818 0 -0.489129245
v 11.4997931 0 -0.230252773
v 11.2411566 0 -0.71649915
v 11.2246876 0 -0.969539702
v 11.4620028 0 -0.99003762
v 11.478816 0 -0.731648326
v 11.1992006 0 -1.20614946
v 11.1717281 0 -1.45822978
v 11.4079151 0 -1.48906052
v 11.4359665 0 -1.23164952
v 11.1359301 0 -1.69350064
v 11.0974827 0 -1.94414794
v 11.3320923 0 -1.98524821
v 11.3713665 0 -1.72930706
v 11.051466 0 -2.17763305
v 11.0021162 0 -2.42636061
v 11.2347145 0 -2.47765827
v 11.2851105 0 -2.22367454
v 10.9459457 0 -2.65762043
v 10.8858004 0 -2.90395617
v 11.1159563 0 -2.9653511
v 11.1773739 0 -2.71380639
v 10.8196173 0 -3.13254762
v 10.7487621 0 -3.37602019
v 10.9760284 0 -3.44739962
v 11.048357 0 -3.19877362
v 10.6726704 0 -3.60151005
v 10.5912962 0 -3.84166718
v 10.8152084 0 -3.92288589
v 10.8983107 0 -3.67765379
v 10.505414 0 -4.06361818
v 10.4136276 0 -4.29999828
v 10.6338034 0 -4.39090681
v 10.7275219 0 -4.1495285
v 10.3181763 0 -4.51798773
v 10.2161541 0 -4.75013924
v 10.432148 0 -4.85056639
v 10.5363245 0 -4.61350822
v 10.1112804 0 -4.96376133
v 9.99924088 0 -5.19123936
v 10.2106428 0 -5.30099058
v 10.3250332 0 -5.06870747
v 9.88512897 0 -5.40008307
v 9.76327705 0 -5.6224637
v 9.969697 0 -5.7413311
v 10.0941296 0 -5.51425028
v 9.64018059 0 -5.82613039
v 9.50873852 0 -6.04297209
v 9.70977402 0 -6.17073536
v 9.84399128 0 -5.94930029
v 9.37687206 0 -6.24108505
v 9.29247761 0 -6.49137735
v 9.43136787 0 -6.58839989
v 9.57511425 0 -6.37302589
v 9.09571838 0 -6.64414787
v 8.94588089 0 -6.84872532
v 9.13500881 0 -6.99351978
v 9.28801537 0 -6.78462029
v 8.79724407 0 -7.03458643
v 8.63862133 0 -7.23241329
v 8.82126808 0 -7.38532925
v 8.98323345 0 -7.18330574
v 8.4820261 0 -7.41161776
v 8.31493568 0 -7.60234928
v 8.49072647 0 -7.76307106
v 8.66135693 0 -7.5683074
v 8.15066051 0 -7.7745409
v 7.97540379 0 -7.95780993
v 8.14401817 0 -8.1260519
v 8.32297802 0 -7.93891096
v 7.80378151 0 -8.12267494
v 7.62070894 0 -8.29811478
v 7.78181744 0 -8.47354794
v 7.96877003 0 -8.29439163
v 7.44205379 0 -8.45533562
v 7.25149155 0 -8.6226263
v 7.4048028 0 -8.80492115
v 7.59939337 0 -8.63409042
v 7.06614685 0 -8.77190018
v 6.86846828 0 -8.93071365
v 7.01368093 0 -9.11953449
v 7.21554232 0 -8.9573555
v 6.67679501 0 -9.07178593
v 6.47238636 0 -9.22182655
v 6.60922289 0 -9.41678905
v 6.81796026 0 -9.2635746
v 6.27474833 0 -9.35438251
v 6.0639739 0 -9.49536705
v 6.19218111 0 -9.69611835
v 6.40739679 0 -9.55214787
v 5.86073637 0 -9.61918449
v 5.64402151 0 -9.75083065
v 5.76333857 0 -9.95698929
v 5.98464441 0 -9.82254124
v 5.43557405 0 -9.86565876
v 5.21332502 0 -9.98774529
v 5.32353497 0 -10.198904
v 5.55049372 0 -10.0742388
v 5.00007248 0 -10.0933819
v 4.77270222 0 -10.2056408
v 4.87360525 0 -10.4214106
v 5.10577822 0 -10.3067579
v 4.55504417 0 -10.3018579
v 4.32299328 0 -10.4041014
v 4.41439009 0 -10.6240797
v 4.6513443 0 -10.5196743
v 4.10134888 0 -10.4907465
v 3.86506104 0 -10.5827656
v 3.94677448 0 -10.8065166
v 4.18805504 0 -10.7125483
v 3.63984632 0 -10.6596584
v 3.39976621 0 -10.7413006
v 3.47164607 0 -10.9683704
v 3.71679592 0 -10.8850183
v 3.17141414 0 -10.8082848
v 2.92800164 0 -10.8793592
v 2.98990679 0 -11.1093721
v 3.23845935 0 -11.0367918
v 2.69693923 0 -10.9363327
v 2.45066643 0 -10.9967175
v 2.50247622 0 -11.2292242
v 2.75396109 0 -11.1675377
v 2.21733904 0 -11.0435658
v 1.96866417 0 -11.0931568
v 2.01028323 0 -11.3276844
v 2.26421666 0 -11.2770452
v 1.73351395 0 -11.1297808
v 1.48291147 0 -11.1684704
v 1.5142622 0 -11.4045935
v 1.77016366 0 -11.3650703
v 1.24639034 0 -11.1947908
v 0.994338214 0 -11.2225161
v 1.01535976 0 -11.4598007
v 1.27274239 0 -11.4314747
v 0.756895185 0 -11.2384987
v 0.503872335 0 -11.2552071
v 0.51452446 0 -11.4931726
v 0.772896767 0 -11.4761086
v 0.265958041 0 -11.2608347
v 0.0124471122 0 -11.2664795
v 0.0127097415 0 -11.504673
v 0.271580487 0 -11.498889
v -0.225485161 0 -11.2617064
v -0.47900179 0 -11.256299
v -0.489128977 0 -11.4942818
v -0.230252758 0 -11.4997931
v -0.71649909 0 -11.2411566
v -0.969539225 0 -11.2246876
v -0.99003762 0 -11.4620028
v -0.731648326 0 -11.478816
v -1.20614958 0 -11.1992006
v -1.45822978 0 -11.1717291
v -1.48906052 0 -11.4079151
v -1.23164952 0 -11.4359655
v -1.69350064 0 -11.1359301
v -1.94414759 0 -11.0974827
v -1.98524833 0 -11.3320923
v -1.72930706 0 -11.3713741
v -2.65762091 0 -10.9459457
v -2.90395617 0 -10.8858004
v -2.96535158 0 -11.1159563
v -2.71380639 0 -11.1773739
v -3.13254762 0 -10.8196173
v -3.37601948 0 -10.7487631
v -3.44739962 0 -10.9760284
v -3.19877362 0 -11.0483551
v -2.17763281 0 -11.051466
v -2.42635989 0 -11.0021143
v -2.47765875 0 -11.2347145
v -2.22367382 0 -11.2851105
v -3.60151005 0 -10.6726704
v -3.84166741 0 -10.5912962
v -3.92288589 0 -10.8152084
v -3.67765331 0 -10.8983107
v -4.06361723 0 -10.505414
v -4.29999828 0 -10.4136276
v -4.39090633 0 -10.6338034
v -4.1495285 0 -10.7275209
v -4.51798773 0 -10.3181715
v -4.75013828 0 -10.216157
v -4.85056639 0 -10.432148
v -4.61350775 0 -10.5363245
v -4.96376038 0 -10.1112804
v -5.19123936 0 -9.99924088
v -5.3009901 0 -10.2106428
v -5.06870747 0 -10.3250332
v -5.40008307 0 -9.88512897
v -5.62246037 0 -9.76327705
v -5.7413311 0 -9.969697
v -5.5142498 0 -10.0941296
v -5.82613039 0 -9.64018059
v -6.04297209 0 -9.50873852
v -6.17073488 0 -9.70977402
v -5.94930029 0 -9.84399128
v -6.24108505 0 -9.37687206
v -6.45198965 0 -9.2361002
v -6.58839989 0 -9.43136787
v -6.37302589 0 -9.57511425
v -6.64414787 0 -9.09571838
v -6.84872437 0 -8.94588089
v -6.99351978 0 -9.13500786
v -6.78461981 0 -9.28801537
v -7.03458643 0 -8.79724407
v -7.23241186 0 -8.63862133
v -7.38532925 0 -8.82126808
v -7.18330574 0 -8.98323345
v -7.41161728 0 -8.4820261
v -7.60234785 0 -8.31493378
v -7.76307106 0 -8.49072647
v -7.5683074 0 -8.66135693
v -7.77453947 0 -8.15066051
v -7.95780993 0 -7.97540379
v -8.12604809 0 -8.14401817
v -7.93891096 0 -8.32297802
v -8.1226778 0 -7.80378151
v -8.29811382 0 -7.62070894
v -8.47354794 0 -7.78181744
v -8.29439163 0 -7.96877003
v -8.45533562 0 -7.44205379
v -8.62262535 0 -7.25149107
v -8.80492115 0 -7.4048028
v -8.63408947 0 -7.59939337
v -8.77190018 0 -7.0661459
v -8.93071365 0 -6.86846828
v -9.11953354 0 -7.01368093
v -8.9573555 0 -7.21554232
v -9.07178593 0 -6.6767931
v -9.22182655 0 -6.47238588
v -9.41678905 0 -6.60922289
v -9.2635746 0 -6.81796026
v -9.35438251 0 -6.27474403
v -9.49536705 0 -6.0639739
v -9.69611835 0 -6.19218063
v -9.55214787 0 -6.40739679
v -9.61918449 0 -5.86073637
v -9.75083065 0 -5.64402151
v -9.95698929 0 -5.76334095
v -9.82254124 0 -5.98464108
v -9.86565876 0 -5.43557405
v -9.98774529 0 -5.21332645
v -10.198904 0 -5.32353497
v -10.0742388 0 -5.55049324
v -10.09338 0 -5.000072
v -10.2056408 0 -4.77270222
v -10.4214106 0 -4.87360525
v -10.3067579 0 -5.10577822
v -10.3018579 0 -4.5550437
v -10.4041042 0 -4.32299328
v -10.6240797 0 -4.41438961
v -10.5196743 0 -4.6513443
v -10.4907455 0 -4.10134935
v -10.5827656 0 -3.86506033
v -10.8065166 0 -3.94677448
v -10.7125473 0 -4.18805456
v -10.6596556 0 -3.63984585
v -10.7413006 0 -3.39976645
v -10.9683704 0 -3.47164536
v -10.8850183 0 -3.71679592
v -10.8082848 0 -3.1714139
v -10.8793573 0 -2.92800164
v -11.1093721 0 -2.98990679
v -11.0367918 0 -3.23845935
v -10.9363327 0 -2.69693923
v -10.9967175 0 -2.45066667
v -11.2292242 0 -2.50247574
v -11.1675377 0 -2.75396109
v -11.0435658 0 -2.21733904
v -11.0931568 0 -1.96866417
v -11.3276844 0 -2.01028299
v -11.2770452 0 -2.26421618
v -11.1297808 0 -1.73351395
v -11.1684704 0 -1.48291147
v -11.4045935 0 -1.51426184
v -11.3650703 0 -1.77016366
v -11.1947899 0 -1.24639046
v -11.2225218 0 -0.994338274
v -11.4598007 0 -1.01535976
v -11.4314747 0 -1.27274227
v -11.2384987 0 -0.756895304
v -11.2552071 0 -0.503872335
v -11.4931726 0 -0.51452446
v -11.4761086 0 -0.772896171
v -11.2608347 0 -0.265958011
v -11.2664795 0 -0.0124470647
v -11.504673 0 -0.0127096912
v -11.4988899 0 -0.271580398
v -11.2617064 0 0.225485221
v -11.256299 0 0.47900179
v -11.4942808 0 0.489129245
v -11.4997931 0 0.230252773
v -11.2411566 0 0.71649915
v -11.2246876 0 0.969539702
v -11.4620028 0 0.99003762
v -11.478816 0 0.731648326
v -11.1992006 0 1.20614946
v -11.1717272 0 1.45822978
v -11.4079151 0 1.48906052
v -11.4359655 0 1.23164952
v -11.1359301 0 1.69350064
v -11.0974827 0 1.94414794
v -11.3320923 0 1.98524821
v -11.3713655 0 1.72930706
v -11.051466 0 2.17763305
v -11.0021143 0 2.42636061
v -11.2347145 0 2.47765827
v -11.2851095 0 2.22367454
v -10.9459457 0 2.65762043
v -10.8857994 0 2.90395617
v -11.1159563 0 2.9653511
v -11.1773739 0 2.71380639
v -10.8196173 0 3.13254762
v -10.7487631 0 3.37602019
v -10.9760284 0 3.44739962
v -11.0483494 0 3.19877362
v -10.6726685 0 3.60151005
v -10.5912962 0 3.84166718
v -10.8152084 0 3.92288589
v -10.8983107 0 3.67765379
v -10.505414 0 4.06361818
v -10.4136267 0 4.29999828
v -10.6338034 0 4.39090681
v -10.7275209 0 4.1495285
v -10.1112804 0 4.96376133
v -9.99924088 0 5.19123936
v -10.2106428 0 5.30099058
v -10.3250332 0 5.06870747
v -9.88512897 0 5.40008307
v -9.76327705 0 5.6224637
v -9.969697 0 5.7413311
v -10.0941296 0 5.51425028
v -9.64018059 0 5.82613039
v -9.56678295 0 6.07986021
v -9.70977402 0 6.17073536
v -9.84399128 0 5.94930029
v -10.3181744 0 4.51798773
v -10.2161531 0 4.75013924
v -10.432148 0 4.85056639
v -10.5363245 0 4.61350822
v -8.79724312 0 7.03458643
v -8.63862038 0 7.23241329
v -8.82126713 0 7.38532925
v -8.9832325 0 7.18330574
v -8.4820261 0 7.41161776
v -8.31493473 0 7.60234928
v -8.49072647 0 7.76307106
v -8.66135597 0 7.5683074
v -8.15066051 0 7.7745409
v -7.97540379 0 7.95780993
v -8.14401817 0 8.1260519
v -8.32297802 0 7.93891096
v -9.37687206 0 6.24108505
v -9.2361002 0 6.45199251
v -9.43136787 0 6.58839989
v -9.57511425 0 6.37302589
v -9.15123749 0 6.68471193
v -8.94588089 0 6.84872532
v -9.13500786 0 6.99351978
v -9.28801537 0 6.78462029
v -7.80378056 0 8.12267494
v -7.62070894 0 8.29811478
v -7.78181601 0 8.47354794
v -7.9687686 0 8.29439163
v -7.44205379 0 8.45533562
v -7.25149107 0 8.6226263
v -7.4048028 0 8.80492115
v -7.59939241 0 8.63409042
v -7.06614542 0 8.77190018
v -6.86846781 0 8.93071365
v -7.01368093 0 9.11953449
v -7.21554232 0 8.9573555
v -6.67679405 0 9.07178593
v -6.47238588 0 9.22182655
v -6.60922289 0 9.41678905
v -6.81796026 0 9.2635746
v -6.27474737 0 9.35438251
v -6.06397343 0 9.49536705
v -6.19218063 0 9.69611835
v -6.40739679 0 9.55214787
v -5.43557358 0 9.86565876
v -5.21332645 0 9.98774529
v -5.32353497 0 10.198904
v -5.55049324 0 10.0742388
v -5.000072 0 10.0933819
v -4.77270222 0 10.2056408
v -4.87360477 0 10.4214106
v -5.10577822 0 10.3067579
v -5.86073589 0 9.61918449
v -5.64402151 0 9.75083065
v -5.76333714 0 9.95698929
v -5.98464346 0 9.82254124
v -4.55504274 0 10.3018579
v -4.32299328 0 10.4041014
v -4.41438961 0 10.6240797
v -4.6513443 0 10.5196743
v -4.10134935 0 10.4907465
v -3.86506104 0 10.5827656
v -3.94677424 0 10.8065166
v -4.18805456 0 10.7125483
v -3.17141342 0 10.8082848
v -2.92800164 0 10.8793592
v -2.98990679 0 11.1093721
v -3.23845887 0 11.0367918
v -2.69693899 0 10.9363327
v -2.45066667 0 10.9967175
v -2.50247574 0 11.2292242
v -2.75396109 0 11.1675377
v -3.63984513 0 10.6596584
v -3.39976645 0 10.7413006
v -3.47164512 0 10.9683704
v -3.71679568 0 10.8850183
vt 0.498046875 0.566650391
vt 0.5 0.566650391
vt 0.5 0.572998047
vt 0.498046875 0.572753906
vt 0.498046875 0.566650391
vt 0.5 0.566650391
vt 0.5 0.572998047
vt 0.498046875 0.572753906
vt 0.498046875 0.566650391
vt 0.5 0.566650391
vt 0.5 0.572998047
vt 0.498046875 0.572753906
vt 0.498046875 0.566650391
vt 0.5 0.566650391
vt 0.5 0.572998047
vt 0.498046875 0.572753906
vt 0.498046875 0.566650391
vt 0.5 0.566650391
vt 0.5 0.572998047
vt 0.498046875 0.572753906
vt 0.498046875 0.566650391
vt 0.5 0.566650391
vt 0.5 0.572998047
vt 0.498046875 0.572753906
vt 0.498046875 0.566650391
vt 0.5 0.566650391
vt 0.5 0.572998047
vt 0.498046875 0.572753906
vt 0.498046875 0.566650391
vt 0.5 0.566650391
vt 0.5 0.572998047
vt 0.498046875 0.572753906
vt 0.498046875 0.566650391
vt 0.5 0.566650391
vt 0.5 0.572998047
vt 0.498046875 0.572753906
vt 0.498046875 0.566650391
vt 0.5 0.566650391
vt 0.5 0.572998047
vt 0.498046875 0.572753906
vt 0.498046875 0.566650391
vt 0.5 0.566650391
vt 0.5 0.572998047
vt 0.498046875 0.572753906
vt 0.498046875 0.566650391
vt 0.5 0.566650391
vt 0.5 0.572998047
vt 0.498046875 0.572753906
vt 0.498046875 0.566650391
vt 0.5 0.566650391
vt 0.5 0.572998047
vt 0.498046875 0.572753906
vt 0.498046875 0.566650391
vt 0.5 0.566650391
vt 0.5 0.572998047
vt 0.498046875 0.572753906
vt 0.498046875 0.566650391
vt 0.5 0.566650391
vt 0.5 0.572998047
vt 0.498046875 0.572753906
vt 0.498046875 0.566650391
vt 0.5 0.566650391
vt 0.5 0.572998047
vt 0.498046875 0.572753906
vt 0.498046875 0.566650391
vt 0.5 0.566650391
vt 0.5 0.572998047
vt 0.498046875 0.572753906
vt 0.498046875 0.566650391
vt 0.5 0.566650391
vt 0.5 0.572998047
vt 0.498046875 0.572753906
vt 0.498046875 0.566650391
vt 0.5 0.566650391
vt 0.5 0.572998047
vt 0.498046875 0.572753906
vt 0.498046875 0.566650391
vt 0.5 0.566650391
vt 0.5 0.572998047
vt 0.498046875 0.572753906
vt 0.498046875 0.566650391
vt 0.5 0.566650391
vt 0.5 0.572998047
vt 0.498046875 0.572753906
vt 0.498046875 0.566650391
vt 0.5 0.566650391
vt 0.5 0.572998047
vt 0.498046875 0.572753906
vt 0.498046875 0.566650391
vt 0.5 0.566650391
vt 0.5 0.572998047
vt 0.498046875 0.572753906
vt 0.498046875 0.566650391
vt 0.5 0.566650391
vt 0.5 0.572998047
vt 0.498046875 0.572753906
vt 0.498046875 0.566650391
vt 0.5 0.566650391
vt 0.5 0.572998047
vt 0.498046875 0.572753906
vt 0.498046875 0.566650391
vt 0.5 0.566650391
vt 0.5 0.572998047
vt 0.498046875 0.572753906
vt 0.498046875 0.566650391
vt 0.5 0.568359375
vt 0.5 0.572998047
vt 0.498046875 0.572753906
vt 0.498046875 0.566650391
vt 0.5 0.566650391
vt 0.5 0.572998047
vt 0.498046875 0.572753906
vt 0.498046875 0.566650391
vt 0.5 0.566650391
vt 0.5 0.572998047
vt 0.498046875 0.572753906
vt 0.498046875 0.566650391
vt 0.5 0.566650391
vt 0.5 0.572998047
vt 0.498046875 0.572753906
vt 0.498046875 0.566650391
vt 0.5 0.566650391
vt 0.5 0.572998047
vt 0.498046875 0.572753906
vt 0.498046875 0.566650391
vt 0.5 0.566650391
vt 0.5 0.572998047
vt 0.498046875 0.572753906
vt 0.498046875 0.566650391
vt 0.5 0.566650391
vt 0.5 0.572998047
vt 0.498046875 0.572753906
vt 0.498046875 0.566650391
vt 0.5 0.566650391
vt 0.5 0.572998047
vt 0.498046875 0.572753906
vt 0.498046875 0.566650391
vt 0.5 0.566650391
vt 0.5 0.572998047
vt 0.498046875 0.572753906
vt 0.498046875 0.568359375
vt 0.5 0.568359375
vt 0.5 0.572998047
vt 0.498046875 0.572753906
vt 0.498046875 0.566650391
vt 0.5 0.566650391
vt 0.5 0.572998047
vt 0.498046875 0.572753906
vt 0.498046875 0.566650391
vt 0.5 0.566650391
vt 0.5 0.572998047
vt 0.498046875 0.572753906
vt 0.498046875 0.566650391
vt 0.5 0.566650391
vt 0.5 0.572998047
vt 0.498046875 0.572753906
vt 0.498046875 0.566650391
vt 0.5 0.566650391
vt 0.5 0.572998047
vt 0.498046875 0.572753906
vt 0.498046875 0.566650391
vt 0.5 0.566650391
vt 0.5 0.572998047
vt 0.498046875 0.572753906
vt 0.498046875 0.566650391
vt 0.5 0.566650391
vt 0.5 0.572998047
vt 0.498046875 0.572753906
vt 0.498046875 0.566650391
vt 0.5 0.566650391
vt 0.5 0.572998047
vt 0.498046875 0.572753906
vt 0.498046875 0.566650391
vt 0.5 0.566650391
vt 0.5 0.572998047
vt 0.498046875 0.572753906
vt 0.498046875 0.566650391
vt 0.5 0.566650391
vt 0.5 0.572998047
vt 0.498046875 0.572753906
vt 0.498046875 0.566650391
vt 0.5 0.566650391
vt 0.5 0.572998047
vt 0.498046875 0.572753906
vt 0.498046875 0.566650391
vt 0.5 0.566650391
vt 0.5 0.572998047
vt 0.498046875 0.572753906
vt 0.498046875 0.566650391
vt 0.5 0.566650391
vt 0.5 0.572998047
vt 0.498046875 0.572753906
vt 0.498046875 0.566650391
vt 0.5 0.566650391
vt 0.5 0.572998047
vt 0.498046875 0.572753906
vt 0.498046875 0.566650391
vt 0.5 0.566650391
vt 0.5 0.572998047
vt 0.498046875 0.572753906
vt 0.498046875 0.566650391
vt 0.5 0.566650391
vt 0.5 0.572998047
vt 0.498046875 0.572753906
vt 0.498046875 0.566650391
vt 0.5 0.566650391
vt 0.5 0.572998047
vt 0.498046875 0.572753906
vt 0.498046875 0.566650391
vt 0.5 0.566650391
vt 0.5 0.572998047
vt 0.498046875 0.572753906
vt 0.498046875 0.566650391
vt 0.5 0.566650391
vt 0.5 0.572998047
vt 0.498046875 0.572753906
vt 0.498046875 0.566650391
vt 0.5 0.568359375
vt 0.5 0.572998047
vt 0.498046875 0.572753906
vt 0.498046875 0.566650391
vt 0.5 0.566650391
vt 0.5 0.572998047
vt 0.498046875 0.572753906
vt 0.498046875 0.566650391
vt 0.5 0.566650391
vt 0.5 0.572998047
vt 0.498046875 0.572753906
vt 0.498046875 0.566650391
vt 0.5 0.566650391
vt 0.5 0.572998047
vt 0.498046875 0.572753906
vt 0.498046875 0.566650391
vt 0.5 0.566650391
vt 0.5 0.572998047
vt 0.498046875 0.572753906
vt 0.498046875 0.566650391
vt 0.5 0.566650391
vt 0.5 0.572998047
vt 0.498046875 0.572753906
vt 0.498046875 0.566650391
vt 0.5 0.566650391
vt 0.5 0.572998047
vt 0.498046875 0.572753906
vt 0.498046875 0.566650391
vt 0.5 0.566650391
vt 0.5 0.572998047
vt 0.498046875 0.572753906
vt 0.498046875 0.566650391
vt 0.5 0.566650391
vt 0.5 0.572998047
vt 0.498046875 0.572753906
vt 0.498046875 0.566650391
vt 0.5 0.566650391
vt 0.5 0.572998047
vt 0.498046875 0.572753906
vt 0.498046875 0.566650391
vt 0.5 0.566650391
vt 0.5 0.572998047
vt 0.498046875 0.572753906
vt 0.498046875 0.566650391
vt 0.5 0.566650391
vt 0.5 0.572998047
vt 0.498046875 0.572753906
vt 0.498046875 0.566650391
vt 0.5 0.566650391
vt 0.5 0.572998047
vt 0.498046875 0.572753906
vt 0.498046875 0.566650391
vt 0.5 0.566650391
vt 0.5 0.572998047
vt 0.498046875 0.572753906
vt 0.498046875 0.566650391
vt 0.5 0.566650391
vt 0.5 0.572998047
vt 0.498046875 0.572753906
vt 0.498046875 0.566650391
vt 0.5 0.566650391
vt 0.5 0.572998047
vt 0.498046875 0.572753906
vt 0.498046875 0.566650391
vt 0.5 0.566650391
vt 0.5 0.572998047
vt 0.498046875 0.572753906
vt 0.498046875 0.566650391
vt 0.5 0.566650391
vt 0.5 0.572998047
vt 0.498046875 0.572753906
vt 0.498046875 0.566650391
vt 0.5 0.566650391
vt 0.5 0.572998047
vt 0.498046875 0.572753906
vt 0.498046875 0.566650391
vt 0.5 0.566650391
vt 0.5 0.572998047
vt 0.498046875 0.572753906
vt 0.498046875 0.566650391
vt 0.5 0.566650391
vt 0.5 0.572998047
vt 0.498046875 0.572753906
vt 0.498046875 0.566650391
vt 0.5 0.566650391
vt 0.5 0.572998047
vt 0.498046875 0.572753906
vt 0.498046875 0.566650391
vt 0.5 0.566650391
vt 0.5 0.572998047
vt 0.498046875 0.572753906
vt 0.498046875 0.566650391
vt 0.5 0.566650391
vt 0.5 0.572998047
vt 0.498046875 0.572753906
vt 0.498046875 0.566650391
vt 0.5 0.566650391
vt 0.5 0.572998047
vt 0.498046875 0.572753906
vt 0.498046875 0.566650391
vt 0.5 0.566650391
vt 0.5 0.572998047
vt 0.498046875 0.572753906
vt 0.498046875 0.566650391
vt 0.5 0.566650391
vt 0.5 0.572998047
vt 0.498046875 0.572753906
vt 0.498046875 0.566650391
vt 0.5 0.566650391
vt 0.5 0.572998047
vt 0.498046875 0.572753906
vt 0.498046875 0.566650391
vt 0.5 0.566650391
vt 0.5 0.572998047
vt 0.498046875 0.572753906
vt 0.498046875 0.566650391
vt 0.5 0.566650391
vt 0.5 0.572998047
vt 0.498046875 0.572753906
vt 0.498046875 0.566650391
vt 0.5 0.566650391
vt 0.5 0.572998047
vt 0.498046875 0.572753906
vt 0.498046875 0.566650391
vt 0.5 0.566650391
vt 0.5 0.572998047
vt 0.498046875 0.572753906
vt 0.498046875 0.566650391
vt 0.5 0.566650391
vt 0.5 0.572998047
vt 0.498046875 0.572753906
vt 0.498046875 0.566650391
vt 0.5 0.566650391
vt 0.5 0.572998047
vt 0.498046875 0.572753906
vt 0.498046875 0.566650391
vt 0.5 0.566650391
vt 0.5 0.572998047
vt 0.498046875 0.572753906
vt 0.498046875 0.566650391
vt 0.5 0.566650391
vt 0.5 0.572998047
vt 0.498046875 0.572753906
vt 0.498046875 0.566650391
vt 0.5 0.566650391
vt 0.5 0.572998047
vt 0.498046875 0.572753906
vt 0.498046875 0.566650391
vt 0.5 0.566650391
vt 0.5 0.572998047
vt 0.498046875 0.572753906
vt 0.498046875 0.566650391
vt 0.5 0.566650391
vt 0.5 0.572998047
vt 0.498046875 0.572753906
vt 0.498046875 0.566650391
vt 0.5 0.566650391
vt 0.5 0.572998047
vt 0.498046875 0.572753906
vt 0.498046875 0.566650391
vt 0.5 0.566650391
vt 0.5 0.572998047
vt 0.498046875 0.572753906
vt 0.498046875 0.566650391
vt 0.5 0.566650391
vt 0.5 0.572998047
vt 0.498046875 0.572753906
vt 0.498046875 0.566650391
vt 0.5 0.566650391
vt 0.5 0.572998047
vt 0.498046875 0.572753906
vt 0.498046875 0.566650391
vt 0.5 0.566650391
vt 0.5 0.572998047
vt 0.498046875 0.572753906
vt 0.498046875 0.566650391
vt 0.5 0.566650391
vt 0.5 0.572998047
vt 0.498046875 0.572753906
vt 0.498046875 0.566650391
vt 0.5 0.566650391
vt 0.5 0.572998047
vt 0.498046875 0.572753906
vt 0.498046875 0.566650391
vt 0.5 0.566650391
vt 0.5 0.572998047
vt 0.498046875 0.572753906
vt 0.498046875 0.566650391
vt 0.5 0.566650391
vt 0.5 0.572998047
vt 0.498046875 0.572753906
vt 0.498046875 0.566650391
vt 0.5 0.566650391
vt 0.5 0.572998047
vt 0.498046875 0.572753906
vt 0.498046875 0.566650391
vt 0.5 0.566650391
vt 0.5 0.572998047
vt 0.498046875 0.572753906
vt 0.498046875 0.566650391
vt 0.5 0.566650391
vt 0.5 0.572998047
vt 0.498046875 0.572753906
vt 0.498046875 0.566650391
vt 0.5 0.566650391
vt 0.5 0.572998047
vt 0.498046875 0.572753906
vt 0.498046875 0.566650391
vt 0.5 0.566650391
vt 0.5 0.572998047
vt 0.498046875 0.572753906
vt 0.498046875 0.566650391
vt 0.5 0.566650391
vt 0.5 0.572998047
vt 0.498046875 0.572753906
vt 0.498046875 0.566650391
vt 0.5 0.566650391
vt 0.5 0.572998047
vt 0.498046875 0.572753906
vt 0.498046875 0.566650391
vt 0.5 0.566650391
vt 0.5 0.572998047
vt 0.498046875 0.572753906
vt 0.498046875 0.566650391
vt 0.5 0.566650391
vt 0.5 0.572998047
vt 0.498046875 0.572753906
vt 0.498046875 0.566650391
vt 0.5 0.566650391
vt 0.5 0.572998047
vt 0.498046875 0.572753906
vt 0.498046875 0.566650391
vt 0.5 0.566650391
vt 0.5 0.572998047
vt 0.498046875 0.572753906
vt 0.498046875 0.566650391
vt 0.5 0.566650391
vt 0.5 0.572998047
vt 0.498046875 0.572753906
vt 0.498046875 0.566650391
vt 0.5 0.566650391
vt 0.5 0.572998047
vt 0.498046875 0.572753906
vt 0.498046875 0.566650391
vt 0.5 0.566650391
vt 0.5 0.572998047
vt 0.498046875 0.572753906
vt 0.498046875 0.566650391
vt 0.5 0.566650391
vt 0.5 0.572998047
vt 0.498046875 0.572753906
vt 0.498046875 0.566650391
vt 0.5 0.566650391
vt 0.5 0.572998047
vt 0.498046875 0.572753906
vt 0.498046875 0.566650391
vt 0.5 0.566650391
vt 0.5 0.572998047
vt 0.498046875 0.572753906
vt 0.498046875 0.566650391
vt 0.5 0.566650391
vt 0.5 0.572998047
vt 0.498046875 0.572753906
vt 0.498046875 0.566650391
vt 0.5 0.566650391
vt 0.5 0.572998047
vt 0.498046875 0.572753906
vt 0.498046875 0.566650391
vt 0.5 0.566650391
vt 0.5 0.572998047
vt 0.498046875 0.572753906
vt 0.498046875 0.566650391
vt 0.5 0.566650391
vt 0.5 0.572998047
vt 0.498046875 0.572753906
vt 0.498046875 0.566650391
vt 0.5 0.566650391
vt 0.5 0.572998047
vt 0.498046875 0.572753906
vt 0.498046875 0.566650391
vt 0.5 0.568359375
vt 0.5 0.572998047
vt 0.498046875 0.572753906
vt 0.498046875 0.566650391
vt 0.5 0.566650391
vt 0.5 0.572998047
vt 0.498046875 0.572753906
vt 0.498046875 0.566650391
vt 0.5 0.566650391
vt 0.5 0.572998047
vt 0.498046875 0.572753906
vt 0.498046875 0.566650391
vt 0.5 0.566650391
vt 0.5 0.572998047
vt 0.498046875 0.572753906
vt 0.498046875 0.566650391
vt 0.5 0.566650391
vt 0.5 0.572998047
vt 0.498046875 0.572753906
vt 0.498046875 0.566650391
vt 0.5 0.566650391
vt 0.5 0.572998047
vt 0.498046875 0.572753906
vt 0.498046875 0.568359375
vt 0.5 0.566650391
vt 0.5 0.572998047
vt 0.498046875 0.572753906
vt 0.498046875 0.566650391
vt 0.5 0.566650391
vt 0.5 0.572998047
vt 0.498046875 0.572753906
vt 0.498046875 0.566650391
vt 0.5 0.566650391
vt 0.5 0.572998047
vt 0.498046875 0.572753906
vt 0.498046875 0.566650391
vt 0.5 0.566650391
vt 0.5 0.572998047
vt 0.498046875 0.572753906
vt 0.498046875 0.566650391
vt 0.5 0.566650391
vt 0.5 0.572998047
vt 0.498046875 0.572753906
vt 0.498046875 0.566650391
vt 0.5 0.566650391
vt 0.5 0.572998047
vt 0.498046875 0.572753906
vt 0.498046875 0.566650391
vt 0.5 0.566650391
vt 0.5 0.572998047
vt 0.498046875 0.572753906
vt 0.498046875 0.566650391
vt 0.5 0.566650391
vt 0.5 0.572998047
vt 0.498046875 0.572753906
vt 0.498046875 0.566650391
vt 0.5 0.566650391
vt 0.5 0.572998047
vt 0.498046875 0.572753906
vt 0.498046875 0.566650391
vt 0.5 0.566650391
vt 0.5 0.572998047
vt 0.498046875 0.572753906
vt 0.498046875 0.566650391
vt 0.5 0.566650391
vt 0.5 0.572998047
vt 0.498046875 0.572753906
vt 0.498046875 0.566650391
vt 0.5 0.566650391
vt 0.5 0.572998047
vt 0.498046875 0.572753906
vt 0.498046875 0.566650391
vt 0.5 0.566650391
vt 0.5 0.572998047
vt 0.498046875 0.572753906
vt 0.498046875 0.566650391
vt 0.5 0.566650391
vt 0.5 0.572998047
vt 0.498046875 0.572753906
vn 0 1 -0
vn 0 1 -0
vn 0 1 -0
vn 0 1 -0
vn 0 1 -0
vn 0 1 -0
vn 0 1 -0
vn 0 1 -0
vn 0 1 -0
vn 0 1 -0
vn 0 1 -0
vn 0 1 -0
vn 0 1 -0
vn 0 1 -0
vn 0 1 -0
vn 0 1 -0
vn 0 1 -0
vn 0 1 -0
vn 0 1 -0
vn 0 1 -0
vn 0 1 -0
vn 0 1 -0
vn 0 1 -0
vn 0 1 -0
vn 0 1 -0
vn 0 1 -0
vn 0 1 -0
vn 0 1 -0
vn 0 1 -0
vn 0 1 -0
vn 0 1 -0
vn 0 1 -0
vn 0 1 -0
vn 0 1 -0
vn 0 1 -0
vn 0 1 -0
vn 0 1 -0
vn 0 1 -0
vn 0 1 -0
vn 0 1 -0
vn 0 1 -0
vn 0 1 -0
vn 0 1 -0
vn 0 1 -0
vn 0 1 -0
vn 0 1 -0
vn 0 1 -0
vn 0 1 -0
vn 0 1 -0
vn 0 1 -0
vn 0 1 -0
vn 0 1 -0
vn 0 1 -0
vn 0 1 -0
vn 0 1 -0
vn 0 1 -0
vn 0 1 -0
vn 0 1 -0
vn 0 1 -0
vn 0 1 -0
vn 0 1 -0
vn 0 1 -0
vn 0 1 -0
vn 0 1 -0
vn 0 1 -0
vn 0 1 -0
vn 0 1 -0
vn 0 1 -0
vn 0 1 -0
vn 0 1 -0
vn 0 1 -0
vn 0 1 -0
vn 0 1 -0
vn 0 1 -0
vn 0 1 -0
vn 0 1 -0
vn 0 1 -0
vn 0 1 -0
vn 0 1 -0
vn 0 1 -0
vn 0 1 -0
vn 0 1 -0
vn 0 1 -0
vn 0 1 -0
vn 0 1 -0
vn 0 1 -0
vn 0 1 -0
vn 0 1 -0
vn 0 1 -0
vn 0 1 -0
vn 0 1 -0
vn 0 1 -0
vn 0 1 -0
vn 0 1 -0
vn 0 1 -0
vn 0 1 -0
vn 0 1 -0
vn 0 1 -0
vn 0 1 -0
vn 0 1 -0
vn 0 1 -0
vn 0 1 -0
vn 0 1 -0
vn 0 1 -0
vn 0 1 -0
vn 0 1 -0
vn 0 1 -0
vn 0 1 -0
vn 0 1 -0
vn 0 1 -0
vn 0 1 -0
vn 0 1 -0
vn 0 1 -0
vn 0 1 -0
vn 0 1 -0
vn 0 1 -0
vn 0 1 -0
vn 0 1 -0
vn 0 1 -0
vn 0 1 -0
vn 0 1 -0
vn 0 1 -0
vn 0 1 -0
vn 0 1 -0
vn 0 1 -0
vn 0 1 -0
vn 0 1 -0
vn 0 1 -0
vn 0 1 -0
vn 0 1 -0
vn 0 1 -0
vn 0 1 -0
vn 0 1 -0
vn 0 1 -0
vn 0 1 -0
vn 0 1 -0
vn 0 1 -0
vn 0 1 -0
vn 0 1 -0
vn 0 1 -0
vn 0 1 -0
vn 0 1 -0
vn 0 1 -0
vn 0 1 -0
vn 0 1 -0
vn 0 1 -0
vn 0 1 -0
vn 0 1 -0
vn 0 1 -0
vn 0 1 -0
vn 0 1 -0
vn 0 1 -0
vn 0 1 -0
vn 0 1 -0
vn 0 1 -0
vn 0 1 -0
vn 0 1 -0
vn 0 1 -0
vn 0 1 -0
vn 0 1 -0
vn 0 1 -0
vn 0 1 -0
vn 0 1 -0
vn 0 1 -0
vn 0 1 -0
vn 0 1 -0
vn 0 1 -0
vn 0 1 -0
vn 0 1 -0
vn 0 1 -0
vn 0 1 -0
vn 0 1 -0
vn 0 1 -0
vn 0 1 -0
vn 0 1 -0
vn 0 1 -0
vn 0 1 -0
vn 0 1 -0
vn 0 1 -0
vn 0 1 -0
vn 0 1 -0
vn 0 1 -0
vn 0 1 -0
vn 0 1 -0
vn 0 1 -0
vn 0 1 -0
vn 0 1 -0
vn 0 1 -0
vn 0 1 -0
vn 0 1 -0
vn 0 1 -0
vn 0 1 -0
vn 0 1 -0
vn 0 1 -0
vn 0 1 -0
vn 0 1 -0
vn 0 1 -0
vn 0 1 -0
vn 0 1 -0
vn 0 1 -0
vn 0 1 -0
vn 0 1 -0
vn 0 1 -0
vn 0 1 -0
vn 0 1 -0
vn 0 1 -0
vn 0 1 -0
vn 0 1 -0
vn 0 1 -0
vn 0 1 -0
vn 0 1 -0
vn 0 1 -0
vn 0 1 -0
vn 0 1 -0
vn 0 1 -0
vn 0 1 -0
vn 0 1 -0
vn 0 1 -0
vn 0 1 -0
vn 0 1 -0
vn 0 1 -0
vn 0 1 -0
vn 0 1 -0
vn 0 1 -0
vn 0 1 -0
vn 0 1 -0
vn 0 1 -0
vn 0 1 -0
vn 0 1 -0
vn 0 1 -0
vn 0 1 -0
vn 0 1 -0
vn 0 1 -0
vn 0 1 -0
vn 0 1 -0
vn 0 1 -0
vn 0 1 -0
vn 0 1 -0
vn 0 1 -0
vn 0 1 -0
vn 0 1 -0
vn 0 1 -0
vn 0 1 -0
vn 0 1 -0
vn 0 1 -0
vn 0 1 -0
vn 0 1 -0
vn 0 1 -0
vn 0 1 -0
vn 0 1 -0
vn 0 1 -0
vn 0 1 -0
vn 0 1 -0
vn 0 1 -0
vn 0 1 -0
vn 0 1 -0
vn 0 1 -0
vn 0 1 -0
vn 0 1 -0
vn 0 1 -0
vn 0 1 -0
vn 0 1 -0
vn 0 1 -0
vn 0 1 -0
vn 0 1 -0
vn 0 1 -0
vn 0 1 -0
vn 0 1 -0
vn 0 1 -0
vn 0 1 -0
vn 0 1 -0
vn 0 1 -0
vn 0 1 -0
vn 0 1 -0
vn 0 1 -0
vn 0 1 -0
vn 0 1 -0
vn 0 1 -0
vn 0 1 -0
vn 0 1 -0
vn 0 1 -0
vn 0 1 -0
vn 0 1 -0
vn 0 1 -0
vn 0 1 -0
vn 0 1 -0
vn 0 1 -0
vn 0 1 -0
vn 0 1 -0
vn 0 1 -0
vn 0 1 -0
vn 0 1 -0
vn 0 1 -0
vn 0 1 -0
vn 0 1 -0
vn 0 1 -0
vn 0 1 -0
vn 0 1 -0
vn 0 1 -0
vn 0 1 -0
vn 0 1 -0
vn 0 1 -0
vn 0 1 -0
vn 0 1 -0
vn 0 1 -0
vn 0 1 -0
vn 0 1 -0
vn 0 1 -0
vn 0 1 -0
vn 0 1 -0
vn 0 1 -0
vn 0 1 -0
vn 0 1 -0
vn 0 1 -0
vn 0 1 -0
vn 0 1 -0
vn 0 1 -0
vn 0 1 -0
vn 0 1 -0
vn 0 1 -0
vn 0 1 -0
vn 0 1 -0
vn 0 1 -0
vn 0 1 -0
vn 0 1 -0
vn 0 1 -0
vn 0 1 -0
vn 0 1 -0
vn 0 1 -0
vn 0 1 -0
vn 0 1 -0
vn 0 1 -0
vn 0 1 -0
vn 0 1 -0
vn 0 1 -0
vn 0 1 -0
vn 0 1 -0
vn 0 1 -0
vn 0 1 -0
vn 0 1 -0
vn 0 1 -0
vn 0 1 -0
vn 0 1 -0
vn 0 1 -0
vn 0 1 -0
vn 0 1 -0
vn 0 1 -0
vn 0 1 -0
vn 0 1 -0
vn 0 1 -0
vn 0 1 -0
vn 0 1 -0
vn 0 1 -0
vn 0 1 -0
vn 0 1 -0
vn 0 1 -0
vn 0 1 -0
vn 0 1 -0
vn 0 1 -0
vn 0 1 -0
vn 0 1 -0
vn 0 1 -0
vn 0 1 -0
vn 0 1 -0
vn 0 1 -0
vn 0 1 -0
vn 0 1 -0
vn 0 1 -0
vn 0 1 -0
vn 0 1 -0
vn 0 1 -0
vn 0 1 -0
vn 0 1 -0
vn 0 1 -0
vn 0 1 -0
vn 0 1 -0
vn 0 1 -0
vn 0 1 -0
vn 0 1 -0
vn 0 1 -0
vn 0 1 -0
vn 0 1 -0
vn 0 1 -0
vn 0 1 -0
vn 0 1 -0
vn 0 1 -0
vn 0 1 -0
vn 0 1 -0
vn 0 1 -0
vn 0 1 -0
vn 0 1 -0
vn 0 1 -0
vn 0 1 -0
vn 0 1 -0
vn 0 1 -0
vn 0 1 -0
vn 0 1 -0
vn 0 1 -0
vn 0 1 -0
vn 0 1 -0
vn 0 1 -0
vn 0 1 -0
vn 0 1 -0
vn 0 1 -0
vn 0 1 -0
vn 0 1 -0
vn 0 1 -0
vn 0 1 -0
vn 0 1 -0
vn 0 1 -0
vn 0 1 -0
vn 0 1 -0
vn 0 1 -0
vn 0 1 -0
vn 0 1 -0
vn 0 1 -0
vn 0 1 -0
vn 0 1 -0
vn 0 1 -0
vn 0 1 -0
vn 0 1 -0
vn 0 1 -0
vn 0 1 -0
vn 0 1 -0
vn 0 1 -0
vn 0 1 -0
vn 0 1 -0
vn 0 1 -0
vn 0 1 -0
vn 0 1 -0
vn 0 1 -0
vn 0 1 -0
vn 0 1 -0
vn 0 1 -0
vn 0 1 -0
vn 0 1 -0
vn 0 1 -0
vn 0 1 -0
vn 0 1 -0
vn 0 1 -0
vn 0 1 -0
vn 0 1 -0
vn 0 1 -0
vn 0 1 -0
vn 0 1 -0
vn 0 1 -0
vn 0 1 -0
vn 0 1 -0
vn 0 1 -0
vn 0 1 -0
vn 0 1 -0
vn 0 1 -0
vn 0 1 -0
vn 0 1 -0
vn 0 1 -0
vn 0 1 -0
vn 0 1 -0
vn 0 1 -0
vn 0 1 -0
vn 0 1 -0
vn 0 1 -0
vn 0 1 -0
vn 0 1 -0
vn 0 1 -0
vn 0 1 -0
vn 0 1 -0
vn 0 1 -0
vn 0 1 -0
vn 0 1 -0
vn 0 1 -0
vn 0 1 -0
vn 0 1 -0
vn 0 1 -0
vn 0 1 -0
vn 0 1 -0
vn 0 1 -0
vn 0 1 -0
vn 0 1 -0
vn 0 1 -0
vn 0 1 -0
vn 0 1 -0
vn 0 1 -0
vn 0 1 -0
vn 0 1 -0
vn 0 1 -0
vn 0 1 -0
vn 0 1 -0
vn 0 1 -0
vn 0 1 -0
vn 0 1 -0
vn 0 1 -0
vn 0 1 -0
vn 0 1 -0
vn 0 1 -0
vn 0 1 -0
vn 0 1 -0
vn 0 1 -0
vn 0 1 -0
vn 0 1 -0
vn 0 1 -0
vn 0 1 -0
vn 0 1 -0
vn 0 1 -0
vn 0 1 -0
vn 0 1 -0
vn 0 1 -0
vn 0 1 -0
vn 0 1 -0
vn 0 1 -0
vn 0 1 -0
vn 0 1 -0
vn 0 1 -0
vn 0 1 -0
vn 0 1 -0
vn 0 1 -0
vn 0 1 -0
vn 0 1 -0
vn 0 1 -0
vn 0 1 -0
vn 0 1 -0
vn 0 1 -0
vn 0 1 -0
vn 0 1 -0
vn 0 1 -0
vn 0 1 -0
vn 0 1 -0
vn 0 1 -0
vn 0 1 -0
vn 0 1 -0
vn 0 1 -0
vn 0 1 -0
vn 0 1 -0
vn 0 1 -0
vn 0 1 -0
vn 0 1 -0
vn 0 1 -0
vn 0 1 -0
vn 0 1 -0
vn 0 1 -0
vn 0 1 -0
vn 0 1 -0
vn 0 1 -0
vn 0 1 -0
vn 0 1 -0
vn 0 1 -0
vn 0 1 -0
vn 0 1 -0
vn 0 1 -0
vn 0 1 -0
vn 0 1 -0
vn 0 1 -0
vn 0 1 -0
vn 0 1 -0
vn 0 1 -0
vn 0 1 -0
vn 0 1 -0
vn 0 1 -0
vn 0 1 -0
vn 0 1 -0
vn 0 1 -0
vn 0 1 -0
vn 0 1 -0
vn 0 1 -0
vn 0 1 -0
vn 0 1 -0
vn 0 1 -0
vn 0 1 -0
vn 0 1 -0
vn 0 1 -0
vn 0 1 -0
vn 0 1 -0
vn 0 1 -0
vn 0 1 -0
vn 0 1 -0
vn 0 1 -0
vn 0 1 -0
f 1/1/1 3/3/3 2/2/2
f 1/1/1 4/4/4 3/3/3
f 5/5/5 7/7/7 6/6/6
f 5/5/5 8/8/8 7/7/7
f 9/9/9 11/11/11 10/10/10
f 9/9/9 12/12/12 11/11/11
f 13/13/13 15/15/15 14/14/14
f 13/13/13 16/16/16 15/15/15
f 17/17/17 19/19/19 18/18/18
f 17/17/17 20/20/20 19/19/19
f 21/21/21 23/23/23 22/22/22
f 21/21/21 24/24/24 23/23/23
f 25/25/25 27/27/27 26/26/26
f 25/25/25 28/28/28 27/27/27
f 29/29/29 31/31/31 30/30/30
f 29/29/29 32/32/32 31/31/31
f 33/33/33 35/35/35 34/34/34
f 33/33/33 36/36/36 35/35/35
f 37/37/37 39/39/39 38/38/38
f 37/37/37 40/40/40 39/39/39
f 41/41/41 43/43/43 42/42/42
f 41/41/41 44/44/44 43/43/43
f 45/45/45 47/47/47 46/46/46
f 45/45/45 48/48/48 47/47/47
f 49/49/49 51/51/51 50/50/50
f 49/49/49 52/52/52 51/51/51
f 53/53/53 55/55/55 54/54/54
f 53/53/53 56/56/56 55/55/55
f 57/57/57 59/59/59 58/58/58
f 57/57/57 60/60/60 59/59/59
f 61/61/61 63/63/63 62/62/62
f 61/61/61 64/64/64 63/63/63
f 65/65/65 67/67/67 66/66/66
f 65/65/65 68/68/68 67/67/67
f 69/69/69 71/71/71 70/70/70
f 69/69/69 72/72/72 71/71/71
f 73/73/73 75/75/75 74/74/74
f 73/73/73 76/76/76 75/75/75
f 77/77/77 79/79/79 78/78/78
f 77/77/77 80/80/80 79/79/79
f 81/81/81 83/83/83 82/82/82
f 81/81/81 84/84/84 83/83/83
f 85/85/85 87/87/87 86/86/86
f 85/85/85 88/88/88 87/87/87
f 89/89/89 91/91/91 90/90/90
f 89/89/89 92/92/92 91/91/91
f 93/93/93 95/95/95 94/94/94
f 93/93/93 96/96/96 95/95/95
f 97/97/97 99/99/99 98/98/98
f 97/97/97 100/100/100 99/99/99
f 101/101/101 103/103/103 102/102/102
f 101/101/101 104/104/104 103/103/103
f 105/105/105 107/107/107 106/106/106
f 105/105/105 108/108/108 107/107/107
f 109/109/109 111/111/111 110/110/110
f 109/109/109 112/112/112 111/111/111
f 113/113/113 115/115/115 114/114/114
f 113/113/113 116/116/116 115/115/115
f 117/117/117 119/119/119 118/118/118
f 117/117/117 120/120/120 119/119/119
f 121/121/121 123/123/123 122/122/122
f 121/121/121 124/124/124 123/123/123
f 125/125/125 127/127/127 126/126/126
f 125/125/125 128/128/128 127/127/127
f 129/129/129 131/131/131 130/130/130
f 129/129/129 132/132/132 131/131/131
f 133/133/133 135/135/135 134/134/134
f 133/133/133 136/136/136 135/135/135
f 137/137/137 139/139/139 138/138/138
f 137/137/137 140/140/140 139/139/139
f 141/141/141 143/143/143 142/142/142
f 141/141/141 144/144/144 143/143/143
f 145/145/145 147/147/147 146/146/146
f 145/145/145 148/148/148 147/147/147
f 149/149/149 151/151/151 150/150/150
f 149/149/149 152/152/152 151/151/151
f 153/153/153 155/155/155 154/154/154
f 153/153/153 156/156/156 155/155/155
f 157/157/157 159/159/159 158/158/158
f 157/157/157 160/160/160 159/159/159
f 161/161/161 163/163/163 162/162/162
f 161/161/161 164/164/164 163/163/163
f 165/165/165 167/167/167 166/166/166
f 165/165/165 168/168/168 167/167/167
f 169/169/169 171/171/171 170/170/170
f 169/169/169 172/172/172 171/171/171
f 173/173/173 175/175/175 174/174/174
f 173/173/173 176/176/176 175/175/175
f 177/177/177 179/179/179 178/178/178
f 177/177/177 180/180/180 179/179/179
f 181/181/181 183/183/183 182/182/182
f 181/181/181 184/184/184 183/183/183
f 185/185/185 187/187/187 186/186/186
f 185/185/185 188/188/188 187/187/187
f 189/189/189 191/191/191 190/190/190
f 189/189/189 192/192/192 191/191/191
f 193/193/193 195/195/195 194/194/194
f 193/193/193 196/196/196 195/195/195
f 197/197/197 199/199/199 198/198/198
f 197/197/197 200/200/200 199/199/199
f 201/201/201 203/203/203 202/202/202
f 201/201/201 204/204/204 203/203/203
f 205/205/205 207/207/207 206/206/206
f 205/205/205 208/208/208 207/207/207
f 209/209/209 211/211/211 210/210/210
f 209/209/209 212/212/212 211/211/211
f 213/213/213 215/215/215 214/214/214
f 213/213/213 216/216/216 215/215/215
f 217/217/217 219/219/219 218/218/218
f 217/217/217 220/220/220 219/219/219
f 221/221/221 223/223/223 222/222/222
f 221/221/221 224/224/224 223/223/223
f 225/225/225 227/227/227 226/226/226
f 225/225/225 228/228/228 227/227/227
f 229/229/229 231/231/231 230/230/230
f 229/229/229 232/232/232 231/231/231
f 233/233/233 235/235/235 234/234/234
f 233/233/233 236/236/236 235/235/235
f 237/237/237 239/239/239 238/238/238
f 237/237/237 240/240/240 239/239/239
f 241/241/241 243/243/243 242/242/242
f 241/241/241 244/244/244 243/243/243
f 245/245/245 247/247/247 246/246/246
f 245/245/245 248/248/248 247/247/247
f 249/249/249 251/251/251 250/250/250
f 249/249/249 252/252/252 251/251/251
f 253/253/253 255/255/255 254/254/254
f 253/253/253 256/256/256 255/255/255
f 257/257/257 259/259/259 258/258/258
f 257/257/257 260/260/260 259/259/259
f 261/261/261 263/263/263 262/262/262
f 261/261/261 264/264/264 263/263/263
f 265/265/265 267/267/267 266/266/266
f 265/265/265 268/268/268 267/267/267
f 269/269/269 271/271/271 270/270/270
f 269/269/269 272/272/272 271/271/271
f 273/273/273 275/275/275 274/274/274
f 273/273/273 276/276/276 275/275/275
f 277/277/277 279/279/279 278/278/278
f 277/277/277 280/280/280 279/279/279
f 281/281/281 283/283/283 282/282/282
f 281/281/281 284/284/284 283/283/283
f 285/285/285 287/287/287 286/286/286
f 285/285/285 288/288/288 287/287/287
f 289/289/289 291/291/291 290/290/290
f 289/289/289 292/292/292 291/291/291
f 293/293/293 295/295/295 294/294/294
f 293/293/293 296/296/296 295/295/295
f 297/297/297 299/299/299 298/298/298
f 297/297/297 300/300/300 299/299/299
f 301/301/301 303/303/303 302/302/302
f 301/301/301 304/304/304 303/303/303
f 305/305/305 307/307/307 306/306/306
f 305/305/305 308/308/308 307/307/307
f 309/309/309 311/311/311 310/310/310
f 309/309/309 312/312/312 311/311/311
f 313/313/313 315/315/315 314/314/314
f 313/313/313 316/316/316 315/315/315
f 317/317/317 319/319/319 318/318/318
f 317/317/317 320/320/320 319/319/319
f 321/321/321 323/323/323 322/322/322
f 321/321/321 324/324/324 323/323/323
f 325/325/325 327/327/327 326/326/326
f 325/325/325 328/328/328 327/327/327
f 329/329/329 331/331/331 330/330/330
f 329/329/329 332/332/332 331/331/331
f 333/333/333 335/335/335 334/334/334
f 333/333/333 336/336/336 335/335/335
f 337/337/337 339/339/339 338/338/338
f 337/337/337 340/340/340 339/339/339
f 341/341/341 343/343/343 342/342/342
f 341/341/341 344/344/344 343/343/343
f 345/345/345 347/347/347 346/346/346
f 345/345/345 348/348/348 347/347/347
f 349/349/349 351/351/351 350/350/350
f 349/349/349 352/352/352 351/351/351
f 353/353/353 355/355/355 354/354/354
f 353/353/353 356/356/356 355/355/355
f 357/357/357 359/359/359 358/358/358
f 357/357/357 360/360/360 359/359/359
f 361/361/361 363/363/363 362/362/362
f 361/361/361 364/364/364 363/363/363
f 365/365/365 367/367/367 366/366/366
f 365/365/365 368/368/368 367/367/367
f 369/369/369 371/371/371 370/370/370
f 369/369/369 372/372/372 371/371/371
f 373/373/373 375/375/375 374/374/374
f 373/373/373 376/376/376 375/375/375
f 377/377/377 379/379/379 378/378/378
f 377/377/377 380/380/380 379/379/379
f 381/381/381 383/383/383 382/382/382
f 381/381/381 384/384/384 383/383/383
f 385/385/385 387/387/387 386/386/386
f 385/385/385 388/388/388 387/387/387
f 389/389/389 391/391/391 390/390/390
f 389/389/389 392/392/392 391/391/391
f 393/393/393 395/395/395 394/394/394
f 393/393/393 396/396/396 395/395/395
f 397/397/397 399/399/399 398/398/398
f 397/397/397 400/400/400 399/399/399
f 401/401/401 403/403/403 402/402/402
f 401/401/401 404/404/404 403/403/403
f 405/405/405 407/407/407 406/406/406
f 405/405/405 408/408/408 407/407/407
f 409/409/409 411/411/411 410/410/410
f 409/409/409 412/412/412 411/411/411
f 413/413/413 415/415/415 414/414/414
f 413/413/413 416/416/416 415/415/415
f 417/417/417 419/419/419 418/418/418
f 417/417/417 420/420/420 419/419/419
f 421/421/421 423/423/423 422/422/422
f 421/421/421 424/424/424 423/423/423
f 425/425/425 427/427/427 426/426/426
f 425/425/425 428/428/428 427/427/427
f 429/429/429 431/431/431 430/430/430
f 429/429/429 432/432/432 431/431/431
f 433/433/433 435/435/435 434/434/434
f 433/433/433 436/436/436 435/435/435
f 437/437/437 439/439/439 438/438/438
f 437/437/437 440/440/440 439/439/439
f 441/441/441 443/443/443 442/442/442
f 441/441/441 444/444/444 443/443/443
f 445/445/445 447/447/447 446/446/446
f 445/445/445 448/448/448 447/447/447
f 449/449/449 451/451/451 450/450/450
f 449/449/449 452/452/452 451/451/451
f 453/453/453 455/455/455 454/454/454
f 453/453/453 456/456/456 455/455/455
f 457/457/457 459/459/459 458/458/458
f 457/457/457 460/460/460 459/459/459
f 461/461/461 463/463/463 462/462/462
f 461/461/461 464/464/464 463/463/463
f 465/465/465 467/467/467 466/466/466
f 465/465/465 468/468/468 467/467/467
f 469/469/469 471/471/471 470/470/470
f 469/469/469 472/472/472 471/471/471
f 473/473/473 475/475/475 474/474/474
f 473/473/473 476/476/476 475/475/475
f 477/477/477 479/479/479 478/478/478
f 477/477/477 480/480/480 479/479/479
f 481/481/481 483/483/483 482/482/482
f 481/481/481 484/484/484 483/483/483
f 485/485/485 487/487/487 486/486/486
f 485/485/485 488/488/488 487/487/487
f 489/489/489 491/491/491 490/490/490
f 489/489/489 492/492/492 491/491/491
f 493/493/493 495/495/495 494/494/494
f 493/493/493 496/496/496 495/495/495
f 497/497/497 499/499/499 498/498/498
f 497/497/497 500/500/500 499/499/499
f 501/501/501 503/503/503 502/502/502
f 501/501/501 504/504/504 503/503/503
f 505/505/505 507/507/507 506/506/506
f 505/505/505 508/508/508 507/507/507
f 509/509/509 511/511/511 510/510/510
f 509/509/509 512/512/512 511/511/511
f 513/513/513 515/515/515 514/514/514
f 513/513/513 516/516/516 515/515/515
f 517/517/517 519/519/519 518/518/518
f 517/517/517 520/520/520 519/519/519
f 521/521/521 523/523/523 522/522/522
f 521/521/521 524/524/524 523/523/523
f 525/525/525 527/527/527 526/526/526
f 525/525/525 528/528/528 527/527/527
f 529/529/529 531/531/531 530/530/530
f 529/529/529 532/532/532 531/531/531
f 533/533/533 535/535/535 534/534/534
f 533/533/533 536/536/536 535/535/535
f 537/537/537 539/539/539 538/538/538
f 537/537/537 540/540/540 539/539/539
f 541/541/541 543/543/543 542/542/542
f 541/541/541 544/544/544 543/543/543
f 545/545/545 547/547/547 546/546/546
f 545/545/545 548/548/548 547/547/547
f 549/549/549 551/551/551 550/550/550
f 549/549/549 552/552/552 551/551/551
f 553/553/553 555/555/555 554/554/554
f 553/553/553 556/556/556 555/555/555
f 557/557/557 559/559/559 558/558/558
f 557/557/557 560/560/560 559/559/559
f 561/561/561 563/563/563 562/562/562
f 561/561/561 564/564/564 563/563/563
f 565/565/565 567/567/567 566/566/566
f 565/565/565 568/568/568 567/567/567
f 569/569/569 571/571/571 570/570/570
f 569/569/569 572/572/572 571/571/571
f 573/573/573 575/575/575 574/574/574
f 573/573/573 576/576/576 575/575/575
