# Converted from SynchroCircle06.asset
o SynchroCircle06
v 3.84528899 0 21.8366451
v 2.06763601 0 20.9931335
v 3.67148542 0 20.7552185
v 2.17511582 0 22.0843849
v 1.56455135 0 21.0178165
v 1.64476073 0 22.1104298
v 2.27781081 0 23.1270695
v 4.02454472 0 22.8679638
v 4.53369188 0 22.7924404
v 4.32929277 0 21.7648487
v 6.44178152 0 21.2357216
v 6.74591351 0 22.2383175
v 8.49222374 0 20.5020218
v 8.89316654 0 21.4700165
v 10.4608717 0 19.5709343
v 10.9547701 0 20.4949474
v 12.3287849 0 18.4513512
v 12.9108772 0 19.322506
v 14.0779772 0 17.1540623
v 14.7426453 0 17.9639759
v 15.6915913 0 15.6915989
v 16.432436 0 16.4324436
v 17.1540623 0 14.077981
v 17.9639702 0 14.742651
v 18.4513416 0 12.3287935
v 19.3224983 0 12.9108849
v 19.5709305 0 10.4608812
v 20.4949474 0 10.9547815
v 19.9330387 0 9.69529533
v 20.8742256 0 10.1528645
v 21.4700165 0 8.89317417
v 20.5020218 0 8.49223137
v 18.9474926 0 9.21744728
v 19.4889603 0 8.0725975
v 20.1863556 0 6.12347412
v 21.2357082 0 6.44178534
v 22.238306 0 6.74592352
v 20.6893597 0 4.11537695
v 21.7648487 0 4.32930326
v 22.792448 0 4.53370333
v 20.9931335 0 2.06764627
v 22.0843849 0 2.17512679
v 23.1270695 0 2.27782226
v 21.0946789 0 3.52209213e-06
v 22.1912346 0 3.80654319e-06
v 23.2389717 0 4.09569247e-06
v 22.1059151 0 -1.73713851
v 21.0138893 0 -1.6451782
v 23.1495647 0 -1.8200202
v 23.1270771 0 -2.27781415
v 22.0843887 0 -2.17511916
v 21.7648487 0 -4.32929516
v 22.792448 0 -4.53369427
v 21.2357216 0 -6.44178629
v 22.2383175 0 -6.74591589
v 20.5020218 0 -8.49222755
v 21.4700165 0 -8.89316845
v 19.5709305 0 -10.4608727
v 20.4949455 0 -10.9547729
v 19.2841816 0 -10.9392872
v 20.1923561 0 -11.4596138
v 19.322506 0 -12.9108839
v 18.4513512 0 -12.3287926
v 18.9836845 0 -10.7571363
v 18.1588402 0 -12.1333494
v 16.8821259 0 -13.8547897
v 17.1540623 0 -14.0779819
v 15.4428082 0 -15.4428101
v 19.954834 0 -13.3333912
v 20.8419323 0 -11.8533506
v 17.9639759 0 -14.74265
v 18.5518456 0 -15.2251024
v 15.6915951 0 -15.6915941
v 13.8547907 0 -16.8821259
v 16.4324379 0 -16.4324379
v 16.970192 0 -16.970192
v 14.0779819 0 -17.1540661
v 12.1333504 0 -18.1588364
v 14.742651 0 -17.9639759
v 15.2251024 0 -18.5518436
v 12.3287935 0 -18.4513454
v 11.3051815 0 -18.6552143
v 12.9108849 0 -19.322506
v 13.3333921 0 -19.9548321
v 11.4783411 0 -18.9610939
v 12.0163898 0 -19.8586426
v 12.3906994 0 -20.5198612
v 11.3132734 0 -21.1656437
v 10.9547796 0 -20.4949474
v 10.4608803 0 -19.5709343
v 8.89317417 0 -21.4700165
v 9.18420315 0 -22.1726208
v 10.2950373 0 -19.2606678
v 10.9386415 0 -18.0076981
v 9.94398022 0 -18.6038685
v 8.0725975 0 -19.4889603
v 8.3575983 0 -20.1770058
v 6.12347031 0 -20.1863613
v 8.49223137 0 -20.5020218
v 6.33965397 0 -20.8990288
v 4.11537504 0 -20.6893654
v 6.74591923 0 -22.2383099
v 6.96667957 0 -22.9660587
v 6.44178534 0 -21.2357121
v 4.26066542 0 -21.4197826
v 2.06764364 0 -20.9931393
v 4.5337019 0 -22.79245
v 4.68206644 0 -23.5383301
v 4.32930183 0 -21.7648525
v 2.14064193 0 -21.7342987
v 1.04358958e-06 0 -21.0946789
v 2.27781987 0 -23.1270752
v 2.35236168 0 -23.8839073
v 2.17512488 0 -22.0843849
v 1.18541107e-06 0 -21.8394203
v -2.06764197 0 -20.9931393
v 1.47375579e-06 0 -23.2389717
v 1.60929028e-06 0 -23.9994698
v 1.27260455e-06 0 -22.1912365
v -2.14063954 0 -21.7342987
v -4.1153717 0 -20.6893654
v -2.17512155 0 -22.0843849
v -2.27781653 0 -23.1270752
v -4.26066208 0 -21.4197845
v -6.12346983 0 -20.186367
v -4.32929897 0 -21.7648563
v -4.53369761 0 -22.79245
v -6.33965254 0 -20.8990326
v -6.84620285 0 -19.9277763
v -7.10154629 0 -20.6264305
v -6.44178629 0 -21.2357197
v -6.7459178 0 -22.2383156
v -7.22216845 0 -20.9565086
v -7.56585026 0 -21.9449406
v -8.89317226 0 -21.4700222
v -8.49222851 0 -20.5020256
v -10.4608746 0 -19.5709362
v -10.9547749 0 -20.4949532
v -12.3287935 0 -18.4513512
v -12.9108849 0 -19.322506
v -14.0779829 0 -17.1540661
v -14.7426519 0 -17.9639759
v -15.6915979 0 -15.6915989
v -16.4324436 0 -16.4324436
v -17.1540661 0 -14.0779819
v -17.9639759 0 -14.742651
v -18.4513512 0 -12.3287935
v -19.322506 0 -12.9108849
v -19.5709362 0 -10.4608765
v -20.4949532 0 -10.9547768
v -20.1793995 0 -9.17440224
v -21.1328144 0 -9.60613251
v -21.4700184 0 -8.89317322
v -20.5020256 0 -8.49223137
v -19.8579712 0 -9.03216839
v -20.1770115 0 -8.35759735
v -20.8990345 0 -6.33965492
v -21.2357216 0 -6.4417901
v -20.961792 0 -6.08909225
v -22.1726246 0 -9.18420315
v -21.8276482 0 -9.91358376
v -22.2383175 0 -6.74592209
v -22.9660664 0 -6.96668053
v -21.3005562 0 -6.18293142
v -22.3066807 0 -6.473001
v -23.0389156 0 -6.67584896
v -23.538332 0 -4.68206453
v -22.7924309 0 -4.53369999
v -21.7648563 0 -4.32929993
v -23.1270771 0 -2.27781892
v -23.8839073 0 -2.35236001
v -21.4197845 0 -4.26066446
v -20.2447453 0 -5.89043856
v -20.6893654 0 -4.11537313
v -20.9931412 0 -2.06764388
v -21.7343006 0 -2.14064121
v -21.0946827 0 -2.49933237e-07
v -22.0843887 0 -2.17512393
v -21.8394241 0 -1.90814234e-07
v -20.9931335 0 2.06763554
v -23.2389793 0 -5.9760346e-08
v -23.9994717 0 2.18273953e-13
v -22.1912403 0 -1.61561701e-07
v -21.7342949 0 2.14063263
v -20.6893616 0 4.11536407
v -23.1270695 0 2.2778101
v -23.8839016 0 2.35235167
v -22.0843849 0 2.17511511
v -21.4197807 0 4.26065493
v -20.3765259 0 5.36429548
v -21.0984364 0 5.54356813
v -21.7648449 0 4.32929087
v -22.792448 0 4.53368998
v -23.5383263 0 4.68205595
v -21.4394665 0 5.62824917
v -22.4522095 0 5.8919754
v -23.1893997 0 6.075037
v -22.9660568 0 6.96667147
v -21.2357121 0 6.44178152
v -20.899025 0 6.33964586
v -20.177002 0 8.35758877
v -22.238308 0 6.74591255
v -20.502018 0 8.49222279
v -19.2606678 0 10.2950258
v -21.4700146 0 8.89316463
v -22.172617 0 9.18419456
v -19.5709343 0 10.4608679
v -18.1588383 0 12.1333447
v -20.4949474 0 10.9547663
v -21.1656437 0 11.313261
v -18.4513512 0 12.3287849
v -17.6735001 0 12.7877216
v -17.9559498 0 12.9967718
v -19.322506 0 12.9108772
v -19.954834 0 13.3333855
v -18.8027344 0 13.6117096
v -19.4132843 0 14.0635786
v -17.9639759 0 14.7426405
v -17.1540661 0 14.0779743
v -15.6915989 0 15.6915894
v -16.4324436 0 16.4324322
v -15.5042782 0 15.8613596
v -16.2362041 0 16.6102943
v -14.7426538 0 17.9639664
v -14.0779867 0 17.1540623
v -15.258667 0 15.6097088
v -13.8547955 0 16.8821182
v -12.1333542 0 18.1588306
v -12.3287973 0 18.4513435
v -10.295042 0 19.2606621
v -15.2251062 0 18.551836
v -16.767128 0 17.1542301
v -12.9108887 0 19.3225002
v -13.3333941 0 19.9548283
v -10.460885 0 19.5709305
v -9.163311 0 19.7959404
v -9.31251717 0 20.1140709
v -10.9547853 0 20.4949474
v -11.3132782 0 21.1656418
v -9.75287724 0 21.0634022
v -10.0754013 0 21.751112
v -8.89317894 0 21.4700146
v -8.49223709 0 20.502018
v -7.79565668 0 20.7512817
v -8.1625948 0 21.7314148
v -7.95088339 0 21.8071709
v -7.5921216 0 20.8240929
v -7.41839504 0 19.7230377
v -7.21477747 0 19.7958927
v -6.44179058 0 21.2357121
v -6.12347651 0 20.1863613
v -4.11538029 0 20.6893616
v -6.74592495 0 22.238308
v -4.3293066 0 21.7648487
v -2.06764936 0 20.9931335
v -6.96668482 0 22.9660568
v -8.21258736 0 22.5202656
v -4.53370619 0 22.792448
v -4.68207121 0 23.5383263
v -2.17512989 0 22.0843849
v -6.34329626e-06 0 21.094677
v -2.27782488 0 23.1270695
v -2.35236669 0 23.8838978
v -6.49826643e-06 0 22.1912327
v -6.66400774e-06 0 23.2389698
v -6.79478171e-06 0 23.9994678
v 1.72226632 0 23.1543598
v 1.77789557 0 23.9121227
vt 0.438476562 0.151855469
vt 0.468017578 0.173828125
vt 0.442626953 0.177734375
vt 0.465332031 0.147460938
vt 0.475585938 0.173828125
vt 0.473632812 0.147460938
vt 0.462890625 0.122070312
vt 0.434326172 0.126464844
vt 0.42578125 0.127441406
vt 0.431640625 0.154785156
vt 0.396972656 0.16015625
vt 0.389648438 0.13671875
vt 0.364013672 0.171875
vt 0.354736328 0.148925781
vt 0.332519531 0.186523438
vt 0.321044922 0.165039062
vt 0.302734375 0.204589844
vt 0.2890625 0.184082031
vt 0.274658203 0.225585938
vt 0.259033203 0.206542969
vt 0.248779297 0.249023438
vt 0.231445312 0.231445312
vt 0.225341797 0.274414062
vt 0.206420898 0.259277344
vt 0.204589844 0.302734375
vt 0.184204102 0.2890625
vt 0.188720703 0.333984375
vt 0.165039062 0.320800781
vt 0.182128906 0.345214844
vt 0.158813477 0.333984375
vt 0.149047852 0.354492188
vt 0.172607422 0.364257812
vt 0.205932617 0.356445312
vt 0.197021484 0.374511719
vt 0.186035156 0.404785156
vt 0.160766602 0.396972656
vt 0.136474609 0.389648438
vt 0.178222656 0.436035156
vt 0.15222168 0.430664062
vt 0.127441406 0.42578125
vt 0.173461914 0.467773438
vt 0.147216797 0.465332031
vt 0.122009277 0.462890625
vt 0.17199707 0.5
vt 0.145507812 0.5
vt 0.120178223 0.5
vt 0.147338867 0.528076172
vt 0.173706055 0.525878906
vt 0.121643066 0.529785156
vt 0.122009277 0.537109375
vt 0.149780273 0.534179688
vt 0.151611328 0.569335938
vt 0.127441406 0.57421875
vt 0.16003418 0.603027344
vt 0.136474609 0.610351562
vt 0.17175293 0.635986328
vt 0.149047852 0.645263672
vt 0.189575195 0.666259766
vt 0.165039062 0.678955078
vt 0.192138672 0.674316406
vt 0.169921875 0.687255859
vt 0.184204102 0.7109375
vt 0.204711914 0.697265625
vt 0.198364258 0.670654297
vt 0.2109375 0.693115234
vt 0.231079102 0.720703125
vt 0.225341797 0.725341797
vt 0.254150391 0.745849609
vt 0.169311523 0.720947266
vt 0.154663086 0.696533203
vt 0.206420898 0.740966797
vt 0.192626953 0.752319336
vt 0.248779297 0.751220703
vt 0.279296875 0.768920898
vt 0.231445312 0.768554688
vt 0.21875 0.78125
vt 0.274658203 0.774658203
vt 0.307128906 0.788818359
vt 0.259033203 0.793579102
vt 0.247680664 0.807373047
vt 0.302978516 0.795043945
vt 0.320800781 0.795288086
vt 0.2890625 0.815795898
vt 0.279052734 0.830688477
vt 0.316650391 0.802856445
vt 0.303710938 0.824584961
vt 0.294677734 0.840087891
vt 0.3125 0.850708008
vt 0.321044922 0.834960938
vt 0.332519531 0.812988281
vt 0.354736328 0.850952148
vt 0.347900391 0.867431641
vt 0.336914062 0.805175781
vt 0.330078125 0.779052734
vt 0.345458984 0.788818359
vt 0.374511719 0.802856445
vt 0.367431641 0.819824219
vt 0.404785156 0.813720703
vt 0.364013672 0.82824707
vt 0.399414062 0.831298828
vt 0.436035156 0.821533203
vt 0.389648438 0.863525391
vt 0.384521484 0.880554199
vt 0.396972656 0.83996582
vt 0.432373047 0.839599609
vt 0.467773438 0.826171875
vt 0.42578125 0.872558594
vt 0.422363281 0.890075684
vt 0.430664062 0.848510742
vt 0.466064453 0.844482422
vt 0.5 0.827758789
vt 0.462890625 0.877990723
vt 0.4609375 0.895812988
vt 0.465087891 0.853637695
vt 0.5 0.846191406
vt 0.532226562 0.826171875
vt 0.5 0.879821777
vt 0.5 0.897705078
vt 0.5 0.85534668
vt 0.533691406 0.844482422
vt 0.563964844 0.821533203
vt 0.534667969 0.853637695
vt 0.537109375 0.877990723
vt 0.567382812 0.839599609
vt 0.595214844 0.813232422
vt 0.569335938 0.848510742
vt 0.57421875 0.872558594
vt 0.600585938 0.830932617
vt 0.606445312 0.808959961
vt 0.612304688 0.826416016
vt 0.603027344 0.839477539
vt 0.610351562 0.863525391
vt 0.615234375 0.834472656
vt 0.623535156 0.858642578
vt 0.645507812 0.850952148
vt 0.635253906 0.827026367
vt 0.667480469 0.813354492
vt 0.679199219 0.834960938
vt 0.697265625 0.795410156
vt 0.7109375 0.815795898
vt 0.725585938 0.774658203
vt 0.740722656 0.793579102
vt 0.750976562 0.751220703
vt 0.768554688 0.768554688
vt 0.774414062 0.725341797
vt 0.793457031 0.740966797
vt 0.795410156 0.697265625
vt 0.815917969 0.7109375
vt 0.8125 0.666992188
vt 0.834960938 0.678955078
vt 0.822265625 0.646484375
vt 0.845214844 0.656982422
vt 0.851074219 0.645263672
vt 0.827636719 0.635742188
vt 0.815429688 0.643554688
vt 0.820800781 0.633056641
vt 0.83203125 0.600585938
vt 0.839355469 0.602783203
vt 0.831542969 0.596679688
vt 0.8671875 0.652099609
vt 0.861816406 0.664306641
vt 0.86328125 0.610351562
vt 0.880371094 0.615478516
vt 0.840332031 0.598876953
vt 0.864746094 0.605712891
vt 0.881835938 0.610595703
vt 0.890136719 0.577636719
vt 0.872558594 0.57421875
vt 0.848144531 0.569335938
vt 0.877929688 0.537109375
vt 0.895996094 0.5390625
vt 0.839355469 0.567626953
vt 0.813964844 0.591796875
vt 0.821289062 0.563964844
vt 0.826171875 0.532226562
vt 0.844726562 0.533935547
vt 0.827636719 0.5
vt 0.853515625 0.534912109
vt 0.846191406 0.5
vt 0.826171875 0.467773438
vt 0.879882812 0.5
vt 0.897460938 0.5
vt 0.85546875 0.5
vt 0.844726562 0.466308594
vt 0.821289062 0.436035156
vt 0.877929688 0.462890625
vt 0.895996094 0.4609375
vt 0.853515625 0.465332031
vt 0.839355469 0.432617188
vt 0.815917969 0.416503906
vt 0.833984375 0.412109375
vt 0.848144531 0.430664062
vt 0.872558594 0.42578125
vt 0.890136719 0.422363281
vt 0.842285156 0.41015625
vt 0.8671875 0.403808594
vt 0.884277344 0.399414062
vt 0.880371094 0.384765625
vt 0.839355469 0.396972656
vt 0.832519531 0.399414062
vt 0.821289062 0.366699219
vt 0.86328125 0.389648438
vt 0.828125 0.364257812
vt 0.806640625 0.3359375
vt 0.851074219 0.354492188
vt 0.8671875 0.34765625
vt 0.813476562 0.332519531
vt 0.788574219 0.307128906
vt 0.834960938 0.320800781
vt 0.850585938 0.3125
vt 0.794921875 0.302734375
vt 0.780761719 0.296875
vt 0.786621094 0.292480469
vt 0.815917969 0.2890625
vt 0.830566406 0.278808594
vt 0.807128906 0.27734375
vt 0.821777344 0.267089844
vt 0.793457031 0.259277344
vt 0.7734375 0.275390625
vt 0.748535156 0.251464844
vt 0.768554688 0.231445312
vt 0.747558594 0.247070312
vt 0.765136719 0.228515625
vt 0.740722656 0.206542969
vt 0.725585938 0.225585938
vt 0.742675781 0.252441406
vt 0.720703125 0.230957031
vt 0.693359375 0.2109375
vt 0.697265625 0.204589844
vt 0.663574219 0.193359375
vt 0.752441406 0.192382812
vt 0.777832031 0.215820312
vt 0.7109375 0.184082031
vt 0.721191406 0.169433594
vt 0.667480469 0.187011719
vt 0.645507812 0.185546875
vt 0.6484375 0.178710938
vt 0.679199219 0.165039062
vt 0.6875 0.149414062
vt 0.659179688 0.155761719
vt 0.666992188 0.139648438
vt 0.645507812 0.148925781
vt 0.634765625 0.174804688
vt 0.624511719 0.168945312
vt 0.633300781 0.145019531
vt 0.629882812 0.143554688
vt 0.62109375 0.16796875
vt 0.615234375 0.193847656
vt 0.612304688 0.192871094
vt 0.603027344 0.161132812
vt 0.595214844 0.186035156
vt 0.563964844 0.178222656
vt 0.610351562 0.13671875
vt 0.569335938 0.15234375
vt 0.532226562 0.173339844
vt 0.615234375 0.119628906
vt 0.636230469 0.126953125
vt 0.57421875 0.127441406
vt 0.577636719 0.109863281
vt 0.534667969 0.146972656
vt 0.5 0.171875
vt 0.537109375 0.122070312
vt 0.5390625 0.104003906
vt 0.5 0.145507812
vt 0.5 0.120117188
vt 0.5 0.102539062
vt 0.471923828 0.121582031
vt 0.470458984 0.103515625
vn 0 1 -0
vn 0 1 -0
vn 0 1 -0
vn 0 1 -0
vn 0 1 -0
vn 0 1 -0
vn 0 1 -0
vn 0 1 -0
vn 0 1 -0
vn 0 1 -0
vn 0 1 -0
vn 0 1 -0
vn 0 1 -0
vn 0 1 -0
vn 0 1 -0
vn 0 1 -0
vn 0 1 -0
vn 0 1 -0
vn 0 1 -0
vn 0 1 -0
vn 0 1 -0
vn 0 1 -0
vn 0 1 -0
vn 0 1 -0
vn 0 1 -0
vn 0 1 -0
vn 0 1 -0
vn 0 1 -0
vn 0 1 -0
vn 0 1 -0
vn 0 1 -0
vn 0 1 -0
vn 0 1 -0
vn 0 1 -0
vn 0 1 -0
vn 0 1 -0
vn 0 1 -0
vn 0 1 -0
vn 0 1 -0
vn 0 1 -0
vn 0 1 -0
vn 0 1 -0
vn 0 1 -0
vn 0 1 -0
vn 0 1 -0
vn 0 1 -0
vn 0 1 -0
vn 0 1 -0
vn 0 1 -0
vn 0 1 -0
vn 0 1 -0
vn 0 1 -0
vn 0 1 -0
vn 0 1 -0
vn 0 1 -0
vn 0 1 -0
vn 0 1 -0
vn 0 1 -0
vn 0 1 -0
vn 0 1 -0
vn 0 1 -0
vn 0 1 -0
vn 0 1 -0
vn 0 1 -0
vn 0 1 -0
vn 0 1 -0
vn 0 1 -0
vn 0 1 -0
vn 0 1 -0
vn 0 1 -0
vn 0 1 -0
vn 0 1 -0
vn 0 1 -0
vn 0 1 -0
vn 0 1 -0
vn 0 1 -0
vn 0 1 -0
vn 0 1 -0
vn 0 1 -0
vn 0 1 -0
vn 0 1 -0
vn 0 1 -0
vn 0 1 -0
vn 0 1 -0
vn 0 1 -0
vn 0 1 -0
vn 0 1 -0
vn 0 1 -0
vn 0 1 -0
vn 0 1 -0
vn 0 1 -0
vn 0 1 -0
vn 0 1 -0
vn 0 1 -0
vn 0 1 -0
vn 0 1 -0
vn 0 1 -0
vn 0 1 -0
vn 0 1 -0
vn 0 1 -0
vn 0 1 -0
vn 0 1 -0
vn 0 1 -0
vn 0 1 -0
vn 0 1 -0
vn 0 1 -0
vn 0 1 -0
vn 0 1 -0
vn 0 1 -0
vn 0 1 -0
vn 0 1 -0
vn 0 1 -0
vn 0 1 -0
vn 0 1 -0
vn 0 1 -0
vn 0 1 -0
vn 0 1 -0
vn 0 1 -0
vn 0 1 -0
vn 0 1 -0
vn 0 1 -0
vn 0 1 -0
vn 0 1 -0
vn 0 1 -0
vn 0 1 -0
vn 0 1 -0
vn 0 1 -0
vn 0 1 -0
vn 0 1 -0
vn 0 1 -0
vn 0 1 -0
vn 0 1 -0
vn 0 1 -0
vn 0 1 -0
vn 0 1 -0
vn 0 1 -0
vn 0 1 -0
vn 0 1 -0
vn 0 1 -0
vn 0 1 -0
vn 0 1 -0
vn 0 1 -0
vn 0 1 -0
vn 0 1 -0
vn 0 1 -0
vn 0 1 -0
vn 0 1 -0
vn 0 1 -0
vn 0 1 -0
vn 0 1 -0
vn 0 1 -0
vn 0 1 -0
vn 0 1 -0
vn 0 1 -0
vn 0 1 -0
vn 0 1 -0
vn 0 1 -0
vn 0 1 -0
vn 0 1 -0
vn 0 1 -0
vn 0 1 -0
vn 0 1 -0
vn 0 1 -0
vn 0 1 -0
vn 0 1 -0
vn 0 1 -0
vn 0 1 -0
vn 0 1 -0
vn 0 1 -0
vn 0 1 -0
vn 0 1 -0
vn 0 1 -0
vn 0 1 -0
vn 0 1 -0
vn 0 1 -0
vn 0 1 -0
vn 0 1 -0
vn 0 1 -0
vn 0 1 -0
vn 0 1 -0
vn 0 1 -0
vn 0 1 -0
vn 0 1 -0
vn 0 1 -0
vn 0 1 -0
vn 0 1 -0
vn 0 1 -0
vn 0 1 -0
vn 0 1 -0
vn 0 1 -0
vn 0 1 -0
vn 0 1 -0
vn 0 1 -0
vn 0 1 -0
vn 0 1 -0
vn 0 1 -0
vn 0 1 -0
vn 0 1 -0
vn 0 1 -0
vn 0 1 -0
vn 0 1 -0
vn 0 1 -0
vn 0 1 -0
vn 0 1 -0
vn 0 1 -0
vn 0 1 -0
vn 0 1 -0
vn 0 1 -0
vn 0 1 -0
vn 0 1 -0
vn 0 1 -0
vn 0 1 -0
vn 0 1 -0
vn 0 1 -0
vn 0 1 -0
vn 0 1 -0
vn 0 1 -0
vn 0 1 -0
vn 0 1 -0
vn 0 1 -0
vn 0 1 -0
vn 0 1 -0
vn 0 1 -0
vn 0 1 -0
vn 0 1 -0
vn 0 1 -0
vn 0 1 -0
vn 0 1 -0
vn 0 1 -0
vn 0 1 -0
vn 0 1 -0
vn 0 1 -0
vn 0 1 -0
vn 0 1 -0
vn 0 1 -0
vn 0 1 -0
vn 0 1 -0
vn 0 1 -0
vn 0 1 -0
vn 0 1 -0
vn 0 1 -0
vn 0 1 -0
vn 0 1 -0
vn 0 1 -0
vn 0 1 -0
vn 0 1 -0
vn 0 1 -0
vn 0 1 -0
vn 0 1 -0
vn 0 1 -0
vn 0 1 -0
vn 0 1 -0
vn 0 1 -0
vn 0 1 -0
vn 0 1 -0
vn 0 1 -0
vn 0 1 -0
vn 0 1 -0
vn 0 1 -0
vn 0 1 -0
vn 0 1 -0
vn 0 1 -0
vn 0 1 -0
vn 0 1 -0
vn 0 1 -0
vn 0 1 -0
vn 0 1 -0
vn 0 1 -0
f 1/1/1 3/3/3 2/2/2
f 1/1/1 2/2/2 4/4/4
f 4/4/4 2/2/2 5/5/5
f 4/4/4 5/5/5 6/6/6
f 7/7/7 1/1/1 4/4/4
f 6/6/6 7/7/7 4/4/4
f 7/7/7 8/8/8 1/1/1
f 1/1/1 8/8/8 9/9/9
f 1/1/1 9/9/9 10/10/10
f 9/9/9 11/11/11 10/10/10
f 9/9/9 12/12/12 11/11/11
f 12/12/12 13/13/13 11/11/11
f 12/12/12 14/14/14 13/13/13
f 14/14/14 15/15/15 13/13/13
f 14/14/14 16/16/16 15/15/15
f 16/16/16 17/17/17 15/15/15
f 16/16/16 18/18/18 17/17/17
f 18/18/18 19/19/19 17/17/17
f 18/18/18 20/20/20 19/19/19
f 20/20/20 21/21/21 19/19/19
f 20/20/20 22/22/22 21/21/21
f 22/22/22 23/23/23 21/21/21
f 22/22/22 24/24/24 23/23/23
f 24/24/24 25/25/25 23/23/23
f 24/24/24 26/26/26 25/25/25
f 26/26/26 27/27/27 25/25/25
f 26/26/26 28/28/28 27/27/27
f 28/28/28 29/29/29 27/27/27
f 28/28/28 30/30/30 29/29/29
f 29/29/29 30/30/30 31/31/31
f 29/29/29 31/31/31 32/32/32
f 32/32/32 33/33/33 29/29/29
f 32/32/32 34/34/34 33/33/33
f 35/35/35 34/34/34 32/32/32
f 31/31/31 36/36/36 32/32/32
f 35/35/35 32/32/32 36/36/36
f 31/31/31 37/37/37 36/36/36
f 38/38/38 35/35/35 36/36/36
f 37/37/37 39/39/39 36/36/36
f 38/38/38 36/36/36 39/39/39
f 37/37/37 40/40/40 39/39/39
f 41/41/41 38/38/38 39/39/39
f 40/40/40 42/42/42 39/39/39
f 41/41/41 39/39/39 42/42/42
f 40/40/40 43/43/43 42/42/42
f 44/44/44 41/41/41 42/42/42
f 43/43/43 45/45/45 42/42/42
f 44/44/44 42/42/42 45/45/45
f 43/43/43 46/46/46 45/45/45
f 47/47/47 44/44/44 45/45/45
f 46/46/46 47/47/47 45/45/45
f 47/47/47 48/48/48 44/44/44
f 46/46/46 49/49/49 47/47/47
f 47/47/47 49/49/49 50/50/50
f 47/47/47 50/50/50 51/51/51
f 50/50/50 52/52/52 51/51/51
f 50/50/50 53/53/53 52/52/52
f 53/53/53 54/54/54 52/52/52
f 53/53/53 55/55/55 54/54/54
f 55/55/55 56/56/56 54/54/54
f 55/55/55 57/57/57 56/56/56
f 57/57/57 58/58/58 56/56/56
f 57/57/57 59/59/59 58/58/58
f 59/59/59 60/60/60 58/58/58
f 59/59/59 61/61/61 60/60/60
f 60/60/60 61/61/61 62/62/62
f 60/60/60 62/62/62 63/63/63
f 64/64/64 60/60/60 63/63/63
f 64/64/64 63/63/63 65/65/65
f 63/63/63 66/66/66 65/65/65
f 63/63/63 67/67/67 66/66/66
f 62/62/62 67/67/67 63/63/63
f 67/67/67 68/68/68 66/66/66
f 61/61/61 69/69/69 62/62/62
f 61/61/61 70/70/70 69/69/69
f 69/69/69 71/71/71 62/62/62
f 62/62/62 71/71/71 67/67/67
f 69/69/69 72/72/72 71/71/71
f 67/67/67 73/73/73 68/68/68
f 71/71/71 73/73/73 67/67/67
f 73/73/73 74/74/74 68/68/68
f 72/72/72 75/75/75 71/71/71
f 71/71/71 75/75/75 73/73/73
f 72/72/72 76/76/76 75/75/75
f 73/73/73 77/77/77 74/74/74
f 75/75/75 77/77/77 73/73/73
f 77/77/77 78/78/78 74/74/74
f 76/76/76 79/79/79 75/75/75
f 75/75/75 79/79/79 77/77/77
f 76/76/76 80/80/80 79/79/79
f 77/77/77 81/81/81 78/78/78
f 79/79/79 81/81/81 77/77/77
f 81/81/81 82/82/82 78/78/78
f 80/80/80 83/83/83 79/79/79
f 79/79/79 83/83/83 81/81/81
f 80/80/80 84/84/84 83/83/83
f 83/83/83 85/85/85 81/81/81
f 81/81/81 85/85/85 82/82/82
f 84/84/84 86/86/86 83/83/83
f 83/83/83 86/86/86 85/85/85
f 84/84/84 87/87/87 86/86/86
f 86/86/86 87/87/87 88/88/88
f 85/85/85 86/86/86 89/89/89
f 86/86/86 88/88/88 89/89/89
f 82/82/82 85/85/85 90/90/90
f 85/85/85 89/89/89 90/90/90
f 88/88/88 91/91/91 89/89/89
f 88/88/88 92/92/92 91/91/91
f 82/82/82 90/90/90 93/93/93
f 94/94/94 82/82/82 93/93/93
f 94/94/94 93/93/93 95/95/95
f 93/93/93 96/96/96 95/95/95
f 93/93/93 97/97/97 96/96/96
f 90/90/90 97/97/97 93/93/93
f 97/97/97 98/98/98 96/96/96
f 89/89/89 99/99/99 90/90/90
f 90/90/90 99/99/99 97/97/97
f 89/89/89 91/91/91 99/99/99
f 97/97/97 100/100/100 98/98/98
f 99/99/99 100/100/100 97/97/97
f 100/100/100 101/101/101 98/98/98
f 92/92/92 102/102/102 91/91/91
f 92/92/92 103/103/103 102/102/102
f 91/91/91 104/104/104 99/99/99
f 99/99/99 104/104/104 100/100/100
f 91/91/91 102/102/102 104/104/104
f 100/100/100 105/105/105 101/101/101
f 104/104/104 105/105/105 100/100/100
f 105/105/105 106/106/106 101/101/101
f 103/103/103 107/107/107 102/102/102
f 103/103/103 108/108/108 107/107/107
f 102/102/102 109/109/109 104/104/104
f 104/104/104 109/109/109 105/105/105
f 102/102/102 107/107/107 109/109/109
f 105/105/105 110/110/110 106/106/106
f 109/109/109 110/110/110 105/105/105
f 110/110/110 111/111/111 106/106/106
f 108/108/108 112/112/112 107/107/107
f 108/108/108 113/113/113 112/112/112
f 107/107/107 114/114/114 109/109/109
f 109/109/109 114/114/114 110/110/110
f 107/107/107 112/112/112 114/114/114
f 110/110/110 115/115/115 111/111/111
f 114/114/114 115/115/115 110/110/110
f 115/115/115 116/116/116 111/111/111
f 113/113/113 117/117/117 112/112/112
f 113/113/113 118/118/118 117/117/117
f 112/112/112 119/119/119 114/114/114
f 114/114/114 119/119/119 115/115/115
f 112/112/112 117/117/117 119/119/119
f 115/115/115 120/120/120 116/116/116
f 119/119/119 120/120/120 115/115/115
f 120/120/120 121/121/121 116/116/116
f 117/117/117 122/122/122 119/119/119
f 119/119/119 122/122/122 120/120/120
f 117/117/117 123/123/123 122/122/122
f 120/120/120 124/124/124 121/121/121
f 122/122/122 124/124/124 120/120/120
f 124/124/124 125/125/125 121/121/121
f 123/123/123 126/126/126 122/122/122
f 122/122/122 126/126/126 124/124/124
f 123/123/123 127/127/127 126/126/126
f 124/124/124 128/128/128 125/125/125
f 126/126/126 128/128/128 124/124/124
f 128/128/128 129/129/129 125/125/125
f 128/128/128 130/130/130 129/129/129
f 127/127/127 131/131/131 126/126/126
f 126/126/126 131/131/131 128/128/128
f 131/131/131 130/130/130 128/128/128
f 127/127/127 132/132/132 131/131/131
f 131/131/131 133/133/133 130/130/130
f 132/132/132 133/133/133 131/131/131
f 132/132/132 134/134/134 133/133/133
f 133/133/133 134/134/134 135/135/135
f 133/133/133 135/135/135 136/136/136
f 135/135/135 137/137/137 136/136/136
f 135/135/135 138/138/138 137/137/137
f 138/138/138 139/139/139 137/137/137
f 138/138/138 140/140/140 139/139/139
f 140/140/140 141/141/141 139/139/139
f 140/140/140 142/142/142 141/141/141
f 142/142/142 143/143/143 141/141/141
f 142/142/142 144/144/144 143/143/143
f 144/144/144 145/145/145 143/143/143
f 144/144/144 146/146/146 145/145/145
f 146/146/146 147/147/147 145/145/145
f 146/146/146 148/148/148 147/147/147
f 148/148/148 149/149/149 147/147/147
f 148/148/148 150/150/150 149/149/149
f 150/150/150 151/151/151 149/149/149
f 150/150/150 152/152/152 151/151/151
f 151/151/151 152/152/152 153/153/153
f 151/151/151 153/153/153 154/154/154
f 155/155/155 151/151/151 154/154/154
f 155/155/155 154/154/154 156/156/156
f 154/154/154 157/157/157 156/156/156
f 154/154/154 158/158/158 157/157/157
f 153/153/153 158/158/158 154/154/154
f 158/158/158 159/159/159 157/157/157
f 152/152/152 160/160/160 153/153/153
f 152/152/152 161/161/161 160/160/160
f 160/160/160 162/162/162 153/153/153
f 153/153/153 162/162/162 158/158/158
f 160/160/160 163/163/163 162/162/162
f 162/162/162 164/164/164 158/158/158
f 158/158/158 164/164/164 159/159/159
f 163/163/163 165/165/165 162/162/162
f 162/162/162 165/165/165 164/164/164
f 163/163/163 166/166/166 165/165/165
f 165/165/165 166/166/166 167/167/167
f 164/164/164 165/165/165 168/168/168
f 165/165/165 167/167/167 168/168/168
f 159/159/159 164/164/164 169/169/169
f 164/164/164 168/168/168 169/169/169
f 167/167/167 170/170/170 168/168/168
f 167/167/167 171/171/171 170/170/170
f 159/159/159 169/169/169 172/172/172
f 173/173/173 159/159/159 172/172/172
f 173/173/173 172/172/172 174/174/174
f 172/172/172 175/175/175 174/174/174
f 172/172/172 176/176/176 175/175/175
f 169/169/169 176/176/176 172/172/172
f 176/176/176 177/177/177 175/175/175
f 168/168/168 178/178/178 169/169/169
f 169/169/169 178/178/178 176/176/176
f 168/168/168 170/170/170 178/178/178
f 176/176/176 179/179/179 177/177/177
f 178/178/178 179/179/179 176/176/176
f 179/179/179 180/180/180 177/177/177
f 171/171/171 181/181/181 170/170/170
f 171/171/171 182/182/182 181/181/181
f 170/170/170 183/183/183 178/178/178
f 178/178/178 183/183/183 179/179/179
f 170/170/170 181/181/181 183/183/183
f 179/179/179 184/184/184 180/180/180
f 183/183/183 184/184/184 179/179/179
f 184/184/184 185/185/185 180/180/180
f 182/182/182 186/186/186 181/181/181
f 182/182/182 187/187/187 186/186/186
f 181/181/181 188/188/188 183/183/183
f 183/183/183 188/188/188 184/184/184
f 181/181/181 186/186/186 188/188/188
f 184/184/184 189/189/189 185/185/185
f 188/188/188 189/189/189 184/184/184
f 189/189/189 190/190/190 185/185/185
f 189/189/189 191/191/191 190/190/190
f 188/188/188 192/192/192 189/189/189
f 186/186/186 192/192/192 188/188/188
f 192/192/192 191/191/191 189/189/189
f 187/187/187 193/193/193 186/186/186
f 186/186/186 193/193/193 192/192/192
f 187/187/187 194/194/194 193/193/193
f 192/192/192 195/195/195 191/191/191
f 193/193/193 195/195/195 192/192/192
f 194/194/194 196/196/196 193/193/193
f 193/193/193 196/196/196 195/195/195
f 194/194/194 197/197/197 196/196/196
f 196/196/196 197/197/197 198/198/198
f 191/191/191 195/195/195 199/199/199
f 191/191/191 199/199/199 200/200/200
f 199/199/199 201/201/201 200/200/200
f 195/195/195 196/196/196 202/202/202
f 196/196/196 198/198/198 202/202/202
f 195/195/195 202/202/202 199/199/199
f 199/199/199 203/203/203 201/201/201
f 202/202/202 203/203/203 199/199/199
f 203/203/203 204/204/204 201/201/201
f 198/198/198 205/205/205 202/202/202
f 202/202/202 205/205/205 203/203/203
f 198/198/198 206/206/206 205/205/205
f 203/203/203 207/207/207 204/204/204
f 205/205/205 207/207/207 203/203/203
f 207/207/207 208/208/208 204/204/204
f 206/206/206 209/209/209 205/205/205
f 205/205/205 209/209/209 207/207/207
f 206/206/206 210/210/210 209/209/209
f 207/207/207 211/211/211 208/208/208
f 209/209/209 211/211/211 207/207/207
f 211/211/211 212/212/212 208/208/208
f 211/211/211 213/213/213 212/212/212
f 210/210/210 214/214/214 209/209/209
f 209/209/209 214/214/214 211/211/211
f 214/214/214 213/213/213 211/211/211
f 210/210/210 215/215/215 214/214/214
f 215/215/215 216/216/216 214/214/214
f 214/214/214 216/216/216 213/213/213
f 215/215/215 217/217/217 216/216/216
f 213/213/213 216/216/216 218/218/218
f 213/213/213 218/218/218 219/219/219
f 218/218/218 220/220/220 219/219/219
f 218/218/218 221/221/221 220/220/220
f 221/221/221 222/222/222 220/220/220
f 221/221/221 223/223/223 222/222/222
f 222/222/222 223/223/223 224/224/224
f 222/222/222 224/224/224 225/225/225
f 226/226/226 222/222/222 225/225/225
f 226/226/226 225/225/225 227/227/227
f 225/225/225 228/228/228 227/227/227
f 225/225/225 229/229/229 228/228/228
f 224/224/224 229/229/229 225/225/225
f 229/229/229 230/230/230 228/228/228
f 223/223/223 231/231/231 224/224/224
f 223/223/223 232/232/232 231/231/231
f 231/231/231 233/233/233 224/224/224
f 224/224/224 233/233/233 229/229/229
f 231/231/231 234/234/234 233/233/233
f 229/229/229 235/235/235 230/230/230
f 233/233/233 235/235/235 229/229/229
f 235/235/235 236/236/236 230/230/230
f 235/235/235 237/237/237 236/236/236
f 234/234/234 238/238/238 233/233/233
f 233/233/233 238/238/238 235/235/235
f 238/238/238 237/237/237 235/235/235
f 234/234/234 239/239/239 238/238/238
f 239/239/239 240/240/240 238/238/238
f 238/238/238 240/240/240 237/237/237
f 239/239/239 241/241/241 240/240/240
f 237/237/237 240/240/240 242/242/242
f 237/237/237 242/242/242 243/243/243
f 242/242/242 244/244/244 243/243/243
f 242/242/242 245/245/245 244/244/244
f 244/244/244 245/245/245 246/246/246
f 244/244/244 246/246/246 247/247/247
f 247/247/247 248/248/248 244/244/244
f 247/247/247 249/249/249 248/248/248
f 250/250/250 249/249/249 247/247/247
f 250/250/250 251/251/251 249/249/249
f 252/252/252 251/251/251 250/250/250
f 247/247/247 246/246/246 253/253/253
f 247/247/247 253/253/253 250/250/250
f 252/252/252 250/250/250 254/254/254
f 253/253/253 254/254/254 250/250/250
f 255/255/255 252/252/252 254/254/254
f 246/246/246 256/256/256 253/253/253
f 246/246/246 257/257/257 256/256/256
f 256/256/256 258/258/258 253/253/253
f 253/253/253 258/258/258 254/254/254
f 256/256/256 259/259/259 258/258/258
f 255/255/255 254/254/254 260/260/260
f 258/258/258 260/260/260 254/254/254
f 261/261/261 255/255/255 260/260/260
f 259/259/259 262/262/262 258/258/258
f 258/258/258 262/262/262 260/260/260
f 259/259/259 263/263/263 262/262/262
f 261/261/261 260/260/260 264/264/264
f 262/262/262 264/264/264 260/260/260
f 5/5/5 261/261/261 264/264/264
f 5/5/5 264/264/264 6/6/6
f 263/263/263 265/265/265 262/262/262
f 262/262/262 265/265/265 264/264/264
f 265/265/265 6/6/6 264/264/264
f 263/263/263 266/266/266 265/265/265
f 265/265/265 267/267/267 6/6/6
f 266/266/266 267/267/267 265/265/265
f 6/6/6 267/267/267 7/7/7
f 266/266/266 268/268/268 267/267/267
