# Converted from SynchroCircle04.asset
o SynchroCircle04
v 0.41644606 0 18.1277351
v 0.631582737 0 18.1171646
v 0.682885885 0 19.2852993
v 0.439303428 0 19.2972679
v 2.58803988 0 17.9407654
v 2.75718474 0 19.0977173
v 1.68449593 0 19.2360897
v 1.56511307 0 18.0713005
v 3.76891398 0 18.9476433
v 3.54053068 0 17.7994804
v 4.49101639 0 17.5613976
v 4.74672222 0 18.7027187
v 6.59138155 0 16.8920631
v 6.78992844 0 16.8085518
v 7.23766422 0 17.8886929
v 7.01286411 0 17.9832478
v 8.5680666 0 15.9736443
v 9.12270927 0 17.0029716
v 8.1620388 0 17.4998798
v 7.651474 0 16.446167
v 10.0220966 0 16.5159168
v 9.41479111 0 15.5151062
v 10.2265263 0 14.9662971
v 10.8571663 0 15.9513302
v 11.9713001 0 13.6189632
v 12.1293097 0 13.472579
v 12.9194727 0 14.334444
v 12.740571 0 14.500185
v 13.5146551 0 12.0798645
v 14.3879023 0 12.8574152
v 13.6551189 0 13.6529255
v 12.8149548 0 12.8373823
v 15.0664673 0 12.0921259
v 14.1534882 0 11.3593836
v 14.728569 0 10.566041
v 15.6580772 0 11.27598
v 15.9073019 0 8.70321465
v 16.0057144 0 8.5116148
v 17.0430031 0 9.05125332
v 16.9315777 0 9.26818657
v 16.8311806 0 6.72907495
v 17.9176998 0 7.16106606
v 17.5011902 0 8.15922928
v 16.4327602 0 7.68022203
v 18.2936001 0 6.2098465
v 17.1850662 0 5.83355093
v 17.4541264 0 4.8913641
v 18.5703888 0 5.24057722
v 17.9246464 0 2.73772883
v 17.9515972 0 2.52402496
v 19.1108932 0 2.67634583
v 19.0803833 0 2.91830611
v 18.1176147 0 0.566659808
v 19.2863579 0 0.600987136
v 19.2363605 0 1.68140757
v 18.0685368 0 1.59671295
v 19.3142509 0 -0.421431959
v 18.1438713 0 -0.395894468
v 18.0744572 0 -1.37328279
v 19.2428417 0 -1.42691588
v 17.7800179 0 -3.55796742
v 17.7322502 0 -3.76799989
v 18.8737316 0 -4.0213685
v 18.9278145 0 -3.78356457
v 17.2187958 0 -5.66410255
v 18.3288002 0 -6.03158045
v 18.6513405 0 -4.99921656
v 17.5249767 0 -4.67938375
v 18.0053215 0 -7.00187922
v 16.914259 0 -6.57758856
v 16.5147457 0 -7.47229242
v 17.5943222 0 -7.92230129
v 15.4908552 0 -9.42451954
v 15.3741331 0 -9.6055479
v 16.3601151 0 -10.234045
v 16.4922733 0 -10.0290813
v 14.2431393 0 -11.2116919
v 15.1605158 0 -11.9366493
v 15.8166952 0 -11.0768614
v 14.8676481 0 -10.3910761
v 14.524684 0 -12.7377968
v 13.644536 0 -11.965929
v 12.9631081 0 -12.6700315
v 13.8236675 0 -13.4621391
v 11.3332691 0 -14.1543369
v 11.1616669 0 -14.2845249
v 11.87323 0 -15.2123461
v 12.0675201 0 -15.0649424
v 9.5495491 0 -15.4069824
v 10.1636496 0 -16.4019833
v 11.0743227 0 -15.818471
v 10.4170618 0 -14.849453
v 9.29215431 0 -16.9373474
v 8.72908306 0 -15.9110003
v 7.84793091 0 -16.3395805
v 8.38567638 0 -17.3782463
v 5.80871868 0 -17.1769295
v 5.60294104 0 -17.2405777
v 5.95425749 0 -18.355814
v 6.18724394 0 -18.2837505
v 3.70414186 0 -17.7439671
v 3.9408977 0 -18.8889942
v 4.9962225 0 -18.6521416
v 4.71002293 0 -17.5167675
v 2.93885493 0 -19.0940037
v 2.7607708 0 -17.9369717
v 1.78617692 0 -18.0383339
v 1.9362464 0 -19.1982803
v -0.41644606 0 -18.1277332
v -0.631582677 0 -18.1171627
v -0.682885885 0 -19.2852974
v -0.439303428 0 -19.2972679
v -2.58803988 0 -17.9407654
v -2.75718451 0 -19.0977173
v -1.68449581 0 -19.2360897
v -1.56511307 0 -18.0712986
v -3.76891398 0 -18.9476433
v -3.5405302 0 -17.7994804
v -4.49101591 0 -17.5613976
v -4.74672222 0 -18.7027187
v -6.59138155 0 -16.8920631
v -6.78992844 0 -16.8085499
v -7.23766422 0 -17.8886929
v -7.01286411 0 -17.9832478
v -8.56806564 0 -15.9736433
v -9.12270927 0 -17.0029716
v -8.1620388 0 -17.4998779
v -7.651474 0 -16.4461651
v -10.0220966 0 -16.5159149
v -9.41479111 0 -15.5151062
v -10.2265263 0 -14.9662962
v -10.8571663 0 -15.9513302
v -11.9712982 0 -13.6189632
v -12.1293097 0 -13.472579
v -12.9194727 0 -14.334444
v -12.740571 0 -14.500185
v -13.5146542 0 -12.0798645
v -14.3879013 0 -12.8574142
v -13.6551189 0 -13.6529255
v -12.8149548 0 -12.8373823
v -15.0664654 0 -12.0921249
v -14.1534882 0 -11.3593836
v -14.7285681 0 -10.566041
v -15.6580763 0 -11.275979
v -15.9073019 0 -8.70321369
v -16.0057144 0 -8.5116148
v -17.0430031 0 -9.05125332
v -16.9315777 0 -9.26818657
v -16.8311787 0 -6.72907448
v -17.9176998 0 -7.16106606
v -17.5011902 0 -8.15922928
v -16.4327602 0 -7.68022203
v -18.2935982 0 -6.2098465
v -17.1850662 0 -5.83355045
v -17.4541245 0 -4.8913641
v -18.5703888 0 -5.24057674
v -17.9246464 0 -2.7377286
v -17.9515972 0 -2.52402496
v -19.1108932 0 -2.67634535
v -19.0803833 0 -2.91830611
v -18.1176128 0 -0.566659808
v -19.286356 0 -0.600987136
v -19.2363605 0 -1.68140757
v -18.0685349 0 -1.59671271
v -19.3142509 0 0.421431959
v -18.1438713 0 0.395894468
v -18.0744572 0 1.37328279
v -19.2428417 0 1.42691588
v -17.7800179 0 3.55796742
v -17.7322502 0 3.76799989
v -18.8737316 0 4.0213685
v -18.9278145 0 3.78356457
v -17.2187939 0 5.66410255
v -18.3287983 0 6.03158045
v -18.6513405 0 4.99921703
v -17.5249748 0 4.67938375
v -18.0053215 0 7.00187969
v -16.914259 0 6.57758856
v -16.5147438 0 7.47229242
v -17.5943222 0 7.92230129
v -15.4908552 0 9.42452049
v -15.3741331 0 9.6055479
v -16.3601131 0 10.234045
v -16.4922733 0 10.0290813
v -14.2431393 0 11.2116919
v -15.1605158 0 11.9366493
v -15.8166943 0 11.0768614
v -14.8676472 0 10.3910761
v -14.524684 0 12.7377977
v -13.644536 0 11.965929
v -12.9631062 0 12.6700325
v -13.8236675 0 13.462141
v -11.3332691 0 14.1543369
v -11.1616669 0 14.2845249
v -11.87323 0 15.2123461
v -12.0675192 0 15.0649424
v -9.5495491 0 15.4069834
v -10.1636496 0 16.4019852
v -11.0743227 0 15.818471
v -10.4170618 0 14.849453
v -9.29215431 0 16.9373474
v -8.72908211 0 15.9110003
v -7.84793091 0 16.3395805
v -8.38567638 0 17.3782463
v -5.80871868 0 17.1769314
v -5.60294104 0 17.2405796
v -5.95425749 0 18.355814
v -6.18724394 0 18.2837505
v -3.70414186 0 17.743969
v -3.9408977 0 18.8889942
v -4.9962225 0 18.6521435
v -4.71002293 0 17.5167675
v -2.93885493 0 19.0940056
v -2.76077056 0 17.9369736
v -1.78617692 0 18.0383339
v -1.9362464 0 19.1982803
vt 0.494384766 0.256347656
vt 0.491455078 0.256347656
vt 0.490478516 0.228027344
vt 0.493896484 0.228027344
vt 0.465087891 0.258789062
vt 0.461181641 0.23046875
vt 0.476318359 0.228515625
vt 0.479003906 0.256835938
vt 0.446777344 0.232910156
vt 0.452392578 0.260742188
vt 0.439697266 0.263671875
vt 0.433105469 0.236328125
vt 0.494384766 0.256347656
vt 0.491455078 0.256347656
vt 0.490478516 0.228027344
vt 0.493896484 0.228027344
vt 0.465087891 0.258789062
vt 0.461181641 0.23046875
vt 0.476318359 0.228515625
vt 0.479003906 0.256835938
vt 0.446777344 0.232910156
vt 0.452392578 0.260742188
vt 0.439697266 0.263671875
vt 0.433105469 0.236328125
vt 0.494384766 0.256347656
vt 0.491455078 0.256347656
vt 0.490478516 0.228027344
vt 0.493896484 0.228027344
vt 0.465087891 0.258789062
vt 0.461181641 0.23046875
vt 0.476318359 0.228515625
vt 0.479003906 0.256835938
vt 0.446777344 0.232910156
vt 0.452392578 0.260742188
vt 0.439697266 0.263671875
vt 0.433105469 0.236328125
vt 0.494384766 0.256347656
vt 0.491455078 0.256347656
vt 0.490478516 0.228027344
vt 0.493896484 0.228027344
vt 0.465087891 0.258789062
vt 0.461181641 0.23046875
vt 0.476318359 0.228515625
vt 0.479003906 0.256835938
vt 0.446777344 0.232910156
vt 0.452392578 0.260742188
vt 0.439697266 0.263671875
vt 0.433105469 0.236328125
vt 0.494384766 0.256347656
vt 0.491455078 0.256347656
vt 0.490478516 0.228027344
vt 0.493896484 0.228027344
vt 0.465087891 0.258789062
vt 0.461181641 0.23046875
vt 0.476318359 0.228515625
vt 0.479003906 0.256835938
vt 0.446777344 0.232910156
vt 0.452392578 0.260742188
vt 0.439697266 0.263671875
vt 0.433105469 0.236328125
vt 0.494384766 0.256347656
vt 0.491455078 0.256347656
vt 0.490478516 0.228027344
vt 0.493896484 0.228027344
vt 0.465087891 0.258789062
vt 0.461181641 0.23046875
vt 0.476318359 0.228515625
vt 0.479003906 0.256835938
vt 0.446777344 0.232910156
vt 0.452392578 0.260742188
vt 0.439697266 0.263671875
vt 0.433105469 0.236328125
vt 0.494384766 0.256347656
vt 0.491455078 0.256347656
vt 0.490478516 0.228027344
vt 0.493896484 0.228027344
vt 0.465087891 0.258789062
vt 0.461181641 0.23046875
vt 0.476318359 0.228515625
vt 0.479003906 0.256835938
vt 0.446777344 0.232910156
vt 0.452392578 0.260742188
vt 0.439697266 0.263671875
vt 0.433105469 0.236328125
vt 0.494384766 0.256347656
vt 0.491455078 0.256347656
vt 0.490478516 0.228027344
vt 0.493896484 0.228027344
vt 0.465087891 0.258789062
vt 0.461181641 0.23046875
vt 0.476318359 0.228515625
vt 0.479003906 0.256835938
vt 0.446777344 0.232910156
vt 0.452392578 0.260742188
vt 0.439697266 0.263671875
vt 0.433105469 0.236328125
vt 0.494384766 0.256347656
vt 0.491455078 0.256347656
vt 0.490478516 0.228027344
vt 0.493896484 0.228027344
vt 0.465087891 0.258789062
vt 0.461181641 0.23046875
vt 0.476318359 0.228515625
vt 0.479003906 0.256835938
vt 0.446777344 0.232910156
vt 0.452392578 0.260742188
vt 0.439697266 0.263671875
vt 0.433105469 0.236328125
vt 0.494384766 0.256347656
vt 0.491455078 0.256347656
vt 0.490478516 0.228027344
vt 0.493896484 0.228027344
vt 0.465087891 0.258789062
vt 0.461181641 0.23046875
vt 0.476318359 0.228515625
vt 0.479003906 0.256835938
vt 0.446777344 0.232910156
vt 0.452392578 0.260742188
vt 0.439697266 0.263671875
vt 0.433105469 0.236328125
vt 0.494384766 0.256347656
vt 0.491455078 0.256347656
vt 0.490478516 0.228027344
vt 0.493896484 0.228027344
vt 0.465087891 0.258789062
vt 0.461181641 0.23046875
vt 0.476318359 0.228515625
vt 0.479003906 0.256835938
vt 0.446777344 0.232910156
vt 0.452392578 0.260742188
vt 0.439697266 0.263671875
vt 0.433105469 0.236328125
vt 0.494384766 0.256347656
vt 0.491455078 0.256347656
vt 0.490478516 0.228027344
vt 0.493896484 0.228027344
vt 0.465087891 0.258789062
vt 0.461181641 0.23046875
vt 0.476318359 0.228515625
vt 0.479003906 0.256835938
vt 0.446777344 0.232910156
vt 0.452392578 0.260742188
vt 0.439697266 0.263671875
vt 0.433105469 0.236328125
vt 0.494384766 0.256347656
vt 0.491455078 0.256347656
vt 0.490478516 0.228027344
vt 0.493896484 0.228027344
vt 0.465087891 0.258789062
vt 0.461181641 0.23046875
vt 0.476318359 0.228515625
vt 0.479003906 0.256835938
vt 0.446777344 0.232910156
vt 0.452392578 0.260742188
vt 0.439697266 0.263671875
vt 0.433105469 0.236328125
vt 0.494384766 0.256347656
vt 0.491455078 0.256347656
vt 0.490478516 0.228027344
vt 0.493896484 0.228027344
vt 0.465087891 0.258789062
vt 0.461181641 0.23046875
vt 0.476318359 0.228515625
vt 0.479003906 0.256835938
vt 0.446777344 0.232910156
vt 0.452392578 0.260742188
vt 0.439697266 0.263671875
vt 0.433105469 0.236328125
vt 0.494384766 0.256347656
vt 0.491455078 0.256347656
vt 0.490478516 0.228027344
vt 0.493896484 0.228027344
vt 0.465087891 0.258789062
vt 0.461181641 0.23046875
vt 0.476318359 0.228515625
vt 0.479003906 0.256835938
vt 0.446777344 0.232910156
vt 0.452392578 0.260742188
vt 0.439697266 0.263671875
vt 0.433105469 0.236328125
vt 0.494384766 0.256347656
vt 0.491455078 0.256347656
vt 0.490478516 0.228027344
vt 0.493896484 0.228027344
vt 0.465087891 0.258789062
vt 0.461181641 0.23046875
vt 0.476318359 0.228515625
vt 0.479003906 0.256835938
vt 0.446777344 0.232910156
vt 0.452392578 0.260742188
vt 0.439697266 0.263671875
vt 0.433105469 0.236328125
vt 0.494384766 0.256347656
vt 0.491455078 0.256347656
vt 0.490478516 0.228027344
vt 0.493896484 0.228027344
vt 0.465087891 0.258789062
vt 0.461181641 0.23046875
vt 0.476318359 0.228515625
vt 0.479003906 0.256835938
vt 0.446777344 0.232910156
vt 0.452392578 0.260742188
vt 0.439697266 0.263671875
vt 0.433105469 0.236328125
vt 0.494384766 0.256347656
vt 0.491455078 0.256347656
vt 0.490478516 0.228027344
vt 0.493896484 0.228027344
vt 0.465087891 0.258789062
vt 0.461181641 0.23046875
vt 0.476318359 0.228515625
vt 0.479003906 0.256835938
vt 0.446777344 0.232910156
vt 0.452392578 0.260742188
vt 0.439697266 0.263671875
vt 0.433105469 0.236328125
vn 0 1 -0
vn 0 1 -0
vn 0 1 -0
vn 0 1 -0
vn 0 1 -0
vn 0 1 -0
vn 0 1 -0
vn 0 1 -0
vn 0 1 -0
vn 0 1 -0
vn 0 1 -0
vn 0 1 -0
vn 0 1 -0
vn 0 1 -0
vn 0 1 -0
vn 0 1 -0
vn 0 1 -0
vn 0 1 -0
vn 0 1 -0
vn 0 1 -0
vn 0 1 -0
vn 0 1 -0
vn 0 1 -0
vn 0 1 -0
vn 0 1 -0
vn 0 1 -0
vn 0 1 -0
vn 0 1 -0
vn 0 1 -0
vn 0 1 -0
vn 0 1 -0
vn 0 1 -0
vn 0 1 -0
vn 0 1 -0
vn 0 1 -0
vn 0 1 -0
vn 0 1 -0
vn 0 1 -0
vn 0 1 -0
vn 0 1 -0
vn 0 1 -0
vn 0 1 -0
vn 0 1 -0
vn 0 1 -0
vn 0 1 -0
vn 0 1 -0
vn 0 1 -0
vn 0 1 -0
vn 0 1 -0
vn 0 1 -0
vn 0 1 -0
vn 0 1 -0
vn 0 1 -0
vn 0 1 -0
vn 0 1 -0
vn 0 1 -0
vn 0 1 -0
vn 0 1 -0
vn 0 1 -0
vn 0 1 -0
vn 0 1 -0
vn 0 1 -0
vn 0 1 -0
vn 0 1 -0
vn 0 1 -0
vn 0 1 -0
vn 0 1 -0
vn 0 1 -0
vn 0 1 -0
vn 0 1 -0
vn 0 1 -0
vn 0 1 -0
vn 0 1 -0
vn 0 1 -0
vn 0 1 -0
vn 0 1 -0
vn 0 1 -0
vn 0 1 -0
vn 0 1 -0
vn 0 1 -0
vn 0 1 -0
vn 0 1 -0
vn 0 1 -0
vn 0 1 -0
vn 0 1 -0
vn 0 1 -0
vn 0 1 -0
vn 0 1 -0
vn 0 1 -0
vn 0 1 -0
vn 0 1 -0
vn 0 1 -0
vn 0 1 -0
vn 0 1 -0
vn 0 1 -0
vn 0 1 -0
vn 0 1 -0
vn 0 1 -0
vn 0 1 -0
vn 0 1 -0
vn 0 1 -0
vn 0 1 -0
vn 0 1 -0
vn 0 1 -0
vn 0 1 -0
vn 0 1 -0
vn 0 1 -0
vn 0 1 -0
vn 0 1 -0
vn 0 1 -0
vn 0 1 -0
vn 0 1 -0
vn 0 1 -0
vn 0 1 -0
vn 0 1 -0
vn 0 1 -0
vn 0 1 -0
vn 0 1 -0
vn 0 1 -0
vn 0 1 -0
vn 0 1 -0
vn 0 1 -0
vn 0 1 -0
vn 0 1 -0
vn 0 1 -0
vn 0 1 -0
vn 0 1 -0
vn 0 1 -0
vn 0 1 -0
vn 0 1 -0
vn 0 1 -0
vn 0 1 -0
vn 0 1 -0
vn 0 1 -0
vn 0 1 -0
vn 0 1 -0
vn 0 1 -0
vn 0 1 -0
vn 0 1 -0
vn 0 1 -0
vn 0 1 -0
vn 0 1 -0
vn 0 1 -0
vn 0 1 -0
vn 0 1 -0
vn 0 1 -0
vn 0 1 -0
vn 0 1 -0
vn 0 1 -0
vn 0 1 -0
vn 0 1 -0
vn 0 1 -0
vn 0 1 -0
vn 0 1 -0
vn 0 1 -0
vn 0 1 -0
vn 0 1 -0
vn 0 1 -0
vn 0 1 -0
vn 0 1 -0
vn 0 1 -0
vn 0 1 -0
vn 0 1 -0
vn 0 1 -0
vn 0 1 -0
vn 0 1 -0
vn 0 1 -0
vn 0 1 -0
vn 0 1 -0
vn 0 1 -0
vn 0 1 -0
vn 0 1 -0
vn 0 1 -0
vn 0 1 -0
vn 0 1 -0
vn 0 1 -0
vn 0 1 -0
vn 0 1 -0
vn 0 1 -0
vn 0 1 -0
vn 0 1 -0
vn 0 1 -0
vn 0 1 -0
vn 0 1 -0
vn 0 1 -0
vn 0 1 -0
vn 0 1 -0
vn 0 1 -0
vn 0 1 -0
vn 0 1 -0
vn 0 1 -0
vn 0 1 -0
vn 0 1 -0
vn 0 1 -0
vn 0 1 -0
vn 0 1 -0
vn 0 1 -0
vn 0 1 -0
vn 0 1 -0
vn 0 1 -0
vn 0 1 -0
vn 0 1 -0
vn 0 1 -0
vn 0 1 -0
vn 0 1 -0
vn 0 1 -0
vn 0 1 -0
vn 0 1 -0
vn 0 1 -0
vn 0 1 -0
vn 0 1 -0
vn 0 1 -0
vn 0 1 -0
vn 0 1 -0
vn 0 1 -0
vn 0 1 -0
f 1/1/1 3/3/3 2/2/2
f 1/1/1 4/4/4 3/3/3
f 5/5/5 7/7/7 6/6/6
f 5/5/5 8/8/8 7/7/7
f 9/9/9 11/11/11 10/10/10
f 9/9/9 12/12/12 11/11/11
f 13/13/13 15/15/15 14/14/14
f 13/13/13 16/16/16 15/15/15
f 17/17/17 19/19/19 18/18/18
f 17/17/17 20/20/20 19/19/19
f 21/21/21 23/23/23 22/22/22
f 21/21/21 24/24/24 23/23/23
f 25/25/25 27/27/27 26/26/26
f 25/25/25 28/28/28 27/27/27
f 29/29/29 31/31/31 30/30/30
f 29/29/29 32/32/32 31/31/31
f 33/33/33 35/35/35 34/34/34
f 33/33/33 36/36/36 35/35/35
f 37/37/37 39/39/39 38/38/38
f 37/37/37 40/40/40 39/39/39
f 41/41/41 43/43/43 42/42/42
f 41/41/41 44/44/44 43/43/43
f 45/45/45 47/47/47 46/46/46
f 45/45/45 48/48/48 47/47/47
f 49/49/49 51/51/51 50/50/50
f 49/49/49 52/52/52 51/51/51
f 53/53/53 55/55/55 54/54/54
f 53/53/53 56/56/56 55/55/55
f 57/57/57 59/59/59 58/58/58
f 57/57/57 60/60/60 59/59/59
f 61/61/61 63/63/63 62/62/62
f 61/61/61 64/64/64 63/63/63
f 65/65/65 67/67/67 66/66/66
f 65/65/65 68/68/68 67/67/67
f 69/69/69 71/71/71 70/70/70
f 69/69/69 72/72/72 71/71/71
f 73/73/73 75/75/75 74/74/74
f 73/73/73 76/76/76 75/75/75
f 77/77/77 79/79/79 78/78/78
f 77/77/77 80/80/80 79/79/79
f 81/81/81 83/83/83 82/82/82
f 81/81/81 84/84/84 83/83/83
f 85/85/85 87/87/87 86/86/86
f 85/85/85 88/88/88 87/87/87
f 89/89/89 91/91/91 90/90/90
f 89/89/89 92/92/92 91/91/91
f 93/93/93 95/95/95 94/94/94
f 93/93/93 96/96/96 95/95/95
f 97/97/97 99/99/99 98/98/98
f 97/97/97 100/100/100 99/99/99
f 101/101/101 103/103/103 102/102/102
f 101/101/101 104/104/104 103/103/103
f 105/105/105 107/107/107 106/106/106
f 105/105/105 108/108/108 107/107/107
f 109/109/109 111/111/111 110/110/110
f 109/109/109 112/112/112 111/111/111
f 113/113/113 115/115/115 114/114/114
f 113/113/113 116/116/116 115/115/115
f 117/117/117 119/119/119 118/118/118
f 117/117/117 120/120/120 119/119/119
f 121/121/121 123/123/123 122/122/122
f 121/121/121 124/124/124 123/123/123
f 125/125/125 127/127/127 126/126/126
f 125/125/125 128/128/128 127/127/127
f 129/129/129 131/131/131 130/130/130
f 129/129/129 132/132/132 131/131/131
f 133/133/133 135/135/135 134/134/134
f 133/133/133 136/136/136 135/135/135
f 137/137/137 139/139/139 138/138/138
f 137/137/137 140/140/140 139/139/139
f 141/141/141 143/143/143 142/142/142
f 141/141/141 144/144/144 143/143/143
f 145/145/145 147/147/147 146/146/146
f 145/145/145 148/148/148 147/147/147
f 149/149/149 151/151/151 150/150/150
f 149/149/149 152/152/152 151/151/151
f 153/153/153 155/155/155 154/154/154
f 153/153/153 156/156/156 155/155/155
f 157/157/157 159/159/159 158/158/158
f 157/157/157 160/160/160 159/159/159
f 161/161/161 163/163/163 162/162/162
f 161/161/161 164/164/164 163/163/163
f 165/165/165 167/167/167 166/166/166
f 165/165/165 168/168/168 167/167/167
f 169/169/169 171/171/171 170/170/170
f 169/169/169 172/172/172 171/171/171
f 173/173/173 175/175/175 174/174/174
f 173/173/173 176/176/176 175/175/175
f 177/177/177 179/179/179 178/178/178
f 177/177/177 180/180/180 179/179/179
f 181/181/181 183/183/183 182/182/182
f 181/181/181 184/184/184 183/183/183
f 185/185/185 187/187/187 186/186/186
f 185/185/185 188/188/188 187/187/187
f 189/189/189 191/191/191 190/190/190
f 189/189/189 192/192/192 191/191/191
f 193/193/193 195/195/195 194/194/194
f 193/193/193 196/196/196 195/195/195
f 197/197/197 199/199/199 198/198/198
f 197/197/197 200/200/200 199/199/199
f 201/201/201 203/203/203 202/202/202
f 201/201/201 204/204/204 203/203/203
f 205/205/205 207/207/207 206/206/206
f 205/205/205 208/208/208 207/207/207
f 209/209/209 211/211/211 210/210/210
f 209/209/209 212/212/212 211/211/211
f 213/213/213 215/215/215 214/214/214
f 213/213/213 216/216/216 215/215/215
