# Converted from SynchroCircle05.asset
o SynchroCircle05
v -2.02576661 0 20.5678787
v -0.201593682 0 19.6618519
v -0.212650254 0 20.65695
v -1.92817652 0 19.5770264
v -4.03201675 0 20.2702847
v -3.83777523 0 19.2937698
v -5.99943638 0 19.7774677
v -5.71041489 0 18.8246937
v -7.90908003 0 19.0941868
v -7.52806234 0 18.1743298
v -9.7425518 0 18.2270222
v -9.27320766 0 17.3489418
v -11.4821997 0 17.1843128
v -10.9290476 0 16.3564644
v -13.1112642 0 15.9761143
v -12.4796333 0 15.2064705
v -14.6140661 0 14.6140575
v -13.910038 0 13.9100304
v -15.97612 0 13.1112518
v -15.2064781 0 12.4796238
v -17.1843204 0 11.4821901
v -16.356472 0 10.929039
v -18.2270222 0 9.74253654
v -17.3489418 0 9.27319336
v -19.0941906 0 7.90906715
v -18.1743336 0 7.52804995
v -19.7774677 0 5.9994235
v -18.8246937 0 5.71040344
v -20.2702847 0 4.03200245
v -19.2937698 0 3.8377614
v -19.4530258 0 2.764117
v -20.4312172 0 2.94706082
v 20.5678787 0 2.02576351
v 19.6717548 0 3.18300795e-06
v 20.6674023 0 3.44049113e-06
v 19.5770264 0 1.92817307
v 20.2702827 0 4.03201342
v 19.2937698 0 3.83777237
v 19.7774639 0 5.99943447
v 18.8246899 0 5.71041298
v 19.0941906 0 7.90907526
v 18.1743336 0 7.52805901
v 18.2270222 0 9.74254894
v 17.3489418 0 9.27320385
v 17.1843109 0 11.482193
v 16.3564644 0 10.9290428
v 15.9761181 0 13.1112604
v 15.2064714 0 12.4796286
v 14.6140585 0 14.6140633
v 13.9100304 0 13.9100361
v 13.1112556 0 15.97612
v 12.4796247 0 15.2064781
v 11.4821882 0 17.1843204
v 10.929038 0 16.356472
v 9.74254131 0 18.227026
v 9.27319717 0 17.3489456
v 7.90906715 0 19.0941906
v 7.52805042 0 18.1743336
v 5.99942446 0 19.7774754
v 5.71040392 0 18.8247013
v 4.0320034 0 20.2702827
v 3.83776307 0 19.2937698
v 2.81883335 0 19.44491
v 2.94374442 0 20.4317055
v 8.76714068e-07 0 -20.6674042
v -0.0683340803 0 -19.6684017
v -0.0437962376 0 -20.6652527
v 6.5128512e-07 0 -19.6717587
v 2.02576113 0 -20.5678806
v 1.92817104 0 -19.5770302
v 4.03201151 0 -20.2702885
v 3.83777022 0 -19.2937737
v 5.99943018 0 -19.7774677
v 5.71040964 0 -18.8246937
v 7.90907431 0 -19.0941906
v 7.5280571 0 -18.1743336
v 9.74254799 0 -18.2270241
v 9.27320385 0 -17.3489437
v 11.4821949 0 -17.1843204
v 10.9290428 0 -16.3564682
v 13.1112604 0 -15.97612
v 12.4796286 0 -15.2064781
v 14.6140623 0 -14.6140633
v 13.9100342 0 -13.9100361
v 15.97612 0 -13.1112604
v 15.2064772 0 -12.4796295
v 17.1843204 0 -11.482193
v 16.356472 0 -10.9290428
v 18.2270222 0 -9.74254322
v 17.3489418 0 -9.27320004
v 19.0941906 0 -7.90907097
v 18.1743336 0 -7.52805471
v 19.7774754 0 -5.9994278
v 18.8247013 0 -5.71040773
v 20.2702827 0 -4.03200579
v 19.2937698 0 -3.83776546
v 19.4317894 0 -2.90732145
v 20.4138622 0 -3.06406975
v -20.5678844 0 -2.02576065
v -19.6625385 0 -0.187744245
v -20.6572971 0 -0.205748796
v -19.577034 0 -1.92817068
v -20.2702885 0 -4.03201056
v -19.2937737 0 -3.83776975
v -19.7774754 0 -5.99943352
v -18.8247013 0 -5.71041203
v -19.0941944 0 -7.90907431
v -18.1743374 0 -7.52805853
v -18.227026 0 -9.74254704
v -17.3489456 0 -9.27320194
v -17.1843224 0 -11.4821949
v -16.356472 0 -10.9290428
v -15.9761238 0 -13.1112633
v -15.2064791 0 -12.4796295
v -14.6140642 0 -14.6140661
v -13.910038 0 -13.910038
v -13.1112633 0 -15.97612
v -12.4796314 0 -15.2064781
v -11.4821949 0 -17.1843224
v -10.9290428 0 -16.356472
v -9.74254704 0 -18.227026
v -9.27320194 0 -17.3489456
v -7.90907431 0 -19.0941982
v -7.52805853 0 -18.1743412
v -5.99943018 0 -19.7774754
v -5.71040964 0 -18.8247013
v -4.0320096 0 -20.2702885
v -3.83776879 0 -19.2937737
v -2.80745649 0 -19.4466019
v -2.94573569 0 -20.4314156
vt 0.53125 0.180664062
vt 0.502929688 0.203613281
vt 0.503417969 0.179199219
vt 0.529296875 0.204589844
vt 0.5625 0.185058594
vt 0.558105469 0.208984375
vt 0.593261719 0.192871094
vt 0.5859375 0.216308594
vt 0.623046875 0.203613281
vt 0.613769531 0.226074219
vt 0.651367188 0.216796875
vt 0.639648438 0.23828125
vt 0.678222656 0.233398438
vt 0.665039062 0.253417969
vt 0.703613281 0.251953125
vt 0.687988281 0.270507812
vt 0.727050781 0.272949219
vt 0.709960938 0.290039062
vt 0.748046875 0.296386719
vt 0.729492188 0.312011719
vt 0.766601562 0.321777344
vt 0.746582031 0.334960938
vt 0.783203125 0.348632812
vt 0.76171875 0.360351562
vt 0.796386719 0.376953125
vt 0.773925781 0.386230469
vt 0.807128906 0.406738281
vt 0.783691406 0.4140625
vt 0.814941406 0.4375
vt 0.791015625 0.441894531
vt 0.793457031 0.458496094
vt 0.817382812 0.454101562
vt 0.180664062 0.46875
vt 0.203369141 0.5
vt 0.179077148 0.5
vt 0.204711914 0.470703125
vt 0.185302734 0.4375
vt 0.208984375 0.441894531
vt 0.192871094 0.406738281
vt 0.216064453 0.4140625
vt 0.203491211 0.376953125
vt 0.225952148 0.386230469
vt 0.216918945 0.348632812
vt 0.23840332 0.360351562
vt 0.233154297 0.321777344
vt 0.253417969 0.334960938
vt 0.251953125 0.296386719
vt 0.270751953 0.312011719
vt 0.273193359 0.272949219
vt 0.290283203 0.290039062
vt 0.296386719 0.251953125
vt 0.311767578 0.270507812
vt 0.321777344 0.233398438
vt 0.335205078 0.253417969
vt 0.348632812 0.216796875
vt 0.360107422 0.23828125
vt 0.377197266 0.203613281
vt 0.386474609 0.226074219
vt 0.406738281 0.192871094
vt 0.413818359 0.216308594
vt 0.4375 0.185058594
vt 0.442138672 0.208984375
vt 0.457519531 0.206542969
vt 0.454345703 0.182617188
vt 0.5 0.820922852
vt 0.500976562 0.796630859
vt 0.500488281 0.820922852
vt 0.5 0.796630859
vt 0.468505859 0.819335938
vt 0.470947266 0.795288086
vt 0.4375 0.814697266
vt 0.442138672 0.791015625
vt 0.406738281 0.807128906
vt 0.413818359 0.783935547
vt 0.377197266 0.796508789
vt 0.386474609 0.774047852
vt 0.348632812 0.783081055
vt 0.360107422 0.76159668
vt 0.321777344 0.766845703
vt 0.335205078 0.746582031
vt 0.296386719 0.748046875
vt 0.311767578 0.729248047
vt 0.273193359 0.726806641
vt 0.290283203 0.709716797
vt 0.251953125 0.703613281
vt 0.270751953 0.688232422
vt 0.233154297 0.678222656
vt 0.253417969 0.664794922
vt 0.216918945 0.651367188
vt 0.23840332 0.639892578
vt 0.203491211 0.622802734
vt 0.225952148 0.613525391
vt 0.192871094 0.593261719
vt 0.216064453 0.586181641
vt 0.185302734 0.5625
vt 0.208984375 0.557861328
vt 0.20690918 0.543945312
vt 0.182983398 0.547607422
vt 0.819335938 0.531494141
vt 0.796386719 0.502929688
vt 0.820800781 0.503173828
vt 0.795410156 0.529052734
vt 0.814941406 0.5625
vt 0.791015625 0.557861328
vt 0.807128906 0.593261719
vt 0.783691406 0.586181641
vt 0.796386719 0.622802734
vt 0.773925781 0.613525391
vt 0.783203125 0.651367188
vt 0.76171875 0.639892578
vt 0.766601562 0.678222656
vt 0.746582031 0.664794922
vt 0.748046875 0.703613281
vt 0.729492188 0.688232422
vt 0.727050781 0.726806641
vt 0.709960938 0.709716797
vt 0.703613281 0.748046875
vt 0.687988281 0.729248047
vt 0.678222656 0.766845703
vt 0.665039062 0.746582031
vt 0.651367188 0.783081055
vt 0.639648438 0.76159668
vt 0.623046875 0.796508789
vt 0.613769531 0.774047852
vt 0.593261719 0.807128906
vt 0.5859375 0.783935547
vt 0.5625 0.814697266
vt 0.558105469 0.791015625
vt 0.542480469 0.793334961
vt 0.545898438 0.817260742
vn 0 1 -0
vn 0 1 -0
vn 0 1 -0
vn 0 1 -0
vn 0 1 -0
vn 0 1 -0
vn 0 1 -0
vn 0 1 -0
vn 0 1 -0
vn 0 1 -0
vn 0 1 -0
vn 0 1 -0
vn 0 1 -0
vn 0 1 -0
vn 0 1 -0
vn 0 1 -0
vn 0 1 -0
vn 0 1 -0
vn 0 1 -0
vn 0 1 -0
vn 0 1 -0
vn 0 1 -0
vn 0 1 -0
vn 0 1 -0
vn 0 1 -0
vn 0 1 -0
vn 0 1 -0
vn 0 1 -0
vn 0 1 -0
vn 0 1 -0
vn 0 1 -0
vn 0 1 -0
vn 0 1 -0
vn 0 1 -0
vn 0 1 -0
vn 0 1 -0
vn 0 1 -0
vn 0 1 -0
vn 0 1 -0
vn 0 1 -0
vn 0 1 -0
vn 0 1 -0
vn 0 1 -0
vn 0 1 -0
vn 0 1 -0
vn 0 1 -0
vn 0 1 -0
vn 0 1 -0
vn 0 1 -0
vn 0 1 -0
vn 0 1 -0
vn 0 1 -0
vn 0 1 -0
vn 0 1 -0
vn 0 1 -0
vn 0 1 -0
vn 0 1 -0
vn 0 1 -0
vn 0 1 -0
vn 0 1 -0
vn 0 1 -0
vn 0 1 -0
vn 0 1 -0
vn 0 1 -0
vn 0 1 -0
vn 0 1 -0
vn 0 1 -0
vn 0 1 -0
vn 0 1 -0
vn 0 1 -0
vn 0 1 -0
vn 0 1 -0
vn 0 1 -0
vn 0 1 -0
vn 0 1 -0
vn 0 1 -0
vn 0 1 -0
vn 0 1 -0
vn 0 1 -0
vn 0 1 -0
vn 0 1 -0
vn 0 1 -0
vn 0 1 -0
vn 0 1 -0
vn 0 1 -0
vn 0 1 -0
vn 0 1 -0
vn 0 1 -0
vn 0 1 -0
vn 0 1 -0
vn 0 1 -0
vn 0 1 -0
vn 0 1 -0
vn 0 1 -0
vn 0 1 -0
vn 0 1 -0
vn 0 1 -0
vn 0 1 -0
vn 0 1 -0
vn 0 1 -0
vn 0 1 -0
vn 0 1 -0
vn 0 1 -0
vn 0 1 -0
vn 0 1 -0
vn 0 1 -0
vn 0 1 -0
vn 0 1 -0
vn 0 1 -0
vn 0 1 -0
vn 0 1 -0
vn 0 1 -0
vn 0 1 -0
vn 0 1 -0
vn 0 1 -0
vn 0 1 -0
vn 0 1 -0
vn 0 1 -0
vn 0 1 -0
vn 0 1 -0
vn 0 1 -0
vn 0 1 -0
vn 0 1 -0
vn 0 1 -0
vn 0 1 -0
vn 0 1 -0
vn 0 1 -0
vn 0 1 -0
vn 0 1 -0
vn 0 1 -0
f 1/1/1 3/3/3 2/2/2
f 1/1/1 2/2/2 4/4/4
f 5/5/5 1/1/1 4/4/4
f 5/5/5 4/4/4 6/6/6
f 7/7/7 5/5/5 6/6/6
f 7/7/7 6/6/6 8/8/8
f 9/9/9 7/7/7 8/8/8
f 9/9/9 8/8/8 10/10/10
f 11/11/11 9/9/9 10/10/10
f 11/11/11 10/10/10 12/12/12
f 13/13/13 11/11/11 12/12/12
f 13/13/13 12/12/12 14/14/14
f 15/15/15 13/13/13 14/14/14
f 15/15/15 14/14/14 16/16/16
f 17/17/17 15/15/15 16/16/16
f 17/17/17 16/16/16 18/18/18
f 19/19/19 17/17/17 18/18/18
f 19/19/19 18/18/18 20/20/20
f 21/21/21 19/19/19 20/20/20
f 21/21/21 20/20/20 22/22/22
f 23/23/23 21/21/21 22/22/22
f 23/23/23 22/22/22 24/24/24
f 25/25/25 23/23/23 24/24/24
f 25/25/25 24/24/24 26/26/26
f 27/27/27 25/25/25 26/26/26
f 27/27/27 26/26/26 28/28/28
f 29/29/29 27/27/27 28/28/28
f 29/29/29 28/28/28 30/30/30
f 31/31/31 29/29/29 30/30/30
f 31/31/31 32/32/32 29/29/29
f 33/33/33 35/35/35 34/34/34
f 33/33/33 34/34/34 36/36/36
f 37/37/37 33/33/33 36/36/36
f 37/37/37 36/36/36 38/38/38
f 39/39/39 37/37/37 38/38/38
f 39/39/39 38/38/38 40/40/40
f 41/41/41 39/39/39 40/40/40
f 41/41/41 40/40/40 42/42/42
f 43/43/43 41/41/41 42/42/42
f 43/43/43 42/42/42 44/44/44
f 45/45/45 43/43/43 44/44/44
f 45/45/45 44/44/44 46/46/46
f 47/47/47 45/45/45 46/46/46
f 47/47/47 46/46/46 48/48/48
f 49/49/49 47/47/47 48/48/48
f 49/49/49 48/48/48 50/50/50
f 51/51/51 49/49/49 50/50/50
f 51/51/51 50/50/50 52/52/52
f 53/53/53 51/51/51 52/52/52
f 53/53/53 52/52/52 54/54/54
f 55/55/55 53/53/53 54/54/54
f 55/55/55 54/54/54 56/56/56
f 57/57/57 55/55/55 56/56/56
f 57/57/57 56/56/56 58/58/58
f 59/59/59 57/57/57 58/58/58
f 59/59/59 58/58/58 60/60/60
f 61/61/61 59/59/59 60/60/60
f 61/61/61 60/60/60 62/62/62
f 63/63/63 61/61/61 62/62/62
f 63/63/63 64/64/64 61/61/61
f 65/65/65 67/67/67 66/66/66
f 65/65/65 66/66/66 68/68/68
f 69/69/69 65/65/65 68/68/68
f 69/69/69 68/68/68 70/70/70
f 71/71/71 69/69/69 70/70/70
f 71/71/71 70/70/70 72/72/72
f 73/73/73 71/71/71 72/72/72
f 73/73/73 72/72/72 74/74/74
f 75/75/75 73/73/73 74/74/74
f 75/75/75 74/74/74 76/76/76
f 77/77/77 75/75/75 76/76/76
f 77/77/77 76/76/76 78/78/78
f 79/79/79 77/77/77 78/78/78
f 79/79/79 78/78/78 80/80/80
f 81/81/81 79/79/79 80/80/80
f 81/81/81 80/80/80 82/82/82
f 83/83/83 81/81/81 82/82/82
f 83/83/83 82/82/82 84/84/84
f 85/85/85 83/83/83 84/84/84
f 85/85/85 84/84/84 86/86/86
f 87/87/87 85/85/85 86/86/86
f 87/87/87 86/86/86 88/88/88
f 89/89/89 87/87/87 88/88/88
f 89/89/89 88/88/88 90/90/90
f 91/91/91 89/89/89 90/90/90
f 91/91/91 90/90/90 92/92/92
f 93/93/93 91/91/91 92/92/92
f 93/93/93 92/92/92 94/94/94
f 95/95/95 93/93/93 94/94/94
f 95/95/95 94/94/94 96/96/96
f 97/97/97 95/95/95 96/96/96
f 97/97/97 98/98/98 95/95/95
f 99/99/99 101/101/101 100/100/100
f 99/99/99 100/100/100 102/102/102
f 103/103/103 99/99/99 102/102/102
f 103/103/103 102/102/102 104/104/104
f 105/105/105 103/103/103 104/104/104
f 105/105/105 104/104/104 106/106/106
f 107/107/107 105/105/105 106/106/106
f 107/107/107 106/106/106 108/108/108
f 109/109/109 107/107/107 108/108/108
f 109/109/109 108/108/108 110/110/110
f 111/111/111 109/109/109 110/110/110
f 111/111/111 110/110/110 112/112/112
f 113/113/113 111/111/111 112/112/112
f 113/113/113 112/112/112 114/114/114
f 115/115/115 113/113/113 114/114/114
f 115/115/115 114/114/114 116/116/116
f 117/117/117 115/115/115 116/116/116
f 117/117/117 116/116/116 118/118/118
f 119/119/119 117/117/117 118/118/118
f 119/119/119 118/118/118 120/120/120
f 121/121/121 119/119/119 120/120/120
f 121/121/121 120/120/120 122/122/122
f 123/123/123 121/121/121 122/122/122
f 123/123/123 122/122/122 124/124/124
f 125/125/125 123/123/123 124/124/124
f 125/125/125 124/124/124 126/126/126
f 127/127/127 125/125/125 126/126/126
f 127/127/127 126/126/126 128/128/128
f 129/129/129 127/127/127 128/128/128
f 129/129/129 130/130/130 127/127/127
