# Converted from SynchroCircle02.asset
o SynchroCircle02
v -15.3375359 0 4.65257549
v -12.7752142 0 3.87529063
v -12.3338385 0 5.10883808
v -14.8076506 0 6.13352442
v -11.7736998 0 6.29315901
v -14.1351585 0 7.5553894
v -11.1001673 0 7.41687918
v -13.3265352 0 8.90449429
v -10.3197412 0 8.46916199
v -12.389575 0 10.1678419
v -9.43992424 0 9.4399004
v -11.333292 0 11.3332758
v -8.4691906 0 10.3197193
v -10.16786 0 12.3895607
v -7.41687346 0 11.100172
v -8.90449715 0 13.3265352
v -6.29317665 0 11.773695
v -7.55540705 0 14.1351519
v -5.10886002 0 12.3338327
v -6.13354063 0 14.8076448
v -3.87532377 0 12.7752028
v -4.65260029 0 15.3375311
v -2.60447145 0 13.0935278
v -3.12685227 0 15.7197151
v -1.3085537 0 13.285759
v -1.57100153 0 15.9505033
v -1.5261925e-05 0 13.3500452
v -1.0887944e-05 0 16.0276794
v 4.65258217 0 15.3375416
v 3.8753047 0 12.7752132
v 5.10881329 0 12.333849
v 6.13351202 0 14.8076525
v 6.29313707 0 11.7737131
v 7.55537748 0 14.1351624
v 7.41687679 0 11.1001711
v 8.90449238 0 13.3265352
v 8.46916389 0 10.3197384
v 10.1678429 0 12.3895721
v 9.4399147 0 9.43991566
v 11.3332796 0 11.3332834
v 10.3197308 0 8.46916962
v 12.3895664 0 10.1678486
v 11.1001596 0 7.41688538
v 13.3265276 0 8.90450096
v 11.7737045 0 6.29314756
v 14.1351557 0 7.55539083
v 12.3338442 0 5.10882759
v 14.8076496 0 6.13352156
v 12.7751999 0 3.87532377
v 15.3375292 0 4.65259647
v 13.0935316 0 2.60445833
v 15.719718 0 3.12684417
v 13.285758 0 1.30853331
v 15.9505033 0 1.57098889
v 13.3500452 0 -3.92168067e-06
v 16.0276794 0 -6.03369131e-07
v 15.3375378 0 -4.65259504
v 12.7752075 0 -3.87532306
v 12.3338413 0 -5.10883522
v 14.8076487 0 -6.13352394
v 11.7736883 0 -6.29318142
v 14.1351519 0 -7.55540323
v 11.1001501 0 -7.41690493
v 13.3265276 0 -8.90450764
v 10.3197145 0 -8.46919823
v 12.3895617 0 -10.16786
v 9.4399004 0 -9.43992329
v 11.3332787 0 -11.3332911
v 8.46915245 0 -10.3197508
v 10.16784 0 -12.3895798
v 7.41685963 0 -11.1001863
v 8.9044857 0 -13.3265467
v 6.29315472 0 -11.7737055
v 7.5553937 0 -14.1351585
v 5.10883999 0 -12.3338413
v 6.13352776 0 -14.8076496
v 3.87530851 0 -12.7752094
v 4.65258694 0 -15.3375349
v 2.6044476 0 -13.0935383
v 3.12683749 0 -15.7197227
v 1.30852842 0 -13.2857628
v 1.57098448 0 -15.9505091
v -1.05868858e-05 0 -13.3500481
v -5.27532529e-06 0 -16.0276833
v -4.65259123 0 -15.3375387
v -3.87531614 0 -12.7752123
v -5.10882711 0 -12.3338509
v -6.13352299 0 -14.8076572
v -6.29315424 0 -11.7737074
v -7.55539417 0 -14.1351585
v -7.41688824 0 -11.1001644
v -8.90450096 0 -13.3265381
v -8.46918392 0 -10.3197279
v -10.1678553 0 -12.3895693
v -9.43992424 0 -9.43991089
v -11.3332872 0 -11.3332844
v -10.3197327 0 -8.46917915
v -12.3895702 0 -10.1678524
v -11.100174 0 -7.41688108
v -13.3265419 0 -8.90449715
v -11.7737179 0 -6.29314184
v -14.1351643 0 -7.55538321
v -12.3338594 0 -5.10881186
v -14.8076572 0 -6.13351345
v -12.7752094 0 -3.87532306
v -15.3375387 0 -4.65259647
v -13.0935326 0 -2.60447073
v -15.7197227 0 -3.12685084
v -13.2857647 0 -1.30854166
v -15.95051 0 -1.57099271
v -13.3500538 0 -6.30875093e-06
v -16.0276871 0 -3.46928937e-06
vt 0.678222656 0.445800781
vt 0.615722656 0.466308594
vt 0.611816406 0.453613281
vt 0.671875 0.428710938
vt 0.606933594 0.442871094
vt 0.6640625 0.412109375
vt 0.600585938 0.432617188
vt 0.654785156 0.396484375
vt 0.59375 0.423339844
vt 0.644042969 0.381835938
vt 0.585449219 0.414550781
vt 0.631347656 0.368652344
vt 0.576660156 0.40625
vt 0.618164062 0.355957031
vt 0.567382812 0.399414062
vt 0.603515625 0.345214844
vt 0.557128906 0.393066406
vt 0.587890625 0.3359375
vt 0.546386719 0.388183594
vt 0.571289062 0.328125
vt 0.53515625 0.383789062
vt 0.554199219 0.321777344
vt 0.5234375 0.381347656
vt 0.536132812 0.317382812
vt 0.51171875 0.379394531
vt 0.518066406 0.314941406
vt 0.498535156 0.379394531
vt 0.5 0.313964844
vt 0.446044922 0.321777344
vt 0.466308594 0.384277344
vt 0.453613281 0.388183594
vt 0.428710938 0.328125
vt 0.442871094 0.393066406
vt 0.412353516 0.3359375
vt 0.432617188 0.399414062
vt 0.396728516 0.345214844
vt 0.423095703 0.40625
vt 0.382080078 0.355957031
vt 0.414306641 0.414550781
vt 0.368408203 0.368652344
vt 0.40625 0.423339844
vt 0.356201172 0.381835938
vt 0.399169922 0.432617188
vt 0.345214844 0.396484375
vt 0.393066406 0.442871094
vt 0.3359375 0.412109375
vt 0.387939453 0.453613281
vt 0.328125 0.428710938
vt 0.384033203 0.46484375
vt 0.322021484 0.445800781
vt 0.381103516 0.4765625
vt 0.317626953 0.463867188
vt 0.379394531 0.48828125
vt 0.314941406 0.481933594
vt 0.379394531 0.501464844
vt 0.313964844 0.5
vt 0.322021484 0.553955078
vt 0.384277344 0.533691406
vt 0.387939453 0.546386719
vt 0.328125 0.571289062
vt 0.393066406 0.557128906
vt 0.3359375 0.587646484
vt 0.399169922 0.567382812
vt 0.345214844 0.603271484
vt 0.40625 0.576904297
vt 0.356201172 0.617919922
vt 0.414306641 0.585693359
vt 0.368408203 0.631591797
vt 0.423095703 0.59375
vt 0.382080078 0.643798828
vt 0.432617188 0.600830078
vt 0.396728516 0.654785156
vt 0.442871094 0.606933594
vt 0.412353516 0.6640625
vt 0.453613281 0.612060547
vt 0.428710938 0.671875
vt 0.46484375 0.615966797
vt 0.446044922 0.677978516
vt 0.476318359 0.618896484
vt 0.463623047 0.682373047
vt 0.488037109 0.620605469
vt 0.481689453 0.685058594
vt 0.501464844 0.620605469
vt 0.5 0.686035156
vt 0.554199219 0.677978516
vt 0.533691406 0.615722656
vt 0.546386719 0.612060547
vt 0.571289062 0.671875
vt 0.557128906 0.606933594
vt 0.587890625 0.6640625
vt 0.567382812 0.600830078
vt 0.603515625 0.654785156
vt 0.576660156 0.59375
vt 0.618164062 0.643798828
vt 0.585449219 0.585693359
vt 0.631347656 0.631591797
vt 0.59375 0.576904297
vt 0.644042969 0.617919922
vt 0.600585938 0.567382812
vt 0.654785156 0.603271484
vt 0.606933594 0.557128906
vt 0.6640625 0.587646484
vt 0.611816406 0.546386719
vt 0.671875 0.571289062
vt 0.616210938 0.53515625
vt 0.678222656 0.553955078
vt 0.618652344 0.523681641
vt 0.682617188 0.536376953
vt 0.620605469 0.511962891
vt 0.685058594 0.518310547
vt 0.620605469 0.498535156
vt 0.686035156 0.5
vn 0 1 -0
vn 0 1 -0
vn 0 1 -0
vn 0 1 -0
vn 0 1 -0
vn 0 1 -0
vn 0 1 -0
vn 0 1 -0
vn 0 1 -0
vn 0 1 -0
vn 0 1 -0
vn 0 1 -0
vn 0 1 -0
vn 0 1 -0
vn 0 1 -0
vn 0 1 -0
vn 0 1 -0
vn 0 1 -0
vn 0 1 -0
vn 0 1 -0
vn 0 1 -0
vn 0 1 -0
vn 0 1 -0
vn 0 1 -0
vn 0 1 -0
vn 0 1 -0
vn 0 1 -0
vn 0 1 -0
vn 0 1 -0
vn 0 1 -0
vn 0 1 -0
vn 0 1 -0
vn 0 1 -0
vn 0 1 -0
vn 0 1 -0
vn 0 1 -0
vn 0 1 -0
vn 0 1 -0
vn 0 1 -0
vn 0 1 -0
vn 0 1 -0
vn 0 1 -0
vn 0 1 -0
vn 0 1 -0
vn 0 1 -0
vn 0 1 -0
vn 0 1 -0
vn 0 1 -0
vn 0 1 -0
vn 0 1 -0
vn 0 1 -0
vn 0 1 -0
vn 0 1 -0
vn 0 1 -0
vn 0 1 -0
vn 0 1 -0
vn 0 1 -0
vn 0 1 -0
vn 0 1 -0
vn 0 1 -0
vn 0 1 -0
vn 0 1 -0
vn 0 1 -0
vn 0 1 -0
vn 0 1 -0
vn 0 1 -0
vn 0 1 -0
vn 0 1 -0
vn 0 1 -0
vn 0 1 -0
vn 0 1 -0
vn 0 1 -0
vn 0 1 -0
vn 0 1 -0
vn 0 1 -0
vn 0 1 -0
vn 0 1 -0
vn 0 1 -0
vn 0 1 -0
vn 0 1 -0
vn 0 1 -0
vn 0 1 -0
vn 0 1 -0
vn 0 1 -0
vn 0 1 -0
vn 0 1 -0
vn 0 1 -0
vn 0 1 -0
vn 0 1 -0
vn 0 1 -0
vn 0 1 -0
vn 0 1 -0
vn 0 1 -0
vn 0 1 -0
vn 0 1 -0
vn 0 1 -0
vn 0 1 -0
vn 0 1 -0
vn 0 1 -0
vn 0 1 -0
vn 0 1 -0
vn 0 1 -0
vn 0 1 -0
vn 0 1 -0
vn 0 1 -0
vn 0 1 -0
vn 0 1 -0
vn 0 1 -0
vn 0 1 -0
vn 0 1 -0
vn 0 1 -0
vn 0 1 -0
f 1/1/1 3/3/3 2/2/2
f 1/1/1 4/4/4 3/3/3
f 4/4/4 5/5/5 3/3/3
f 4/4/4 6/6/6 5/5/5
f 6/6/6 7/7/7 5/5/5
f 6/6/6 8/8/8 7/7/7
f 8/8/8 9/9/9 7/7/7
f 8/8/8 10/10/10 9/9/9
f 10/10/10 11/11/11 9/9/9
f 10/10/10 12/12/12 11/11/11
f 12/12/12 13/13/13 11/11/11
f 12/12/12 14/14/14 13/13/13
f 14/14/14 15/15/15 13/13/13
f 14/14/14 16/16/16 15/15/15
f 16/16/16 17/17/17 15/15/15
f 16/16/16 18/18/18 17/17/17
f 18/18/18 19/19/19 17/17/17
f 18/18/18 20/20/20 19/19/19
f 20/20/20 21/21/21 19/19/19
f 20/20/20 22/22/22 21/21/21
f 22/22/22 23/23/23 21/21/21
f 22/22/22 24/24/24 23/23/23
f 24/24/24 25/25/25 23/23/23
f 24/24/24 26/26/26 25/25/25
f 26/26/26 27/27/27 25/25/25
f 26/26/26 28/28/28 27/27/27
f 29/29/29 31/31/31 30/30/30
f 29/29/29 32/32/32 31/31/31
f 32/32/32 33/33/33 31/31/31
f 32/32/32 34/34/34 33/33/33
f 34/34/34 35/35/35 33/33/33
f 34/34/34 36/36/36 35/35/35
f 36/36/36 37/37/37 35/35/35
f 36/36/36 38/38/38 37/37/37
f 38/38/38 39/39/39 37/37/37
f 38/38/38 40/40/40 39/39/39
f 40/40/40 41/41/41 39/39/39
f 40/40/40 42/42/42 41/41/41
f 42/42/42 43/43/43 41/41/41
f 42/42/42 44/44/44 43/43/43
f 44/44/44 45/45/45 43/43/43
f 44/44/44 46/46/46 45/45/45
f 46/46/46 47/47/47 45/45/45
f 46/46/46 48/48/48 47/47/47
f 48/48/48 49/49/49 47/47/47
f 48/48/48 50/50/50 49/49/49
f 50/50/50 51/51/51 49/49/49
f 50/50/50 52/52/52 51/51/51
f 52/52/52 53/53/53 51/51/51
f 52/52/52 54/54/54 53/53/53
f 54/54/54 55/55/55 53/53/53
f 54/54/54 56/56/56 55/55/55
f 57/57/57 59/59/59 58/58/58
f 57/57/57 60/60/60 59/59/59
f 60/60/60 61/61/61 59/59/59
f 60/60/60 62/62/62 61/61/61
f 62/62/62 63/63/63 61/61/61
f 62/62/62 64/64/64 63/63/63
f 64/64/64 65/65/65 63/63/63
f 64/64/64 66/66/66 65/65/65
f 66/66/66 67/67/67 65/65/65
f 66/66/66 68/68/68 67/67/67
f 68/68/68 69/69/69 67/67/67
f 68/68/68 70/70/70 69/69/69
f 70/70/70 71/71/71 69/69/69
f 70/70/70 72/72/72 71/71/71
f 72/72/72 73/73/73 71/71/71
f 72/72/72 74/74/74 73/73/73
f 74/74/74 75/75/75 73/73/73
f 74/74/74 76/76/76 75/75/75
f 76/76/76 77/77/77 75/75/75
f 76/76/76 78/78/78 77/77/77
f 78/78/78 79/79/79 77/77/77
f 78/78/78 80/80/80 79/79/79
f 80/80/80 81/81/81 79/79/79
f 80/80/80 82/82/82 81/81/81
f 82/82/82 83/83/83 81/81/81
f 82/82/82 84/84/84 83/83/83
f 85/85/85 87/87/87 86/86/86
f 85/85/85 88/88/88 87/87/87
f 88/88/88 89/89/89 87/87/87
f 88/88/88 90/90/90 89/89/89
f 90/90/90 91/91/91 89/89/89
f 90/90/90 92/92/92 91/91/91
f 92/92/92 93/93/93 91/91/91
f 92/92/92 94/94/94 93/93/93
f 94/94/94 95/95/95 93/93/93
f 94/94/94 96/96/96 95/95/95
f 96/96/96 97/97/97 95/95/95
f 96/96/96 98/98/98 97/97/97
f 98/98/98 99/99/99 97/97/97
f 98/98/98 100/100/100 99/99/99
f 100/100/100 101/101/101 99/99/99
f 100/100/100 102/102/102 101/101/101
f 102/102/102 103/103/103 101/101/101
f 102/102/102 104/104/104 103/103/103
f 104/104/104 105/105/105 103/103/103
f 104/104/104 106/106/106 105/105/105
f 106/106/106 107/107/107 105/105/105
f 106/106/106 108/108/108 107/107/107
f 108/108/108 109/109/109 107/107/107
f 108/108/108 110/110/110 109/109/109
f 110/110/110 111/111/111 109/109/109
f 110/110/110 112/112/112 111/111/111
