# Converted from SynchroCircle03.asset
o SynchroCircle03
v -16.7468681 0 -2.2153914
v -16.5836792 0 -2.19388032
v -16.2587872 0 -2.15104914
v -16.7614346 0 2.11705613
v -16.3391705 0 1.60926306
v -16.2746601 0 2.04412913
v -16.8296013 0 1.65756583
v -16.4182301 0 2.65229147e-07
v -16.9110394 0 1.83514587e-07
v -16.3848381 0 -0.679716766
v -17.2071152 0 1.69474709
v -17.1370354 0 2.16719055
v -17.2903748 0 7.22954496e-08
v -16.9581413 0 3.37317824
v -16.5861034 0 3.29917288
v -16.1828556 0 4.90901041
v -16.5458488 0 5.0191288
v -15.6237555 0 6.47156477
v -15.9742222 0 6.61673498
v -14.9142122 0 7.97179508
v -15.2487507 0 8.1506176
v -14.0610094 0 9.39526558
v -14.3764219 0 9.6060133
v -13.0724154 0 10.7282457
v -13.3656406 0 10.9688931
v -11.9579134 0 11.957901
v -12.226141 0 12.2261372
v -10.7282505 0 13.0723982
v -10.9688997 0 13.3656359
v -9.39527893 0 14.0610104
v -9.60602379 0 14.3764133
v -8.93873215 0 14.3346529
v -9.14046764 0 14.6554594
v -8.15063381 0 15.2487459
v -7.97181273 0 14.9141989
v -8.67303658 0 13.9200363
v -7.73950624 0 14.4795876
v -6.28298378 0 15.1684656
v -6.47157621 0 15.623764
v -6.61674595 0 15.9742184
v -5.01782751 0 16.1439247
v -4.86006117 0 15.6775818
v -5.1331048 0 16.5050697
v -5.01913738 0 16.5458488
v -4.90901947 0 16.1828423
v -3.29918623 0 16.5861034
v -3.37319136 0 16.9581413
v -1.65757561 0 16.8295937
v -1.69475734 0 17.2071114
v -4.52235918e-06 0 16.9110355
v -4.79514028e-06 0 17.290369
v 1.40938687 0 16.8417835
v 1.43297982 0 17.2199707
v 1.69474912 0 17.2071114
v 1.65756798 0 16.8295937
v 1.40704131 0 16.6771545
v 1.64141977 0 16.6656399
v 3.26703525 0 16.4244995
v 3.29917383 0 16.5861034
v 4.86118746 0 16.0252037
v 1.75198424 0 17.7882404
v 1.44129634 0 17.8035011
v 3.37318039 0 16.9581394
v 3.48710012 0 17.5308571
v 4.90900755 0 16.182848
v 6.40853071 0 15.4715424
v 5.01912594 0 16.5458565
v 5.18863392 0 17.1046524
v 6.47156906 0 15.6237631
v 7.89413977 0 14.7689037
v 6.61673927 0 15.9742193
v 6.84020042 0 16.5137119
v 7.97180462 0 14.914196
v 9.30373764 0 13.9240284
v 8.15062523 0 15.248745
v 8.42588997 0 15.7637348
v 9.39527035 0 14.061018
v 9.60601425 0 14.376421
v 9.93043232 0 14.861949
v 10.968894 0 13.3656406
v 11.3393402 0 13.8170338
v 10.7282391 0 13.0724068
v 10.6237221 0 12.9450378
v 11.9019175 0 12.5199947
v 12.298131 0 12.9480352
v 11.6419163 0 12.2443123
v 12.2261362 0 12.22614
v 10.4156075 0 12.6914511
v 9.12147236 0 13.6512499
v 11.3075447 0 11.8830624
v 11.5301256 0 12.1235352
v 11.9579086 0 11.9579048
v 11.8414049 0 11.8414001
v 11.6094255 0 11.6094446
v 12.3077669 0 10.8389416
v 12.5467205 0 11.0632257
v 12.6667099 0 11.175849
v 12.9484558 0 11.429184
v 13.3656349 0 10.9688978
v 13.0724134 0 10.7282515
v 14.0610008 0 9.39527035
v 14.3764133 0 9.60601807
v 14.9142036 0 7.97181273
v 15.248744 0 8.15063381
v 15.6237507 0 6.47157574
v 15.9742212 0 6.616745
v 16.1828499 0 4.90901232
v 16.5458488 0 5.01913166
v 16.5860939 0 3.29918337
v 16.9581394 0 3.37318897
v 16.8296013 0 1.65757418
v 17.2071114 0 1.69475579
v 16.9110298 0 3.20745471e-06
v 17.290369 0 3.16406704e-06
v 16.829607 0 -1.65756798
v 17.2071152 0 -1.69474959
v 16.6605568 0 -2.79724813
v 17.0341606 0 -2.86069608
v 16.9581413 0 -3.37318301
v 16.8442802 0 -3.35053492
v 16.4983768 0 -2.76899981
v 16.4347649 0 -4.98542881
v 16.5458584 0 -5.0191288
v 16.4245071 0 -3.26703668
v 16.1754761 0 -2.71275234
v 16.102747 0 -3.20303702
v 15.7112598 0 -4.76595497
v 16.0251923 0 -4.86118698
v 15.1684551 0 -6.28297901
v 15.4715357 0 -6.40853262
v 14.9461327 0 -6.75304556
v 15.245512 0 -6.88641024
v 15.8669672 0 -6.57231474
v 15.9742222 0 -6.61674118
v 15.3958769 0 -6.95339298
v 15.7414808 0 -7.10883093
v 15.2487488 0 -8.15062141
v 14.9142103 0 -7.9718008
v 14.0610113 0 -9.39526558
v 14.3764238 0 -9.60601425
v 13.0724163 0 -10.7282457
v 13.3656425 0 -10.968894
v 11.9579182 0 -11.957901
v 12.2261438 0 -12.22614
v 10.7282476 0 -13.0723991
v 10.9688988 0 -13.3656378
v 9.39527798 0 -14.0610189
v 9.30373955 0 -13.9240303
v 10.6237288 0 -12.945035
v 7.89414406 0 -14.7689075
v 9.60601997 0 -14.3764219
v 11.339344 0 -13.8170309
v 9.930439 0 -14.861949
v 7.97180843 0 -14.9141998
v 6.40853214 0 -15.4715443
v 8.15063095 0 -15.2487488
v 8.42589664 0 -15.7637377
v 6.47157097 0 -15.623764
v 4.86118984 0 -16.025198
v 6.61674261 0 -15.9742212
v 6.84020567 0 -16.5137119
v 4.90901041 0 -16.1828442
v 4.20456457 0 -16.1896667
v 5.01913071 0 -16.5458508
v 5.18863964 0 -17.1046486
v 4.2396512 0 -16.3505192
v 4.330369 0 -16.71838
v 4.4547205 0 -17.2884865
v 3.48710752 0 -17.5308647
v 3.37318707 0 -16.9581413
v 3.29918075 0 -16.5861073
v 1.69475341 0 -17.2071152
v 1.75198984 0 -17.7882423
v 3.26704192 0 -16.4245052
v 4.13470554 0 -15.8693781
v 3.2030406 0 -16.1027374
v 1.60926783 0 -16.339159
v 1.64142334 0 -16.6656437
v 1.54361396e-06 0 -16.4182224
v 1.55954569e-06 0 -16.7462635
v 1.65757179 0 -16.8295975
v 1.39932729e-06 0 -16.9110394
v 1.25953989e-06 0 -17.2903728
v 8.77429159e-07 0 -17.8743134
v -1.65757048 0 -16.8295975
v -1.69475234 0 -17.2071152
v -3.2991786 0 -16.5861053
v -3.3731842 0 -16.958147
v -4.90901613 0 -16.182848
v -5.01913357 0 -16.5458584
v -6.47157574 0 -15.6237679
v -6.616745 0 -15.974226
v -6.28298426 0 -15.1684704
v -4.76596165 0 -15.7112522
v -7.73950338 0 -14.4795895
v -7.97180843 0 -14.9142017
v -8.15063 0 -15.2487507
v -8.83522034 0 -14.3967018
v -8.58433056 0 -13.9732113
v -9.03185463 0 -14.720562
v -9.60601807 0 -14.3764238
v -9.3952713 0 -14.0610228
v -10.7282476 0 -13.0724096
v -10.9688978 0 -13.3656416
v -11.9579134 0 -11.9579096
v -12.226141 0 -12.2261448
v -12.6959715 0 -11.1435862
v -12.980875 0 -11.393425
v -13.3656416 0 -10.9688978
v -13.0724163 0 -10.7282505
v -12.5721016 0 -11.0352192
v -12.9450521 0 -10.623723
v -13.9240208 0 -9.30373192
v -14.0610151 0 -9.39527321
v -14.7688961 0 -7.89414787
v -13.8170347 0 -11.339344
v -13.4198713 0 -11.7775469
v -14.3764219 0 -9.60601997
v -14.8619499 0 -9.93043995
v -14.9142027 0 -7.9718132
v -15.4715357 0 -6.40854073
v -15.2487488 0 -8.1506319
v -15.7637377 0 -8.42589664
v -15.6237593 0 -6.47158146
v -16.025198 0 -4.86119127
v -15.9742222 0 -6.61674738
v -16.5137138 0 -6.84020853
v -16.1828594 0 -4.90901518
v -16.4244976 0 -3.26703882
v -16.5458584 0 -5.01913261
v -17.1046543 0 -5.18864107
v -16.5861053 0 -3.29918027
v -16.5836792 0 -2.19388032
v -16.7468681 0 -2.2153914
v -16.958147 0 -3.37318468
v -17.5308647 0 -3.48710561
v -17.1225243 0 -2.2650342
v -17.7008324 0 -2.34127474
v -17.7882423 0 -1.7519896
v -17.2071152 0 -1.69475293
v -16.8296013 0 -1.65757155
v -16.2587872 0 -2.15104914
v -16.3391705 0 -1.60926735
v -16.8762856 0 -0.707447648
v -17.2547569 0 -0.724992752
v -17.8370838 0 -0.757851243
vt 0.706054688 0.52734375
vt 0.702148438 0.526855469
vt 0.693847656 0.525878906
vt 0.706054688 0.473632812
vt 0.694824219 0.48046875
vt 0.693847656 0.475585938
vt 0.70703125 0.479492188
vt 0.695800781 0.5
vt 0.708007812 0.5
vt 0.6953125 0.508056641
vt 0.715820312 0.478515625
vt 0.71484375 0.47265625
vt 0.716796875 0.5
vt 0.712890625 0.457519531
vt 0.705566406 0.458984375
vt 0.701171875 0.438964844
vt 0.707519531 0.437011719
vt 0.694335938 0.419433594
vt 0.700683594 0.416992188
vt 0.685546875 0.400878906
vt 0.69140625 0.397949219
vt 0.675292969 0.3828125
vt 0.680175781 0.379394531
vt 0.662597656 0.366210938
vt 0.66796875 0.362304688
vt 0.648925781 0.351074219
vt 0.653320312 0.346679688
vt 0.633300781 0.337402344
vt 0.637695312 0.33203125
vt 0.616210938 0.326171875
vt 0.620605469 0.319824219
vt 0.609863281 0.323730469
vt 0.614746094 0.315917969
vt 0.602050781 0.30859375
vt 0.598144531 0.31640625
vt 0.603515625 0.334472656
vt 0.592773438 0.327148438
vt 0.575195312 0.318359375
vt 0.579589844 0.307617188
vt 0.583007812 0.299316406
vt 0.561523438 0.301269531
vt 0.557617188 0.313476562
vt 0.564453125 0.29296875
vt 0.562988281 0.292480469
vt 0.560546875 0.300292969
vt 0.541015625 0.293945312
vt 0.542480469 0.287109375
vt 0.520507812 0.290527344
vt 0.521484375 0.284179688
vt 0.5 0.290039062
vt 0.5 0.283203125
vt 0.482666016 0.291992188
vt 0.481933594 0.283691406
vt 0.478759766 0.284179688
vt 0.479492188 0.291992188
vt 0.482910156 0.295898438
vt 0.479980469 0.295898438
vt 0.459716797 0.297851562
vt 0.459228516 0.294433594
vt 0.439941406 0.302246094
vt 0.477294922 0.270507812
vt 0.481445312 0.270507812
vt 0.457763672 0.287109375
vt 0.455078125 0.273925781
vt 0.439208984 0.299316406
vt 0.420898438 0.309082031
vt 0.437011719 0.292480469
vt 0.433105469 0.279296875
vt 0.419677734 0.306152344
vt 0.402832031 0.317871094
vt 0.416992188 0.299316406
vt 0.411865234 0.287109375
vt 0.401123047 0.314941406
vt 0.385742188 0.328613281
vt 0.397705078 0.30859375
vt 0.391357422 0.296875
vt 0.383789062 0.325683594
vt 0.379394531 0.319824219
vt 0.372070312 0.30859375
vt 0.362304688 0.33203125
vt 0.353759766 0.321777344
vt 0.367431641 0.338378906
vt 0.369873047 0.341308594
vt 0.350585938 0.342773438
vt 0.341308594 0.333007812
vt 0.356689453 0.349121094
vt 0.346679688 0.346679688
vt 0.375732422 0.348144531
vt 0.391601562 0.337402344
vt 0.365478516 0.358886719
vt 0.359375 0.352050781
vt 0.352783203 0.352539062
vt 0.35546875 0.35546875
vt 0.361816406 0.361816406
vt 0.353759766 0.371582031
vt 0.347167969 0.365234375
vt 0.34375 0.362304688
vt 0.337402344 0.356445312
vt 0.332275391 0.362304688
vt 0.338134766 0.3671875
vt 0.325195312 0.383300781
vt 0.319580078 0.379394531
vt 0.314208984 0.400878906
vt 0.30859375 0.397949219
vt 0.305419922 0.419433594
vt 0.299560547 0.416992188
vt 0.298583984 0.438964844
vt 0.292236328 0.437011719
vt 0.293457031 0.458984375
vt 0.287109375 0.457519531
vt 0.290527344 0.479492188
vt 0.284179688 0.478515625
vt 0.289550781 0.5
vt 0.282958984 0.5
vt 0.291259766 0.520507812
vt 0.284179688 0.521240234
vt 0.294677734 0.534423828
vt 0.286132812 0.535888672
vt 0.287109375 0.542236328
vt 0.289550781 0.541748047
vt 0.299072266 0.533691406
vt 0.294677734 0.562255859
vt 0.292236328 0.562988281
vt 0.299804688 0.539794922
vt 0.307861328 0.531982422
vt 0.308105469 0.538085938
vt 0.312011719 0.556884766
vt 0.304199219 0.559326172
vt 0.319335938 0.574951172
vt 0.311523438 0.578125
vt 0.322509766 0.580322266
vt 0.314453125 0.583740234
vt 0.301757812 0.58203125
vt 0.299560547 0.583007812
vt 0.310302734 0.585693359
vt 0.302490234 0.589111328
vt 0.30859375 0.602294922
vt 0.314941406 0.598876953
vt 0.324951172 0.616943359
vt 0.319580078 0.620605469
vt 0.337158203 0.633544922
vt 0.332275391 0.637695312
vt 0.351318359 0.648681641
vt 0.346679688 0.653320312
vt 0.366943359 0.662109375
vt 0.362304688 0.667724609
vt 0.383544922 0.674316406
vt 0.385253906 0.671630859
vt 0.369384766 0.658691406
vt 0.402587891 0.682128906
vt 0.379394531 0.680419922
vt 0.353759766 0.678222656
vt 0.372070312 0.691650391
vt 0.401123047 0.685058594
vt 0.421142578 0.690673828
vt 0.397705078 0.69140625
vt 0.391357422 0.703369141
vt 0.419677734 0.693603516
vt 0.440429688 0.696533203
vt 0.416992188 0.700439453
vt 0.411865234 0.712890625
vt 0.439208984 0.699951172
vt 0.448486328 0.697753906
vt 0.437011719 0.707763672
vt 0.433105469 0.720458984
vt 0.447753906 0.701660156
vt 0.445556641 0.709716797
vt 0.442626953 0.722900391
vt 0.455078125 0.726074219
vt 0.457763672 0.712890625
vt 0.459228516 0.704833984
vt 0.478759766 0.715820312
vt 0.477294922 0.729492188
vt 0.459960938 0.701171875
vt 0.450683594 0.688476562
vt 0.461669922 0.692382812
vt 0.480712891 0.695556641
vt 0.479980469 0.704345703
vt 0.500488281 0.695068359
vt 0.5 0.704589844
vt 0.479492188 0.708007812
vt 0.5 0.709228516
vt 0.5 0.717041016
vt 0.5 0.73046875
vt 0.520507812 0.709228516
vt 0.521484375 0.715820312
vt 0.541015625 0.705810547
vt 0.542480469 0.712890625
vt 0.560546875 0.699951172
vt 0.562988281 0.707763672
vt 0.579589844 0.692871094
vt 0.583007812 0.700439453
vt 0.575195312 0.681640625
vt 0.556152344 0.6875
vt 0.592773438 0.673095703
vt 0.598144531 0.68359375
vt 0.602050781 0.69140625
vt 0.608886719 0.677001953
vt 0.602539062 0.666259766
vt 0.61328125 0.684814453
vt 0.620605469 0.680419922
vt 0.616210938 0.673828125
vt 0.633300781 0.662353516
vt 0.637695312 0.667724609
vt 0.6484375 0.6484375
vt 0.653320312 0.653320312
vt 0.656738281 0.637695312
vt 0.663085938 0.643066406
vt 0.66796875 0.637695312
vt 0.661621094 0.632568359
vt 0.653808594 0.635253906
vt 0.658691406 0.630371094
vt 0.671386719 0.614501953
vt 0.674316406 0.616455078
vt 0.682128906 0.597412109
vt 0.678222656 0.646240234
vt 0.672851562 0.651855469
vt 0.680175781 0.620605469
vt 0.69140625 0.627929688
vt 0.685058594 0.598876953
vt 0.690917969 0.579101562
vt 0.69140625 0.602294922
vt 0.703125 0.608642578
vt 0.693847656 0.580322266
vt 0.697265625 0.559814453
vt 0.700683594 0.583007812
vt 0.712890625 0.588134766
vt 0.700683594 0.560791016
vt 0.701660156 0.540039062
vt 0.707519531 0.562988281
vt 0.720703125 0.566894531
vt 0.705078125 0.540771484
vt 0.702148438 0.526855469
vt 0.706054688 0.52734375
vt 0.712890625 0.542236328
vt 0.726074219 0.544921875
vt 0.71484375 0.528320312
vt 0.728027344 0.530273438
vt 0.729492188 0.522705078
vt 0.715820312 0.521240234
vt 0.70703125 0.520507812
vt 0.693847656 0.525878906
vt 0.694824219 0.519287109
vt 0.707519531 0.508789062
vt 0.716308594 0.509033203
vt 0.729980469 0.509765625
vn 0 1 -0
vn 0 1 -0
vn 0 1 -0
vn 0 1 -0
vn 0 1 -0
vn 0 1 -0
vn 0 1 -0
vn 0 1 -0
vn 0 1 -0
vn 0 1 -0
vn 0 1 -0
vn 0 1 -0
vn 0 1 -0
vn 0 1 -0
vn 0 1 -0
vn 0 1 -0
vn 0 1 -0
vn 0 1 -0
vn 0 1 -0
vn 0 1 -0
vn 0 1 -0
vn 0 1 -0
vn 0 1 -0
vn 0 1 -0
vn 0 1 -0
vn 0 1 -0
vn 0 1 -0
vn 0 1 -0
vn 0 1 -0
vn 0 1 -0
vn 0 1 -0
vn 0 1 -0
vn 0 1 -0
vn 0 1 -0
vn 0 1 -0
vn 0 1 -0
vn 0 1 -0
vn 0 1 -0
vn 0 1 -0
vn 0 1 -0
vn 0 1 -0
vn 0 1 -0
vn 0 1 -0
vn 0 1 -0
vn 0 1 -0
vn 0 1 -0
vn 0 1 -0
vn 0 1 -0
vn 0 1 -0
vn 0 1 -0
vn 0 1 -0
vn 0 1 -0
vn 0 1 -0
vn 0 1 -0
vn 0 1 -0
vn 0 1 -0
vn 0 1 -0
vn 0 1 -0
vn 0 1 -0
vn 0 1 -0
vn 0 1 -0
vn 0 1 -0
vn 0 1 -0
vn 0 1 -0
vn 0 1 -0
vn 0 1 -0
vn 0 1 -0
vn 0 1 -0
vn 0 1 -0
vn 0 1 -0
vn 0 1 -0
vn 0 1 -0
vn 0 1 -0
vn 0 1 -0
vn 0 1 -0
vn 0 1 -0
vn 0 1 -0
vn 0 1 -0
vn 0 1 -0
vn 0 1 -0
vn 0 1 -0
vn 0 1 -0
vn 0 1 -0
vn 0 1 -0
vn 0 1 -0
vn 0 1 -0
vn 0 1 -0
vn 0 1 -0
vn 0 1 -0
vn 0 1 -0
vn 0 1 -0
vn 0 1 -0
vn 0 1 -0
vn 0 1 -0
vn 0 1 -0
vn 0 1 -0
vn 0 1 -0
vn 0 1 -0
vn 0 1 -0
vn 0 1 -0
vn 0 1 -0
vn 0 1 -0
vn 0 1 -0
vn 0 1 -0
vn 0 1 -0
vn 0 1 -0
vn 0 1 -0
vn 0 1 -0
vn 0 1 -0
vn 0 1 -0
vn 0 1 -0
vn 0 1 -0
vn 0 1 -0
vn 0 1 -0
vn 0 1 -0
vn 0 1 -0
vn 0 1 -0
vn 0 1 -0
vn 0 1 -0
vn 0 1 -0
vn 0 1 -0
vn 0 1 -0
vn 0 1 -0
vn 0 1 -0
vn 0 1 -0
vn 0 1 -0
vn 0 1 -0
vn 0 1 -0
vn 0 1 -0
vn 0 1 -0
vn 0 1 -0
vn 0 1 -0
vn 0 1 -0
vn 0 1 -0
vn 0 1 -0
vn 0 1 -0
vn 0 1 -0
vn 0 1 -0
vn 0 1 -0
vn 0 1 -0
vn 0 1 -0
vn 0 1 -0
vn 0 1 -0
vn 0 1 -0
vn 0 1 -0
vn 0 1 -0
vn 0 1 -0
vn 0 1 -0
vn 0 1 -0
vn 0 1 -0
vn 0 1 -0
vn 0 1 -0
vn 0 1 -0
vn 0 1 -0
vn 0 1 -0
vn 0 1 -0
vn 0 1 -0
vn 0 1 -0
vn 0 1 -0
vn 0 1 -0
vn 0 1 -0
vn 0 1 -0
vn 0 1 -0
vn 0 1 -0
vn 0 1 -0
vn 0 1 -0
vn 0 1 -0
vn 0 1 -0
vn 0 1 -0
vn 0 1 -0
vn 0 1 -0
vn 0 1 -0
vn 0 1 -0
vn 0 1 -0
vn 0 1 -0
vn 0 1 -0
vn 0 1 -0
vn 0 1 -0
vn 0 1 -0
vn 0 1 -0
vn 0 1 -0
vn 0 1 -0
vn 0 1 -0
vn 0 1 -0
vn 0 1 -0
vn 0 1 -0
vn 0 1 -0
vn 0 1 -0
vn 0 1 -0
vn 0 1 -0
vn 0 1 -0
vn 0 1 -0
vn 0 1 -0
vn 0 1 -0
vn 0 1 -0
vn 0 1 -0
vn 0 1 -0
vn 0 1 -0
vn 0 1 -0
vn 0 1 -0
vn 0 1 -0
vn 0 1 -0
vn 0 1 -0
vn 0 1 -0
vn 0 1 -0
vn 0 1 -0
vn 0 1 -0
vn 0 1 -0
vn 0 1 -0
vn 0 1 -0
vn 0 1 -0
vn 0 1 -0
vn 0 1 -0
vn 0 1 -0
vn 0 1 -0
vn 0 1 -0
vn 0 1 -0
vn 0 1 -0
vn 0 1 -0
vn 0 1 -0
vn 0 1 -0
vn 0 1 -0
vn 0 1 -0
vn 0 1 -0
vn 0 1 -0
vn 0 1 -0
vn 0 1 -0
vn 0 1 -0
vn 0 1 -0
vn 0 1 -0
vn 0 1 -0
vn 0 1 -0
vn 0 1 -0
vn 0 1 -0
vn 0 1 -0
vn 0 1 -0
vn 0 1 -0
vn 0 1 -0
vn 0 1 -0
vn 0 1 -0
vn 0 1 -0
vn 0 1 -0
vn 0 1 -0
vn 0 1 -0
vn 0 1 -0
vn 0 1 -0
f 1/1/1 3/3/3 2/2/2
f 4/4/4 6/6/6 5/5/5
f 4/4/4 5/5/5 7/7/7
f 7/7/7 5/5/5 8/8/8
f 7/7/7 8/8/8 9/9/9
f 9/9/9 8/8/8 10/10/10
f 11/11/11 4/4/4 7/7/7
f 11/11/11 12/12/12 4/4/4
f 13/13/13 11/11/11 7/7/7
f 13/13/13 7/7/7 9/9/9
f 4/4/4 12/12/12 14/14/14
f 4/4/4 14/14/14 15/15/15
f 14/14/14 16/16/16 15/15/15
f 14/14/14 17/17/17 16/16/16
f 17/17/17 18/18/18 16/16/16
f 17/17/17 19/19/19 18/18/18
f 19/19/19 20/20/20 18/18/18
f 19/19/19 21/21/21 20/20/20
f 21/21/21 22/22/22 20/20/20
f 21/21/21 23/23/23 22/22/22
f 23/23/23 24/24/24 22/22/22
f 23/23/23 25/25/25 24/24/24
f 25/25/25 26/26/26 24/24/24
f 25/25/25 27/27/27 26/26/26
f 27/27/27 28/28/28 26/26/26
f 27/27/27 29/29/29 28/28/28
f 29/29/29 30/30/30 28/28/28
f 29/29/29 31/31/31 30/30/30
f 31/31/31 32/32/32 30/30/30
f 31/31/31 33/33/33 32/32/32
f 32/32/32 33/33/33 34/34/34
f 32/32/32 34/34/34 35/35/35
f 35/35/35 36/36/36 32/32/32
f 35/35/35 37/37/37 36/36/36
f 38/38/38 37/37/37 35/35/35
f 34/34/34 39/39/39 35/35/35
f 38/38/38 35/35/35 39/39/39
f 34/34/34 40/40/40 39/39/39
f 41/41/41 38/38/38 39/39/39
f 40/40/40 41/41/41 39/39/39
f 41/41/41 42/42/42 38/38/38
f 40/40/40 43/43/43 41/41/41
f 41/41/41 43/43/43 44/44/44
f 41/41/41 44/44/44 45/45/45
f 44/44/44 46/46/46 45/45/45
f 44/44/44 47/47/47 46/46/46
f 47/47/47 48/48/48 46/46/46
f 47/47/47 49/49/49 48/48/48
f 49/49/49 50/50/50 48/48/48
f 49/49/49 51/51/51 50/50/50
f 51/51/51 52/52/52 50/50/50
f 51/51/51 53/53/53 52/52/52
f 52/52/52 53/53/53 54/54/54
f 52/52/52 54/54/54 55/55/55
f 56/56/56 52/52/52 55/55/55
f 56/56/56 55/55/55 57/57/57
f 55/55/55 58/58/58 57/57/57
f 55/55/55 59/59/59 58/58/58
f 54/54/54 59/59/59 55/55/55
f 59/59/59 60/60/60 58/58/58
f 53/53/53 61/61/61 54/54/54
f 53/53/53 62/62/62 61/61/61
f 61/61/61 63/63/63 54/54/54
f 54/54/54 63/63/63 59/59/59
f 61/61/61 64/64/64 63/63/63
f 59/59/59 65/65/65 60/60/60
f 63/63/63 65/65/65 59/59/59
f 65/65/65 66/66/66 60/60/60
f 64/64/64 67/67/67 63/63/63
f 63/63/63 67/67/67 65/65/65
f 64/64/64 68/68/68 67/67/67
f 65/65/65 69/69/69 66/66/66
f 67/67/67 69/69/69 65/65/65
f 69/69/69 70/70/70 66/66/66
f 68/68/68 71/71/71 67/67/67
f 67/67/67 71/71/71 69/69/69
f 68/68/68 72/72/72 71/71/71
f 69/69/69 73/73/73 70/70/70
f 71/71/71 73/73/73 69/69/69
f 73/73/73 74/74/74 70/70/70
f 72/72/72 75/75/75 71/71/71
f 71/71/71 75/75/75 73/73/73
f 72/72/72 76/76/76 75/75/75
f 75/75/75 77/77/77 73/73/73
f 73/73/73 77/77/77 74/74/74
f 76/76/76 78/78/78 75/75/75
f 75/75/75 78/78/78 77/77/77
f 76/76/76 79/79/79 78/78/78
f 79/79/79 80/80/80 78/78/78
f 79/79/79 81/81/81 80/80/80
f 78/78/78 82/82/82 77/77/77
f 78/78/78 80/80/80 82/82/82
f 77/77/77 83/83/83 74/74/74
f 77/77/77 82/82/82 83/83/83
f 81/81/81 84/84/84 80/80/80
f 81/81/81 85/85/85 84/84/84
f 80/80/80 84/84/84 86/86/86
f 80/80/80 86/86/86 82/82/82
f 86/86/86 84/84/84 87/87/87
f 74/74/74 83/83/83 88/88/88
f 74/74/74 88/88/88 89/89/89
f 83/83/83 90/90/90 88/88/88
f 82/82/82 91/91/91 83/83/83
f 82/82/82 86/86/86 91/91/91
f 83/83/83 91/91/91 90/90/90
f 86/86/86 87/87/87 92/92/92
f 91/91/91 86/86/86 92/92/92
f 90/90/90 91/91/91 93/93/93
f 91/91/91 92/92/92 93/93/93
f 90/90/90 93/93/93 94/94/94
f 93/93/93 95/95/95 94/94/94
f 93/93/93 96/96/96 95/95/95
f 92/92/92 96/96/96 93/93/93
f 92/92/92 97/97/97 96/96/96
f 87/87/87 97/97/97 92/92/92
f 87/87/87 98/98/98 97/97/97
f 97/97/97 98/98/98 99/99/99
f 97/97/97 99/99/99 100/100/100
f 99/99/99 101/101/101 100/100/100
f 99/99/99 102/102/102 101/101/101
f 102/102/102 103/103/103 101/101/101
f 102/102/102 104/104/104 103/103/103
f 104/104/104 105/105/105 103/103/103
f 104/104/104 106/106/106 105/105/105
f 106/106/106 107/107/107 105/105/105
f 106/106/106 108/108/108 107/107/107
f 108/108/108 109/109/109 107/107/107
f 108/108/108 110/110/110 109/109/109
f 110/110/110 111/111/111 109/109/109
f 110/110/110 112/112/112 111/111/111
f 112/112/112 113/113/113 111/111/111
f 112/112/112 114/114/114 113/113/113
f 114/114/114 115/115/115 113/113/113
f 114/114/114 116/116/116 115/115/115
f 116/116/116 117/117/117 115/115/115
f 116/116/116 118/118/118 117/117/117
f 117/117/117 118/118/118 119/119/119
f 117/117/117 119/119/119 120/120/120
f 121/121/121 117/117/117 120/120/120
f 119/119/119 122/122/122 120/120/120
f 119/119/119 123/123/123 122/122/122
f 121/121/121 120/120/120 124/124/124
f 125/125/125 121/121/121 124/124/124
f 125/125/125 124/124/124 126/126/126
f 124/124/124 127/127/127 126/126/126
f 120/120/120 128/128/128 124/124/124
f 124/124/124 128/128/128 127/127/127
f 120/120/120 122/122/122 128/128/128
f 128/128/128 129/129/129 127/127/127
f 128/128/128 130/130/130 129/129/129
f 122/122/122 130/130/130 128/128/128
f 130/130/130 131/131/131 129/129/129
f 130/130/130 132/132/132 131/131/131
f 123/123/123 133/133/133 122/122/122
f 122/122/122 133/133/133 130/130/130
f 133/133/133 132/132/132 130/130/130
f 123/123/123 134/134/134 133/133/133
f 133/133/133 135/135/135 132/132/132
f 134/134/134 135/135/135 133/133/133
f 134/134/134 136/136/136 135/135/135
f 135/135/135 136/136/136 137/137/137
f 135/135/135 137/137/137 138/138/138
f 137/137/137 139/139/139 138/138/138
f 137/137/137 140/140/140 139/139/139
f 140/140/140 141/141/141 139/139/139
f 140/140/140 142/142/142 141/141/141
f 142/142/142 143/143/143 141/141/141
f 142/142/142 144/144/144 143/143/143
f 144/144/144 145/145/145 143/143/143
f 144/144/144 146/146/146 145/145/145
f 146/146/146 147/147/147 145/145/145
f 145/145/145 147/147/147 148/148/148
f 145/145/145 148/148/148 149/149/149
f 147/147/147 150/150/150 148/148/148
f 146/146/146 151/151/151 147/147/147
f 152/152/152 151/151/151 146/146/146
f 152/152/152 153/153/153 151/151/151
f 147/147/147 154/154/154 150/150/150
f 151/151/151 154/154/154 147/147/147
f 154/154/154 155/155/155 150/150/150
f 153/153/153 156/156/156 151/151/151
f 151/151/151 156/156/156 154/154/154
f 153/153/153 157/157/157 156/156/156
f 154/154/154 158/158/158 155/155/155
f 156/156/156 158/158/158 154/154/154
f 158/158/158 159/159/159 155/155/155
f 157/157/157 160/160/160 156/156/156
f 156/156/156 160/160/160 158/158/158
f 157/157/157 161/161/161 160/160/160
f 158/158/158 162/162/162 159/159/159
f 160/160/160 162/162/162 158/158/158
f 162/162/162 163/163/163 159/159/159
f 161/161/161 164/164/164 160/160/160
f 160/160/160 164/164/164 162/162/162
f 161/161/161 165/165/165 164/164/164
f 164/164/164 166/166/166 162/162/162
f 162/162/162 166/166/166 163/163/163
f 165/165/165 167/167/167 164/164/164
f 164/164/164 167/167/167 166/166/166
f 165/165/165 168/168/168 167/167/167
f 167/167/167 168/168/168 169/169/169
f 166/166/166 167/167/167 170/170/170
f 167/167/167 169/169/169 170/170/170
f 163/163/163 166/166/166 171/171/171
f 166/166/166 170/170/170 171/171/171
f 169/169/169 172/172/172 170/170/170
f 169/169/169 173/173/173 172/172/172
f 163/163/163 171/171/171 174/174/174
f 175/175/175 163/163/163 174/174/174
f 175/175/175 174/174/174 176/176/176
f 174/174/174 177/177/177 176/176/176
f 174/174/174 178/178/178 177/177/177
f 171/171/171 178/178/178 174/174/174
f 178/178/178 179/179/179 177/177/177
f 178/178/178 180/180/180 179/179/179
f 170/170/170 181/181/181 171/171/171
f 171/171/171 181/181/181 178/178/178
f 181/181/181 180/180/180 178/178/178
f 170/170/170 172/172/172 181/181/181
f 181/181/181 182/182/182 180/180/180
f 172/172/172 182/182/182 181/181/181
f 173/173/173 183/183/183 172/172/172
f 172/172/172 183/183/183 182/182/182
f 173/173/173 184/184/184 183/183/183
f 183/183/183 185/185/185 182/182/182
f 183/183/183 186/186/186 185/185/185
f 186/186/186 187/187/187 185/185/185
f 186/186/186 188/188/188 187/187/187
f 188/188/188 189/189/189 187/187/187
f 188/188/188 190/190/190 189/189/189
f 190/190/190 191/191/191 189/189/189
f 190/190/190 192/192/192 191/191/191
f 193/193/193 189/189/189 191/191/191
f 193/193/193 194/194/194 189/189/189
f 195/195/195 193/193/193 191/191/191
f 192/192/192 196/196/196 191/191/191
f 195/195/195 191/191/191 196/196/196
f 192/192/192 197/197/197 196/196/196
f 198/198/198 195/195/195 196/196/196
f 197/197/197 198/198/198 196/196/196
f 198/198/198 199/199/199 195/195/195
f 197/197/197 200/200/200 198/198/198
f 198/198/198 200/200/200 201/201/201
f 198/198/198 201/201/201 202/202/202
f 201/201/201 203/203/203 202/202/202
f 201/201/201 204/204/204 203/203/203
f 204/204/204 205/205/205 203/203/203
f 204/204/204 206/206/206 205/205/205
f 206/206/206 207/207/207 205/205/205
f 206/206/206 208/208/208 207/207/207
f 207/207/207 208/208/208 209/209/209
f 207/207/207 209/209/209 210/210/210
f 211/211/211 207/207/207 210/210/210
f 211/211/211 210/210/210 212/212/212
f 210/210/210 213/213/213 212/212/212
f 210/210/210 214/214/214 213/213/213
f 209/209/209 214/214/214 210/210/210
f 214/214/214 215/215/215 213/213/213
f 208/208/208 216/216/216 209/209/209
f 208/208/208 217/217/217 216/216/216
f 216/216/216 218/218/218 209/209/209
f 209/209/209 218/218/218 214/214/214
f 216/216/216 219/219/219 218/218/218
f 214/214/214 220/220/220 215/215/215
f 218/218/218 220/220/220 214/214/214
f 220/220/220 221/221/221 215/215/215
f 219/219/219 222/222/222 218/218/218
f 218/218/218 222/222/222 220/220/220
f 219/219/219 223/223/223 222/222/222
f 220/220/220 224/224/224 221/221/221
f 222/222/222 224/224/224 220/220/220
f 224/224/224 225/225/225 221/221/221
f 223/223/223 226/226/226 222/222/222
f 222/222/222 226/226/226 224/224/224
f 223/223/223 227/227/227 226/226/226
f 224/224/224 228/228/228 225/225/225
f 226/226/226 228/228/228 224/224/224
f 228/228/228 229/229/229 225/225/225
f 227/227/227 230/230/230 226/226/226
f 226/226/226 230/230/230 228/228/228
f 227/227/227 231/231/231 230/230/230
f 228/228/228 232/232/232 229/229/229
f 230/230/230 232/232/232 228/228/228
f 232/232/232 233/233/233 229/229/229
f 232/232/232 234/234/234 233/233/233
f 231/231/231 235/235/235 230/230/230
f 230/230/230 235/235/235 232/232/232
f 235/235/235 234/234/234 232/232/232
f 231/231/231 236/236/236 235/235/235
f 236/236/236 237/237/237 235/235/235
f 235/235/235 237/237/237 234/234/234
f 236/236/236 238/238/238 237/237/237
f 237/237/237 238/238/238 239/239/239
f 234/234/234 237/237/237 240/240/240
f 237/237/237 239/239/239 240/240/240
f 234/234/234 240/240/240 241/241/241
f 241/241/241 242/242/242 234/234/234
f 242/242/242 241/241/241 243/243/243
f 10/10/10 243/243/243 241/241/241
f 10/10/10 241/241/241 244/244/244
f 240/240/240 244/244/244 241/241/241
f 9/9/9 10/10/10 244/244/244
f 244/244/244 13/13/13 9/9/9
f 244/244/244 245/245/245 13/13/13
f 240/240/240 245/245/245 244/244/244
f 239/239/239 245/245/245 240/240/240
f 239/239/239 246/246/246 245/245/245
