# Converted from SynchroCircle01.asset
o SynchroCircle01
v -12.6187134 0 2.51000595
v -11.5652122 0 2.30045748
v -11.284029 0 3.42296195
v -12.3119221 0 3.73475099
v -11.8865643 0 4.92357016
v -10.8941889 0 4.51251459
v -10.3994207 0 5.55859804
v -11.346734 0 6.0649457
v -10.6976337 0 7.14791298
v -9.80451298 0 6.55116081
v -9.1151762 0 7.48061275
v -9.9455061 0 8.1620388
v -9.09759426 0 9.0975647
v -8.3380518 0 8.33803844
v -7.48062563 0 9.11516476
v -8.16206074 0 9.94548225
v -7.14790201 0 10.6976357
v -6.55116177 0 9.80451012
v -5.55860567 0 10.3994188
v -6.06495953 0 11.3467293
v -4.9235878 0 11.8865576
v -4.51252604 0 10.894186
v -3.4229753 0 11.2840233
v -3.73478818 0 12.3119087
v -2.51002026 0 12.6187115
v -2.30046725 0 11.5652113
v -1.15580499 0 11.7350006
v -1.26110101 0 12.8039532
v -1.55720718e-05 0 12.8659239
v -6.87821739e-06 0 11.7917738
v 1.15578735 0 11.7350006
v 1.26105702 0 12.8039589
v 2.50999498 0 12.6187143
v 2.30045462 0 11.5652113
v 3.42296529 0 11.2840233
v 3.73476672 0 12.3119183
v 4.92354345 0 11.8865767
v 4.51250792 0 10.8941908
v 5.55858755 0 10.3994236
v 6.06491518 0 11.3467531
v 7.14790678 0 10.6976337
v 6.55115843 0 9.80451298
v 7.48061371 0 9.11517429
v 8.1620388 0 9.94550228
v 9.09757614 0 9.09757805
v 8.33804417 0 8.33804703
v 9.11517048 0 7.480618
v 9.94549751 0 8.16204548
v 10.6976242 0 7.14791775
v 9.80450726 0 6.55116272
v 10.3994226 0 5.55859852
v 11.3467426 0 6.06492901
v 11.8865719 0 4.9235568
v 10.8941908 0 4.51251602
v 11.2840233 0 3.42297459
v 12.311904 0 3.73478961
v 12.6187143 0 2.51000667
v 11.5652113 0 2.30046129
v 11.7350006 0 1.15579784
v 12.803957 0 1.26107943
v 12.8659239 0 -4.45167734e-06
v 11.7917738 0 6.938388e-08
v 11.7350035 0 -1.15579724
v 12.8039608 0 -1.26108515
v 12.6187115 0 -2.5100143
v 11.5652113 0 -2.30046129
v 11.2840233 0 -3.42297268
v 12.3119125 0 -3.73478866
v 11.8865671 0 -4.92356396
v 10.8941908 0 -4.5125165
v 10.399416 0 -5.55860281
v 11.3467236 0 -6.06496572
v 10.6976118 0 -7.14793682
v 9.80450726 0 -6.5511694
v 9.11516666 0 -7.48062801
v 9.94547653 0 -8.16207218
v 9.0975647 0 -9.09759521
v 8.33804226 0 -8.33805084
v 7.48061514 0 -9.11517715
v 8.16202641 0 -9.94551468
v 7.14788675 0 -10.6976461
v 6.55115747 0 -9.80451679
v 5.55860043 0 -10.3994236
v 6.06493807 0 -11.3467426
v 4.92357159 0 -11.88657
v 4.51251841 0 -10.8941917
v 3.42296982 0 -11.2840281
v 3.73477244 0 -12.3119154
v 2.50999522 0 -12.6187191
v 2.30045748 0 -11.5652132
v 1.15579593 0 -11.7350044
v 1.26107478 0 -12.8039608
v -1.10665405e-05 0 -12.8659296
v -2.74898343e-06 0 -11.7917767
v -1.15579844 0 -11.7350044
v -1.26108599 0 -12.8039608
v -2.51002383 0 -12.6187153
v -2.30046511 0 -11.5652132
v -3.42297053 0 -11.284029
v -3.7347765 0 -12.3119173
v -4.9235549 0 -11.8865795
v -4.51251459 0 -10.8941956
v -5.55859709 0 -10.3994236
v -6.06493378 0 -11.3467426
v -7.14792347 0 -10.697629
v -6.55116701 0 -9.80451298
v -7.4806242 0 -9.11517239
v -8.16205597 0 -9.94549274
v -9.09758854 0 -9.09757423
v -8.3380518 0 -8.33804893
v -9.11517429 0 -7.48062229
v -9.94550037 0 -8.16205502
v -10.6976376 0 -7.14791059
v -9.80451488 0 -6.5511632
v -10.3994265 0 -5.55859184
v -11.346755 0 -6.06491709
v -11.8865862 0 -4.92353868
v -10.8942013 0 -4.51250887
v -11.284029 0 -3.42297459
v -12.3119154 0 -3.73478866
v -12.6187153 0 -2.51002383
v -11.5652132 0 -2.3004663
v -11.7350073 0 -1.15579975
v -12.8039608 0 -1.26109052
v -12.8659296 0 -6.75217871e-06
v -11.7917795 0 -2.03913623e-06
v -11.7350025 0 1.15579104
v -12.8039608 0 1.26106834
vt 0.606933594 0.479003906
vt 0.581542969 0.485351562
vt 0.578613281 0.474609375
vt 0.604003906 0.467773438
vt 0.601074219 0.458984375
vt 0.577148438 0.469726562
vt 0.572265625 0.459960938
vt 0.595703125 0.448242188
vt 0.590820312 0.439941406
vt 0.569335938 0.455078125
vt 0.562988281 0.446289062
vt 0.583984375 0.430664062
vt 0.577636719 0.423339844
vt 0.559570312 0.442382812
vt 0.551269531 0.435058594
vt 0.568847656 0.415527344
vt 0.561035156 0.409667969
vt 0.546875 0.432128906
vt 0.538085938 0.426269531
vt 0.55078125 0.403808594
vt 0.541992188 0.399414062
vt 0.532714844 0.423828125
vt 0.522949219 0.420410156
vt 0.53125 0.395507812
vt 0.521972656 0.393066406
vt 0.517578125 0.418945312
vt 0.506835938 0.417480469
vt 0.510253906 0.391601562
vt 0.500488281 0.391113281
vt 0.501464844 0.416992188
vt 0.490722656 0.41796875
vt 0.488769531 0.391601562
vt 0.479248047 0.393066406
vt 0.485107422 0.418457031
vt 0.474853516 0.421386719
vt 0.467773438 0.395996094
vt 0.458740234 0.398925781
vt 0.469482422 0.422851562
vt 0.459960938 0.427734375
vt 0.448242188 0.404296875
vt 0.439941406 0.409179688
vt 0.455078125 0.430664062
vt 0.446533203 0.437011719
vt 0.430419922 0.416015625
vt 0.423339844 0.422363281
vt 0.442382812 0.440429688
vt 0.435302734 0.448730469
vt 0.415527344 0.431152344
vt 0.409667969 0.438964844
vt 0.431884766 0.453125
vt 0.426513672 0.461914062
vt 0.403564453 0.44921875
vt 0.399414062 0.458007812
vt 0.424072266 0.467285156
vt 0.420410156 0.477050781
vt 0.395507812 0.46875
vt 0.393310547 0.478027344
vt 0.419189453 0.482421875
vt 0.417480469 0.493164062
vt 0.391601562 0.489746094
vt 0.391113281 0.499511719
vt 0.417236328 0.498535156
vt 0.417724609 0.509277344
vt 0.391601562 0.511230469
vt 0.393066406 0.520751953
vt 0.418457031 0.514892578
vt 0.421142578 0.525146484
vt 0.395751953 0.532226562
vt 0.399169922 0.541259766
vt 0.423095703 0.530517578
vt 0.427734375 0.540039062
vt 0.404052734 0.551757812
vt 0.409179688 0.560058594
vt 0.430419922 0.544921875
vt 0.436767578 0.553466797
vt 0.416015625 0.569580078
vt 0.422607422 0.576660156
vt 0.440673828 0.557617188
vt 0.448486328 0.564697266
vt 0.431152344 0.584472656
vt 0.438964844 0.590332031
vt 0.452880859 0.568115234
vt 0.462158203 0.573486328
vt 0.448974609 0.596435547
vt 0.457763672 0.600585938
vt 0.467041016 0.575927734
vt 0.477294922 0.579589844
vt 0.46875 0.604492188
vt 0.478271484 0.606689453
vt 0.482666016 0.580810547
vt 0.493164062 0.582519531
vt 0.489746094 0.608398438
vt 0.499511719 0.608886719
vt 0.498779297 0.582763672
vt 0.509277344 0.582275391
vt 0.511230469 0.608398438
vt 0.520996094 0.606933594
vt 0.514648438 0.581542969
vt 0.525390625 0.578857422
vt 0.532226562 0.604248047
vt 0.541015625 0.600830078
vt 0.530273438 0.576904297
vt 0.540039062 0.572509766
vt 0.551757812 0.595947266
vt 0.560058594 0.590820312
vt 0.544921875 0.569580078
vt 0.553710938 0.563232422
vt 0.569335938 0.583984375
vt 0.576660156 0.577392578
vt 0.557617188 0.559326172
vt 0.564941406 0.551513672
vt 0.584472656 0.568847656
vt 0.590332031 0.561035156
vt 0.567871094 0.547119141
vt 0.573730469 0.537841797
vt 0.596191406 0.551025391
vt 0.600585938 0.542236328
vt 0.576171875 0.532958984
vt 0.579589844 0.522705078
vt 0.604492188 0.53125
vt 0.606933594 0.521728516
vt 0.581054688 0.517333984
vt 0.582519531 0.506835938
vt 0.608398438 0.510253906
vt 0.608886719 0.500488281
vt 0.583007812 0.501220703
vt 0.58203125 0.490722656
vt 0.608398438 0.488769531
vn 0 1 -0
vn 0 1 -0
vn 0 1 -0
vn 0 1 -0
vn 0 1 -0
vn 0 1 -0
vn 0 1 -0
vn 0 1 -0
vn 0 1 -0
vn 0 1 -0
vn 0 1 -0
vn 0 1 -0
vn 0 1 -0
vn 0 1 -0
vn 0 1 -0
vn 0 1 -0
vn 0 1 -0
vn 0 1 -0
vn 0 1 -0
vn 0 1 -0
vn 0 1 -0
vn 0 1 -0
vn 0 1 -0
vn 0 1 -0
vn 0 1 -0
vn 0 1 -0
vn 0 1 -0
vn 0 1 -0
vn 0 1 -0
vn 0 1 -0
vn 0 1 -0
vn 0 1 -0
vn 0 1 -0
vn 0 1 -0
vn 0 1 -0
vn 0 1 -0
vn 0 1 -0
vn 0 1 -0
vn 0 1 -0
vn 0 1 -0
vn 0 1 -0
vn 0 1 -0
vn 0 1 -0
vn 0 1 -0
vn 0 1 -0
vn 0 1 -0
vn 0 1 -0
vn 0 1 -0
vn 0 1 -0
vn 0 1 -0
vn 0 1 -0
vn 0 1 -0
vn 0 1 -0
vn 0 1 -0
vn 0 1 -0
vn 0 1 -0
vn 0 1 -0
vn 0 1 -0
vn 0 1 -0
vn 0 1 -0
vn 0 1 -0
vn 0 1 -0
vn 0 1 -0
vn 0 1 -0
vn 0 1 -0
vn 0 1 -0
vn 0 1 -0
vn 0 1 -0
vn 0 1 -0
vn 0 1 -0
vn 0 1 -0
vn 0 1 -0
vn 0 1 -0
vn 0 1 -0
vn 0 1 -0
vn 0 1 -0
vn 0 1 -0
vn 0 1 -0
vn 0 1 -0
vn 0 1 -0
vn 0 1 -0
vn 0 1 -0
vn 0 1 -0
vn 0 1 -0
vn 0 1 -0
vn 0 1 -0
vn 0 1 -0
vn 0 1 -0
vn 0 1 -0
vn 0 1 -0
vn 0 1 -0
vn 0 1 -0
vn 0 1 -0
vn 0 1 -0
vn 0 1 -0
vn 0 1 -0
vn 0 1 -0
vn 0 1 -0
vn 0 1 -0
vn 0 1 -0
vn 0 1 -0
vn 0 1 -0
vn 0 1 -0
vn 0 1 -0
vn 0 1 -0
vn 0 1 -0
vn 0 1 -0
vn 0 1 -0
vn 0 1 -0
vn 0 1 -0
vn 0 1 -0
vn 0 1 -0
vn 0 1 -0
vn 0 1 -0
vn 0 1 -0
vn 0 1 -0
vn 0 1 -0
vn 0 1 -0
vn 0 1 -0
vn 0 1 -0
vn 0 1 -0
vn 0 1 -0
vn 0 1 -0
vn 0 1 -0
vn 0 1 -0
vn 0 1 -0
vn 0 1 -0
vn 0 1 -0
f 1/1/1 3/3/3 2/2/2
f 1/1/1 4/4/4 3/3/3
f 5/5/5 7/7/7 6/6/6
f 5/5/5 8/8/8 7/7/7
f 9/9/9 11/11/11 10/10/10
f 9/9/9 12/12/12 11/11/11
f 13/13/13 15/15/15 14/14/14
f 13/13/13 16/16/16 15/15/15
f 17/17/17 19/19/19 18/18/18
f 17/17/17 20/20/20 19/19/19
f 21/21/21 23/23/23 22/22/22
f 21/21/21 24/24/24 23/23/23
f 25/25/25 27/27/27 26/26/26
f 25/25/25 28/28/28 27/27/27
f 29/29/29 31/31/31 30/30/30
f 29/29/29 32/32/32 31/31/31
f 33/33/33 35/35/35 34/34/34
f 33/33/33 36/36/36 35/35/35
f 37/37/37 39/39/39 38/38/38
f 37/37/37 40/40/40 39/39/39
f 41/41/41 43/43/43 42/42/42
f 41/41/41 44/44/44 43/43/43
f 45/45/45 47/47/47 46/46/46
f 45/45/45 48/48/48 47/47/47
f 49/49/49 51/51/51 50/50/50
f 49/49/49 52/52/52 51/51/51
f 53/53/53 55/55/55 54/54/54
f 53/53/53 56/56/56 55/55/55
f 57/57/57 59/59/59 58/58/58
f 57/57/57 60/60/60 59/59/59
f 61/61/61 63/63/63 62/62/62
f 61/61/61 64/64/64 63/63/63
f 65/65/65 67/67/67 66/66/66
f 65/65/65 68/68/68 67/67/67
f 69/69/69 71/71/71 70/70/70
f 69/69/69 72/72/72 71/71/71
f 73/73/73 75/75/75 74/74/74
f 73/73/73 76/76/76 75/75/75
f 77/77/77 79/79/79 78/78/78
f 77/77/77 80/80/80 79/79/79
f 81/81/81 83/83/83 82/82/82
f 81/81/81 84/84/84 83/83/83
f 85/85/85 87/87/87 86/86/86
f 85/85/85 88/88/88 87/87/87
f 89/89/89 91/91/91 90/90/90
f 89/89/89 92/92/92 91/91/91
f 93/93/93 95/95/95 94/94/94
f 93/93/93 96/96/96 95/95/95
f 97/97/97 99/99/99 98/98/98
f 97/97/97 100/100/100 99/99/99
f 101/101/101 103/103/103 102/102/102
f 101/101/101 104/104/104 103/103/103
f 105/105/105 107/107/107 106/106/106
f 105/105/105 108/108/108 107/107/107
f 109/109/109 111/111/111 110/110/110
f 109/109/109 112/112/112 111/111/111
f 113/113/113 115/115/115 114/114/114
f 113/113/113 116/116/116 115/115/115
f 117/117/117 119/119/119 118/118/118
f 117/117/117 120/120/120 119/119/119
f 121/121/121 123/123/123 122/122/122
f 121/121/121 124/124/124 123/123/123
f 125/125/125 127/127/127 126/126/126
f 125/125/125 128/128/128 127/127/127
