# Converted from SummonRitualTrail01.asset
o SummonRitualTrail01
v -10.199028 41.7629089 -0.30577147
v -8.66178799 46.9069557 -3.68801379
v -6.92109108 43.7419357 -0.810888171
v -11.939723 44.9279289 -3.18289971
v -13.6353254 39.8176498 0.284921706
v -15.6411066 42.761219 -2.56863022
v -16.9652691 37.9372292 0.93237716
v -19.0605335 40.5644341 -2.07583165
v -19.6227493 36.3137283 1.37907219
v -21.7694702 38.9692116 -1.48424697
v -21.6724548 35.0474739 1.82284546
v -23.9390163 37.6838074 -0.877851307
v -23.2163887 34.0538406 2.30909657
v -25.7029781 36.6014252 -0.188207999
v -24.3714504 33.2431755 2.87542343
v -27.1802769 35.6203079 0.660950899
v -25.2623043 32.5284615 3.55916548
v -28.4275341 34.6789513 1.73131835
v -25.8987083 31.911171 4.36730099
v -29.3981094 33.7990723 3.05570912
v -26.2667789 31.4091377 5.30064726
v -30.0145359 33.0289383 4.65828562
v -26.3642254 31.0202904 6.401752
v -30.1876926 32.4367332 6.52149343
v -26.1552849 30.7486153 7.75859499
v -29.8619862 32.0845757 8.58232498
v -25.5549259 30.6320114 9.44473267
v -29.0310268 32.0006523 10.7922115
v -24.4928074 30.7069759 11.4604626
v -27.7179928 32.1691742 13.135952
v -23.0153046 30.9153976 13.6854143
v -26.006134 32.4873123 15.5594101
v -21.2170753 31.162672 15.9732313
v -23.9746227 32.8433075 17.9945831
v -19.1968689 31.3482704 18.1950855
v -21.6985588 33.1313095 20.3559093
v -17.0560074 31.3724117 20.2298489
v -19.2504349 33.2447701 22.5501442
v -14.9019098 31.1407928 21.9592819
v -16.6966877 33.0716095 24.4811401
v -12.8178501 30.5984097 23.3075733
v -14.0933208 32.520092 26.0642223
v -10.7484198 29.7918091 24.3503666
v -11.4969244 31.6353321 27.2787743
v -8.63706303 28.7754726 25.1568108
v -8.93068218 30.5141373 28.1645794
v -6.45282841 27.6047363 25.7733612
v -6.39217615 29.2524357 28.7840919
v -4.17586708 26.3425426 26.2420769
v -3.8678875 27.9385509 29.204174
v -1.79101562 25.059536 26.606863
v -1.33961606 26.653141 29.4898472
v 0.698948979 23.8233929 26.8974514
v 1.21595645 25.4515667 29.6869564
v 3.23234153 22.6629562 27.0782566
v 3.82972717 24.315176 29.7733154
v 5.77641296 21.5733948 27.1045933
v 6.49082565 23.2307663 29.7024841
v 8.31037045 20.5444431 26.9340668
v 9.17642879 22.1905556 29.4257755
v 10.814333 19.5659657 26.5250607
v 11.8628025 21.1866455 28.893671
v 13.2701855 18.6275921 25.8363323
v 14.5244446 20.2113857 28.0563183
v 15.6572485 17.7206059 24.8370705
v 17.1226845 19.2619057 26.8782082
v 17.9285145 16.8475895 23.5401611
v 19.5822525 18.3499947 25.3793354
v 20.0143833 16.019865 21.9745159
v 21.8347435 17.4851761 23.5884762
v 21.8437366 15.2494478 20.1720657
v 23.8132763 16.6762505 21.5313816
v 23.3482227 14.5477009 18.1660538
v 25.4481812 15.9326973 19.2324772
v 24.4634495 13.9250011 15.9897518
v 26.665844 15.2649794 16.7161751
v 25.1497574 13.3875141 13.6693592
v 27.4035492 14.6857538 14.0201483
v 25.4384327 12.9326572 11.2141552
v 27.6701527 14.2083912 11.2236767
v 25.3582268 12.5646973 8.65752792
v 27.5126991 13.8373995 8.38815498
v 24.9355907 12.2906866 6.04680777
v 26.9804974 13.5745049 5.56098843
v 24.2002487 12.1175852 3.43318844
v 26.1196022 13.4215288 2.78575444
v 23.1850357 12.0517769 0.868891597
v 24.9729576 13.3808641 0.104987793
v 21.919508 12.0928259 -1.59129274
v 23.5726051 13.4491749 -2.44182491
v 20.4124012 12.2143173 -3.88661861
v 21.914669 13.5989046 -4.8230319
v 18.6628132 12.3831892 -5.96946621
v 19.9907455 13.7965965 -6.99435043
v 16.6679821 12.5668764 -7.7969346
v 17.7942753 14.0083189 -8.90676975
v 14.4238338 12.7332954 -9.32770443
v 15.3200254 14.1996241 -10.5096998
v 11.9236994 12.8508472 -10.5216131
v 12.5653362 14.3356066 -11.7513866
v 9.18562984 12.8880072 -11.343401
v 9.56487083 14.3810692 -12.5841513
v 6.34950972 12.8121796 -11.7711105
v 6.47946739 14.3011589 -12.9828577
v 3.60670209 12.5908966 -11.7822371
v 3.48052454 14.0606785 -12.9318819
v 1.1534009 12.1952391 -11.3625965
v 0.734596133 13.6208839 -12.4072876
v -0.816563547 11.6037922 -10.5127344
v -1.58940375 12.9355345 -11.3704023
v -2.13539696 10.8049335 -9.25134659
v -3.29651761 11.9486008 -9.76440525
v -2.76269579 9.76804924 -7.60233545
v -4.17235327 10.6344309 -7.62397671
v -2.83499193 8.42318821 -5.66972589
v -4.25738955 9.05232525 -5.29053497
v -2.42942905 6.76559639 -3.70724487
v -3.75945878 7.20779419 -3.05249381
v -1.6576699 4.816854 -2.01183844
v -2.85187078 5.08001232 -1.1550647
v -0.65703398 2.59758806 -0.866343975
v -1.68227744 2.64909267 0.142451167
v 0.43160978 0.121402584 -0.53147459
v -0.394782692 -0.0978027359 0.558612049
vt 0.978027344 0
vt 1 1.00000083
vt 1 0
vt 0.978027344 1.00000137
vt 0.953125 0
vt 0.953125 1.00000083
vt 0.9296875 0
vt 0.9296875 1.00000137
vt 0.911621094 0
vt 0.911621094 1.00000143
vt 0.896972656 0
vt 0.896972656 1.00000137
vt 0.884277344 0
vt 0.884277344 1.00000137
vt 0.873046875 0
vt 0.873046875 1.00000143
vt 0.862304688 0
vt 0.862304688 1.00000083
vt 0.852050781 0
vt 0.852050781 1.00000083
vt 0.841308594 0
vt 0.841308594 1.00000143
vt 0.830078125 0
vt 0.830078125 1.00000137
vt 0.817871094 0
vt 0.817871094 1.00000083
vt 0.804199219 0
vt 0.804199219 1.00000083
vt 0.7890625 0
vt 0.7890625 1.00000143
vt 0.771972656 0
vt 0.771972656 1.00000083
vt 0.75390625 0
vt 0.75390625 1.00000077
vt 0.734863281 0
vt 0.734863281 1.00000077
vt 0.716308594 0
vt 0.716308594 1.00000137
vt 0.697753906 0
vt 0.697753906 1.00000137
vt 0.680175781 0
vt 0.680175781 1.00000137
vt 0.663085938 0
vt 0.663085938 1.00000083
vt 0.646484375 0
vt 0.646484375 1.00000137
vt 0.629882812 0
vt 0.629882812 1.00000083
vt 0.61328125 0
vt 0.61328125 1.00000083
vt 0.597167969 0
vt 0.597167969 1.00000143
vt 0.581054688 0
vt 0.581054688 1.00000119
vt 0.564941406 0
vt 0.564941406 1.00000119
vt 0.548339844 0
vt 0.548339844 1.00000119
vt 0.531738281 0
vt 0.531738281 1.00000119
vt 0.515136719 0
vt 0.515136719 1.00000119
vt 0.498535156 0
vt 0.498535156 1.00000119
vt 0.481201172 0
vt 0.481201172 1.00000119
vt 0.464111328 0
vt 0.464111328 1.00000119
vt 0.447021484 0
vt 0.447021484 1.00000119
vt 0.429931641 0
vt 0.429931641 1.00000119
vt 0.413330078 0
vt 0.413330078 1.00000262
vt 0.396972656 0
vt 0.396972656 1.00000262
vt 0.380615234 0
vt 0.380615234 1.00000298
vt 0.364501953 0
vt 0.364501953 1.00000262
vt 0.348144531 0
vt 0.348144531 1.00000262
vt 0.331787109 0
vt 0.331787109 1.00000298
vt 0.315185547 0
vt 0.315185547 1.00000286
vt 0.298339844 0
vt 0.298339844 1.00000286
vt 0.281982422 0
vt 0.281982422 1.0000028
vt 0.265380859 0
vt 0.265380859 1.00000298
vt 0.248657227 0
vt 0.248657227 1.00000298
vt 0.232055664 0
vt 0.232055664 1.0000028
vt 0.215209961 0
vt 0.215209961 1.00000286
vt 0.197998047 0
vt 0.197998047 1.0000028
vt 0.180175781 0
vt 0.180175781 1.00000286
vt 0.162475586 0
vt 0.162475586 1.00000286
vt 0.145263672 0
vt 0.145263672 1.0000028
vt 0.129150391 0
vt 0.129150391 1.0000028
vt 0.114135742 0
vt 0.114135742 1.00000286
vt 0.099609375 0
vt 0.099609375 1.0000028
vt 0.0844726562 0
vt 0.0844726562 1.00000286
vt 0.068359375 0
vt 0.068359375 1.0000028
vt 0.0516052246 0
vt 0.0516052246 1.00000298
vt 0.0345458984 0
vt 0.0345458984 1.0000028
vt 0.0174560547 0
vt 0.0174560547 1.00000298
vt 0 0
vt 0 1.00000298
vn -0.220947266 0.58984375 0.776855469
vn -0.231079102 0.58203125 0.779785156
vn -0.231079102 0.58203125 0.779785156
vn -0.222167969 0.588867188 0.77734375
vn -0.227783203 0.604492188 0.763671875
vn -0.227050781 0.604003906 0.764160156
vn -0.239868164 0.62109375 0.74609375
vn -0.239868164 0.62109375 0.74609375
vn -0.217163086 0.630859375 0.744628906
vn -0.217651367 0.630859375 0.744628906
vn -0.165771484 0.634277344 0.755371094
vn -0.166992188 0.633789062 0.754882812
vn -0.092956543 0.650878906 0.753417969
vn -0.0955810547 0.649902344 0.75390625
vn -0.00224494934 0.681152344 0.732421875
vn -0.00615310669 0.6796875 0.733398438
vn 0.0999755859 0.7265625 0.6796875
vn 0.0946044922 0.724121094 0.683105469
vn 0.208618164 0.790039062 0.576660156
vn 0.202392578 0.785644531 0.584472656
vn 0.300292969 0.859863281 0.412597656
vn 0.295654297 0.855957031 0.424316406
vn 0.346435547 0.914550781 0.208618164
vn 0.345214844 0.912109375 0.220703125
vn 0.343017578 0.939453125 0.00899505615
vn 0.343994141 0.938964844 0.0175018311
vn 0.313232422 0.9375 -0.151855469
vn 0.314453125 0.937988281 -0.147216797
vn 0.287109375 0.922851562 -0.257324219
vn 0.287353516 0.923339844 -0.255371094
vn 0.278076172 0.90625 -0.318359375
vn 0.278076172 0.906738281 -0.317382812
vn 0.28515625 0.891113281 -0.353027344
vn 0.284912109 0.891601562 -0.352294922
vn 0.305908203 0.876953125 -0.370117188
vn 0.305175781 0.877441406 -0.369873047
vn 0.341308594 0.862304688 -0.373779297
vn 0.339599609 0.86328125 -0.373779297
vn 0.392089844 0.843261719 -0.367431641
vn 0.389404297 0.844238281 -0.367919922
vn 0.4453125 0.817871094 -0.364257812
vn 0.442871094 0.819335938 -0.364013672
vn 0.482177734 0.791503906 -0.375
vn 0.481201172 0.79296875 -0.374267578
vn 0.497802734 0.770996094 -0.396972656
vn 0.497558594 0.771484375 -0.396240234
vn 0.493164062 0.758789062 -0.425292969
vn 0.493652344 0.759277344 -0.424560547
vn 0.471679688 0.754882812 -0.455810547
vn 0.471923828 0.754882812 -0.455322266
vn 0.436279297 0.756835938 -0.486572266
vn 0.436523438 0.756835938 -0.486328125
vn 0.391845703 0.761230469 -0.516601562
vn 0.392089844 0.761230469 -0.516601562
vn 0.342285156 0.765625 -0.544921875
vn 0.342773438 0.765625 -0.544433594
vn 0.286132812 0.770507812 -0.569824219
vn 0.287109375 0.770019531 -0.569335938
vn 0.22265625 0.776367188 -0.58984375
vn 0.223999023 0.775878906 -0.589355469
vn 0.150878906 0.783691406 -0.602539062
vn 0.152709961 0.783203125 -0.602539062
vn 0.0721435547 0.791992188 -0.605957031
vn 0.0744628906 0.791992188 -0.605957031
vn -0.0079574585 0.80078125 -0.599121094
vn -0.00569534302 0.800292969 -0.599121094
vn -0.086730957 0.808105469 -0.582519531
vn -0.0844116211 0.808105469 -0.583007812
vn -0.165161133 0.815917969 -0.554199219
vn -0.162719727 0.815429688 -0.555175781
vn -0.244262695 0.82421875 -0.510742188
vn -0.241455078 0.823730469 -0.512695312
vn -0.322753906 0.834472656 -0.447021484
vn -0.319580078 0.833984375 -0.450195312
vn -0.395507812 0.845214844 -0.359375
vn -0.392333984 0.844726562 -0.364013672
vn -0.452880859 0.854492188 -0.255126953
vn -0.450927734 0.854003906 -0.259521484
vn -0.490966797 0.858398438 -0.147583008
vn -0.489746094 0.858398438 -0.151245117
vn -0.512695312 0.857421875 -0.0432434082
vn -0.512207031 0.857910156 -0.0462036133
vn -0.521484375 0.8515625 0.0560302734
vn -0.521484375 0.8515625 0.0536499023
vn -0.520507812 0.840332031 0.150390625
vn -0.520507812 0.840820312 0.14855957
vn -0.510253906 0.825195312 0.241210938
vn -0.510742188 0.825683594 0.239501953
vn -0.491943359 0.806152344 0.328857422
vn -0.492431641 0.806640625 0.326904297
vn -0.464355469 0.783691406 0.412841797
vn -0.465332031 0.784179688 0.410644531
vn -0.426025391 0.758300781 0.493164062
vn -0.427490234 0.759277344 0.490966797
vn -0.375244141 0.731445312 0.569335938
vn -0.377197266 0.732421875 0.56640625
vn -0.311035156 0.704589844 0.638183594
vn -0.313720703 0.705566406 0.635742188
vn -0.236083984 0.678222656 0.695800781
vn -0.239257812 0.679199219 0.693847656
vn -0.159545898 0.654296875 0.739257812
vn -0.162597656 0.655273438 0.737792969
vn -0.0834960938 0.633300781 0.769042969
vn -0.0867919922 0.634277344 0.768066406
vn 0.000376462936 0.616699219 0.787109375
vn -0.00442886353 0.617675781 0.786621094
vn 0.103942871 0.608886719 0.786621094
vn 0.0955200195 0.608886719 0.787597656
vn 0.235717773 0.621582031 0.747070312
vn 0.221313477 0.619140625 0.753417969
vn 0.3671875 0.666503906 0.648925781
vn 0.353759766 0.659667969 0.663085938
vn 0.435546875 0.712402344 0.550292969
vn 0.432373047 0.708496094 0.557617188
vn 0.461425781 0.7265625 0.509277344
vn 0.459960938 0.7265625 0.510253906
vn 0.490722656 0.700195312 0.518554688
vn 0.48828125 0.703125 0.516601562
vn 0.54296875 0.625488281 0.560546875
vn 0.538574219 0.632324219 0.557128906
vn 0.62890625 0.482910156 0.609375
vn 0.621582031 0.496337891 0.606445312
vn 0.672851562 0.395996094 0.625
vn 0.672851562 0.395996094 0.625
f 1/1/1 3/3/3 2/2/2
f 1/1/1 2/2/2 4/4/4
f 4/4/4 5/5/5 1/1/1
f 4/4/4 6/6/6 5/5/5
f 6/6/6 7/7/7 5/5/5
f 6/6/6 8/8/8 7/7/7
f 8/8/8 9/9/9 7/7/7
f 8/8/8 10/10/10 9/9/9
f 10/10/10 11/11/11 9/9/9
f 10/10/10 12/12/12 11/11/11
f 12/12/12 13/13/13 11/11/11
f 12/12/12 14/14/14 13/13/13
f 14/14/14 15/15/15 13/13/13
f 14/14/14 16/16/16 15/15/15
f 16/16/16 17/17/17 15/15/15
f 16/16/16 18/18/18 17/17/17
f 18/18/18 19/19/19 17/17/17
f 18/18/18 20/20/20 19/19/19
f 20/20/20 21/21/21 19/19/19
f 20/20/20 22/22/22 21/21/21
f 22/22/22 23/23/23 21/21/21
f 22/22/22 24/24/24 23/23/23
f 24/24/24 25/25/25 23/23/23
f 24/24/24 26/26/26 25/25/25
f 26/26/26 27/27/27 25/25/25
f 26/26/26 28/28/28 27/27/27
f 28/28/28 29/29/29 27/27/27
f 28/28/28 30/30/30 29/29/29
f 30/30/30 31/31/31 29/29/29
f 30/30/30 32/32/32 31/31/31
f 32/32/32 33/33/33 31/31/31
f 32/32/32 34/34/34 33/33/33
f 34/34/34 35/35/35 33/33/33
f 34/34/34 36/36/36 35/35/35
f 36/36/36 37/37/37 35/35/35
f 36/36/36 38/38/38 37/37/37
f 38/38/38 39/39/39 37/37/37
f 38/38/38 40/40/40 39/39/39
f 40/40/40 41/41/41 39/39/39
f 40/40/40 42/42/42 41/41/41
f 42/42/42 43/43/43 41/41/41
f 42/42/42 44/44/44 43/43/43
f 44/44/44 45/45/45 43/43/43
f 44/44/44 46/46/46 45/45/45
f 46/46/46 47/47/47 45/45/45
f 46/46/46 48/48/48 47/47/47
f 48/48/48 49/49/49 47/47/47
f 48/48/48 50/50/50 49/49/49
f 50/50/50 51/51/51 49/49/49
f 50/50/50 52/52/52 51/51/51
f 52/52/52 53/53/53 51/51/51
f 52/52/52 54/54/54 53/53/53
f 54/54/54 55/55/55 53/53/53
f 54/54/54 56/56/56 55/55/55
f 56/56/56 57/57/57 55/55/55
f 56/56/56 58/58/58 57/57/57
f 58/58/58 59/59/59 57/57/57
f 58/58/58 60/60/60 59/59/59
f 60/60/60 61/61/61 59/59/59
f 60/60/60 62/62/62 61/61/61
f 62/62/62 63/63/63 61/61/61
f 62/62/62 64/64/64 63/63/63
f 64/64/64 65/65/65 63/63/63
f 64/64/64 66/66/66 65/65/65
f 66/66/66 67/67/67 65/65/65
f 66/66/66 68/68/68 67/67/67
f 68/68/68 69/69/69 67/67/67
f 68/68/68 70/70/70 69/69/69
f 70/70/70 71/71/71 69/69/69
f 70/70/70 72/72/72 71/71/71
f 72/72/72 73/73/73 71/71/71
f 72/72/72 74/74/74 73/73/73
f 74/74/74 75/75/75 73/73/73
f 74/74/74 76/76/76 75/75/75
f 76/76/76 77/77/77 75/75/75
f 76/76/76 78/78/78 77/77/77
f 78/78/78 79/79/79 77/77/77
f 78/78/78 80/80/80 79/79/79
f 80/80/80 81/81/81 79/79/79
f 80/80/80 82/82/82 81/81/81
f 82/82/82 83/83/83 81/81/81
f 82/82/82 84/84/84 83/83/83
f 84/84/84 85/85/85 83/83/83
f 84/84/84 86/86/86 85/85/85
f 86/86/86 87/87/87 85/85/85
f 86/86/86 88/88/88 87/87/87
f 88/88/88 89/89/89 87/87/87
f 88/88/88 90/90/90 89/89/89
f 90/90/90 91/91/91 89/89/89
f 90/90/90 92/92/92 91/91/91
f 92/92/92 93/93/93 91/91/91
f 92/92/92 94/94/94 93/93/93
f 94/94/94 95/95/95 93/93/93
f 94/94/94 96/96/96 95/95/95
f 96/96/96 97/97/97 95/95/95
f 96/96/96 98/98/98 97/97/97
f 98/98/98 99/99/99 97/97/97
f 98/98/98 100/100/100 99/99/99
f 100/100/100 101/101/101 99/99/99
f 100/100/100 102/102/102 101/101/101
f 102/102/102 103/103/103 101/101/101
f 102/102/102 104/104/104 103/103/103
f 104/104/104 105/105/105 103/103/103
f 104/104/104 106/106/106 105/105/105
f 106/106/106 107/107/107 105/105/105
f 106/106/106 108/108/108 107/107/107
f 108/108/108 109/109/109 107/107/107
f 108/108/108 110/110/110 109/109/109
f 110/110/110 111/111/111 109/109/109
f 110/110/110 112/112/112 111/111/111
f 112/112/112 113/113/113 111/111/111
f 112/112/112 114/114/114 113/113/113
f 114/114/114 115/115/115 113/113/113
f 114/114/114 116/116/116 115/115/115
f 116/116/116 117/117/117 115/115/115
f 116/116/116 118/118/118 117/117/117
f 118/118/118 119/119/119 117/117/117
f 118/118/118 120/120/120 119/119/119
f 120/120/120 121/121/121 119/119/119
f 120/120/120 122/122/122 121/121/121
f 122/122/122 123/123/123 121/121/121
f 122/122/122 124/124/124 123/123/123
