# Converted from CardModel_back.asset
o CardModel_back
v 2.83750319 -0.0249999985 -4.28612804
v 2.76776505 -0.0249999985 -4.29999971
v -2.76776505 -0.0249999985 -4.29999971
v -2.83750319 -0.0249999985 -4.28612804
v -2.8966248 -0.0249999985 -4.24662447
v 2.8966248 -0.0249999985 -4.24662447
v -2.93612814 -0.0249999985 -4.18750334
v 2.93612814 -0.0249999985 -4.18750334
v -2.95000005 -0.0249999985 -4.11776495
v 2.95000005 -0.0249999985 -4.11776495
v -2.95000005 -0.0249999985 4.11776495
v 2.95000005 -0.0249999985 4.11776495
v -2.93612814 -0.0249999985 4.18750334
v 2.93612814 -0.0249999985 4.18750334
v -2.8966248 -0.0249999985 4.24662447
v 2.8966248 -0.0249999985 4.24662447
v 2.83750319 -0.0249999985 4.28612804
v -2.83750319 -0.0249999985 4.28612804
v -2.76776505 -0.0249999985 4.29999971
v 2.76776505 -0.0249999985 4.29999971
vt 0.981509984 0.99838699
vt 0.969675779 0.999999915
vt 0.0303243026 0.999999979
vt 0.0184900686 0.998386989
vt 0.00845745485 0.993793582
vt 0.991542578 0.993793582
vt 0.00175387214 0.986918995
vt 0.998246133 0.986918995
vt -0.000600142404 0.978809895
vt 1.0006001 0.978809895
vt -0.000600142404 0.0211901665
vt 1.0006001 0.0211901665
vt 0.00175387214 0.0130810738
vt 0.998246133 0.0130810738
vt 0.00845745485 0.00620645285
vt 0.991542578 0.00620645285
vt 0.981509984 0.0016130209
vt 0.0184900686 0.0016130209
vt 0.0303243026 0
vt 0.969675779 5.96046448e-08
vn 0 -1 -0
vn 0 -1 -0
vn 0 -1 -0
vn 0 -1 -0
vn 0 -1 -0
vn 0 -1 -0
vn 0 -1 -0
vn 0 -1 -0
vn 0 -1 -0
vn 0 -1 -0
vn 0 -1 -0
vn 0 -1 -0
vn 0 -1 -0
vn 0 -1 -0
vn 0 -1 -0
vn 0 -1 -0
vn 0 -1 -0
vn 0 -1 -0
vn 0 -1 -0
vn 0 -1 -0
f 1/1/1 3/3/3 2/2/2
f 1/1/1 4/4/4 3/3/3
f 1/1/1 5/5/5 4/4/4
f 1/1/1 6/6/6 5/5/5
f 6/6/6 7/7/7 5/5/5
f 6/6/6 8/8/8 7/7/7
f 8/8/8 9/9/9 7/7/7
f 8/8/8 10/10/10 9/9/9
f 10/10/10 11/11/11 9/9/9
f 10/10/10 12/12/12 11/11/11
f 13/13/13 11/11/11 12/12/12
f 13/13/13 12/12/12 14/14/14
f 15/15/15 13/13/13 14/14/14
f 15/15/15 14/14/14 16/16/16
f 17/17/17 15/15/15 16/16/16
f 17/17/17 18/18/18 15/15/15
f 17/17/17 19/19/19 18/18/18
f 17/17/17 20/20/20 19/19/19
