# Converted from CardModel_side.asset
o CardModel_side
v 2.8966248 -0.0249999985 -4.24662447
v 2.8966248 0.0249999985 -4.24662447
v 2.83750319 0.0249999985 -4.28612804
v 2.83750319 -0.0249999985 -4.28612804
v 2.76776505 -0.0249999985 -4.29999971
v 2.76776505 0.0249999985 -4.29999971
v -2.76776505 -0.0249999985 -4.29999971
v -2.76776505 0.0249999985 -4.29999971
v -2.83750319 -0.0249999985 -4.28612804
v -2.83750319 0.0249999985 -4.28612804
v -2.8966248 -0.0249999985 -4.24662447
v -2.8966248 0.0249999985 -4.24662447
v 2.8966248 0.0249999985 4.24662447
v 2.8966248 -0.0249999985 4.24662447
v 2.83750319 -0.0249999985 4.28612804
v 2.83750319 0.0249999985 4.28612804
v 2.76776505 0.0249999985 4.29999971
v 2.76776505 -0.0249999985 4.29999971
v -2.76776505 0.0249999985 4.29999971
v -2.76776505 -0.0249999985 4.29999971
v -2.83750319 0.0249999985 4.28612804
v -2.83750319 -0.0249999985 4.28612804
v -2.8966248 0.0249999985 4.24662447
v -2.8966248 -0.0249999985 4.24662447
v -2.8966248 -0.0249999985 -4.24662447
v -2.8966248 0.0249999985 -4.24662447
v -2.93612814 0.0249999985 -4.18750334
v -2.93612814 -0.0249999985 -4.18750334
v -2.95000005 -0.0249999985 -4.11776495
v -2.95000005 0.0249999985 -4.11776495
v -2.95000005 -0.0249999985 4.11776495
v -2.95000005 0.0249999985 4.11776495
v -2.93612814 -0.0249999985 4.18750334
v -2.93612814 0.0249999985 4.18750334
v -2.8966248 -0.0249999985 4.24662447
v -2.8966248 0.0249999985 4.24662447
v 2.8966248 -0.0249999985 4.24662447
v 2.8966248 0.0249999985 4.24662447
v 2.93612814 0.0249999985 4.18750334
v 2.93612814 -0.0249999985 4.18750334
v 2.95000005 -0.0249999985 4.11776495
v 2.95000005 0.0249999985 4.11776495
v 2.95000005 -0.0249999985 -4.11776495
v 2.95000005 0.0249999985 -4.11776495
v 2.93612814 -0.0249999985 -4.18750334
v 2.93612814 0.0249999985 -4.18750334
v 2.8966248 -0.0249999985 -4.24662447
v 2.8966248 0.0249999985 -4.24662447
vt 0.00596528547 0.987583318
vt 0.00596527988 0.974611096
vt 0.00625204109 0.974610981
vt 0.00625203876 0.987583188
vt 0.00659026857 0.987583374
vt 0.0065902723 0.974611154
vt 0.0334399529 0.98758332
vt 0.0334399566 0.974611094
vt 0.0337782539 0.987583349
vt 0.0337782614 0.97461113
vt 0.0340375751 0.987583278
vt 0.0340375453 0.974611059
vt 0.0340375006 0.974611156
vt 0.0340374447 0.987583336
vt 0.0337782763 0.987583348
vt 0.0337782539 0.974611143
vt 0.033439979 0.974611102
vt 0.0334399976 0.987583326
vt 0.0065903361 0.9746111
vt 0.00659034261 0.987583331
vt 0.00625208439 0.974611094
vt 0.00625208672 0.987583322
vt 0.00596531667 0.974611107
vt 0.00596532598 0.987583324
vt 0.00590291107 0.987583286
vt 0.00590289943 0.974611079
vt 0.00608070614 0.9746111
vt 0.0060807094 0.987583332
vt 0.00631279126 0.987583341
vt 0.00631278567 0.974611102
vt 0.0337175205 0.987583326
vt 0.0337175168 0.974611083
vt 0.0339495689 0.98758334
vt 0.0339495689 0.97461112
vt 0.0341274217 0.987583292
vt 0.0341274589 0.974611122
vt 0.00590293529 0.987583263
vt 0.00590293715 0.974611066
vt 0.00608075177 0.974611122
vt 0.00608074991 0.987583338
vt 0.0063128178 0.987583308
vt 0.00631281873 0.974611072
vt 0.0337174684 0.987583328
vt 0.0337174721 0.974611096
vt 0.0339318775 0.987583248
vt 0.0339318812 0.974611029
vt 0.0341462307 0.987583296
vt 0.0341462418 0.974611079
vn 0 0 -1
vn 0 0 -1
vn 0.382681072 0 -0.923880517
vn 0.382681072 0 -0.923880517
vn 0.00247473246 0 -0.99999702
vn 0.00247473246 0 -0.99999702
vn -0.00247473246 0 -0.99999702
vn -0.00247473246 0 -0.99999702
vn -0.382681072 0 -0.923880517
vn -0.382681072 0 -0.923880517
vn -1 0 -0
vn -1 0 -0
vn 0 0 1
vn 0 0 1
vn 0.382681072 0 0.923880517
vn 0.382681072 0 0.923880517
vn 0.00247473246 0 0.99999702
vn 0.00247473246 0 0.99999702
vn -0.00247473246 0 0.99999702
vn -0.00247473246 0 0.99999702
vn -0.382681072 0 0.923880517
vn -0.382681072 0 0.923880517
vn 0 0 1
vn 0 0 1
vn -1 0 -0
vn -1 0 -0
vn -0.9238801 0 -0.382681817
vn -0.9238801 0 -0.382681817
vn -0.999998689 0 -0.00167023472
vn -0.999998689 0 -0.00167023472
vn -0.999998689 0 0.00167023472
vn -0.999998689 0 0.00167023472
vn -0.9238801 0 0.382681817
vn -0.9238801 0 0.382681817
vn 0 0 1
vn 0 0 1
vn 0 0 1
vn 0 0 1
vn 0.9238801 0 0.382681817
vn 0.9238801 0 0.382681817
vn 0.999998689 0 0.00167023472
vn 0.999998689 0 0.00167023472
vn 0.999998689 0 -0.00167023472
vn 0.999998689 0 -0.00167023472
vn 0.9238801 0 -0.382681817
vn 0.9238801 0 -0.382681817
vn 0 0 -1
vn 0 0 -1
f 1/1/1 3/3/3 2/2/2
f 1/1/1 4/4/4 3/3/3
f 3/3/3 4/4/4 5/5/5
f 3/3/3 5/5/5 6/6/6
f 6/6/6 5/5/5 7/7/7
f 6/6/6 7/7/7 8/8/8
f 8/8/8 7/7/7 9/9/9
f 8/8/8 9/9/9 10/10/10
f 10/10/10 9/9/9 11/11/11
f 10/10/10 11/11/11 12/12/12
f 13/13/13 15/15/15 14/14/14
f 13/13/13 16/16/16 15/15/15
f 15/15/15 16/16/16 17/17/17
f 15/15/15 17/17/17 18/18/18
f 18/18/18 17/17/17 19/19/19
f 18/18/18 19/19/19 20/20/20
f 20/20/20 19/19/19 21/21/21
f 20/20/20 21/21/21 22/22/22
f 22/22/22 21/21/21 23/23/23
f 22/22/22 23/23/23 24/24/24
f 25/25/25 27/27/27 26/26/26
f 25/25/25 28/28/28 27/27/27
f 27/27/27 28/28/28 29/29/29
f 27/27/27 29/29/29 30/30/30
f 30/30/30 29/29/29 31/31/31
f 30/30/30 31/31/31 32/32/32
f 32/32/32 31/31/31 33/33/33
f 32/32/32 33/33/33 34/34/34
f 34/34/34 33/33/33 35/35/35
f 34/34/34 35/35/35 36/36/36
f 37/37/37 39/39/39 38/38/38
f 37/37/37 40/40/40 39/39/39
f 39/39/39 40/40/40 41/41/41
f 39/39/39 41/41/41 42/42/42
f 42/42/42 41/41/41 43/43/43
f 42/42/42 43/43/43 44/44/44
f 44/44/44 43/43/43 45/45/45
f 44/44/44 45/45/45 46/46/46
f 46/46/46 45/45/45 47/47/47
f 46/46/46 47/47/47 48/48/48
