# Converted from SummonRitualTrail02.asset
o SummonRitualTrail02
v -13.6574602 40.3180771 -2.58054662
v -16.2475166 43.0383148 -5.21361113
v -13.2266808 40.3082542 -4.53357887
v -16.678297 43.0481453 -3.2605803
v -14.7950506 39.8438454 -0.0939187631
v -17.6657963 42.6877518 -0.790837407
v -15.9850092 39.2837029 1.96392512
v -18.9423523 42.0061455 1.31774926
v -16.8800087 38.8064194 3.74713159
v -19.6708488 41.6705856 3.13547468
v -17.6055164 38.3171425 5.29420757
v -20.3686104 41.2125854 4.93909788
v -18.2992744 37.7224045 6.80594063
v -21.0344009 40.62677 6.7178793
v -18.9596844 37.0194931 8.27149296
v -21.6668625 39.907486 8.46075821
v -19.5853462 36.2058067 9.68044853
v -22.2644596 39.048996 10.1562414
v -20.1747398 35.2790718 11.0233994
v -22.8250732 38.0460434 11.7925453
v -20.7200584 34.2439232 12.3018665
v -23.3372555 36.9050865 13.3630419
v -21.2065506 33.111805 13.5258627
v -23.7808952 35.6444321 14.8687201
v -21.6183147 31.895153 14.7028503
v -24.1363277 34.2821579 16.3138199
v -21.9390812 30.6064186 15.8397713
v -24.3842812 32.8363647 17.7031136
v -22.1522388 29.2579613 16.9433689
v -24.505825 31.3252335 19.0415497
v -22.2407303 27.8618946 18.0203819
v -24.4824352 29.7671852 20.3340912
v -22.1869793 26.4301109 19.0776806
v -24.2961597 28.1808681 21.5855846
v -21.9754314 24.9767914 20.1176014
v -23.9325581 26.5864353 22.7968388
v -21.6016102 23.5275784 21.1230507
v -23.3884068 25.0077 23.9539452
v -21.0644302 22.1107864 22.0727825
v -22.6626339 23.4695988 25.0386009
v -20.3633976 20.7536716 22.9466114
v -21.7535744 21.9981327 26.0314445
v -19.4983788 19.4824791 23.7251778
v -20.6592331 20.6202965 26.9122696
v -18.4690113 18.322073 24.3901501
v -19.3778114 19.3644791 27.6598778
v -17.2736893 17.2956753 24.9242134
v -17.9087734 18.2607079 28.2520256
v -15.9085493 16.4238701 25.3112907
v -16.2554607 17.3396378 28.6664162
v -14.3782568 15.7019806 25.5488472
v -14.4500179 16.6107216 28.8944778
v -12.7086716 15.1104078 25.6423912
v -12.5407457 16.0519524 28.9468422
v -10.9385719 14.6343498 25.5957661
v -10.5646372 15.6344671 28.8369827
v -9.10980034 14.2573471 25.4145851
v -8.55564022 15.3310747 28.576622
v -7.26501942 13.9611187 25.1061611
v -6.5468626 15.116395 28.1757641
v -5.4469862 13.7261314 24.6792278
v -4.57132292 14.9663105 27.6430073
v -3.69847393 13.5321636 24.1438236
v -2.66203666 14.8573999 26.98563
v -2.05136847 13.3611298 23.5096188
v -0.846448362 14.7694426 26.2096424
v -0.493328243 13.2045698 22.7786198
v 0.869552612 14.6940622 25.3221989
v 0.991790116 13.0568066 21.9518642
v 2.49270773 14.6254606 24.3297653
v 2.41702271 12.9122944 21.0308533
v 4.03288269 14.5577049 23.2383385
v 3.79453778 12.7654991 20.0170727
v 5.50080729 14.4848375 22.0539646
v 5.13566685 12.6108637 18.9122734
v 6.90803194 14.4009399 20.7823868
v 6.45110655 12.4427929 17.7186966
v 8.26676464 14.3001299 19.428875
v 7.7499423 12.2557421 16.4394207
v 9.58901024 14.176631 17.9978313
v 9.014575 12.0467062 15.0842686
v 10.8718719 14.0257311 16.4862785
v 10.2082472 11.8147345 13.6636581
v 12.0900917 13.8442917 14.890007
v 11.3002148 11.5583496 12.1821117
v 13.2105579 13.6298475 13.2106829
v 12.2606297 11.2761078 10.6439991
v 14.1992855 13.3798971 11.4501095
v 13.0606222 10.9666109 9.05344009
v 15.0213013 13.0919056 9.61035347
v 13.6725531 10.6283455 7.41355038
v 15.6403856 12.7634535 7.6944766
v 14.0698986 10.2594147 5.72536898
v 16.0192299 12.3924751 5.70762444
v 14.2331295 9.85635757 3.99552488
v 16.1272621 11.9774237 3.67120719
v 14.1664696 9.41318798 2.27170396
v 15.9651213 11.5148983 1.65303588
v 13.8788252 8.92734146 0.627316892
v 15.5425043 10.9969826 -0.282945544
v 13.3836432 8.39824295 -0.862183809
v 14.8645811 10.4137764 -2.07483387
v 12.7002048 7.82734823 -2.12451053
v 13.930665 9.75336647 -3.65756154
v 11.8533764 7.21801519 -3.09606934
v 12.7345228 9.00190639 -4.95736694
v 10.8666344 6.57166243 -3.73136091
v 11.2712622 8.14750004 -5.88239145
v 9.74104023 5.87653494 -4.00788832
v 9.56127834 7.19251013 -6.32351494
v 8.44075298 5.09606504 -3.95466495
v 7.72733927 6.18848562 -6.2519908
v 6.99304628 4.22659922 -3.59926391
v 5.89455414 5.17850065 -5.77241373
v 5.49652338 3.30288959 -2.97629023
v 4.1195488 4.16827297 -4.98807859
v 4.05060768 2.3587029 -2.14407229
v 2.45813799 3.16451406 -3.9785533
v 2.74857688 1.4246875 -1.17223513
v 0.972274125 2.17703795 -2.81211305
v 1.67951965 0.53124547 -0.137481689
v -0.27190429 1.21592438 -1.54995239
v 0.92940551 -0.286967605 0.873939216
v -1.20512629 0.286982059 -0.243724361
vt 0.981445312 0
vt 1 0.999997318
vt 1 0
vt 0.981445312 0.999997377
vt 0.956054688 0
vt 0.956054688 0.999996424
vt 0.93359375 0
vt 0.93359375 0.999996543
vt 0.914550781 0
vt 0.914550781 0.999996543
vt 0.8984375 0
vt 0.8984375 0.999997318
vt 0.881835938 0
vt 0.881835938 0.999998391
vt 0.865722656 0
vt 0.865722656 0.999998391
vt 0.849609375 0
vt 0.849609375 0.999999464
vt 0.833984375 0
vt 0.833984375 0.999999464
vt 0.817871094 0
vt 0.817871094 1.00000054
vt 0.801757812 0
vt 0.801757812 1.00000054
vt 0.785644531 0
vt 0.785644531 0.999999464
vt 0.76953125 0
vt 0.76953125 0.999999464
vt 0.753417969 0
vt 0.753417969 0.999999464
vt 0.737304688 0
vt 0.737304688 0.999998927
vt 0.720703125 0
vt 0.720703125 0.999998927
vt 0.704101562 0
vt 0.704101562 0.999997854
vt 0.6875 0
vt 0.6875 0.999996781
vt 0.670898438 0
vt 0.670898438 0.999996781
vt 0.654785156 0
vt 0.654785156 0.999996781
vt 0.639160156 0
vt 0.639160156 0.999997854
vt 0.623535156 0
vt 0.623535156 0.999996781
vt 0.607910156 0
vt 0.607910156 0.999996781
vt 0.592773438 0
vt 0.592773438 0.999996781
vt 0.577148438 0
vt 0.577148438 0.999996781
vt 0.560546875 0
vt 0.560546875 0.999996781
vt 0.543945312 0
vt 0.543945312 0.999997854
vt 0.526367188 0
vt 0.526367188 0.999997854
vt 0.509277344 0
vt 0.509277344 0.999997854
vt 0.491699219 0
vt 0.491699219 0.999997914
vt 0.474853516 0
vt 0.474853516 0.999997914
vt 0.458496094 0
vt 0.458496094 0.999997914
vt 0.442626953 0
vt 0.442626953 0.999997914
vt 0.426757812 0
vt 0.426757812 0.999997914
vt 0.411132812 0
vt 0.411132812 0.999997914
vt 0.395263672 0
vt 0.395263672 0.999997914
vt 0.379150391 0
vt 0.379150391 0.999997914
vt 0.362792969 0
vt 0.362792969 0.999997914
vt 0.345947266 0
vt 0.345947266 0.999997914
vt 0.328857422 0
vt 0.328857422 0.999997914
vt 0.311523438 0
vt 0.311523438 0.999997914
vt 0.294433594 0
vt 0.294433594 0.999997914
vt 0.277587891 0
vt 0.277587891 0.999997914
vt 0.260742188 0
vt 0.260742188 0.999997914
vt 0.244384766 0
vt 0.244384766 0.999997914
vt 0.228149414 0
vt 0.228149414 0.999997914
vt 0.211669922 0
vt 0.211669922 0.999997914
vt 0.1953125 0
vt 0.1953125 0.999997914
vt 0.179199219 0
vt 0.179199219 0.999997914
vt 0.16394043 0
vt 0.16394043 0.999997914
vt 0.149780273 0
vt 0.149780273 0.999997914
vt 0.13659668 0
vt 0.13659668 0.999997914
vt 0.124267578 0
vt 0.124267578 0.999997914
vt 0.111816406 0
vt 0.111816406 0.999997914
vt 0.0978393555 0
vt 0.0978393555 0.999997914
vt 0.0819091797 0
vt 0.0819091797 0.999997914
vt 0.0647583008 0
vt 0.0647583008 0.999997914
vt 0.047088623 0
vt 0.047088623 0.999997914
vt 0.0298309326 0
vt 0.0298309326 0.999997914
vt 0.0138320923 0
vt 0.0138320923 0.999997914
vt 5.96046448e-08 0
vt -5.96046448e-08 0.999997914
vn 0.618652344 0.735839844 0.274658203
vn 0.646484375 0.75 0.138793945
vn 0.646484375 0.75 0.138793945
vn 0.618164062 0.735351562 0.277099609
vn 0.5625 0.699707031 0.440429688
vn 0.561523438 0.69921875 0.442382812
vn 0.552734375 0.685546875 0.474121094
vn 0.553710938 0.686035156 0.471923828
vn 0.594726562 0.677734375 0.431884766
vn 0.594726562 0.678710938 0.431396484
vn 0.612792969 0.641113281 0.461914062
vn 0.612792969 0.642089844 0.461181641
vn 0.624511719 0.603027344 0.49609375
vn 0.624511719 0.604003906 0.495361328
vn 0.636230469 0.561523438 0.528808594
vn 0.636230469 0.5625 0.527832031
vn 0.6484375 0.517089844 0.55859375
vn 0.647949219 0.518066406 0.558105469
vn 0.662109375 0.471679688 0.582519531
vn 0.661621094 0.47265625 0.58203125
vn 0.679199219 0.430908203 0.594238281
vn 0.678710938 0.431640625 0.594238281
vn 0.700683594 0.3984375 0.591796875
vn 0.700195312 0.399169922 0.591796875
vn 0.725585938 0.376708984 0.575683594
vn 0.725097656 0.376953125 0.576171875
vn 0.751953125 0.366455078 0.547851562
vn 0.751464844 0.366455078 0.548828125
vn 0.777832031 0.368896484 0.508789062
vn 0.77734375 0.368652344 0.509765625
vn 0.80078125 0.384277344 0.459228516
vn 0.800292969 0.384033203 0.460449219
vn 0.818359375 0.412109375 0.400390625
vn 0.818359375 0.411621094 0.401611328
vn 0.828613281 0.448486328 0.335449219
vn 0.828125 0.447753906 0.336914062
vn 0.829589844 0.490722656 0.266845703
vn 0.829589844 0.489990234 0.268310547
vn 0.819335938 0.539550781 0.194335938
vn 0.819335938 0.538574219 0.195800781
vn 0.794433594 0.595703125 0.117980957
vn 0.795410156 0.594238281 0.119689941
vn 0.751464844 0.658691406 0.0385437012
vn 0.752441406 0.657226562 0.0403747559
vn 0.684082031 0.728027344 -0.0418395996
vn 0.686035156 0.7265625 -0.0399475098
vn 0.589355469 0.798828125 -0.11920166
vn 0.592285156 0.797363281 -0.117370605
vn 0.474365234 0.860351562 -0.186279297
vn 0.477050781 0.859375 -0.184936523
vn 0.359130859 0.90234375 -0.23815918
vn 0.361328125 0.901855469 -0.237182617
vn 0.256835938 0.92578125 -0.27734375
vn 0.258544922 0.925292969 -0.276855469
vn 0.169067383 0.936035156 -0.308837891
vn 0.170410156 0.936035156 -0.308349609
vn 0.0943603516 0.9375 -0.335205078
vn 0.0954589844 0.9375 -0.334716797
vn 0.0304260254 0.933105469 -0.358398438
vn 0.0313720703 0.933105469 -0.357910156
vn -0.0249938965 0.924804688 -0.379638672
vn -0.0240936279 0.924804688 -0.379150391
vn -0.0745239258 0.9140625 -0.398925781
vn -0.0736083984 0.9140625 -0.3984375
vn -0.122009277 0.901367188 -0.415527344
vn -0.12109375 0.901367188 -0.415283203
vn -0.169433594 0.887207031 -0.428710938
vn -0.168579102 0.887695312 -0.428710938
vn -0.216186523 0.872070312 -0.438964844
vn -0.215332031 0.872558594 -0.438720703
vn -0.260986328 0.85546875 -0.447021484
vn -0.260253906 0.855957031 -0.446777344
vn -0.303222656 0.837890625 -0.453613281
vn -0.302490234 0.838378906 -0.453613281
vn -0.342041016 0.819335938 -0.460449219
vn -0.341552734 0.819335938 -0.460205078
vn -0.377441406 0.799316406 -0.467773438
vn -0.376953125 0.799316406 -0.467529297
vn -0.411376953 0.778320312 -0.474365234
vn -0.410888672 0.778808594 -0.474121094
vn -0.447509766 0.757324219 -0.476074219
vn -0.446777344 0.757324219 -0.476074219
vn -0.487792969 0.735839844 -0.469482422
vn -0.487060547 0.736328125 -0.469726562
vn -0.532226562 0.715332031 -0.452880859
vn -0.53125 0.715820312 -0.453369141
vn -0.579589844 0.696289062 -0.423339844
vn -0.578613281 0.696777344 -0.424072266
vn -0.62890625 0.679199219 -0.378173828
vn -0.627441406 0.6796875 -0.379638672
vn -0.676757812 0.665039062 -0.315429688
vn -0.675292969 0.665527344 -0.317626953
vn -0.718261719 0.654296875 -0.236083984
vn -0.717285156 0.654785156 -0.238891602
vn -0.749023438 0.645507812 -0.150390625
vn -0.748046875 0.645507812 -0.153198242
vn -0.767578125 0.637207031 -0.065612793
vn -0.767089844 0.637695312 -0.0686035156
vn -0.774902344 0.631835938 0.0203857422
vn -0.774902344 0.631835938 0.0169372559
vn -0.767578125 0.631347656 0.111633301
vn -0.768066406 0.631347656 0.107177734
vn -0.739257812 0.640136719 0.210205078
vn -0.741210938 0.639160156 0.204345703
vn -0.680175781 0.663085938 0.312744141
vn -0.685546875 0.661132812 0.305664062
vn -0.584472656 0.703125 0.405029297
vn -0.593261719 0.699707031 0.398681641
vn -0.470458984 0.75 0.465087891
vn -0.478515625 0.746582031 0.462158203
vn -0.371582031 0.787109375 0.492675781
vn -0.376220703 0.78515625 0.491699219
vn -0.295654297 0.810058594 0.506347656
vn -0.298339844 0.809570312 0.505859375
vn -0.235839844 0.823242188 0.516601562
vn -0.237670898 0.822753906 0.516113281
vn -0.186889648 0.829101562 0.526855469
vn -0.188232422 0.829101562 0.526367188
vn -0.145019531 0.830566406 0.538085938
vn -0.146484375 0.830566406 0.537597656
vn -0.108276367 0.828125 0.550292969
vn -0.109802246 0.828125 0.549804688
vn -0.0904541016 0.825683594 0.556640625
vn -0.0904541016 0.825683594 0.556640625
f 1/1/1 3/3/3 2/2/2
f 1/1/1 2/2/2 4/4/4
f 4/4/4 5/5/5 1/1/1
f 4/4/4 6/6/6 5/5/5
f 6/6/6 7/7/7 5/5/5
f 6/6/6 8/8/8 7/7/7
f 8/8/8 9/9/9 7/7/7
f 8/8/8 10/10/10 9/9/9
f 10/10/10 11/11/11 9/9/9
f 10/10/10 12/12/12 11/11/11
f 12/12/12 13/13/13 11/11/11
f 12/12/12 14/14/14 13/13/13
f 14/14/14 15/15/15 13/13/13
f 14/14/14 16/16/16 15/15/15
f 16/16/16 17/17/17 15/15/15
f 16/16/16 18/18/18 17/17/17
f 18/18/18 19/19/19 17/17/17
f 18/18/18 20/20/20 19/19/19
f 20/20/20 21/21/21 19/19/19
f 20/20/20 22/22/22 21/21/21
f 22/22/22 23/23/23 21/21/21
f 22/22/22 24/24/24 23/23/23
f 24/24/24 25/25/25 23/23/23
f 24/24/24 26/26/26 25/25/25
f 26/26/26 27/27/27 25/25/25
f 26/26/26 28/28/28 27/27/27
f 28/28/28 29/29/29 27/27/27
f 28/28/28 30/30/30 29/29/29
f 30/30/30 31/31/31 29/29/29
f 30/30/30 32/32/32 31/31/31
f 32/32/32 33/33/33 31/31/31
f 32/32/32 34/34/34 33/33/33
f 34/34/34 35/35/35 33/33/33
f 34/34/34 36/36/36 35/35/35
f 36/36/36 37/37/37 35/35/35
f 36/36/36 38/38/38 37/37/37
f 38/38/38 39/39/39 37/37/37
f 38/38/38 40/40/40 39/39/39
f 40/40/40 41/41/41 39/39/39
f 40/40/40 42/42/42 41/41/41
f 42/42/42 43/43/43 41/41/41
f 42/42/42 44/44/44 43/43/43
f 44/44/44 45/45/45 43/43/43
f 44/44/44 46/46/46 45/45/45
f 46/46/46 47/47/47 45/45/45
f 46/46/46 48/48/48 47/47/47
f 48/48/48 49/49/49 47/47/47
f 48/48/48 50/50/50 49/49/49
f 50/50/50 51/51/51 49/49/49
f 50/50/50 52/52/52 51/51/51
f 52/52/52 53/53/53 51/51/51
f 52/52/52 54/54/54 53/53/53
f 54/54/54 55/55/55 53/53/53
f 54/54/54 56/56/56 55/55/55
f 56/56/56 57/57/57 55/55/55
f 56/56/56 58/58/58 57/57/57
f 58/58/58 59/59/59 57/57/57
f 58/58/58 60/60/60 59/59/59
f 60/60/60 61/61/61 59/59/59
f 60/60/60 62/62/62 61/61/61
f 62/62/62 63/63/63 61/61/61
f 62/62/62 64/64/64 63/63/63
f 64/64/64 65/65/65 63/63/63
f 64/64/64 66/66/66 65/65/65
f 66/66/66 67/67/67 65/65/65
f 66/66/66 68/68/68 67/67/67
f 68/68/68 69/69/69 67/67/67
f 68/68/68 70/70/70 69/69/69
f 70/70/70 71/71/71 69/69/69
f 70/70/70 72/72/72 71/71/71
f 72/72/72 73/73/73 71/71/71
f 72/72/72 74/74/74 73/73/73
f 74/74/74 75/75/75 73/73/73
f 74/74/74 76/76/76 75/75/75
f 76/76/76 77/77/77 75/75/75
f 76/76/76 78/78/78 77/77/77
f 78/78/78 79/79/79 77/77/77
f 78/78/78 80/80/80 79/79/79
f 80/80/80 81/81/81 79/79/79
f 80/80/80 82/82/82 81/81/81
f 82/82/82 83/83/83 81/81/81
f 82/82/82 84/84/84 83/83/83
f 84/84/84 85/85/85 83/83/83
f 84/84/84 86/86/86 85/85/85
f 86/86/86 87/87/87 85/85/85
f 86/86/86 88/88/88 87/87/87
f 88/88/88 89/89/89 87/87/87
f 88/88/88 90/90/90 89/89/89
f 90/90/90 91/91/91 89/89/89
f 90/90/90 92/92/92 91/91/91
f 92/92/92 93/93/93 91/91/91
f 92/92/92 94/94/94 93/93/93
f 94/94/94 95/95/95 93/93/93
f 94/94/94 96/96/96 95/95/95
f 96/96/96 97/97/97 95/95/95
f 96/96/96 98/98/98 97/97/97
f 98/98/98 99/99/99 97/97/97
f 98/98/98 100/100/100 99/99/99
f 100/100/100 101/101/101 99/99/99
f 100/100/100 102/102/102 101/101/101
f 102/102/102 103/103/103 101/101/101
f 102/102/102 104/104/104 103/103/103
f 104/104/104 105/105/105 103/103/103
f 104/104/104 106/106/106 105/105/105
f 106/106/106 107/107/107 105/105/105
f 106/106/106 108/108/108 107/107/107
f 108/108/108 109/109/109 107/107/107
f 108/108/108 110/110/110 109/109/109
f 110/110/110 111/111/111 109/109/109
f 110/110/110 112/112/112 111/111/111
f 112/112/112 113/113/113 111/111/111
f 112/112/112 114/114/114 113/113/113
f 114/114/114 115/115/115 113/113/113
f 114/114/114 116/116/116 115/115/115
f 116/116/116 117/117/117 115/115/115
f 116/116/116 118/118/118 117/117/117
f 118/118/118 119/119/119 117/117/117
f 118/118/118 120/120/120 119/119/119
f 120/120/120 121/121/121 119/119/119
f 120/120/120 122/122/122 121/121/121
f 122/122/122 123/123/123 121/121/121
f 122/122/122 124/124/124 123/123/123
