# Converted from fxl_Cone_cmn_001.asset
o fxl_Cone_cmn_001
v 2.34547472 -8.07154237e-08 -1.35417998
v 2.70833349 0 -0
v 3.09027791 0.833333313 -0
v 2.67624664 0.833333254 -1.54515409
v 1.35415673 -1.398016e-07 -2.34548116
v 3.47222185 1.66666663 -0
v 1.54512739 0.833333194 -2.67625427
v 3.3294782e-07 -1.61429256e-07 -2.70833302
v 3.00701833 1.66666651 -1.73612809
v 3.85416675 2.5 -0
v 3.79901991e-07 0.833333194 -3.09027767
v -1.35415447 -1.39801685e-07 -2.34548283
v 1.73609817 1.66666651 -3.00702691
v 3.33779073 2.49999976 -1.92710233
v 4.23611116 3.33333325 -0
v -1.54512513 0.833333194 -2.67625594
v -2.3454721 -8.07150329e-08 -1.3541733
v 4.26856161e-07 1.66666651 -3.47222161
v 1.92706907 2.49999976 -3.3378005
v 3.66856265 3.33333325 -2.11807632
v 4.61805534 4.16666651 -0
v -2.67624378 0.833333254 -1.54514647
v -2.70833349 -7.9801904e-13 -1.33885369e-05
v -1.73609543 1.66666651 -3.00702906
v 4.73810388e-07 2.49999952 -3.85416651
v 2.11803985 3.33333302 -3.66857314
v 3.99933505 4.16666651 -2.30905032
v 5 5 -0
v 4.33010721 4.99999952 -2.50002432
v 2.30901051 4.16666603 -3.99934626
v 2.4999814 4.99999952 -4.33011913
v -3.09027791 0.833333313 -1.52766643e-05
v -2.3454845 8.07136757e-08 1.35415065
v -3.00701523 1.66666651 -1.73611951
v -1.92706621 2.49999976 -3.33780265
v 5.20764502e-07 3.33333302 -4.23611069
v 5.677187e-07 4.16666603 -4.61805487
v 6.14672899e-07 4.99999952 -4.99999952
v -2.67625785 0.833333433 1.54512084
v -1.35417354 1.39801031e-07 2.34547186
v -3.47222185 1.66666663 -1.71647898e-05
v -3.33778739 2.49999976 -1.92709291
v -2.11803651 3.33333302 -3.66857529
v -2.30900717 4.16666603 -3.99934864
v -2.49997759 4.99999952 -4.33012199
v -1.54514658 0.833333492 2.67624354
v -1.43470243e-05 1.61429256e-07 2.70833302
v -3.0070312 1.66666687 1.73609078
v -3.85416675 2.5 -1.9052919e-05
v -3.66855884 3.33333325 -2.11806583
v -3.99933028 4.16666651 -2.30903935
v -4.33010197 4.99999952 -2.50001216
v -1.63703226e-05 0.833333492 3.09027767
v 1.35414898 1.39801841e-07 2.34548545
v -1.73611963 1.66666687 3.00701499
v -3.33780503 2.5 1.92706096
v -4.23611116 3.33333325 -2.09410446e-05
v -4.61805534 4.16666651 -2.28291719e-05
v -5 5 -2.47172975e-05
v 1.54511881 0.833333492 2.67625904
v 2.34547424 8.0715445e-08 1.35418022
v -1.8393619e-05 1.66666687 3.47222161
v -1.92709303 2.50000024 3.33778715
v -3.66857839 3.33333325 2.11803079
v -3.99935174 4.16666651 2.30900073
v -4.33012533 5 2.49997091
v 2.67624617 0.833333433 1.54515433
v 2.70833349 0 -0
v 3.09027791 0.833333313 -0
v 1.7360884 1.66666687 3.00703239
v 3.00701809 1.66666687 1.73612845
v 3.47222185 1.66666663 -0
v -2.04169191e-05 2.50000024 3.85416651
v -2.11806607 3.33333373 3.6685586
v -2.30903935 4.16666698 3.99933004
v -2.5000124 5 4.33010197
v 3.33779025 2.5 1.9271028
v 3.85416675 2.5 -0
v 1.92705822 2.50000024 3.33780622
v -2.24402174e-05 3.33333373 4.23611069
v -2.44635157e-05 4.16666698 4.61805487
v -2.6486814e-05 5 4.99999952
v 2.11802769 3.33333373 3.66857982
v 3.66856217 3.33333325 2.1180768
v 4.23611116 3.33333325 -0
v 2.30899763 4.16666698 3.99935365
v 2.49996734 5 4.33012724
v 3.99933434 4.16666651 2.30905104
v 4.61805534 4.16666651 -0
v 4.33010626 5 2.50002503
v 5 5 -0
vt 0.0833333209 1
vt 0 1
vt 0 0.833333328
vt 0.0833333209 0.833333328
vt 0.166666642 1
vt 0 0.666666657
vt 0.166666642 0.833333328
vt 0.249999955 1
vt 0.0833333209 0.666666657
vt 0 0.5
vt 0.249999955 0.833333328
vt 0.333333284 1
vt 0.166666642 0.666666657
vt 0.0833333209 0.5
vt 0 0.333333313
vt 0.333333284 0.833333328
vt 0.416666627 1
vt 0.249999955 0.666666657
vt 0.166666642 0.5
vt 0.0833333209 0.333333313
vt 0 0.166666627
vt 0.416666627 0.833333328
vt 0.49999994 1
vt 0.333333284 0.666666657
vt 0.249999955 0.5
vt 0.166666642 0.333333313
vt 0.0833333209 0.166666627
vt 0 0
vt 0.0833333209 0
vt 0.166666642 0.166666627
vt 0.166666642 0
vt 0.49999994 0.833333328
vt 0.583333254 1
vt 0.416666627 0.666666657
vt 0.333333284 0.5
vt 0.249999955 0.333333313
vt 0.249999955 0.166666627
vt 0.249999955 0
vt 0.583333254 0.833333328
vt 0.666666567 1
vt 0.49999994 0.666666657
vt 0.416666627 0.5
vt 0.333333284 0.333333313
vt 0.333333284 0.166666627
vt 0.333333284 0
vt 0.666666567 0.833333328
vt 0.74999994 1
vt 0.583333254 0.666666657
vt 0.49999994 0.5
vt 0.416666627 0.333333313
vt 0.416666627 0.166666627
vt 0.416666627 0
vt 0.74999994 0.833333328
vt 0.833333313 1
vt 0.666666567 0.666666657
vt 0.583333254 0.5
vt 0.49999994 0.333333313
vt 0.49999994 0.166666627
vt 0.49999994 0
vt 0.833333313 0.833333328
vt 0.916666687 1
vt 0.74999994 0.666666657
vt 0.666666567 0.5
vt 0.583333254 0.333333313
vt 0.583333254 0.166666627
vt 0.583333254 0
vt 0.916666687 0.833333328
vt 1 1
vt 1 0.833333328
vt 0.833333313 0.666666657
vt 0.916666687 0.666666657
vt 1 0.666666657
vt 0.74999994 0.5
vt 0.666666567 0.333333313
vt 0.666666567 0.166666627
vt 0.666666567 0
vt 0.916666687 0.5
vt 1 0.5
vt 0.833333313 0.5
vt 0.74999994 0.333333313
vt 0.74999994 0.166666627
vt 0.74999994 0
vt 0.833333313 0.333333313
vt 0.916666687 0.333333313
vt 1 0.333333313
vt 0.833333313 0.166666627
vt 0.833333313 0
vt 0.916666687 0.166666627
vt 1 0.166666627
vt 0.916666687 0
vt 1 0
vn 0.7872715 -0.416654408 -0.454535633
vn 0.90906477 -0.416654885 1.2037313e-07
vn 0.909064889 -0.416654587 1.36581633e-07
vn 0.787271619 -0.416654229 -0.454535663
vn 0.454530954 -0.416653633 -0.787274718
vn 0.909064889 -0.416654736 1.07020547e-07
vn 0.454530925 -0.416653425 -0.787274718
vn 5.25274004e-07 -0.416654736 -0.909064889
vn 0.78727144 -0.416654468 -0.454535604
vn 0.909064889 -0.416654766 1.31524018e-07
vn 5.29946249e-07 -0.416654527 -0.909064889
vn -0.454533011 -0.416653812 -0.787273288
vn 0.454530925 -0.416653723 -0.787274659
vn 0.7872715 -0.416654408 -0.454535544
vn 0.909064889 -0.416654736 1.11721818e-07
vn -0.454532862 -0.416653603 -0.787273526
vn -0.787270367 -0.416653842 -0.454538167
vn 5.05924561e-07 -0.416654885 -0.90906477
vn 0.454530865 -0.416653752 -0.787274718
vn 0.787271619 -0.416654289 -0.454535693
vn 0.90906477 -0.416654795 1.24473857e-07
vn -0.787270546 -0.416653574 -0.454538047
vn -0.909064889 -0.416654766 -4.15839895e-06
vn -0.454532832 -0.416653752 -0.787273467
vn 4.91031926e-07 -0.416654736 -0.909064889
vn 0.454531014 -0.416653633 -0.787274659
vn 0.7872715 -0.416654438 -0.454535633
vn 0.90906477 -0.416654766 1.36297587e-07
vn 0.7872715 -0.416654438 -0.454535544
vn 0.454531014 -0.416653693 -0.787274659
vn 0.454531014 -0.416653574 -0.787274718
vn -0.909064889 -0.416654527 -4.10842995e-06
vn -0.787274539 -0.416653514 0.454531133
vn -0.787270486 -0.416653693 -0.454537988
vn -0.454532892 -0.416653633 -0.787273526
vn 4.8679675e-07 -0.416654527 -0.909064889
vn 5.12548638e-07 -0.416654766 -0.90906477
vn 5.37627898e-07 -0.416654885 -0.90906477
vn -0.787274718 -0.416653395 0.454531163
vn -0.454538941 -0.416653693 0.78726995
vn -0.90906477 -0.416654795 -4.11061637e-06
vn -0.787270486 -0.416653782 -0.454537958
vn -0.454532892 -0.416653544 -0.787273586
vn -0.454532802 -0.416653633 -0.787273526
vn -0.454532653 -0.416653723 -0.787273586
vn -0.454538882 -0.416653544 0.787270129
vn -4.61801346e-06 -0.416654766 0.90906477
vn -0.787274539 -0.416653752 0.454530954
vn -0.90906471 -0.416654944 -4.14744454e-06
vn -0.787270546 -0.416653633 -0.454537988
vn -0.787270486 -0.416653723 -0.454538047
vn -0.787270546 -0.416653812 -0.45453769
vn -4.58920613e-06 -0.416654617 0.909064889
vn 0.454528719 -0.416653574 0.78727597
vn -0.454538733 -0.416653782 0.787270069
vn -0.787274539 -0.416653663 0.454531014
vn -0.909064889 -0.416654676 -4.16568309e-06
vn -0.90906477 -0.416654766 -4.1369799e-06
vn -0.90906471 -0.416654944 -4.10412667e-06
vn 0.454528749 -0.416653425 0.78727603
vn 0.787270784 -0.416654348 0.454537034
vn -4.54843621e-06 -0.416654766 0.909064889
vn -0.454538673 -0.416653603 0.787270188
vn -0.787274659 -0.416653454 0.454531103
vn -0.787274539 -0.416653663 0.454530954
vn -0.787274718 -0.416653723 0.454530776
vn 0.787270963 -0.41665411 0.454536915
vn 0.90906477 -0.416654885 1.2037313e-07
vn 0.909064889 -0.416654587 1.36581633e-07
vn 0.454528719 -0.416653663 0.78727597
vn 0.787270844 -0.416654289 0.454536885
vn 0.909064889 -0.416654736 1.07020547e-07
vn -4.55517738e-06 -0.416654766 0.909064889
vn -0.454538733 -0.416653484 0.787270188
vn -0.454538822 -0.416653782 0.787270069
vn -0.454538584 -0.416653812 0.787270129
vn 0.787270784 -0.416654319 0.454536945
vn 0.909064889 -0.416654766 1.31524018e-07
vn 0.454528749 -0.416653693 0.78727591
vn -4.5487368e-06 -0.416654527 0.909064889
vn -4.57630858e-06 -0.416654766 0.909064889
vn -4.62661183e-06 -0.416654944 0.90906471
vn 0.45452866 -0.416653603 0.78727603
vn 0.787270725 -0.416654468 0.454536974
vn 0.909064889 -0.416654736 1.11721818e-07
vn 0.4545286 -0.416653663 0.78727597
vn 0.45452857 -0.416653693 0.78727603
vn 0.787270725 -0.416654378 0.454537004
vn 0.90906477 -0.416654795 1.24473857e-07
vn 0.787270844 -0.416654199 0.454536885
vn 0.90906477 -0.416654766 1.36297587e-07
f 1/1/1 3/3/3 2/2/2
f 1/1/1 4/4/4 3/3/3
f 5/5/5 4/4/4 1/1/1
f 4/4/4 6/6/6 3/3/3
f 5/5/5 7/7/7 4/4/4
f 8/8/8 7/7/7 5/5/5
f 4/4/4 9/9/9 6/6/6
f 7/7/7 9/9/9 4/4/4
f 9/9/9 10/10/10 6/6/6
f 8/8/8 11/11/11 7/7/7
f 12/12/12 11/11/11 8/8/8
f 7/7/7 13/13/13 9/9/9
f 11/11/11 13/13/13 7/7/7
f 9/9/9 14/14/14 10/10/10
f 13/13/13 14/14/14 9/9/9
f 14/14/14 15/15/15 10/10/10
f 12/12/12 16/16/16 11/11/11
f 17/17/17 16/16/16 12/12/12
f 11/11/11 18/18/18 13/13/13
f 16/16/16 18/18/18 11/11/11
f 13/13/13 19/19/19 14/14/14
f 18/18/18 19/19/19 13/13/13
f 14/14/14 20/20/20 15/15/15
f 19/19/19 20/20/20 14/14/14
f 20/20/20 21/21/21 15/15/15
f 17/17/17 22/22/22 16/16/16
f 23/23/23 22/22/22 17/17/17
f 16/16/16 24/24/24 18/18/18
f 22/22/22 24/24/24 16/16/16
f 18/18/18 25/25/25 19/19/19
f 24/24/24 25/25/25 18/18/18
f 19/19/19 26/26/26 20/20/20
f 25/25/25 26/26/26 19/19/19
f 20/20/20 27/27/27 21/21/21
f 26/26/26 27/27/27 20/20/20
f 27/27/27 28/28/28 21/21/21
f 27/27/27 29/29/29 28/28/28
f 30/30/30 29/29/29 27/27/27
f 26/26/26 30/30/30 27/27/27
f 30/30/30 31/31/31 29/29/29
f 23/23/23 32/32/32 22/22/22
f 33/33/33 32/32/32 23/23/23
f 22/22/22 34/34/34 24/24/24
f 32/32/32 34/34/34 22/22/22
f 24/24/24 35/35/35 25/25/25
f 34/34/34 35/35/35 24/24/24
f 25/25/25 36/36/36 26/26/26
f 36/36/36 30/30/30 26/26/26
f 35/35/35 36/36/36 25/25/25
f 37/37/37 31/31/31 30/30/30
f 36/36/36 37/37/37 30/30/30
f 37/37/37 38/38/38 31/31/31
f 33/33/33 39/39/39 32/32/32
f 40/40/40 39/39/39 33/33/33
f 32/32/32 41/41/41 34/34/34
f 39/39/39 41/41/41 32/32/32
f 34/34/34 42/42/42 35/35/35
f 41/41/41 42/42/42 34/34/34
f 35/35/35 43/43/43 36/36/36
f 43/43/43 37/37/37 36/36/36
f 42/42/42 43/43/43 35/35/35
f 44/44/44 38/38/38 37/37/37
f 43/43/43 44/44/44 37/37/37
f 44/44/44 45/45/45 38/38/38
f 40/40/40 46/46/46 39/39/39
f 47/47/47 46/46/46 40/40/40
f 39/39/39 48/48/48 41/41/41
f 46/46/46 48/48/48 39/39/39
f 41/41/41 49/49/49 42/42/42
f 48/48/48 49/49/49 41/41/41
f 42/42/42 50/50/50 43/43/43
f 50/50/50 44/44/44 43/43/43
f 49/49/49 50/50/50 42/42/42
f 51/51/51 45/45/45 44/44/44
f 50/50/50 51/51/51 44/44/44
f 51/51/51 52/52/52 45/45/45
f 47/47/47 53/53/53 46/46/46
f 54/54/54 53/53/53 47/47/47
f 46/46/46 55/55/55 48/48/48
f 53/53/53 55/55/55 46/46/46
f 48/48/48 56/56/56 49/49/49
f 55/55/55 56/56/56 48/48/48
f 49/49/49 57/57/57 50/50/50
f 57/57/57 51/51/51 50/50/50
f 56/56/56 57/57/57 49/49/49
f 58/58/58 52/52/52 51/51/51
f 57/57/57 58/58/58 51/51/51
f 58/58/58 59/59/59 52/52/52
f 54/54/54 60/60/60 53/53/53
f 61/61/61 60/60/60 54/54/54
f 53/53/53 62/62/62 55/55/55
f 60/60/60 62/62/62 53/53/53
f 55/55/55 63/63/63 56/56/56
f 62/62/62 63/63/63 55/55/55
f 56/56/56 64/64/64 57/57/57
f 64/64/64 58/58/58 57/57/57
f 63/63/63 64/64/64 56/56/56
f 65/65/65 59/59/59 58/58/58
f 64/64/64 65/65/65 58/58/58
f 65/65/65 66/66/66 59/59/59
f 61/61/61 67/67/67 60/60/60
f 68/68/68 67/67/67 61/61/61
f 68/68/68 69/69/69 67/67/67
f 60/60/60 70/70/70 62/62/62
f 67/67/67 70/70/70 60/60/60
f 69/69/69 71/71/71 67/67/67
f 67/67/67 71/71/71 70/70/70
f 69/69/69 72/72/72 71/71/71
f 62/62/62 73/73/73 63/63/63
f 70/70/70 73/73/73 62/62/62
f 63/63/63 74/74/74 64/64/64
f 74/74/74 65/65/65 64/64/64
f 73/73/73 74/74/74 63/63/63
f 75/75/75 66/66/66 65/65/65
f 74/74/74 75/75/75 65/65/65
f 75/75/75 76/76/76 66/66/66
f 72/72/72 77/77/77 71/71/71
f 72/72/72 78/78/78 77/77/77
f 71/71/71 79/79/79 70/70/70
f 70/70/70 79/79/79 73/73/73
f 71/71/71 77/77/77 79/79/79
f 73/73/73 80/80/80 74/74/74
f 80/80/80 75/75/75 74/74/74
f 79/79/79 80/80/80 73/73/73
f 81/81/81 76/76/76 75/75/75
f 80/80/80 81/81/81 75/75/75
f 81/81/81 82/82/82 76/76/76
f 79/79/79 83/83/83 80/80/80
f 77/77/77 83/83/83 79/79/79
f 83/83/83 81/81/81 80/80/80
f 78/78/78 84/84/84 77/77/77
f 77/77/77 84/84/84 83/83/83
f 78/78/78 85/85/85 84/84/84
f 86/86/86 82/82/82 81/81/81
f 83/83/83 86/86/86 81/81/81
f 84/84/84 86/86/86 83/83/83
f 86/86/86 87/87/87 82/82/82
f 85/85/85 88/88/88 84/84/84
f 84/84/84 88/88/88 86/86/86
f 88/88/88 87/87/87 86/86/86
f 85/85/85 89/89/89 88/88/88
f 88/88/88 90/90/90 87/87/87
f 89/89/89 90/90/90 88/88/88
f 89/89/89 91/91/91 90/90/90
