# Converted from fxl_Sphere_haf_Zup_001.asset
o fxl_Sphere_haf_Zup_001
v 2.23517418e-07 7.4505806e-08 -0
v 0.0956121013 0.4806768 0.0239670277
v 5.21540642e-07 0.490093827 0.0239673257
v 0.190299809 0.956704319 0.0960969925
v 1.49011612e-06 0.975447357 0.0960963964
v 0.28315863 1.42353606 0.215331912
v 1.78813934e-06 1.45142436 0.215332508
v 0.373291582 1.876665 0.380604535
v 2.16066837e-06 1.91343117 0.380604237
v 0.459826231 2.31170297 0.590398014
v 2.90572643e-06 2.35699224 0.590397716
v 0.541931689 2.72447348 0.842664838
v 3.09199095e-06 2.77784872 0.842665076
v 0.61882031 3.11102009 1.13494933
v 3.6880374e-06 3.17196822 1.13494956
v 0.68974638 3.46759176 1.46447289
v 3.83704901e-06 3.5355258 1.46447325
v 0.754033744 3.79078341 1.82803035
v 4.60073352e-06 3.86504865 1.82803094
v 0.811055303 4.07745075 2.22214937
v 5.03845513e-06 4.15733337 2.22214937
v 0.860270381 4.32487106 2.6430068
v 4.87547368e-06 4.40960073 2.6430068
v 0.901198864 4.53063345 3.08656788
v 5.02215698e-06 4.6193943 3.08656788
v 0.933442116 4.6927309 3.54857373
v 5.02564944e-06 4.78466702 3.54857373
v 0.956703544 4.80967569 4.02455187
v 5.54602593e-06 4.90390205 4.02455139
v 0.970774889 4.8804183 4.50990534
v 5.51579387e-06 4.97603178 4.50990534
v 0.975451469 4.90392685 4.99999905
v 5.5134301e-06 5 4.99999905
v 1.91341674 4.61939812 4.99999905
v 1.90424454 4.59725428 4.50990534
v 2.77785063 4.15734863 4.99999905
v 1.87664163 4.53061438 4.02455187
v 2.76453495 4.1374197 4.50990534
v 3.53553367 3.53553367 4.99999905
v 1.83101296 4.42045593 3.54857373
v 2.72446108 4.07744598 4.02455187
v 3.51858544 3.51858544 4.50990534
v 4.15734768 2.77785063 4.99999905
v 1.76776552 4.26776361 3.08656788
v 2.65821862 3.97830582 3.54857373
v 3.46758199 3.46758199 4.02455187
v 4.13741922 2.76453447 4.50990582
v 4.61939764 1.91341639 4.99999905
v 1.68748105 4.0739398 2.6430068
v 2.56639743 3.84088612 3.08656788
v 3.38327074 3.38327074 3.54857373
v 4.07744551 2.72446156 4.02455187
v 4.59725475 1.90424454 4.50990582
v 4.90392637 0.975450337 4.99999952
v 1.59094179 3.84087515 2.22214961
v 2.44984198 3.66644955 2.64300704
v 3.26640487 3.26640439 3.08656788
v 3.97830534 2.65821838 3.54857445
v 4.53061438 1.87664151 4.02455187
v 4.88041878 0.970774651 4.50990582
v 4.99999905 -1.63912785e-06 4.99999952
v 1.47908974 3.57083988 1.82803071
v 2.30968976 3.45669651 2.22214985
v 3.11805844 3.11805844 2.6430068
v 3.84088588 2.56639814 3.08656788
v 4.42045641 1.83101249 3.54857421
v 4.80967474 0.956702769 4.02455187
v 4.97603178 -1.68030965e-06 4.50990582
v 4.90392494 -0.975453794 4.99999952
v 4.88041735 -0.970777869 4.50990582
v 4.61939573 -1.91341925 5
v 4.90390158 -1.88010745e-06 4.02455187
v 4.69273043 0.933441043 3.54857445
v 4.26776361 1.76776528 3.08656788
v 3.66644931 2.44984269 2.6430068
v 4.59725142 -1.90424705 4.50990582
v 4.15734625 -2.77785325 5
v 4.80967474 -0.956705749 4.02455235
v 4.78466654 -1.21770427e-06 3.54857445
v 4.53063345 0.901198149 3.08656788
v 4.13741732 -2.76453733 4.50990582
v 3.53553152 -3.53553653 5
v 4.53061342 -1.87664449 4.02455235
v 4.69273043 -0.933444023 3.54857421
v 3.5185833 -3.51858878 4.50990582
v 2.77784777 -4.15735054 5
v 4.07744408 -2.72446442 4.02455235
v 2.76453185 -4.13742208 4.50990582
v 1.91341293 -4.61939955 5
v 4.0739398 1.68748009 2.6430068
v 4.6193943 -1.08964741e-06 3.08656788
v 4.42045403 -1.83101463 3.54857445
v 3.46757984 -3.46758485 4.02455235
v 1.90424073 -4.59725618 4.50990582
v 0.975446999 -4.90392733 5
v 4.32487106 0.860269547 2.64300704
v 4.53063297 -0.901200771 3.08656812
v 3.97830319 -2.65822053 3.54857445
v 2.72445917 -4.07744741 4.02455235
v 0.970771492 -4.88042021 4.50990582
v -4.91738319e-06 -5 5
v 4.40960073 -1.2665987e-06 2.64300704
v 4.26776218 -1.76776743 3.08656812
v 3.38326812 -3.38327265 3.54857445
v 1.87663794 -4.53061676 4.02455235
v -4.69386578e-06 -4.97603178 4.50990582
v -0.975456357 -4.9039259 5
v 4.32487059 -0.86027205 2.64300704
v 3.84088397 -2.56639981 3.08656859
v 2.65821528 -3.97830701 3.54857445
v 0.95669955 -4.80967665 4.02455235
v -0.970780253 -4.88041687 4.50990582
v -1.91342187 -4.61939573 5
v 4.07393837 -1.68748236 2.64300752
v 3.2664032 -3.26640749 3.08656788
v 1.83100927 -4.42045832 3.54857469
v -4.58210707e-06 -4.90390205 4.02455235
v -1.90425003 -4.59725142 4.50990582
v -2.77785611 -4.15734529 5
v 3.66644716 -2.44984531 2.64300752
v 2.56639457 -3.84088731 3.08656859
v 0.933437765 -4.69273186 3.54857469
v -0.956709206 -4.80967379 4.02455235
v -2.76454067 -4.13741589 4.50990582
v -3.53553796 -3.53552938 5
v 3.11805558 -3.11806059 2.64300752
v 1.76776183 -4.26776505 3.08656859
v -4.17232513e-06 -4.78466702 3.54857445
v -1.87664688 -4.53061247 4.02455235
v -3.51859069 -3.51858139 4.50990582
v -4.15735197 -2.77784562 5
v 2.44984007 -3.66645098 2.64300752
v 0.901195049 -4.53063488 3.08656859
v -0.933447003 -4.69272995 3.54857445
v -2.7244668 -4.07744265 4.02455235
v -4.13742256 -2.76452947 4.50990582
v -4.61940002 -1.91341043 5
v 1.68747783 -4.07394171 2.64300752
v -4.47034836e-06 -4.6193943 3.08656859
v -1.83101726 -4.42045355 3.54857445
v -3.46758652 -3.4675777 4.02455235
v -4.59725618 -1.90423822 4.50990582
v -4.90392685 -0.975444376 4.99999952
v 0.860266328 -4.32487249 2.64300776
v -0.901202977 -4.5306325 3.08656859
v -2.65822387 -3.97830272 3.54857445
v -4.07744932 -2.72445703 4.02455235
v -4.88041973 -0.970768332 4.50990582
v -4.99999905 8.04662704e-06 4.99999952
v -4.24683094e-06 -4.40960026 2.64300752
v -1.76777017 -4.26776171 3.08656859
v -3.38327408 -3.38326526 3.54857445
v -4.53061771 -1.87663543 4.02455235
v -4.97603178 8.1025064e-06 4.50990582
v -4.90392494 0.975459754 4.99999952
v -0.860274494 -4.32487059 2.64300752
v -2.56640244 -3.84088278 3.08656859
v -3.97830868 -2.65821338 3.54857445
v -4.80967617 -0.956696212 4.02455235
v -4.88041639 0.97078383 4.50990582
v -4.61939383 1.91342556 4.99999905
v -1.68748534 -4.07393789 2.64300752
v -3.26640892 -3.26640058 3.08656812
v -4.42045879 -1.83100641 3.54857445
v -4.90390205 8.30739737e-06 4.02455187
v -4.59725046 1.90425336 4.50990582
v -4.15734243 2.77785873 4.99999905
v -2.44984674 -3.66644621 2.64300752
v -3.84088922 -2.56639242 3.08656812
v -4.69273233 -0.933434963 3.54857421
v -4.80967331 0.956712008 4.02455187
v -4.13741398 2.76454282 4.50990534
v -3.53552675 3.53554106 4.99999905
v -3.11806226 -3.11805463 2.64300752
v -4.26776552 -1.7677592 3.08656812
v -4.78466654 7.74860382e-06 3.54857421
v -4.53061104 1.87665009 4.02455187
v -3.51857877 3.51859236 4.50990534
v -2.77784276 4.1573534 4.99999905
v -3.66645193 -2.44983792 2.64300752
v -4.53063488 -0.901191831 3.08656812
v -4.692729 0.933450282 3.54857445
v -4.07744026 2.7244699 4.02455187
v -2.76452732 4.13742542 4.50990534
v -1.91340709 4.61940193 4.99999905
v -4.07394218 -1.68747473 2.64300704
v -4.61939335 7.30156898e-06 3.08656812
v -4.42045212 1.83102059 3.54857421
v -3.46757555 3.46758938 4.02455187
v -1.90423524 4.59725809 4.50990534
v -0.975441098 4.90392923 4.99999905
v -4.32487249 -0.860263586 2.64300752
v -4.53063202 0.901206791 3.08656788
v -3.97830105 2.65822649 3.54857421
v -2.72445369 4.07745123 4.02455187
v -0.970765054 4.88042116 4.50990534
v 5.5134301e-06 5 4.99999905
v 5.51579387e-06 4.97603178 4.50990534
v -1.87663221 4.53061914 4.02455187
v -0.956693709 4.80967712 4.02455187
v 5.54602593e-06 4.90390205 4.02455139
v -3.38326406 3.38327718 3.54857373
v -4.26776028 1.76777339 3.08656788
v -2.65821075 3.97831082 3.54857373
v -1.83100355 4.42045927 3.54857373
v -0.933431685 4.69273329 3.54857373
v 5.02564944e-06 4.78466702 3.54857373
v -3.84088135 2.56640577 3.08656788
v -3.26639819 3.26641107 3.08656788
v -2.56639028 3.84089112 3.08656788
v -1.76775658 4.26776743 3.08656788
v -0.90118897 4.53063536 3.08656788
v 5.02215698e-06 4.6193943 3.08656788
v -0.860260844 4.32487392 2.6430068
v 4.87547368e-06 4.40960073 2.6430068
v -1.68747199 4.07394314 2.6430068
v -2.44983459 3.66645336 2.64300704
v -3.11805272 3.11806417 2.64300704
v -3.6664443 2.44984984 2.64300704
v -0.8110466 4.07745314 2.22214961
v 5.03845513e-06 4.15733337 2.22214937
v -1.59093392 3.84087801 2.22214985
v -2.30968285 3.45670104 2.22214961
v -2.93967247 2.93968368 2.22214961
v -0.754025102 3.79078507 1.82803035
v 4.60073352e-06 3.86504865 1.82803094
v -1.47908211 3.57084274 1.82803035
v -2.14729905 3.21367478 1.82803071
v -0.689739287 3.46759295 1.46447289
v 3.83704901e-06 3.5355258 1.46447325
v -1.35298014 3.26640272 1.46447325
v -0.618813217 3.11102128 1.13494933
v 3.6880374e-06 3.17196822 1.13494956
v -3.45669127 2.30969667 2.22214985
v -2.73299718 2.73300767 1.82803071
v -1.9642266 2.9396863 1.46447265
v -1.2138536 2.93051934 1.13494897
v -0.541925013 2.72447467 0.842664838
v 3.09199095e-06 2.77784872 0.842665076
v -3.21366596 2.14731216 1.82803094
v -2.49998856 2.49999881 1.46447325
v -1.76224542 2.6373992 1.13494933
v -1.06303108 2.56639981 0.842664838
v -0.459821343 2.31170416 0.590397716
v 2.90572643e-06 2.35699224 0.590397716
v -2.93967867 1.96423852 1.46447289
v -2.24291563 2.24292469 1.13494956
v -1.54328477 2.30970049 0.842664838
v -0.901977241 2.17757869 0.590398014
v -0.373287588 1.87666571 0.380604535
v 2.16066837e-06 1.91343117 0.380604237
v -2.63739181 1.76225626 1.13494956
v -1.96423137 1.96423972 0.842664838
v -1.30947018 1.95977044 0.590397418
v -0.73223424 1.76778138 0.380604863
v -0.283155888 1.42353654 0.215331912
v 1.78813934e-06 1.45142436 0.215332508
v -2.30969334 1.54329479 0.842664838
v -1.66664124 1.66664839 0.590397716
v -1.06304157 1.59096158 0.380604237
v -0.555433333 1.34094262 0.215331912
v -0.190298244 0.956704855 0.0960966945
v 1.49011612e-06 0.975447357 0.0960963964
v -1.95976436 1.3094784 0.590397716
v -1.35299695 1.35300243 0.380604535
v -0.806365669 1.20681703 0.215331912
v -0.373285919 0.901196599 0.0960963964
v -0.0956114382 0.480677009 0.0239670277
v 5.21540642e-07 0.490093827 0.0239673257
v 2.23517418e-07 7.4505806e-08 -0
v -0.187549964 0.452787995 0.0239670277
v 2.23517418e-07 7.4505806e-08 -0
v -0.541927576 0.811055899 0.0960966945
v -0.272280037 0.407498926 0.0239670277
v 2.23517418e-07 7.4505806e-08 -0
v -1.02630985 1.02631438 0.215332508
v -0.346547425 0.346549451 0.0239670277
v 2.23517418e-07 7.4505806e-08 -0
v -0.689744115 0.689746678 0.0960966945
v -0.407497585 0.272282362 0.0239670277
v 2.23517418e-07 7.4505806e-08 -0
v -0.811052918 0.541931212 0.0960966945
v -1.20681357 0.806370974 0.215331912
v -0.452786803 0.187551811 0.0239664316
v 2.23517418e-07 7.4505806e-08 -0
v -0.90119499 0.373289436 0.0960963964
v -1.59095728 1.06304884 0.380604237
v -1.34093976 0.555438817 0.215331912
v -0.480676562 0.0956134498 0.0239670277
v 2.23517418e-07 7.4505806e-08 -0
v -1.76777816 0.73224175 0.380604535
v -0.956703544 0.190302119 0.0960963964
v -2.17757463 0.901985765 0.590397716
v -1.42353463 0.283161372 0.215332508
v -0.49009338 1.1920929e-06 0.0239670277
v 2.23517418e-07 7.4505806e-08 -0
v -0.975446999 1.93715096e-06 0.0960969925
v -1.8766638 0.373295397 0.380604237
v -2.56639552 1.06304157 0.842664838
v -0.480676562 -0.0956112072 0.0239670277
v 2.23517418e-07 7.4505806e-08 -0
v -1.45142376 2.5331974e-06 0.215332195
v -2.31170201 0.459830612 0.590397716
v -2.9305141 1.21386528 1.13494992
v -0.95670414 -0.190298557 0.0960963964
v -1.91342998 3.42726707e-06 0.380604237
v -2.72447133 0.54193598 0.842665374
v -3.26639724 1.35299313 1.46447289
v -0.452787578 -0.187549815 0.0239670277
v 2.23517418e-07 7.4505806e-08 -0
v -1.42353523 -0.283156484 0.215332195
v -2.35699105 4.17232513e-06 0.590397716
v -3.11101866 0.618825972 1.13494992
v -3.57083702 1.47909629 1.82803094
v -0.901196241 -0.37328586 0.0960969925
v -1.87666464 -0.373288363 0.380604237
v -2.77784872 4.61935997e-06 0.842665374
v -3.46759033 0.689753115 1.46447325
v -3.84087157 1.59094918 2.22214985
v -0.407498151 -0.272280723 0.0239670277
v 2.23517418e-07 7.4505806e-08 -0
v -2.31170297 -0.459822565 0.590398014
v -3.17196751 5.21540642e-06 1.13494992
v -3.79078174 0.75404036 1.82803071
v -4.07393646 1.68748868 2.64300704
v -4.07744884 0.811062396 2.22214985
v -4.32486916 0.86027801 2.64300704
v -3.53552485 5.96046448e-06 1.46447349
v -2.72447443 -0.541927338 0.842665374
v -3.86504793 6.2584877e-06 1.82803094
v -4.15733242 7.15255737e-06 2.22214985
v -4.40960073 7.15255737e-06 2.64300704
v -3.1110208 -0.618815422 1.13494992
v -3.467592 -0.689741254 1.46447325
v -3.79078364 -0.754027367 1.82803094
v -4.07745123 -0.811048746 2.22214985
v -3.84087658 -1.59093606 2.22214985
v -3.57084179 -1.47908449 1.82803094
v -3.26640201 -1.3529824 1.46447289
v -2.93051839 -1.21385491 1.13494992
v -2.5663991 -1.06303275 0.842665076
v -3.45669889 -2.30968523 2.22214985
v -3.21367335 -2.14730144 1.82803094
v -2.93968511 -1.96422875 1.46447289
v -2.63739777 -1.76224697 1.13494956
v -2.93968129 -2.93967366 2.22215056
v -2.73300624 -2.73299789 1.82803094
v -2.49999666 -2.49999046 1.46447289
v -2.30969405 -3.4566927 2.22215056
v -2.14730978 -3.21366787 1.82803154
v -1.59094644 -3.84087253 2.22215033
v -2.30969787 -1.54328644 0.842665374
v -2.24292302 -2.24291706 1.13494956
v -1.9642359 -2.93967938 1.46447349
v -1.47909343 -3.57083726 1.8280313
v -0.811059713 -4.0774498 2.22214985
v -1.96423793 -1.96423292 0.842665374
v -1.76225412 -2.63739276 1.13494992
v -1.35299039 -3.26639771 1.46447349
v -0.754037142 -3.79078197 1.8280313
v -4.02331352e-06 -4.15733194 2.22215033
v -1.543293 -2.30969405 0.842665374
v -1.21386242 -2.93051481 1.13494992
v -0.689750373 -3.46759033 1.46447349
v -3.87430191e-06 -3.86504865 1.8280313
v 0.811051607 -4.07745075 2.22215056
v -1.06303966 -2.56639576 0.842665374
v -0.618823051 -3.11101913 1.13494992
v -2.98023224e-06 -3.53552508 1.46447349
v 0.754030049 -3.79078293 1.8280313
v 1.59093857 -3.84087539 2.22215056
v -0.541934192 -2.72447228 0.842665374
v -3.27825546e-06 -3.17196774 1.13495028
v 0.689743578 -3.46759176 1.46447349
v 1.47908723 -3.57084012 1.82803154
v 2.30968738 -3.45669723 2.22215033
v -2.83122063e-06 -2.77784824 0.842665374
v 0.61881721 -3.11101961 1.13495028
v 1.35298455 -3.2664001 1.46447349
v 2.14730334 -3.21367145 1.8280313
v 2.93967581 -2.93967938 2.22215033
v 0.541929185 -2.72447348 0.842665374
v 1.21385717 -2.9305172 1.13494992
v 1.96423042 -2.9396832 1.46447349
v 2.73300052 -2.73300409 1.82803094
v 3.45669436 -2.30969214 2.22214985
v 1.06303394 -2.56639814 0.842665374
v 1.76224923 -2.63739586 1.13495028
v 2.49999285 -2.49999571 1.46447289
v 3.21366906 -2.14730787 1.82803094
v 3.84087276 -1.59094393 2.22214985
v 1.54328823 -2.30969787 0.842665374
v 2.24291825 -2.24292183 1.13494956
v 2.93968034 -1.96423411 1.46447289
v 3.57083845 -1.47909164 1.82803094
v 4.07744932 -0.811057031 2.22214961
v 1.96423411 -1.96423662 0.842665374
v 2.63739347 -1.76225233 1.13494992
v 3.26639891 -1.35298836 1.46447325
v 3.79078245 -0.754035175 1.82803094
v 4.15733194 -1.13621354e-06 2.22214985
v 2.30969548 -1.54329109 0.842665374
v 2.93051529 -1.21386111 1.13494956
v 3.46759081 -0.68974781 1.46447349
v 3.86504841 -1.17346644e-06 1.82803094
v 4.07745028 0.811054468 2.22214985
v 2.56639647 -1.06303751 0.842664838
v 3.1110189 -0.618821263 1.13494992
v 3.53552532 -1.06170774e-06 1.46447325
v 3.79078245 0.754032731 1.82803094
v 3.8408742 1.59094191 2.22215033
v 2.72447228 -0.541931808 0.842665374
v 3.17196798 -5.58793545e-07 1.13494992
v 3.46759152 0.689745903 1.46447289
v 3.57083988 1.47909009 1.82803094
v 3.45669556 2.30969 2.22214985
v 2.77784777 -5.21540642e-07 0.842665374
v 3.11101913 0.618820012 1.13494956
v 3.2664001 1.35298669 1.46447289
v 3.21367049 2.14730644 1.82803094
v 2.93967819 2.93967795 2.22214961
v 2.73300171 2.73300219 1.82803071
v 2.14730549 3.21367097 1.82803071
v 2.93968201 1.96423292 1.46447265
v 2.93051648 1.21385932 1.13494992
v 2.49999332 2.49999428 1.46447325
v 1.35298753 3.26640034 1.46447289
v 1.96423244 2.93968248 1.46447265
v 1.2138598 2.93051696 1.13494933
v 2.63739491 1.76225126 1.13494956
v 1.76225078 2.63739586 1.13494956
v 1.06303656 2.56639767 0.842664838
v 2.24292088 2.2429204 1.13494956
v 0.901981592 2.17757726 0.590397716
v 1.54328942 2.30969715 0.842665076
v 1.96423566 1.96423614 0.842665076
v 2.30969667 1.5432899 0.842665076
v 0.732238054 1.76777947 0.380604863
v 1.30947459 1.95976782 0.590397716
v 0.555436075 1.34094191 0.215331912
v 1.66664529 1.66664505 0.59039712
v 1.06304514 1.59096014 0.380604237
v 2.56639743 1.06303632 0.842665374
v 0.37328735 0.901195884 0.0960969925
v 0.806367636 1.20681536 0.215331912
v 1.35299957 1.35300016 0.380603969
v 1.95976746 1.30947471 0.590397418
v 2.724473 0.541931152 0.842665374
v 0.187550485 0.452787817 0.0239664316
v 2.23517418e-07 7.4505806e-08 -0
v 0.541929245 0.811054647 0.0960966945
v 1.02631152 1.02631223 0.215332508
v 1.59095991 1.06304538 0.380604237
v 2.17757726 0.901981592 0.590397418
v 2.31170321 0.459825873 0.590397418
v 0.272281229 0.407498002 0.0239670277
v 2.23517418e-07 7.4505806e-08 -0
v 0.68974483 0.689745724 0.0960963964
v 1.20681536 0.806368291 0.215331912
v 1.76777923 0.732238293 0.380604535
v 2.35699201 -4.84287739e-07 0.590397716
v 0.3465482 0.346548527 0.0239670277
v 2.23517418e-07 7.4505806e-08 -0
v 0.811054289 0.541929603 0.0960966945
v 1.34094119 0.555436015 0.215331912
v 1.87666464 0.37329188 0.380604237
v 2.31170297 -0.459827304 0.590397716
v 0.407497823 0.272281766 0.0239670277
v 2.23517418e-07 7.4505806e-08 -0
v 0.901195765 0.37328735 0.0960966945
v 1.42353559 0.283158779 0.215332195
v 1.91343033 -4.47034836e-07 0.380604237
v 2.17757583 -0.901982963 0.590397716
v 0.452787131 0.187550843 0.0239670277
v 2.23517418e-07 7.4505806e-08 -0
v 0.956703842 0.19030042 0.0960966945
v 1.45142412 0 0.215331912
v 1.876665 -0.373292506 0.380604237
v 1.95976639 -1.30947542 0.590397418
v 0.480676651 0.0956128463 0.0239670277
v 2.23517418e-07 7.4505806e-08 -0
v 0.975446403 0 0.0960966945
v 1.42353523 -0.283158839 0.215332195
v 1.7677784 -0.73223877 0.380604535
v 1.66664422 -1.66664588 0.590397716
v 0.490093529 0 0.0239667296
v 2.23517418e-07 7.4505806e-08 -0
v 0.956703782 -0.190300345 0.0960963964
v 1.34094119 -0.55543679 0.215331912
v 1.59095883 -1.06304586 0.380604237
v 1.30947351 -1.95976782 0.590397716
v 0.480676562 -0.0956124067 0.0239670277
v 2.23517418e-07 7.4505806e-08 -0
v 0.901195347 -0.373287886 0.0960966945
v 1.20681453 -0.80636853 0.215332195
v 1.35299957 -1.3530004 0.380604237
v 0.901979327 -2.17757702 0.590398312
v 0.452787131 -0.187550843 0.0239670277
v 2.23517418e-07 7.4505806e-08 -0
v 0.811053813 -0.541929543 0.0960969925
v 1.02631104 -1.02631211 0.215332195
v 1.06304359 -1.59096003 0.380604237
v 0.459823757 -2.31170273 0.590398312
v 0.407497346 -0.272281229 0.0239670277
v 2.23517418e-07 7.4505806e-08 -0
v 0.689744473 -0.689745486 0.0960966945
v 0.80636692 -1.20681524 0.215331912
v 0.732236624 -1.76777947 0.380604863
v -2.23517418e-06 -2.35699177 0.590397716
v 0.34654811 -0.346548498 0.0239670277
v 2.23517418e-07 7.4505806e-08 -0
v 0.54192853 -0.811054647 0.0960969925
v 0.555434823 -1.34094119 0.215331912
v 0.373290181 -1.87666464 0.380604535
v -0.459828675 -2.31170249 0.590398014
v 0.272281468 -0.407497853 0.0239670277
v 2.23517418e-07 7.4505806e-08 -0
v 0.373286307 -0.901195407 0.0960966945
v 0.283157378 -1.42353523 0.215332195
v -1.93715096e-06 -1.91343057 0.380604237
v -0.901984334 -2.17757535 0.590397716
v 0.18754974 -0.452787191 0.0239670277
v 2.23517418e-07 7.4505806e-08 -0
v 0.190299138 -0.956704021 0.0960969925
v -1.49011612e-06 -1.45142424 0.215332195
v -0.373293132 -1.87666404 0.380604535
v -1.30947673 -1.95976484 0.590398014
v 0.0956119597 -0.480676144 0.0239670277
v 2.23517418e-07 7.4505806e-08 -0
v -1.04308128e-06 -0.975446761 0.0960966945
v -0.283160657 -1.42353547 0.215331912
v -0.732240379 -1.7677784 0.380604237
v -1.66664648 -1.66664243 0.590397716
v -4.47034836e-07 -0.490093231 0.0239670277
v 2.23517418e-07 7.4505806e-08 -0
v -0.190301239 -0.956703365 0.0960966945
v -0.555437803 -1.34093988 0.215331912
v -1.06304634 -1.59095764 0.380604863
v -1.95976853 -1.30947161 0.590397716
v -0.0956134498 -0.480676293 0.0239670277
v 2.23517418e-07 7.4505806e-08 -0
v -0.3732889 -0.901194811 0.0960969925
v -0.806369543 -1.20681405 0.215331912
v -1.35300112 -1.35299802 0.380604535
v -2.17757726 -0.901977956 0.590398014
v -0.187551081 -0.452786654 0.0239667296
v 2.23517418e-07 7.4505806e-08 -0
v -0.541930616 -0.811053693 0.0960966945
v -1.02631283 -1.02631032 0.215331912
v -1.59096086 -1.063043 0.380604237
v -1.7677803 -0.732235253 0.380604237
v -0.272281915 -0.407497287 0.0239670277
v 2.23517418e-07 7.4505806e-08 -0
v -0.689745605 -0.689743876 0.0960966945
v -1.20681596 -0.806366205 0.215331912
v -1.34094191 -0.555433631 0.215331912
v -0.811054826 -0.541927755 0.0960963964
v -0.346548676 -0.346547872 0.0239670277
v 2.23517418e-07 7.4505806e-08 -0
v 2.23517418e-07 7.4505806e-08 -0
vt 0.5 0
vt 0.03125 0.0625
vt 0 0.0625
vt 0.03125 0.125
vt 0 0.125
vt 0.03125 0.1875
vt 0 0.1875
vt 0.03125 0.25
vt 0 0.25
vt 0.03125 0.3125
vt 0 0.3125
vt 0.03125 0.375
vt 0 0.375
vt 0.03125 0.4375
vt 0 0.4375
vt 0.03125 0.5
vt 0 0.5
vt 0.03125 0.5625
vt 0 0.5625
vt 0.03125 0.625
vt 0 0.625
vt 0.03125 0.6875
vt 0 0.6875
vt 0.03125 0.75
vt 0 0.75
vt 0.03125 0.8125
vt 0 0.8125
vt 0.03125 0.875
vt 0 0.875
vt 0.03125 0.9375
vt 0 0.9375
vt 0.03125 1
vt 0 1
vt 0.0625 1
vt 0.0625 0.9375
vt 0.09375 1
vt 0.0625 0.875
vt 0.09375 0.9375
vt 0.125 1
vt 0.0625 0.8125
vt 0.09375 0.875
vt 0.125 0.9375
vt 0.15625 1
vt 0.0625 0.75
vt 0.09375 0.8125
vt 0.125 0.875
vt 0.15625 0.9375
vt 0.1875 1
vt 0.0625 0.6875
vt 0.09375 0.75
vt 0.125 0.8125
vt 0.15625 0.875
vt 0.1875 0.9375
vt 0.21875 1
vt 0.0625 0.625
vt 0.09375 0.6875
vt 0.125 0.75
vt 0.15625 0.8125
vt 0.1875 0.875
vt 0.21875 0.9375
vt 0.25 1
vt 0.0625 0.5625
vt 0.09375 0.625
vt 0.125 0.6875
vt 0.15625 0.75
vt 0.1875 0.8125
vt 0.21875 0.875
vt 0.25 0.9375
vt 0.28125 1
vt 0.28125 0.9375
vt 0.3125 1
vt 0.25 0.875
vt 0.21875 0.8125
vt 0.1875 0.75
vt 0.15625 0.6875
vt 0.3125 0.9375
vt 0.34375 1
vt 0.28125 0.875
vt 0.25 0.8125
vt 0.21875 0.75
vt 0.34375 0.9375
vt 0.375 1
vt 0.3125 0.875
vt 0.28125 0.8125
vt 0.375 0.9375
vt 0.40625 1
vt 0.34375 0.875
vt 0.40625 0.9375
vt 0.4375 1
vt 0.1875 0.6875
vt 0.25 0.75
vt 0.3125 0.8125
vt 0.375 0.875
vt 0.4375 0.9375
vt 0.46875 1
vt 0.21875 0.6875
vt 0.28125 0.75
vt 0.34375 0.8125
vt 0.40625 0.875
vt 0.46875 0.9375
vt 0.5 1
vt 0.25 0.6875
vt 0.3125 0.75
vt 0.375 0.8125
vt 0.4375 0.875
vt 0.5 0.9375
vt 0.53125 1
vt 0.28125 0.6875
vt 0.34375 0.75
vt 0.40625 0.8125
vt 0.46875 0.875
vt 0.53125 0.9375
vt 0.5625 1
vt 0.3125 0.6875
vt 0.375 0.75
vt 0.4375 0.8125
vt 0.5 0.875
vt 0.5625 0.9375
vt 0.59375 1
vt 0.34375 0.6875
vt 0.40625 0.75
vt 0.46875 0.8125
vt 0.53125 0.875
vt 0.59375 0.9375
vt 0.625 1
vt 0.375 0.6875
vt 0.4375 0.75
vt 0.5 0.8125
vt 0.5625 0.875
vt 0.625 0.9375
vt 0.65625 1
vt 0.40625 0.6875
vt 0.46875 0.75
vt 0.53125 0.8125
vt 0.59375 0.875
vt 0.65625 0.9375
vt 0.6875 1
vt 0.4375 0.6875
vt 0.5 0.75
vt 0.5625 0.8125
vt 0.625 0.875
vt 0.6875 0.9375
vt 0.71875 1
vt 0.46875 0.6875
vt 0.53125 0.75
vt 0.59375 0.8125
vt 0.65625 0.875
vt 0.71875 0.9375
vt 0.75 1
vt 0.5 0.6875
vt 0.5625 0.75
vt 0.625 0.8125
vt 0.6875 0.875
vt 0.75 0.9375
vt 0.78125 1
vt 0.53125 0.6875
vt 0.59375 0.75
vt 0.65625 0.8125
vt 0.71875 0.875
vt 0.78125 0.9375
vt 0.8125 1
vt 0.5625 0.6875
vt 0.625 0.75
vt 0.6875 0.8125
vt 0.75 0.875
vt 0.8125 0.9375
vt 0.84375 1
vt 0.59375 0.6875
vt 0.65625 0.75
vt 0.71875 0.8125
vt 0.78125 0.875
vt 0.84375 0.9375
vt 0.875 1
vt 0.625 0.6875
vt 0.6875 0.75
vt 0.75 0.8125
vt 0.8125 0.875
vt 0.875 0.9375
vt 0.90625 1
vt 0.65625 0.6875
vt 0.71875 0.75
vt 0.78125 0.8125
vt 0.84375 0.875
vt 0.90625 0.9375
vt 0.9375 1
vt 0.6875 0.6875
vt 0.75 0.75
vt 0.8125 0.8125
vt 0.875 0.875
vt 0.9375 0.9375
vt 0.96875 1
vt 0.71875 0.6875
vt 0.78125 0.75
vt 0.84375 0.8125
vt 0.90625 0.875
vt 0.96875 0.9375
vt 1 1
vt 1 0.9375
vt 0.9375 0.875
vt 0.96875 0.875
vt 1 0.875
vt 0.875 0.8125
vt 0.8125 0.75
vt 0.90625 0.8125
vt 0.9375 0.8125
vt 0.96875 0.8125
vt 1 0.8125
vt 0.84375 0.75
vt 0.875 0.75
vt 0.90625 0.75
vt 0.9375 0.75
vt 0.96875 0.75
vt 1 0.75
vt 0.96875 0.6875
vt 1 0.6875
vt 0.9375 0.6875
vt 0.90625 0.6875
vt 0.875 0.6875
vt 0.84375 0.6875
vt 0.96875 0.625
vt 1 0.625
vt 0.9375 0.625
vt 0.90625 0.625
vt 0.875 0.625
vt 0.96875 0.5625
vt 1 0.5625
vt 0.9375 0.5625
vt 0.90625 0.5625
vt 0.96875 0.5
vt 1 0.5
vt 0.9375 0.5
vt 0.96875 0.4375
vt 1 0.4375
vt 0.84375 0.625
vt 0.875 0.5625
vt 0.90625 0.5
vt 0.9375 0.4375
vt 0.96875 0.375
vt 1 0.375
vt 0.84375 0.5625
vt 0.875 0.5
vt 0.90625 0.4375
vt 0.9375 0.375
vt 0.96875 0.3125
vt 1 0.3125
vt 0.84375 0.5
vt 0.875 0.4375
vt 0.90625 0.375
vt 0.9375 0.3125
vt 0.96875 0.25
vt 1 0.25
vt 0.84375 0.4375
vt 0.875 0.375
vt 0.90625 0.3125
vt 0.9375 0.25
vt 0.96875 0.1875
vt 1 0.1875
vt 0.84375 0.375
vt 0.875 0.3125
vt 0.90625 0.25
vt 0.9375 0.1875
vt 0.96875 0.125
vt 1 0.125
vt 0.84375 0.3125
vt 0.875 0.25
vt 0.90625 0.1875
vt 0.9375 0.125
vt 0.96875 0.0625
vt 1 0.0625
vt 0.5 0
vt 0.9375 0.0625
vt 0.5 0
vt 0.90625 0.125
vt 0.90625 0.0625
vt 0.5 0
vt 0.875 0.1875
vt 0.875 0.0625
vt 0.5 0
vt 0.875 0.125
vt 0.84375 0.0625
vt 0.5 0
vt 0.84375 0.125
vt 0.84375 0.1875
vt 0.8125 0.0625
vt 0.5 0
vt 0.8125 0.125
vt 0.84375 0.25
vt 0.8125 0.1875
vt 0.78125 0.0625
vt 0.5 0
vt 0.8125 0.25
vt 0.78125 0.125
vt 0.8125 0.3125
vt 0.78125 0.1875
vt 0.75 0.0625
vt 0.5 0
vt 0.75 0.125
vt 0.78125 0.25
vt 0.8125 0.375
vt 0.71875 0.0625
vt 0.5 0
vt 0.75 0.1875
vt 0.78125 0.3125
vt 0.8125 0.4375
vt 0.71875 0.125
vt 0.75 0.25
vt 0.78125 0.375
vt 0.8125 0.5
vt 0.6875 0.0625
vt 0.5 0
vt 0.71875 0.1875
vt 0.75 0.3125
vt 0.78125 0.4375
vt 0.8125 0.5625
vt 0.6875 0.125
vt 0.71875 0.25
vt 0.75 0.375
vt 0.78125 0.5
vt 0.8125 0.625
vt 0.65625 0.0625
vt 0.5 0
vt 0.71875 0.3125
vt 0.75 0.4375
vt 0.78125 0.5625
vt 0.8125 0.6875
vt 0.78125 0.625
vt 0.78125 0.6875
vt 0.75 0.5
vt 0.71875 0.375
vt 0.75 0.5625
vt 0.75 0.625
vt 0.75 0.6875
vt 0.71875 0.4375
vt 0.71875 0.5
vt 0.71875 0.5625
vt 0.71875 0.625
vt 0.6875 0.625
vt 0.6875 0.5625
vt 0.6875 0.5
vt 0.6875 0.4375
vt 0.6875 0.375
vt 0.65625 0.625
vt 0.65625 0.5625
vt 0.65625 0.5
vt 0.65625 0.4375
vt 0.625 0.625
vt 0.625 0.5625
vt 0.625 0.5
vt 0.59375 0.625
vt 0.59375 0.5625
vt 0.5625 0.625
vt 0.65625 0.375
vt 0.625 0.4375
vt 0.59375 0.5
vt 0.5625 0.5625
vt 0.53125 0.625
vt 0.625 0.375
vt 0.59375 0.4375
vt 0.5625 0.5
vt 0.53125 0.5625
vt 0.5 0.625
vt 0.59375 0.375
vt 0.5625 0.4375
vt 0.53125 0.5
vt 0.5 0.5625
vt 0.46875 0.625
vt 0.5625 0.375
vt 0.53125 0.4375
vt 0.5 0.5
vt 0.46875 0.5625
vt 0.4375 0.625
vt 0.53125 0.375
vt 0.5 0.4375
vt 0.46875 0.5
vt 0.4375 0.5625
vt 0.40625 0.625
vt 0.5 0.375
vt 0.46875 0.4375
vt 0.4375 0.5
vt 0.40625 0.5625
vt 0.375 0.625
vt 0.46875 0.375
vt 0.4375 0.4375
vt 0.40625 0.5
vt 0.375 0.5625
vt 0.34375 0.625
vt 0.4375 0.375
vt 0.40625 0.4375
vt 0.375 0.5
vt 0.34375 0.5625
vt 0.3125 0.625
vt 0.40625 0.375
vt 0.375 0.4375
vt 0.34375 0.5
vt 0.3125 0.5625
vt 0.28125 0.625
vt 0.375 0.375
vt 0.34375 0.4375
vt 0.3125 0.5
vt 0.28125 0.5625
vt 0.25 0.625
vt 0.34375 0.375
vt 0.3125 0.4375
vt 0.28125 0.5
vt 0.25 0.5625
vt 0.21875 0.625
vt 0.3125 0.375
vt 0.28125 0.4375
vt 0.25 0.5
vt 0.21875 0.5625
vt 0.1875 0.625
vt 0.28125 0.375
vt 0.25 0.4375
vt 0.21875 0.5
vt 0.1875 0.5625
vt 0.15625 0.625
vt 0.25 0.375
vt 0.21875 0.4375
vt 0.1875 0.5
vt 0.15625 0.5625
vt 0.125 0.625
vt 0.125 0.5625
vt 0.09375 0.5625
vt 0.15625 0.5
vt 0.1875 0.4375
vt 0.125 0.5
vt 0.0625 0.5
vt 0.09375 0.5
vt 0.0625 0.4375
vt 0.15625 0.4375
vt 0.09375 0.4375
vt 0.0625 0.375
vt 0.125 0.4375
vt 0.0625 0.3125
vt 0.09375 0.375
vt 0.125 0.375
vt 0.15625 0.375
vt 0.0625 0.25
vt 0.09375 0.3125
vt 0.0625 0.1875
vt 0.125 0.3125
vt 0.09375 0.25
vt 0.1875 0.375
vt 0.0625 0.125
vt 0.09375 0.1875
vt 0.125 0.25
vt 0.15625 0.3125
vt 0.21875 0.375
vt 0.0625 0.0625
vt 0.5 0
vt 0.09375 0.125
vt 0.125 0.1875
vt 0.15625 0.25
vt 0.1875 0.3125
vt 0.21875 0.3125
vt 0.09375 0.0625
vt 0.5 0
vt 0.125 0.125
vt 0.15625 0.1875
vt 0.1875 0.25
vt 0.25 0.3125
vt 0.125 0.0625
vt 0.5 0
vt 0.15625 0.125
vt 0.1875 0.1875
vt 0.21875 0.25
vt 0.28125 0.3125
vt 0.15625 0.0625
vt 0.5 0
vt 0.1875 0.125
vt 0.21875 0.1875
vt 0.25 0.25
vt 0.3125 0.3125
vt 0.1875 0.0625
vt 0.5 0
vt 0.21875 0.125
vt 0.25 0.1875
vt 0.28125 0.25
vt 0.34375 0.3125
vt 0.21875 0.0625
vt 0.5 0
vt 0.25 0.125
vt 0.28125 0.1875
vt 0.3125 0.25
vt 0.375 0.3125
vt 0.25 0.0625
vt 0.5 0
vt 0.28125 0.125
vt 0.3125 0.1875
vt 0.34375 0.25
vt 0.40625 0.3125
vt 0.28125 0.0625
vt 0.5 0
vt 0.3125 0.125
vt 0.34375 0.1875
vt 0.375 0.25
vt 0.4375 0.3125
vt 0.3125 0.0625
vt 0.5 0
vt 0.34375 0.125
vt 0.375 0.1875
vt 0.40625 0.25
vt 0.46875 0.3125
vt 0.34375 0.0625
vt 0.5 0
vt 0.375 0.125
vt 0.40625 0.1875
vt 0.4375 0.25
vt 0.5 0.3125
vt 0.375 0.0625
vt 0.5 0
vt 0.40625 0.125
vt 0.4375 0.1875
vt 0.46875 0.25
vt 0.53125 0.3125
vt 0.40625 0.0625
vt 0.5 0
vt 0.4375 0.125
vt 0.46875 0.1875
vt 0.5 0.25
vt 0.5625 0.3125
vt 0.4375 0.0625
vt 0.5 0
vt 0.46875 0.125
vt 0.5 0.1875
vt 0.53125 0.25
vt 0.59375 0.3125
vt 0.46875 0.0625
vt 0.5 0
vt 0.5 0.125
vt 0.53125 0.1875
vt 0.5625 0.25
vt 0.625 0.3125
vt 0.5 0.0625
vt 0.5 0
vt 0.53125 0.125
vt 0.5625 0.1875
vt 0.59375 0.25
vt 0.65625 0.3125
vt 0.53125 0.0625
vt 0.5 0
vt 0.5625 0.125
vt 0.59375 0.1875
vt 0.625 0.25
vt 0.6875 0.3125
vt 0.5625 0.0625
vt 0.5 0
vt 0.59375 0.125
vt 0.625 0.1875
vt 0.65625 0.25
vt 0.6875 0.25
vt 0.59375 0.0625
vt 0.5 0
vt 0.625 0.125
vt 0.65625 0.1875
vt 0.6875 0.1875
vt 0.65625 0.125
vt 0.625 0.0625
vt 0.5 0
vt 0.5 0
vn 0 0 -1
vn 0.0243322775 0.12233346 -0.992190778
vn 5.67493373e-07 0.124729127 -0.992190778
vn 0.0409299545 0.205769628 -0.977744162
vn 6.23191795e-07 0.209801123 -0.977744043
vn 0.0586359687 0.294782251 -0.953763664
vn 4.22538761e-07 0.300557345 -0.953763783
vn 0.0762018934 0.383090436 -0.920562267
vn 4.93529967e-07 0.390595526 -0.920562387
vn 0.0932024941 0.468558908 -0.878502071
vn 6.77022001e-07 0.477738738 -0.878501952
vn 0.109380409 0.54989177 -0.828042924
vn 6.78666652e-07 0.560664952 -0.828042746
vn 0.1245616 0.626213431 -0.769637048
vn 6.91275659e-07 0.638481855 -0.769636869
vn 0.138579071 0.696684241 -0.703865707
vn 6.9279082e-07 0.710333288 -0.703865469
vn 0.151291892 0.76059407 -0.631353617
vn 8.79470974e-07 0.775494933 -0.631353736
vn 0.162570357 0.817293465 -0.552813053
vn 1.16774265e-06 0.833304882 -0.55281359
vn 0.172304228 0.866228878 -0.468997538
vn 1.26581938e-06 0.883199334 -0.468997657
vn 0.180404648 0.906952798 -0.380645275
vn 1.16242552e-06 0.924721241 -0.380644888
vn 0.186783358 0.939020574 -0.288707793
vn 9.68937002e-07 0.957417309 -0.288707823
vn 0.191377684 0.962117791 -0.194175005
vn 1.14968157e-06 0.980966806 -0.194175586
vn 0.194161221 0.976112008 -0.0975035056
vn 1.30158662e-06 0.995235264 -0.0975035429
vn 0.194857836 0.979614317 -0.0488479994
vn 1.32233549e-06 0.998806238 -0.0488473028
vn 0.382226288 0.922776818 -0.048847042
vn 0.380859852 0.919477582 -0.0975032225
vn 0.554907084 0.830477059 -0.0488463975
vn 0.375399679 0.906295359 -0.194174722
vn 0.552923262 0.827507615 -0.0975032523
vn 0.706263244 0.706262171 -0.0488465764
vn 0.366387576 0.884538293 -0.288707703
vn 0.544996083 0.815644324 -0.194174528
vn 0.703737915 0.70373714 -0.0975031182
vn 0.830477118 0.554906964 -0.0488461889
vn 0.35387513 0.854331017 -0.380645394
vn 0.531912625 0.796063423 -0.288707554
vn 0.693648517 0.693648338 -0.194174409
vn 0.827507913 0.552923024 -0.0975031406
vn 0.922776639 0.382227004 -0.048845958
vn 0.337985665 0.815969884 -0.468997627
vn 0.513747394 0.768877327 -0.380645752
vn 0.676996291 0.676996291 -0.288707495
vn 0.815644145 0.544995964 -0.194174975
vn 0.919477344 0.380860269 -0.09750323
vn 0.979614556 0.194857016 -0.0488460511
vn 0.318892032 0.769873381 -0.55281353
vn 0.490679353 0.734353364 -0.468997747
vn 0.653876364 0.653876603 -0.380645633
vn 0.796063483 0.531912506 -0.288707435
vn 0.90629524 0.375399709 -0.194175363
vn 0.976112127 0.194160447 -0.0975031704
vn 0.998806238 -8.24414258e-07 -0.0488461778
vn 0.296769321 0.716464102 -0.631353498
vn 0.462959558 0.692867577 -0.552813649
vn 0.62451601 0.624516189 -0.468998075
vn 0.768877447 0.513747752 -0.380645126
vn 0.884538352 0.366387516 -0.288707525
vn 0.96211791 0.191376701 -0.194175526
vn 0.995235264 -6.48736147e-07 -0.0975027904
vn 0.979614317 -0.194858253 -0.0488468371
vn 0.976112008 -0.19416149 -0.0975024924
vn 0.922776639 -0.382226795 -0.0488470756
vn 0.980966806 -4.54038087e-07 -0.194175214
vn 0.939020872 0.186782539 -0.288707644
vn 0.854331136 0.353875399 -0.380645007
vn 0.734353244 0.490678996 -0.468998343
vn 0.919477463 -0.380860269 -0.09750247
vn 0.830477238 -0.554906845 -0.0488466807
vn 0.962117791 -0.191377684 -0.194174722
vn 0.957417309 -2.21957833e-07 -0.288707763
vn 0.906953096 0.180404082 -0.380644768
vn 0.827507913 -0.552923024 -0.0975026935
vn 0.706262589 -0.706262827 -0.0488463566
vn 0.906295061 -0.375400186 -0.19417496
vn 0.939020574 -0.186783582 -0.288707942
vn 0.703737319 -0.703737855 -0.0975029916
vn 0.554906368 -0.830477536 -0.048845768
vn 0.815643907 -0.544996202 -0.194175541
vn 0.552922368 -0.827508271 -0.0975028127
vn 0.382225901 -0.922777057 -0.048845388
vn 0.815969646 0.337985367 -0.468998343
vn 0.924721241 -1.87843284e-07 -0.380644768
vn 0.884537876 -0.366388381 -0.288708001
vn 0.693647861 -0.693648577 -0.194175795
vn 0.380859315 -0.91947788 -0.0975023359
vn 0.19485639 -0.979614794 -0.0488453917
vn 0.8662287 0.172303319 -0.468998283
vn 0.906952918 -0.180404916 -0.380644828
vn 0.796063185 -0.531912744 -0.288707912
vn 0.544995606 -0.815644205 -0.194175631
vn 0.194159701 -0.976112366 -0.0975023732
vn -1.19989022e-06 -0.998806238 -0.0488470159
vn 0.883198977 -2.91576356e-07 -0.468998402
vn 0.854330957 -0.353876114 -0.380644709
vn 0.676995933 -0.676996469 -0.288707674
vn 0.375399143 -0.906295419 -0.194175214
vn -1.38985627e-06 -0.995235264 -0.0975029618
vn -0.194858536 -0.979614198 -0.0488486476
vn 0.866228521 -0.172304183 -0.468998402
vn 0.768877804 -0.513747692 -0.380644709
vn 0.531912148 -0.796063423 -0.28870824
vn 0.191375896 -0.96211803 -0.194175512
vn -0.194161847 -0.97611177 -0.097503379
vn -0.382227391 -0.922776222 -0.0488482192
vn 0.815969527 -0.337986022 -0.468998045
vn 0.653876424 -0.65387696 -0.380644888
vn 0.366387129 -0.884538174 -0.288708687
vn -1.47041726e-06 -0.980966926 -0.194175005
vn -0.380860806 -0.919477046 -0.0975033417
vn -0.554907918 -0.830476463 -0.0488472208
vn 0.734353125 -0.490679324 -0.468998343
vn 0.513746917 -0.768878043 -0.380645066
vn 0.186781749 -0.939020813 -0.288708389
vn -0.191378355 -0.962117672 -0.194174618
vn -0.552924037 -0.827507138 -0.0975033715
vn -0.706263661 -0.706261694 -0.0488467999
vn 0.624515474 -0.624516428 -0.46899873
vn 0.353874803 -0.854331195 -0.380645156
vn -1.05856793e-06 -0.957417309 -0.288707793
vn -0.375400454 -0.906295061 -0.194174811
vn -0.70373863 -0.703736603 -0.0975032598
vn -0.830477655 -0.55490613 -0.0488472134
vn 0.490678459 -0.734353662 -0.468998164
vn 0.180403322 -0.906953096 -0.380645037
vn -0.186783895 -0.939020574 -0.288707763
vn -0.544996977 -0.815643489 -0.194175079
vn -0.827508628 -0.552921951 -0.097503081
vn -0.922777355 -0.382225096 -0.0488469377
vn 0.337985009 -0.815970063 -0.468997926
vn -9.92254741e-07 -0.924721181 -0.380645156
vn -0.366388321 -0.884537995 -0.288707882
vn -0.693649292 -0.693647206 -0.194175616
vn -0.919478059 -0.38085857 -0.0975028053
vn -0.979614913 -0.194855854 -0.0488460846
vn 0.172302678 -0.866228759 -0.468998402
vn -0.180405125 -0.906952918 -0.380644858
vn -0.531913698 -0.796062648 -0.288707584
vn -0.815644681 -0.54499501 -0.194175377
vn -0.976112366 -0.194159254 -0.0975024775
vn -0.998806238 1.4325218e-06 -0.0488463491
vn -7.9604996e-07 -0.883198977 -0.468998581
vn -0.353876173 -0.854330838 -0.380644739
vn -0.676997244 -0.676995158 -0.288707852
vn -0.906295836 -0.375398457 -0.194175005
vn -0.995235264 1.49250423e-06 -0.0975025296
vn -0.979614079 0.194859177 -0.0488470495
vn -0.172304511 -0.86622858 -0.468998045
vn -0.513748646 -0.76887691 -0.380645007
vn -0.79606384 -0.531911612 -0.28870821
vn -0.962118149 -0.191375658 -0.19417499
vn -0.97611177 0.194162548 -0.0975030065
vn -0.922775924 0.382228434 -0.0488465875
vn -0.337986559 -0.815969348 -0.468998045
vn -0.653877676 -0.653875768 -0.380644768
vn -0.884538531 -0.366386473 -0.288708419
vn -0.980966926 1.63495429e-06 -0.194175139
vn -0.919476867 0.38086164 -0.0975031331
vn -0.830476046 0.554908574 -0.0488462932
vn -0.490680009 -0.734352529 -0.468998492
vn -0.768878579 -0.5137465 -0.380644768
vn -0.939020872 -0.186781257 -0.288708448
vn -0.962117493 0.191378817 -0.194175169
vn -0.8275069 0.552924514 -0.0975029618
vn -0.706261456 0.706263959 -0.0488461815
vn -0.624516845 -0.624515235 -0.468998402
vn -0.854331434 -0.353874266 -0.380645156
vn -0.957417071 1.56650924e-06 -0.288708448
vn -0.906294644 0.37540099 -0.194175154
vn -0.703736424 0.703738749 -0.0975027308
vn -0.554905295 0.830478311 -0.0488459989
vn -0.734354019 -0.490678221 -0.468998045
vn -0.906953216 -0.180402637 -0.380645126
vn -0.939020395 0.186784297 -0.28870815
vn -0.815643191 0.544997454 -0.194175005
vn -0.552921474 0.827508926 -0.0975029394
vn -0.382224679 0.922777414 -0.048846595
vn -0.815970302 -0.337984562 -0.468997657
vn -0.924721241 1.52926464e-06 -0.380644917
vn -0.884537697 0.366389006 -0.288707644
vn -0.693647027 0.69364965 -0.19417499
vn -0.380858094 0.919478238 -0.0975033492
vn -0.194855914 0.979614794 -0.0488467515
vn -0.866229236 -0.172302321 -0.468997627
vn -0.906952739 0.180405453 -0.380645096
vn -0.79606241 0.531913996 -0.288707614
vn -0.544994235 0.815645158 -0.194175467
vn -0.194159001 0.976112366 -0.0975032449
vn 1.32233549e-06 0.998806238 -0.0488473028
vn 1.30158662e-06 0.995235264 -0.0975035429
vn -0.375397712 0.906295896 -0.19417581
vn -0.191375554 0.96211803 -0.194175765
vn 1.14968157e-06 0.980966806 -0.194175586
vn -0.676994741 0.676997721 -0.288708001
vn -0.85433048 0.35387671 -0.380645156
vn -0.531910717 0.796064436 -0.288708031
vn -0.366385847 0.884538949 -0.288708001
vn -0.186781436 0.939020991 -0.288707942
vn 9.68937002e-07 0.957417309 -0.288707823
vn -0.768876493 0.513748944 -0.380645454
vn -0.653874934 0.653877914 -0.380645782
vn -0.513745904 0.7688784 -0.380645692
vn -0.35387373 0.854331791 -0.380644768
vn -0.180402845 0.906953514 -0.380644292
vn 1.16242552e-06 0.924721241 -0.380644888
vn -0.17230241 0.866229236 -0.468997598
vn 1.26581938e-06 0.883199334 -0.468997657
vn -0.337984234 0.81597054 -0.468997568
vn -0.490677655 0.734354436 -0.468997926
vn -0.624514639 0.6245175 -0.468998104
vn -0.734352291 0.490680456 -0.468998343
vn -0.162568673 0.817293108 -0.552814066
vn 1.16774265e-06 0.833304882 -0.55281359
vn -0.31889081 0.769874036 -0.55281353
vn -0.462957978 0.692868948 -0.552813292
vn -0.589234293 0.589236915 -0.55281359
vn -0.151290327 0.760594368 -0.631353676
vn 8.79470974e-07 0.775494933 -0.631353736
vn -0.296767801 0.716464579 -0.631353557
vn -0.430840611 0.644801438 -0.631353736
vn -0.138577804 0.696684659 -0.703865469
vn 6.9279082e-07 0.710333288 -0.703865469
vn -0.271831423 0.656263053 -0.703865349
vn -0.124560341 0.626213789 -0.769636869
vn 6.91275659e-07 0.638481855 -0.769636869
vn -0.692866862 0.462960511 -0.552813709
vn -0.548356831 0.548358858 -0.631353617
vn -0.394638956 0.590621293 -0.703865469
vn -0.244335115 0.589880884 -0.769636869
vn -0.109379165 0.54989177 -0.828042924
vn 6.78666652e-07 0.560664952 -0.828042746
vn -0.644800067 0.430843383 -0.631353319
vn -0.502280593 0.502282441 -0.703865469
vn -0.354720712 0.530878842 -0.769636869
vn -0.21455583 0.517987132 -0.828042924
vn -0.093201682 0.468559086 -0.878502071
vn 6.77022001e-07 0.477738738 -0.878501952
vn -0.590619862 0.39464137 -0.703865349
vn -0.451474071 0.451475501 -0.769636869
vn -0.311487913 0.466176271 -0.828042805
vn -0.182821512 0.441373408 -0.878502071
vn -0.076201126 0.383090436 -0.920562387
vn 4.93529967e-07 0.390595526 -0.920562387
vn -0.530877352 0.354722381 -0.769637108
vn -0.396449417 0.396450669 -0.828042746
vn -0.265416443 0.397225678 -0.878502071
vn -0.149473563 0.360863864 -0.920562267
vn -0.0586351901 0.294782579 -0.953763664
vn 4.22538761e-07 0.300557345 -0.953763783
vn -0.466175258 0.311489671 -0.828042746
vn -0.337811708 0.337812871 -0.878501952
vn -0.217002511 0.324768633 -0.920562446
vn -0.115017936 0.277679503 -0.953763545
vn -0.0409291685 0.205769897 -0.977744043
vn 6.23191795e-07 0.209801123 -0.977744043
vn -0.397224665 0.265418231 -0.878502071
vn -0.276192248 0.27619338 -0.920562387
vn -0.166980743 0.249904543 -0.953763664
vn -0.0802869648 0.193830803 -0.977744162
vn -0.0243325122 0.122332633 -0.992190778
vn 5.67493373e-07 0.124729127 -0.992190778
vn 0 0 -1
vn -0.0477315411 0.11523477 -0.992190778
vn 0 0 -1
vn -0.116559528 0.174442902 -0.977744043
vn -0.0692961067 0.103708476 -0.992190778
vn 0 0 -1
vn -0.212525725 0.212526739 -0.953763664
vn -0.0881966874 0.0881971195 -0.992190778
vn 0 0 -1
vn -0.14835155 0.148352087 -0.977744043
vn -0.103707783 0.0692979023 -0.992190778
vn 0 0 -1
vn -0.174442321 0.116560429 -0.977744043
vn -0.249903664 0.166981637 -0.953763664
vn -0.115234271 0.0477323011 -0.992190778
vn 0 0 -1
vn -0.193830967 0.0802877694 -0.977744043
vn -0.324767858 0.21700418 -0.920562267
vn -0.277678788 0.11501839 -0.953763664
vn -0.122333221 0.0243314989 -0.992190778
vn 0 0 -1
vn -0.360863149 0.149474949 -0.920562387
vn -0.205770388 0.0409292839 -0.977744043
vn -0.441372901 0.18282339 -0.878501892
vn -0.294782221 0.0586358421 -0.953763664
vn -0.124729559 1.27858556e-07 -0.992190778
vn 0 0 -1
vn -0.209801495 4.74625949e-07 -0.977743924
vn -0.383090138 0.0762018859 -0.920562387
vn -0.517986596 0.214557782 -0.828042746
vn -0.122332662 -0.0243332032 -0.992190778
vn 0 0 -1
vn -0.300557286 6.5554002e-07 -0.953763783
vn -0.468559444 0.0932028741 -0.878501713
vn -0.589879632 0.244337127 -0.769637227
vn -0.205769822 -0.0409294777 -0.977744043
vn -0.390595645 4.24724362e-07 -0.920562387
vn -0.549892008 0.109380908 -0.828042567
vn -0.656261802 0.271834016 -0.703865588
vn -0.115235105 -0.0477317646 -0.992190778
vn 0 0 -1
vn -0.2947824 -0.0586349294 -0.953763783
vn -0.477738947 5.94139181e-07 -0.878501773
vn -0.626213193 0.124562159 -0.769637108
vn -0.716463804 0.296770751 -0.63135314
vn -0.193831116 -0.0802869722 -0.977744043
vn -0.383090913 -0.0762006938 -0.920562267
vn -0.560665131 1.14329873e-06 -0.828042567
vn -0.696684062 0.138579726 -0.703865707
vn -0.769872963 0.318893343 -0.552813411
vn -0.103708826 -0.0692955405 -0.992190778
vn 0 0 -1
vn -0.468559235 -0.093201451 -0.878502071
vn -0.638481855 1.19168158e-06 -0.76963681
vn -0.76059407 0.151292503 -0.631353557
vn -0.81596911 0.337986916 -0.468998134
vn -0.817293108 0.162571073 -0.55281353
vn -0.86622858 0.172305167 -0.468997896
vn -0.710333288 9.49161119e-07 -0.703865469
vn -0.549892068 -0.109379195 -0.828042746
vn -0.775495052 8.31998364e-07 -0.631353736
vn -0.833304644 1.22415986e-06 -0.552814126
vn -0.883199334 1.48333788e-06 -0.468997747
vn -0.626214027 -0.124560192 -0.76963675
vn -0.696684837 -0.138577551 -0.703865469
vn -0.760594547 -0.151289999 -0.631353498
vn -0.817293346 -0.162568301 -0.552814007
vn -0.769873857 -0.31889078 -0.55281359
vn -0.716464996 -0.29676792 -0.63135308
vn -0.656262934 -0.271831632 -0.703865469
vn -0.589880288 -0.244335458 -0.769637227
vn -0.517986774 -0.214556634 -0.828042984
vn -0.692868233 -0.462958574 -0.552813768
vn -0.644801617 -0.430841506 -0.631352901
vn -0.590621054 -0.394639254 -0.703865469
vn -0.530878127 -0.354720443 -0.769637465
vn -0.589236081 -0.589234829 -0.552813888
vn -0.548358738 -0.548357606 -0.631353021
vn -0.502281845 -0.502281129 -0.703865469
vn -0.462960094 -0.692866921 -0.552814066
vn -0.430842727 -0.644800484 -0.631353259
vn -0.318892866 -0.769872606 -0.552814126
vn -0.466176093 -0.311488092 -0.828042924
vn -0.451475024 -0.4514741 -0.769637227
vn -0.394640565 -0.590620399 -0.703865349
vn -0.296770066 -0.716463685 -0.631353676
vn -0.162570611 -0.817292869 -0.552813888
vn -0.39645043 -0.396449327 -0.828042924
vn -0.354721844 -0.530877948 -0.769636929
vn -0.271833628 -0.656262279 -0.70386517
vn -0.151292488 -0.760593891 -0.631353736
vn -4.68566299e-07 -0.833304763 -0.552813888
vn -0.311489165 -0.466175377 -0.828042805
vn -0.244337097 -0.589880109 -0.76963675
vn -0.138580009 -0.696684301 -0.703865528
vn -4.87859779e-07 -0.775495231 -0.631353378
vn 0.162569001 -0.817292929 -0.552814245
vn -0.21455799 -0.517986596 -0.828042746
vn -0.124562182 -0.626213551 -0.76963675
vn -4.30651056e-07 -0.71033299 -0.703865707
vn 0.151291221 -0.760594428 -0.631353378
vn 0.318890959 -0.769873142 -0.552814543
vn -0.109380864 -0.549892008 -0.828042686
vn -3.72099862e-07 -0.638481855 -0.769636869
vn 0.138578668 -0.696684301 -0.703865707
vn 0.296768516 -0.7164644 -0.631353498
vn 0.462958544 -0.692867875 -0.552814126
vn -2.76221186e-07 -0.560665369 -0.828042507
vn 0.124560975 -0.626213729 -0.769636869
vn 0.271832258 -0.656262696 -0.703865469
vn 0.430841148 -0.644801378 -0.631353319
vn 0.589235067 -0.589236021 -0.552813649
vn 0.109379902 -0.549892366 -0.828042507
vn 0.244335875 -0.589880526 -0.769636869
vn 0.394639105 -0.590621173 -0.703865469
vn 0.548357546 -0.548358679 -0.631353021
vn 0.692867577 -0.462959588 -0.55281359
vn 0.214556605 -0.517987192 -0.828042686
vn 0.354720682 -0.530878663 -0.769636929
vn 0.502280951 -0.502281845 -0.703865647
vn 0.644800901 -0.43084234 -0.63135314
vn 0.769873142 -0.318892509 -0.55281359
vn 0.31148836 -0.46617648 -0.828042567
vn 0.4514741 -0.451474875 -0.769637227
vn 0.590620399 -0.394640028 -0.703865647
vn 0.716464162 -0.2967695 -0.631353319
vn 0.817292929 -0.162570223 -0.552813947
vn 0.396450073 -0.39645049 -0.828042507
vn 0.530877769 -0.354721248 -0.769637287
vn 0.656262219 -0.271832824 -0.703865588
vn 0.760594428 -0.151291996 -0.631353199
vn 0.833304644 0 -0.552814126
vn 0.466176003 -0.311489284 -0.828042507
vn 0.58987999 -0.244336471 -0.769637108
vn 0.696684361 -0.138579398 -0.703865528
vn 0.77549541 0 -0.631353199
vn 0.817292929 0.162569329 -0.552814007
vn 0.517987072 -0.214557558 -0.828042507
vn 0.626213253 -0.124561861 -0.769637108
vn 0.710333228 -4.63778179e-07 -0.703865469
vn 0.760594606 0.151291341 -0.63135314
vn 0.769873321 0.318891644 -0.552813947
vn 0.549892366 -0.109380394 -0.828042507
vn 0.638481319 -4.05781009e-07 -0.769637287
vn 0.696684539 0.138578787 -0.703865469
vn 0.716464579 0.296768963 -0.631353021
vn 0.692867637 0.462959021 -0.552814007
vn 0.560665429 -2.04879285e-07 -0.828042507
vn 0.626213074 0.12456131 -0.769637465
vn 0.656262457 0.271832407 -0.703865528
vn 0.644800842 0.430842221 -0.631353259
vn 0.589235604 0.589235425 -0.552813768
vn 0.548357904 0.548357964 -0.631353498
vn 0.43084228 0.644800544 -0.631353438
vn 0.590620458 0.394640088 -0.703865469
vn 0.589879811 0.244335949 -0.769637465
vn 0.502281606 0.502281547 -0.703865349
vn 0.271832854 0.656262398 -0.703865469
vn 0.394640416 0.590620339 -0.703865469
vn 0.244336382 0.58987993 -0.769637167
vn 0.530878067 0.35472098 -0.769637227
vn 0.354721546 0.530877829 -0.769637167
vn 0.21455723 0.517986715 -0.828042805
vn 0.451474875 0.451474696 -0.769637048
vn 0.182822302 0.44137308 -0.878502071
vn 0.311488837 0.466176063 -0.828042686
vn 0.396450102 0.396450102 -0.828042567
vn 0.46617645 0.311488569 -0.828042507
vn 0.149474099 0.360863596 -0.920562267
vn 0.265417248 0.397225767 -0.878501773
vn 0.115018196 0.277679086 -0.953763664
vn 0.337812632 0.337812603 -0.878501713
vn 0.217002749 0.324768484 -0.920562446
vn 0.51798743 0.214557141 -0.828042448
vn 0.0802869648 0.193830669 -0.977744162
vn 0.166980594 0.249904186 -0.953763783
vn 0.276192278 0.276192486 -0.920562565
vn 0.397225976 0.265417427 -0.878501713
vn 0.549892485 0.109380104 -0.828042448
vn 0.0477316678 0.1152355 -0.992190778
vn 0 0 -1
vn 0.116559364 0.174443111 -0.977744043
vn 0.212525874 0.212526038 -0.953763783
vn 0.324768215 0.217002779 -0.920562565
vn 0.441373676 0.182822719 -0.878501594
vn 0.468559861 0.0932019651 -0.878501594
vn 0.06929674 0.103708498 -0.992190778
vn 0 0 -1
vn 0.148351848 0.148351997 -0.977744043
vn 0.249904096 0.166980699 -0.953763783
vn 0.36086306 0.149474144 -0.920562446
vn 0.477739632 -2.38947592e-07 -0.878501415
vn 0.0881967172 0.0881967992 -0.992190778
vn 0 0 -1
vn 0.174443066 0.116559237 -0.977744162
vn 0.277678967 0.115018025 -0.953763664
vn 0.383090079 0.0762012601 -0.920562565
vn 0.468559772 -0.0932025239 -0.878501594
vn 0.103708953 0.0692956597 -0.992190778
vn 0 0 -1
vn 0.193830818 0.0802871063 -0.977744162
vn 0.294782221 0.0586358272 -0.953763664
vn 0.390595496 -1.44220948e-07 -0.920562387
vn 0.441373259 -0.182823092 -0.878501773
vn 0.115234867 0.0477318987 -0.992190778
vn 0 0 -1
vn 0.205769777 0.0409301296 -0.977744043
vn 0.300557166 0 -0.953763783
vn 0.383090258 -0.076201804 -0.920562387
vn 0.397225648 -0.265417874 -0.878501713
vn 0.122332864 0.0243341587 -0.992190778
vn 0 0 -1
vn 0.209801033 2.88762919e-07 -0.977744043
vn 0.294782192 -0.0586359203 -0.953763783
vn 0.36086309 -0.14947468 -0.920562387
vn 0.337812573 -0.33781305 -0.878501534
vn 0.12472944 3.60900941e-07 -0.992190778
vn 0 0 -1
vn 0.205769822 -0.0409301445 -0.977744043
vn 0.277678758 -0.115018785 -0.953763664
vn 0.324768275 -0.217003062 -0.920562446
vn 0.26541689 -0.397226065 -0.878501713
vn 0.122332565 -0.0243341252 -0.992190778
vn 0 0 -1
vn 0.193830401 -0.0802881867 -0.977744162
vn 0.249903992 -0.166980878 -0.953763783
vn 0.276192427 -0.276192874 -0.920562446
vn 0.182821959 -0.441373587 -0.878501892
vn 0.115234554 -0.0477328189 -0.992190778
vn 0 0 -1
vn 0.174442813 -0.116559647 -0.977744043
vn 0.212525845 -0.212525904 -0.953763902
vn 0.217002347 -0.324768931 -0.920562387
vn 0.093202278 -0.468559355 -0.878501892
vn 0.103708893 -0.0692962259 -0.992190778
vn 0 0 -1
vn 0.148351759 -0.148351565 -0.977744162
vn 0.166980356 -0.249904439 -0.953763783
vn 0.149473846 -0.360864013 -0.920562148
vn -1.53916687e-07 -0.477739096 -0.878501773
vn 0.0881972611 -0.088197045 -0.992190778
vn 0 0 -1
vn 0.116559133 -0.174443126 -0.977744162
vn 0.115017861 -0.277679145 -0.953763664
vn 0.0762018636 -0.383090794 -0.920562148
vn -0.093202807 -0.468559504 -0.878501713
vn 0.06929598 -0.103709184 -0.992190778
vn 0 0 -1
vn 0.0802868754 -0.193830758 -0.977744162
vn 0.0586358309 -0.294782281 -0.953763664
vn 0 -0.390595734 -0.920562267
vn -0.182823613 -0.44137305 -0.878501773
vn 0.0477316938 -0.115235165 -0.992190778
vn 0 0 -1
vn 0.0409299098 -0.205769852 -0.977744043
vn 2.36481171e-07 -0.300557345 -0.953763783
vn -0.0762018487 -0.383090615 -0.920562267
vn -0.265418142 -0.397224873 -0.878501952
vn 0.024333531 -0.122333087 -0.992190778
vn 0 0 -1
vn 4.50186974e-07 -0.209800929 -0.977744162
vn -0.0586361922 -0.294782192 -0.953763664
vn -0.149475351 -0.36086306 -0.920562267
vn -0.337812692 -0.337812245 -0.878501773
vn 3.36336598e-07 -0.12472944 -0.992190778
vn 0 0 -1
vn -0.040930409 -0.205769375 -0.977744162
vn -0.115018934 -0.277678579 -0.953763664
vn -0.21700412 -0.324768275 -0.920562267
vn -0.397226065 -0.265417159 -0.878501713
vn -0.0243334286 -0.122333124 -0.992190778
vn 0 0 -1
vn -0.0802875459 -0.193830669 -0.977744162
vn -0.166981444 -0.249904409 -0.953763545
vn -0.276192784 -0.276193053 -0.920562267
vn -0.441373408 -0.182822064 -0.878501892
vn -0.0477320813 -0.115235105 -0.992190778
vn 0 0 -1
vn -0.116559297 -0.174442872 -0.977744162
vn -0.212526366 -0.212526366 -0.953763664
vn -0.324768901 -0.217003137 -0.920562267
vn -0.360864073 -0.149473831 -0.920562148
vn -0.0692965239 -0.103708617 -0.992190778
vn 0 0 -1
vn -0.148351759 -0.148351505 -0.977744162
vn -0.249904379 -0.16698049 -0.953763783
vn -0.277679056 -0.115017608 -0.953763783
vn -0.174443126 -0.116558678 -0.977744162
vn -0.0881969184 -0.0881970748 -0.992190778
vn 0 0 -1
vn 0 0 -1
f 1/1/1 3/3/3 2/2/2
f 3/3/3 4/4/4 2/2/2
f 3/3/3 5/5/5 4/4/4
f 5/5/5 6/6/6 4/4/4
f 5/5/5 7/7/7 6/6/6
f 7/7/7 8/8/8 6/6/6
f 7/7/7 9/9/9 8/8/8
f 9/9/9 10/10/10 8/8/8
f 9/9/9 11/11/11 10/10/10
f 11/11/11 12/12/12 10/10/10
f 11/11/11 13/13/13 12/12/12
f 13/13/13 14/14/14 12/12/12
f 13/13/13 15/15/15 14/14/14
f 15/15/15 16/16/16 14/14/14
f 15/15/15 17/17/17 16/16/16
f 17/17/17 18/18/18 16/16/16
f 17/17/17 19/19/19 18/18/18
f 19/19/19 20/20/20 18/18/18
f 19/19/19 21/21/21 20/20/20
f 21/21/21 22/22/22 20/20/20
f 21/21/21 23/23/23 22/22/22
f 23/23/23 24/24/24 22/22/22
f 23/23/23 25/25/25 24/24/24
f 25/25/25 26/26/26 24/24/24
f 25/25/25 27/27/27 26/26/26
f 27/27/27 28/28/28 26/26/26
f 27/27/27 29/29/29 28/28/28
f 29/29/29 30/30/30 28/28/28
f 29/29/29 31/31/31 30/30/30
f 31/31/31 32/32/32 30/30/30
f 31/31/31 33/33/33 32/32/32
f 30/30/30 32/32/32 34/34/34
f 30/30/30 34/34/34 35/35/35
f 28/28/28 30/30/30 35/35/35
f 35/35/35 34/34/34 36/36/36
f 26/26/26 28/28/28 37/37/37
f 28/28/28 35/35/35 37/37/37
f 35/35/35 36/36/36 38/38/38
f 37/37/37 35/35/35 38/38/38
f 38/38/38 36/36/36 39/39/39
f 24/24/24 26/26/26 40/40/40
f 26/26/26 37/37/37 40/40/40
f 37/37/37 38/38/38 41/41/41
f 40/40/40 37/37/37 41/41/41
f 38/38/38 39/39/39 42/42/42
f 41/41/41 38/38/38 42/42/42
f 42/42/42 39/39/39 43/43/43
f 24/24/24 40/40/40 44/44/44
f 22/22/22 24/24/24 44/44/44
f 40/40/40 41/41/41 45/45/45
f 44/44/44 40/40/40 45/45/45
f 41/41/41 42/42/42 46/46/46
f 45/45/45 41/41/41 46/46/46
f 42/42/42 43/43/43 47/47/47
f 46/46/46 42/42/42 47/47/47
f 47/47/47 43/43/43 48/48/48
f 22/22/22 44/44/44 49/49/49
f 20/20/20 22/22/22 49/49/49
f 44/44/44 45/45/45 50/50/50
f 49/49/49 44/44/44 50/50/50
f 45/45/45 46/46/46 51/51/51
f 50/50/50 45/45/45 51/51/51
f 46/46/46 47/47/47 52/52/52
f 51/51/51 46/46/46 52/52/52
f 47/47/47 48/48/48 53/53/53
f 52/52/52 47/47/47 53/53/53
f 53/53/53 48/48/48 54/54/54
f 20/20/20 49/49/49 55/55/55
f 18/18/18 20/20/20 55/55/55
f 49/49/49 50/50/50 56/56/56
f 55/55/55 49/49/49 56/56/56
f 50/50/50 51/51/51 57/57/57
f 56/56/56 50/50/50 57/57/57
f 51/51/51 52/52/52 58/58/58
f 57/57/57 51/51/51 58/58/58
f 52/52/52 53/53/53 59/59/59
f 58/58/58 52/52/52 59/59/59
f 53/53/53 54/54/54 60/60/60
f 59/59/59 53/53/53 60/60/60
f 60/60/60 54/54/54 61/61/61
f 18/18/18 55/55/55 62/62/62
f 16/16/16 18/18/18 62/62/62
f 55/55/55 56/56/56 63/63/63
f 62/62/62 55/55/55 63/63/63
f 56/56/56 57/57/57 64/64/64
f 63/63/63 56/56/56 64/64/64
f 57/57/57 58/58/58 65/65/65
f 64/64/64 57/57/57 65/65/65
f 58/58/58 59/59/59 66/66/66
f 65/65/65 58/58/58 66/66/66
f 59/59/59 60/60/60 67/67/67
f 66/66/66 59/59/59 67/67/67
f 60/60/60 61/61/61 68/68/68
f 67/67/67 60/60/60 68/68/68
f 68/68/68 61/61/61 69/69/69
f 68/68/68 69/69/69 70/70/70
f 70/70/70 69/69/69 71/71/71
f 67/67/67 68/68/68 72/72/72
f 72/72/72 68/68/68 70/70/70
f 66/66/66 67/67/67 73/73/73
f 73/73/73 67/67/67 72/72/72
f 65/65/65 66/66/66 74/74/74
f 74/74/74 66/66/66 73/73/73
f 64/64/64 65/65/65 75/75/75
f 75/75/75 65/65/65 74/74/74
f 70/70/70 71/71/71 76/76/76
f 76/76/76 71/71/71 77/77/77
f 72/72/72 70/70/70 78/78/78
f 78/78/78 70/70/70 76/76/76
f 73/73/73 72/72/72 79/79/79
f 79/79/79 72/72/72 78/78/78
f 74/74/74 73/73/73 80/80/80
f 80/80/80 73/73/73 79/79/79
f 76/76/76 77/77/77 81/81/81
f 81/81/81 77/77/77 82/82/82
f 78/78/78 76/76/76 83/83/83
f 83/83/83 76/76/76 81/81/81
f 79/79/79 78/78/78 84/84/84
f 84/84/84 78/78/78 83/83/83
f 81/81/81 82/82/82 85/85/85
f 85/85/85 82/82/82 86/86/86
f 83/83/83 81/81/81 87/87/87
f 87/87/87 81/81/81 85/85/85
f 85/85/85 86/86/86 88/88/88
f 88/88/88 86/86/86 89/89/89
f 90/90/90 74/74/74 80/80/80
f 75/75/75 74/74/74 90/90/90
f 80/80/80 79/79/79 91/91/91
f 91/91/91 79/79/79 84/84/84
f 84/84/84 83/83/83 92/92/92
f 92/92/92 83/83/83 87/87/87
f 87/87/87 85/85/85 93/93/93
f 93/93/93 85/85/85 88/88/88
f 88/88/88 89/89/89 94/94/94
f 94/94/94 89/89/89 95/95/95
f 90/90/90 80/80/80 96/96/96
f 96/96/96 80/80/80 91/91/91
f 91/91/91 84/84/84 97/97/97
f 97/97/97 84/84/84 92/92/92
f 92/92/92 87/87/87 98/98/98
f 98/98/98 87/87/87 93/93/93
f 93/93/93 88/88/88 99/99/99
f 99/99/99 88/88/88 94/94/94
f 94/94/94 95/95/95 100/100/100
f 100/100/100 95/95/95 101/101/101
f 96/96/96 91/91/91 102/102/102
f 102/102/102 91/91/91 97/97/97
f 97/97/97 92/92/92 103/103/103
f 103/103/103 92/92/92 98/98/98
f 98/98/98 93/93/93 104/104/104
f 104/104/104 93/93/93 99/99/99
f 99/99/99 94/94/94 105/105/105
f 105/105/105 94/94/94 100/100/100
f 100/100/100 101/101/101 106/106/106
f 106/106/106 101/101/101 107/107/107
f 102/102/102 97/97/97 108/108/108
f 108/108/108 97/97/97 103/103/103
f 103/103/103 98/98/98 109/109/109
f 109/109/109 98/98/98 104/104/104
f 104/104/104 99/99/99 110/110/110
f 110/110/110 99/99/99 105/105/105
f 105/105/105 100/100/100 111/111/111
f 111/111/111 100/100/100 106/106/106
f 106/106/106 107/107/107 112/112/112
f 112/112/112 107/107/107 113/113/113
f 108/108/108 103/103/103 114/114/114
f 114/114/114 103/103/103 109/109/109
f 109/109/109 104/104/104 115/115/115
f 115/115/115 104/104/104 110/110/110
f 110/110/110 105/105/105 116/116/116
f 116/116/116 105/105/105 111/111/111
f 111/111/111 106/106/106 117/117/117
f 117/117/117 106/106/106 112/112/112
f 112/112/112 113/113/113 118/118/118
f 118/118/118 113/113/113 119/119/119
f 114/114/114 109/109/109 120/120/120
f 120/120/120 109/109/109 115/115/115
f 115/115/115 110/110/110 121/121/121
f 121/121/121 110/110/110 116/116/116
f 116/116/116 111/111/111 122/122/122
f 122/122/122 111/111/111 117/117/117
f 117/117/117 112/112/112 123/123/123
f 123/123/123 112/112/112 118/118/118
f 118/118/118 119/119/119 124/124/124
f 124/124/124 119/119/119 125/125/125
f 120/120/120 115/115/115 126/126/126
f 126/126/126 115/115/115 121/121/121
f 121/121/121 116/116/116 127/127/127
f 127/127/127 116/116/116 122/122/122
f 122/122/122 117/117/117 128/128/128
f 128/128/128 117/117/117 123/123/123
f 123/123/123 118/118/118 129/129/129
f 129/129/129 118/118/118 124/124/124
f 124/124/124 125/125/125 130/130/130
f 130/130/130 125/125/125 131/131/131
f 126/126/126 121/121/121 132/132/132
f 132/132/132 121/121/121 127/127/127
f 127/127/127 122/122/122 133/133/133
f 133/133/133 122/122/122 128/128/128
f 128/128/128 123/123/123 134/134/134
f 134/134/134 123/123/123 129/129/129
f 129/129/129 124/124/124 135/135/135
f 135/135/135 124/124/124 130/130/130
f 130/130/130 131/131/131 136/136/136
f 136/136/136 131/131/131 137/137/137
f 132/132/132 127/127/127 138/138/138
f 138/138/138 127/127/127 133/133/133
f 133/133/133 128/128/128 139/139/139
f 139/139/139 128/128/128 134/134/134
f 134/134/134 129/129/129 140/140/140
f 140/140/140 129/129/129 135/135/135
f 135/135/135 130/130/130 141/141/141
f 141/141/141 130/130/130 136/136/136
f 136/136/136 137/137/137 142/142/142
f 142/142/142 137/137/137 143/143/143
f 138/138/138 133/133/133 144/144/144
f 144/144/144 133/133/133 139/139/139
f 139/139/139 134/134/134 145/145/145
f 145/145/145 134/134/134 140/140/140
f 140/140/140 135/135/135 146/146/146
f 146/146/146 135/135/135 141/141/141
f 141/141/141 136/136/136 147/147/147
f 147/147/147 136/136/136 142/142/142
f 142/142/142 143/143/143 148/148/148
f 148/148/148 143/143/143 149/149/149
f 144/144/144 139/139/139 150/150/150
f 150/150/150 139/139/139 145/145/145
f 145/145/145 140/140/140 151/151/151
f 151/151/151 140/140/140 146/146/146
f 146/146/146 141/141/141 152/152/152
f 152/152/152 141/141/141 147/147/147
f 147/147/147 142/142/142 153/153/153
f 153/153/153 142/142/142 148/148/148
f 148/148/148 149/149/149 154/154/154
f 154/154/154 149/149/149 155/155/155
f 150/150/150 145/145/145 156/156/156
f 156/156/156 145/145/145 151/151/151
f 151/151/151 146/146/146 157/157/157
f 157/157/157 146/146/146 152/152/152
f 152/152/152 147/147/147 158/158/158
f 158/158/158 147/147/147 153/153/153
f 153/153/153 148/148/148 159/159/159
f 159/159/159 148/148/148 154/154/154
f 154/154/154 155/155/155 160/160/160
f 160/160/160 155/155/155 161/161/161
f 156/156/156 151/151/151 162/162/162
f 162/162/162 151/151/151 157/157/157
f 157/157/157 152/152/152 163/163/163
f 163/163/163 152/152/152 158/158/158
f 158/158/158 153/153/153 164/164/164
f 164/164/164 153/153/153 159/159/159
f 159/159/159 154/154/154 165/165/165
f 165/165/165 154/154/154 160/160/160
f 160/160/160 161/161/161 166/166/166
f 166/166/166 161/161/161 167/167/167
f 162/162/162 157/157/157 168/168/168
f 168/168/168 157/157/157 163/163/163
f 163/163/163 158/158/158 169/169/169
f 169/169/169 158/158/158 164/164/164
f 164/164/164 159/159/159 170/170/170
f 170/170/170 159/159/159 165/165/165
f 165/165/165 160/160/160 171/171/171
f 171/171/171 160/160/160 166/166/166
f 166/166/166 167/167/167 172/172/172
f 172/172/172 167/167/167 173/173/173
f 168/168/168 163/163/163 174/174/174
f 174/174/174 163/163/163 169/169/169
f 169/169/169 164/164/164 175/175/175
f 175/175/175 164/164/164 170/170/170
f 170/170/170 165/165/165 176/176/176
f 176/176/176 165/165/165 171/171/171
f 171/171/171 166/166/166 177/177/177
f 177/177/177 166/166/166 172/172/172
f 172/172/172 173/173/173 178/178/178
f 178/178/178 173/173/173 179/179/179
f 174/174/174 169/169/169 180/180/180
f 180/180/180 169/169/169 175/175/175
f 175/175/175 170/170/170 181/181/181
f 181/181/181 170/170/170 176/176/176
f 176/176/176 171/171/171 182/182/182
f 182/182/182 171/171/171 177/177/177
f 177/177/177 172/172/172 183/183/183
f 183/183/183 172/172/172 178/178/178
f 178/178/178 179/179/179 184/184/184
f 184/184/184 179/179/179 185/185/185
f 180/180/180 175/175/175 186/186/186
f 186/186/186 175/175/175 181/181/181
f 181/181/181 176/176/176 187/187/187
f 187/187/187 176/176/176 182/182/182
f 182/182/182 177/177/177 188/188/188
f 188/188/188 177/177/177 183/183/183
f 183/183/183 178/178/178 189/189/189
f 189/189/189 178/178/178 184/184/184
f 184/184/184 185/185/185 190/190/190
f 190/190/190 185/185/185 191/191/191
f 186/186/186 181/181/181 192/192/192
f 192/192/192 181/181/181 187/187/187
f 187/187/187 182/182/182 193/193/193
f 193/193/193 182/182/182 188/188/188
f 188/188/188 183/183/183 194/194/194
f 194/194/194 183/183/183 189/189/189
f 189/189/189 184/184/184 195/195/195
f 195/195/195 184/184/184 190/190/190
f 190/190/190 191/191/191 196/196/196
f 196/196/196 191/191/191 197/197/197
f 196/196/196 197/197/197 198/198/198
f 199/199/199 190/190/190 196/196/196
f 195/195/195 190/190/190 199/199/199
f 200/200/200 196/196/196 198/198/198
f 199/199/199 196/196/196 200/200/200
f 200/200/200 198/198/198 201/201/201
f 202/202/202 189/189/189 195/195/195
f 194/194/194 189/189/189 202/202/202
f 203/203/203 188/188/188 194/194/194
f 193/193/193 188/188/188 203/203/203
f 204/204/204 195/195/195 199/199/199
f 202/202/202 195/195/195 204/204/204
f 205/205/205 199/199/199 200/200/200
f 204/204/204 199/199/199 205/205/205
f 206/206/206 200/200/200 201/201/201
f 205/205/205 200/200/200 206/206/206
f 206/206/206 201/201/201 207/207/207
f 208/208/208 194/194/194 202/202/202
f 203/203/203 194/194/194 208/208/208
f 209/209/209 202/202/202 204/204/204
f 208/208/208 202/202/202 209/209/209
f 210/210/210 204/204/204 205/205/205
f 209/209/209 204/204/204 210/210/210
f 211/211/211 205/205/205 206/206/206
f 210/210/210 205/205/205 211/211/211
f 212/212/212 206/206/206 207/207/207
f 211/211/211 206/206/206 212/212/212
f 212/212/212 207/207/207 213/213/213
f 214/214/214 212/212/212 213/213/213
f 214/214/214 213/213/213 215/215/215
f 216/216/216 211/211/211 212/212/212
f 216/216/216 212/212/212 214/214/214
f 217/217/217 210/210/210 211/211/211
f 217/217/217 211/211/211 216/216/216
f 218/218/218 209/209/209 210/210/210
f 218/218/218 210/210/210 217/217/217
f 219/219/219 208/208/208 209/209/209
f 219/219/219 209/209/209 218/218/218
f 220/220/220 214/214/214 215/215/215
f 220/220/220 215/215/215 221/221/221
f 222/222/222 216/216/216 214/214/214
f 222/222/222 214/214/214 220/220/220
f 223/223/223 217/217/217 216/216/216
f 223/223/223 216/216/216 222/222/222
f 224/224/224 218/218/218 217/217/217
f 224/224/224 217/217/217 223/223/223
f 225/225/225 220/220/220 221/221/221
f 225/225/225 221/221/221 226/226/226
f 227/227/227 222/222/222 220/220/220
f 227/227/227 220/220/220 225/225/225
f 228/228/228 223/223/223 222/222/222
f 228/228/228 222/222/222 227/227/227
f 229/229/229 225/225/225 226/226/226
f 229/229/229 226/226/226 230/230/230
f 231/231/231 227/227/227 225/225/225
f 231/231/231 225/225/225 229/229/229
f 232/232/232 229/229/229 230/230/230
f 232/232/232 230/230/230 233/233/233
f 234/234/234 218/218/218 224/224/224
f 234/234/234 219/219/219 218/218/218
f 235/235/235 224/224/224 223/223/223
f 235/235/235 223/223/223 228/228/228
f 236/236/236 228/228/228 227/227/227
f 236/236/236 227/227/227 231/231/231
f 237/237/237 231/231/231 229/229/229
f 237/237/237 229/229/229 232/232/232
f 238/238/238 232/232/232 233/233/233
f 238/238/238 233/233/233 239/239/239
f 240/240/240 234/234/234 224/224/224
f 240/240/240 224/224/224 235/235/235
f 241/241/241 235/235/235 228/228/228
f 241/241/241 228/228/228 236/236/236
f 242/242/242 236/236/236 231/231/231
f 242/242/242 231/231/231 237/237/237
f 243/243/243 237/237/237 232/232/232
f 243/243/243 232/232/232 238/238/238
f 244/244/244 238/238/238 239/239/239
f 244/244/244 239/239/239 245/245/245
f 246/246/246 240/240/240 235/235/235
f 246/246/246 235/235/235 241/241/241
f 247/247/247 241/241/241 236/236/236
f 247/247/247 236/236/236 242/242/242
f 248/248/248 242/242/242 237/237/237
f 248/248/248 237/237/237 243/243/243
f 249/249/249 243/243/243 238/238/238
f 249/249/249 238/238/238 244/244/244
f 250/250/250 244/244/244 245/245/245
f 250/250/250 245/245/245 251/251/251
f 252/252/252 246/246/246 241/241/241
f 252/252/252 241/241/241 247/247/247
f 253/253/253 247/247/247 242/242/242
f 253/253/253 242/242/242 248/248/248
f 254/254/254 248/248/248 243/243/243
f 254/254/254 243/243/243 249/249/249
f 255/255/255 249/249/249 244/244/244
f 255/255/255 244/244/244 250/250/250
f 256/256/256 250/250/250 251/251/251
f 256/256/256 251/251/251 257/257/257
f 258/258/258 252/252/252 247/247/247
f 258/258/258 247/247/247 253/253/253
f 259/259/259 253/253/253 248/248/248
f 259/259/259 248/248/248 254/254/254
f 260/260/260 254/254/254 249/249/249
f 260/260/260 249/249/249 255/255/255
f 261/261/261 255/255/255 250/250/250
f 261/261/261 250/250/250 256/256/256
f 262/262/262 256/256/256 257/257/257
f 262/262/262 257/257/257 263/263/263
f 264/264/264 258/258/258 253/253/253
f 264/264/264 253/253/253 259/259/259
f 265/265/265 259/259/259 254/254/254
f 265/265/265 254/254/254 260/260/260
f 266/266/266 260/260/260 255/255/255
f 266/266/266 255/255/255 261/261/261
f 267/267/267 261/261/261 256/256/256
f 267/267/267 256/256/256 262/262/262
f 268/268/268 262/262/262 263/263/263
f 268/268/268 263/263/263 269/269/269
f 270/270/270 268/268/268 269/269/269
f 271/271/271 262/262/262 268/268/268
f 271/271/271 267/267/267 262/262/262
f 272/272/272 271/271/271 268/268/268
f 273/273/273 261/261/261 267/267/267
f 273/273/273 266/266/266 261/261/261
f 274/274/274 267/267/267 271/271/271
f 274/274/274 273/273/273 267/267/267
f 275/275/275 274/274/274 271/271/271
f 276/276/276 260/260/260 266/266/266
f 276/276/276 265/265/265 260/260/260
f 277/277/277 273/273/273 274/274/274
f 278/278/278 277/277/277 274/274/274
f 279/279/279 266/266/266 273/273/273
f 277/277/277 279/279/279 273/273/273
f 279/279/279 276/276/276 266/266/266
f 280/280/280 279/279/279 277/277/277
f 281/281/281 280/280/280 277/277/277
f 282/282/282 276/276/276 279/279/279
f 280/280/280 282/282/282 279/279/279
f 283/283/283 265/265/265 276/276/276
f 282/282/282 283/283/283 276/276/276
f 284/284/284 282/282/282 280/280/280
f 285/285/285 284/284/284 280/280/280
f 284/284/284 286/286/286 282/282/282
f 286/286/286 283/283/283 282/282/282
f 283/283/283 287/287/287 265/265/265
f 287/287/287 259/259/259 265/265/265
f 287/287/287 264/264/264 259/259/259
f 288/288/288 287/287/287 283/283/283
f 286/286/286 288/288/288 283/283/283
f 289/289/289 286/286/286 284/284/284
f 290/290/290 289/289/289 284/284/284
f 291/291/291 264/264/264 287/287/287
f 288/288/288 291/291/291 287/287/287
f 289/289/289 292/292/292 286/286/286
f 292/292/292 288/288/288 286/286/286
f 291/291/291 293/293/293 264/264/264
f 293/293/293 258/258/258 264/264/264
f 294/294/294 291/291/291 288/288/288
f 292/292/292 294/294/294 288/288/288
f 295/295/295 292/292/292 289/289/289
f 296/296/296 295/295/295 289/289/289
f 295/295/295 297/297/297 292/292/292
f 297/297/297 294/294/294 292/292/292
f 294/294/294 298/298/298 291/291/291
f 298/298/298 293/293/293 291/291/291
f 293/293/293 299/299/299 258/258/258
f 299/299/299 252/252/252 258/258/258
f 300/300/300 297/297/297 295/295/295
f 301/301/301 300/300/300 295/295/295
f 297/297/297 302/302/302 294/294/294
f 302/302/302 298/298/298 294/294/294
f 298/298/298 303/303/303 293/293/293
f 303/303/303 299/299/299 293/293/293
f 299/299/299 304/304/304 252/252/252
f 304/304/304 246/246/246 252/252/252
f 300/300/300 305/305/305 297/297/297
f 305/305/305 302/302/302 297/297/297
f 302/302/302 306/306/306 298/298/298
f 306/306/306 303/303/303 298/298/298
f 303/303/303 307/307/307 299/299/299
f 307/307/307 304/304/304 299/299/299
f 304/304/304 308/308/308 246/246/246
f 308/308/308 240/240/240 246/246/246
f 309/309/309 305/305/305 300/300/300
f 310/310/310 309/309/309 300/300/300
f 305/305/305 311/311/311 302/302/302
f 311/311/311 306/306/306 302/302/302
f 306/306/306 312/312/312 303/303/303
f 312/312/312 307/307/307 303/303/303
f 307/307/307 313/313/313 304/304/304
f 313/313/313 308/308/308 304/304/304
f 308/308/308 314/314/314 240/240/240
f 314/314/314 234/234/234 240/240/240
f 309/309/309 315/315/315 305/305/305
f 315/315/315 311/311/311 305/305/305
f 311/311/311 316/316/316 306/306/306
f 316/316/316 312/312/312 306/306/306
f 312/312/312 317/317/317 307/307/307
f 317/317/317 313/313/313 307/307/307
f 313/313/313 318/318/318 308/308/308
f 318/318/318 314/314/314 308/308/308
f 314/314/314 319/319/319 234/234/234
f 319/319/319 219/219/219 234/234/234
f 320/320/320 315/315/315 309/309/309
f 321/321/321 320/320/320 309/309/309
f 316/316/316 322/322/322 312/312/312
f 322/322/322 317/317/317 312/312/312
f 317/317/317 323/323/323 313/313/313
f 323/323/323 318/318/318 313/313/313
f 318/318/318 324/324/324 314/314/314
f 324/324/324 319/319/319 314/314/314
f 319/319/319 325/325/325 219/219/219
f 325/325/325 208/208/208 219/219/219
f 325/325/325 203/203/203 208/208/208
f 326/326/326 325/325/325 319/319/319
f 324/324/324 326/326/326 319/319/319
f 327/327/327 203/203/203 325/325/325
f 326/326/326 327/327/327 325/325/325
f 327/327/327 193/193/193 203/203/203
f 328/328/328 324/324/324 318/318/318
f 323/323/323 328/328/328 318/318/318
f 329/329/329 323/323/323 317/317/317
f 322/322/322 329/329/329 317/317/317
f 330/330/330 326/326/326 324/324/324
f 328/328/328 330/330/330 324/324/324
f 331/331/331 327/327/327 326/326/326
f 330/330/330 331/331/331 326/326/326
f 332/332/332 193/193/193 327/327/327
f 331/331/331 332/332/332 327/327/327
f 332/332/332 187/187/187 193/193/193
f 192/192/192 187/187/187 332/332/332
f 333/333/333 328/328/328 323/323/323
f 329/329/329 333/333/333 323/323/323
f 334/334/334 330/330/330 328/328/328
f 333/333/333 334/334/334 328/328/328
f 335/335/335 331/331/331 330/330/330
f 334/334/334 335/335/335 330/330/330
f 336/336/336 332/332/332 331/331/331
f 336/336/336 192/192/192 332/332/332
f 335/335/335 336/336/336 331/331/331
f 337/337/337 192/192/192 336/336/336
f 337/337/337 186/186/186 192/192/192
f 338/338/338 336/336/336 335/335/335
f 338/338/338 337/337/337 336/336/336
f 339/339/339 335/335/335 334/334/334
f 339/339/339 338/338/338 335/335/335
f 340/340/340 334/334/334 333/333/333
f 340/340/340 339/339/339 334/334/334
f 341/341/341 333/333/333 329/329/329
f 341/341/341 340/340/340 333/333/333
f 342/342/342 186/186/186 337/337/337
f 342/342/342 180/180/180 186/186/186
f 343/343/343 337/337/337 338/338/338
f 343/343/343 342/342/342 337/337/337
f 344/344/344 338/338/338 339/339/339
f 344/344/344 343/343/343 338/338/338
f 345/345/345 339/339/339 340/340/340
f 345/345/345 344/344/344 339/339/339
f 346/346/346 180/180/180 342/342/342
f 346/346/346 174/174/174 180/180/180
f 347/347/347 342/342/342 343/343/343
f 347/347/347 346/346/346 342/342/342
f 348/348/348 343/343/343 344/344/344
f 348/348/348 347/347/347 343/343/343
f 349/349/349 174/174/174 346/346/346
f 349/349/349 168/168/168 174/174/174
f 350/350/350 346/346/346 347/347/347
f 350/350/350 349/349/349 346/346/346
f 351/351/351 168/168/168 349/349/349
f 351/351/351 162/162/162 168/168/168
f 352/352/352 345/345/345 340/340/340
f 352/352/352 340/340/340 341/341/341
f 353/353/353 344/344/344 345/345/345
f 353/353/353 348/348/348 344/344/344
f 354/354/354 347/347/347 348/348/348
f 354/354/354 350/350/350 347/347/347
f 355/355/355 349/349/349 350/350/350
f 355/355/355 351/351/351 349/349/349
f 356/356/356 162/162/162 351/351/351
f 356/356/356 156/156/156 162/162/162
f 357/357/357 345/345/345 352/352/352
f 357/357/357 353/353/353 345/345/345
f 358/358/358 348/348/348 353/353/353
f 358/358/358 354/354/354 348/348/348
f 359/359/359 350/350/350 354/354/354
f 359/359/359 355/355/355 350/350/350
f 360/360/360 351/351/351 355/355/355
f 360/360/360 356/356/356 351/351/351
f 361/361/361 156/156/156 356/356/356
f 361/361/361 150/150/150 156/156/156
f 362/362/362 353/353/353 357/357/357
f 362/362/362 358/358/358 353/353/353
f 363/363/363 354/354/354 358/358/358
f 363/363/363 359/359/359 354/354/354
f 364/364/364 355/355/355 359/359/359
f 364/364/364 360/360/360 355/355/355
f 365/365/365 356/356/356 360/360/360
f 365/365/365 361/361/361 356/356/356
f 366/366/366 150/150/150 361/361/361
f 366/366/366 144/144/144 150/150/150
f 367/367/367 358/358/358 362/362/362
f 367/367/367 363/363/363 358/358/358
f 368/368/368 359/359/359 363/363/363
f 368/368/368 364/364/364 359/359/359
f 369/369/369 360/360/360 364/364/364
f 369/369/369 365/365/365 360/360/360
f 370/370/370 361/361/361 365/365/365
f 370/370/370 366/366/366 361/361/361
f 371/371/371 144/144/144 366/366/366
f 371/371/371 138/138/138 144/144/144
f 372/372/372 363/363/363 367/367/367
f 372/372/372 368/368/368 363/363/363
f 373/373/373 364/364/364 368/368/368
f 373/373/373 369/369/369 364/364/364
f 374/374/374 365/365/365 369/369/369
f 374/374/374 370/370/370 365/365/365
f 375/375/375 366/366/366 370/370/370
f 375/375/375 371/371/371 366/366/366
f 376/376/376 138/138/138 371/371/371
f 376/376/376 132/132/132 138/138/138
f 377/377/377 368/368/368 372/372/372
f 377/377/377 373/373/373 368/368/368
f 378/378/378 369/369/369 373/373/373
f 378/378/378 374/374/374 369/369/369
f 379/379/379 370/370/370 374/374/374
f 379/379/379 375/375/375 370/370/370
f 380/380/380 371/371/371 375/375/375
f 380/380/380 376/376/376 371/371/371
f 381/381/381 132/132/132 376/376/376
f 381/381/381 126/126/126 132/132/132
f 382/382/382 373/373/373 377/377/377
f 382/382/382 378/378/378 373/373/373
f 383/383/383 374/374/374 378/378/378
f 383/383/383 379/379/379 374/374/374
f 384/384/384 375/375/375 379/379/379
f 384/384/384 380/380/380 375/375/375
f 385/385/385 376/376/376 380/380/380
f 385/385/385 381/381/381 376/376/376
f 386/386/386 126/126/126 381/381/381
f 386/386/386 120/120/120 126/126/126
f 387/387/387 378/378/378 382/382/382
f 387/387/387 383/383/383 378/378/378
f 388/388/388 379/379/379 383/383/383
f 388/388/388 384/384/384 379/379/379
f 389/389/389 380/380/380 384/384/384
f 389/389/389 385/385/385 380/380/380
f 390/390/390 381/381/381 385/385/385
f 390/390/390 386/386/386 381/381/381
f 391/391/391 120/120/120 386/386/386
f 391/391/391 114/114/114 120/120/120
f 392/392/392 383/383/383 387/387/387
f 392/392/392 388/388/388 383/383/383
f 393/393/393 384/384/384 388/388/388
f 393/393/393 389/389/389 384/384/384
f 394/394/394 385/385/385 389/389/389
f 394/394/394 390/390/390 385/385/385
f 395/395/395 386/386/386 390/390/390
f 395/395/395 391/391/391 386/386/386
f 396/396/396 114/114/114 391/391/391
f 396/396/396 108/108/108 114/114/114
f 397/397/397 388/388/388 392/392/392
f 397/397/397 393/393/393 388/388/388
f 398/398/398 389/389/389 393/393/393
f 398/398/398 394/394/394 389/389/389
f 399/399/399 390/390/390 394/394/394
f 399/399/399 395/395/395 390/390/390
f 400/400/400 391/391/391 395/395/395
f 400/400/400 396/396/396 391/391/391
f 401/401/401 108/108/108 396/396/396
f 401/401/401 102/102/102 108/108/108
f 402/402/402 393/393/393 397/397/397
f 402/402/402 398/398/398 393/393/393
f 403/403/403 394/394/394 398/398/398
f 403/403/403 399/399/399 394/394/394
f 404/404/404 395/395/395 399/399/399
f 404/404/404 400/400/400 395/395/395
f 405/405/405 396/396/396 400/400/400
f 405/405/405 401/401/401 396/396/396
f 406/406/406 102/102/102 401/401/401
f 406/406/406 96/96/96 102/102/102
f 407/407/407 398/398/398 402/402/402
f 407/407/407 403/403/403 398/398/398
f 408/408/408 399/399/399 403/403/403
f 408/408/408 404/404/404 399/399/399
f 409/409/409 400/400/400 404/404/404
f 409/409/409 405/405/405 400/400/400
f 410/410/410 401/401/401 405/405/405
f 410/410/410 406/406/406 401/401/401
f 411/411/411 96/96/96 406/406/406
f 411/411/411 90/90/90 96/96/96
f 412/412/412 403/403/403 407/407/407
f 412/412/412 408/408/408 403/403/403
f 413/413/413 404/404/404 408/408/408
f 413/413/413 409/409/409 404/404/404
f 414/414/414 405/405/405 409/409/409
f 414/414/414 410/410/410 405/405/405
f 415/415/415 406/406/406 410/410/410
f 415/415/415 411/411/411 406/406/406
f 416/416/416 90/90/90 411/411/411
f 416/416/416 75/75/75 90/90/90
f 417/417/417 408/408/408 412/412/412
f 417/417/417 413/413/413 408/408/408
f 418/418/418 409/409/409 413/413/413
f 418/418/418 414/414/414 409/409/409
f 419/419/419 410/410/410 414/414/414
f 419/419/419 415/415/415 410/410/410
f 420/420/420 411/411/411 415/415/415
f 420/420/420 416/416/416 411/411/411
f 421/421/421 75/75/75 416/416/416
f 421/421/421 64/64/64 75/75/75
f 63/63/63 64/64/64 421/421/421
f 422/422/422 421/421/421 416/416/416
f 422/422/422 416/416/416 420/420/420
f 423/423/423 63/63/63 421/421/421
f 423/423/423 421/421/421 422/422/422
f 62/62/62 63/63/63 423/423/423
f 424/424/424 420/420/420 415/415/415
f 424/424/424 415/415/415 419/419/419
f 425/425/425 419/419/419 414/414/414
f 425/425/425 414/414/414 418/418/418
f 426/426/426 422/422/422 420/420/420
f 426/426/426 420/420/420 424/424/424
f 427/427/427 62/62/62 423/423/423
f 16/16/16 62/62/62 427/427/427
f 14/14/14 16/16/16 427/427/427
f 428/428/428 423/423/423 422/422/422
f 427/427/427 423/423/423 428/428/428
f 428/428/428 422/422/422 426/426/426
f 14/14/14 427/427/427 429/429/429
f 429/429/429 427/427/427 428/428/428
f 12/12/12 14/14/14 429/429/429
f 430/430/430 424/424/424 419/419/419
f 430/430/430 419/419/419 425/425/425
f 431/431/431 428/428/428 426/426/426
f 429/429/429 428/428/428 431/431/431
f 12/12/12 429/429/429 432/432/432
f 432/432/432 429/429/429 431/431/431
f 10/10/10 12/12/12 432/432/432
f 433/433/433 426/426/426 424/424/424
f 431/431/431 426/426/426 433/433/433
f 433/433/433 424/424/424 430/430/430
f 10/10/10 432/432/432 434/434/434
f 8/8/8 10/10/10 434/434/434
f 432/432/432 431/431/431 435/435/435
f 435/435/435 431/431/431 433/433/433
f 434/434/434 432/432/432 435/435/435
f 436/436/436 433/433/433 430/430/430
f 435/435/435 433/433/433 436/436/436
f 437/437/437 430/430/430 425/425/425
f 436/436/436 430/430/430 437/437/437
f 8/8/8 434/434/434 438/438/438
f 6/6/6 8/8/8 438/438/438
f 434/434/434 435/435/435 439/439/439
f 439/439/439 435/435/435 436/436/436
f 438/438/438 434/434/434 439/439/439
f 6/6/6 438/438/438 440/440/440
f 4/4/4 6/6/6 440/440/440
f 439/439/439 436/436/436 441/441/441
f 441/441/441 436/436/436 437/437/437
f 438/438/438 439/439/439 442/442/442
f 440/440/440 438/438/438 442/442/442
f 442/442/442 439/439/439 441/441/441
f 437/437/437 425/425/425 443/443/443
f 443/443/443 425/425/425 418/418/418
f 4/4/4 440/440/440 444/444/444
f 2/2/2 4/4/4 444/444/444
f 440/440/440 442/442/442 445/445/445
f 444/444/444 440/440/440 445/445/445
f 442/442/442 441/441/441 446/446/446
f 445/445/445 442/442/442 446/446/446
f 441/441/441 437/437/437 447/447/447
f 447/447/447 437/437/437 443/443/443
f 446/446/446 441/441/441 447/447/447
f 443/443/443 418/418/418 448/448/448
f 448/448/448 418/418/418 413/413/413
f 448/448/448 413/413/413 417/417/417
f 2/2/2 444/444/444 449/449/449
f 450/450/450 2/2/2 449/449/449
f 444/444/444 445/445/445 451/451/451
f 449/449/449 444/444/444 451/451/451
f 445/445/445 446/446/446 452/452/452
f 451/451/451 445/445/445 452/452/452
f 446/446/446 447/447/447 453/453/453
f 452/452/452 446/446/446 453/453/453
f 447/447/447 443/443/443 454/454/454
f 454/454/454 443/443/443 448/448/448
f 453/453/453 447/447/447 454/454/454
f 455/455/455 448/448/448 417/417/417
f 454/454/454 448/448/448 455/455/455
f 449/449/449 451/451/451 456/456/456
f 457/457/457 449/449/449 456/456/456
f 451/451/451 452/452/452 458/458/458
f 456/456/456 451/451/451 458/458/458
f 452/452/452 453/453/453 459/459/459
f 458/458/458 452/452/452 459/459/459
f 453/453/453 454/454/454 460/460/460
f 460/460/460 454/454/454 455/455/455
f 459/459/459 453/453/453 460/460/460
f 455/455/455 417/417/417 461/461/461
f 461/461/461 417/417/417 412/412/412
f 456/456/456 458/458/458 462/462/462
f 463/463/463 456/456/456 462/462/462
f 458/458/458 459/459/459 464/464/464
f 462/462/462 458/458/458 464/464/464
f 459/459/459 460/460/460 465/465/465
f 464/464/464 459/459/459 465/465/465
f 460/460/460 455/455/455 466/466/466
f 466/466/466 455/455/455 461/461/461
f 465/465/465 460/460/460 466/466/466
f 461/461/461 412/412/412 467/467/467
f 467/467/467 412/412/412 407/407/407
f 462/462/462 464/464/464 468/468/468
f 469/469/469 462/462/462 468/468/468
f 464/464/464 465/465/465 470/470/470
f 468/468/468 464/464/464 470/470/470
f 465/465/465 466/466/466 471/471/471
f 470/470/470 465/465/465 471/471/471
f 466/466/466 461/461/461 472/472/472
f 472/472/472 461/461/461 467/467/467
f 471/471/471 466/466/466 472/472/472
f 467/467/467 407/407/407 473/473/473
f 473/473/473 407/407/407 402/402/402
f 468/468/468 470/470/470 474/474/474
f 475/475/475 468/468/468 474/474/474
f 470/470/470 471/471/471 476/476/476
f 474/474/474 470/470/470 476/476/476
f 471/471/471 472/472/472 477/477/477
f 476/476/476 471/471/471 477/477/477
f 472/472/472 467/467/467 478/478/478
f 478/478/478 467/467/467 473/473/473
f 477/477/477 472/472/472 478/478/478
f 473/473/473 402/402/402 479/479/479
f 479/479/479 402/402/402 397/397/397
f 474/474/474 476/476/476 480/480/480
f 481/481/481 474/474/474 480/480/480
f 476/476/476 477/477/477 482/482/482
f 480/480/480 476/476/476 482/482/482
f 477/477/477 478/478/478 483/483/483
f 482/482/482 477/477/477 483/483/483
f 478/478/478 473/473/473 484/484/484
f 484/484/484 473/473/473 479/479/479
f 483/483/483 478/478/478 484/484/484
f 479/479/479 397/397/397 485/485/485
f 485/485/485 397/397/397 392/392/392
f 480/480/480 482/482/482 486/486/486
f 487/487/487 480/480/480 486/486/486
f 482/482/482 483/483/483 488/488/488
f 486/486/486 482/482/482 488/488/488
f 483/483/483 484/484/484 489/489/489
f 488/488/488 483/483/483 489/489/489
f 484/484/484 479/479/479 490/490/490
f 490/490/490 479/479/479 485/485/485
f 489/489/489 484/484/484 490/490/490
f 485/485/485 392/392/392 491/491/491
f 491/491/491 392/392/392 387/387/387
f 486/486/486 488/488/488 492/492/492
f 493/493/493 486/486/486 492/492/492
f 488/488/488 489/489/489 494/494/494
f 492/492/492 488/488/488 494/494/494
f 489/489/489 490/490/490 495/495/495
f 494/494/494 489/489/489 495/495/495
f 490/490/490 485/485/485 496/496/496
f 496/496/496 485/485/485 491/491/491
f 495/495/495 490/490/490 496/496/496
f 491/491/491 387/387/387 497/497/497
f 497/497/497 387/387/387 382/382/382
f 492/492/492 494/494/494 498/498/498
f 499/499/499 492/492/492 498/498/498
f 494/494/494 495/495/495 500/500/500
f 498/498/498 494/494/494 500/500/500
f 495/495/495 496/496/496 501/501/501
f 500/500/500 495/495/495 501/501/501
f 496/496/496 491/491/491 502/502/502
f 502/502/502 491/491/491 497/497/497
f 501/501/501 496/496/496 502/502/502
f 497/497/497 382/382/382 503/503/503
f 503/503/503 382/382/382 377/377/377
f 498/498/498 500/500/500 504/504/504
f 505/505/505 498/498/498 504/504/504
f 500/500/500 501/501/501 506/506/506
f 504/504/504 500/500/500 506/506/506
f 501/501/501 502/502/502 507/507/507
f 506/506/506 501/501/501 507/507/507
f 502/502/502 497/497/497 508/508/508
f 508/508/508 497/497/497 503/503/503
f 507/507/507 502/502/502 508/508/508
f 503/503/503 377/377/377 509/509/509
f 509/509/509 377/377/377 372/372/372
f 504/504/504 506/506/506 510/510/510
f 511/511/511 504/504/504 510/510/510
f 506/506/506 507/507/507 512/512/512
f 510/510/510 506/506/506 512/512/512
f 507/507/507 508/508/508 513/513/513
f 512/512/512 507/507/507 513/513/513
f 508/508/508 503/503/503 514/514/514
f 514/514/514 503/503/503 509/509/509
f 513/513/513 508/508/508 514/514/514
f 509/509/509 372/372/372 515/515/515
f 515/515/515 372/372/372 367/367/367
f 510/510/510 512/512/512 516/516/516
f 517/517/517 510/510/510 516/516/516
f 512/512/512 513/513/513 518/518/518
f 516/516/516 512/512/512 518/518/518
f 513/513/513 514/514/514 519/519/519
f 518/518/518 513/513/513 519/519/519
f 514/514/514 509/509/509 520/520/520
f 520/520/520 509/509/509 515/515/515
f 519/519/519 514/514/514 520/520/520
f 515/515/515 367/367/367 521/521/521
f 521/521/521 367/367/367 362/362/362
f 516/516/516 518/518/518 522/522/522
f 523/523/523 516/516/516 522/522/522
f 518/518/518 519/519/519 524/524/524
f 522/522/522 518/518/518 524/524/524
f 519/519/519 520/520/520 525/525/525
f 524/524/524 519/519/519 525/525/525
f 520/520/520 515/515/515 526/526/526
f 526/526/526 515/515/515 521/521/521
f 525/525/525 520/520/520 526/526/526
f 521/521/521 362/362/362 527/527/527
f 527/527/527 362/362/362 357/357/357
f 522/522/522 524/524/524 528/528/528
f 529/529/529 522/522/522 528/528/528
f 524/524/524 525/525/525 530/530/530
f 528/528/528 524/524/524 530/530/530
f 525/525/525 526/526/526 531/531/531
f 530/530/530 525/525/525 531/531/531
f 526/526/526 521/521/521 532/532/532
f 532/532/532 521/521/521 527/527/527
f 531/531/531 526/526/526 532/532/532
f 527/527/527 357/357/357 533/533/533
f 533/533/533 357/357/357 352/352/352
f 528/528/528 530/530/530 534/534/534
f 535/535/535 528/528/528 534/534/534
f 530/530/530 531/531/531 536/536/536
f 534/534/534 530/530/530 536/536/536
f 531/531/531 532/532/532 537/537/537
f 536/536/536 531/531/531 537/537/537
f 532/532/532 527/527/527 538/538/538
f 538/538/538 527/527/527 533/533/533
f 537/537/537 532/532/532 538/538/538
f 533/533/533 352/352/352 539/539/539
f 539/539/539 352/352/352 341/341/341
f 534/534/534 536/536/536 540/540/540
f 541/541/541 534/534/534 540/540/540
f 536/536/536 537/537/537 542/542/542
f 540/540/540 536/536/536 542/542/542
f 537/537/537 538/538/538 543/543/543
f 542/542/542 537/537/537 543/543/543
f 538/538/538 533/533/533 544/544/544
f 544/544/544 533/533/533 539/539/539
f 543/543/543 538/538/538 544/544/544
f 539/539/539 341/341/341 545/545/545
f 545/545/545 341/341/341 329/329/329
f 545/545/545 329/329/329 322/322/322
f 540/540/540 542/542/542 546/546/546
f 547/547/547 540/540/540 546/546/546
f 542/542/542 543/543/543 548/548/548
f 546/546/546 542/542/542 548/548/548
f 543/543/543 544/544/544 549/549/549
f 548/548/548 543/543/543 549/549/549
f 544/544/544 539/539/539 550/550/550
f 550/550/550 539/539/539 545/545/545
f 549/549/549 544/544/544 550/550/550
f 551/551/551 545/545/545 322/322/322
f 550/550/550 545/545/545 551/551/551
f 551/551/551 322/322/322 316/316/316
f 546/546/546 548/548/548 552/552/552
f 553/553/553 546/546/546 552/552/552
f 548/548/548 549/549/549 554/554/554
f 552/552/552 548/548/548 554/554/554
f 549/549/549 550/550/550 555/555/555
f 555/555/555 550/550/550 551/551/551
f 554/554/554 549/549/549 555/555/555
f 556/556/556 551/551/551 316/316/316
f 555/555/555 551/551/551 556/556/556
f 556/556/556 316/316/316 311/311/311
f 315/315/315 556/556/556 311/311/311
f 557/557/557 555/555/555 556/556/556
f 557/557/557 556/556/556 315/315/315
f 554/554/554 555/555/555 557/557/557
f 320/320/320 557/557/557 315/315/315
f 552/552/552 554/554/554 558/558/558
f 558/558/558 554/554/554 557/557/557
f 558/558/558 557/557/557 320/320/320
f 559/559/559 552/552/552 558/558/558
f 560/560/560 558/558/558 320/320/320
