# Converted from fxm_Spiral_004.asset
o fxm_Spiral_004
v 0.353553295 5.99293089 0.612090647
v 0.217511013 -3.45350885 -0.204092324
v 0.353553295 -3.45350814 0.612654209
v 0.217510998 5.99293089 -0.204655915
v 0.423162907 5.99292994 -0.985184669
v 0.423162907 -3.45350909 -0.984621108
v 1.56438959 5.99292994 -2.05679631
v 1.56438959 -3.45351028 -2.05623269
v 3.12251616 -3.45351076 -2.31029153
v 3.12251616 5.99292898 -2.31085515
v 4.65581036 5.99292898 -1.8575995
v 4.65581036 -3.45351124 -1.85703599
v 6.90121794 5.99292707 0.440069526
v 6.90121794 -3.45351243 0.440633118
v 7.70200109 5.9929266 3.61691189
v 7.70200062 -3.45351338 3.61747551
v 7.17698479 -3.4535141 6.72614288
v 7.17698479 5.99292612 6.72557974
v 5.61719942 5.99292469 9.49446392
v 5.61719942 -3.45351434 9.49502754
v 3.28001547 5.99292421 11.6758471
v 3.28001523 -3.45351505 11.6764107
v 0.42023173 5.99292421 13.1383553
v 0.4202317 -3.45351577 13.1389198
v -2.71649313 -3.45351624 13.8307638
v -2.71649313 5.99292278 13.8302002
v -5.93796062 5.99292326 13.7642012
v -5.93796062 -3.45351672 13.7647638
v -9.07322407 5.99292326 12.9850025
v -9.07322407 -3.45351744 12.9855661
v -11.982419 5.99292231 11.5634031
v -11.982419 -3.45351744 11.5639658
v -14.5523329 -3.45351791 9.5901947
v -14.5523329 5.99292231 9.58963108
v -16.7038898 5.99292183 7.15907621
v -16.7038898 -3.45351863 7.15964031
v -18.3787479 5.99292183 4.37267303
v -18.3787479 -3.45351887 4.37323666
v -19.5403252 5.99292088 1.33151507
v -19.5403252 -3.45351911 1.3320787
v -20.1710739 -3.45351958 -1.86382627
v -20.1710739 5.9929204 -1.86438978
v -20.2708435 5.99291897 -5.12415886
v -20.2708435 -3.45352006 -5.12359476
v -19.852272 5.99291897 -8.36188602
v -19.852272 -3.45352054 -8.3613224
v -18.939579 5.99291849 -11.4994898
v -18.939579 -3.45352077 -11.4989271
v -17.5672283 -3.45352101 -14.466361
v -17.5672283 5.99291897 -14.4669247
v -15.7759209 5.99291801 -17.2051525
v -15.7759209 -3.45352125 -17.2045898
v -13.6122494 5.99291849 -19.6628838
v -13.6122494 -3.45352173 -19.6623192
v -11.1270905 5.99291849 -21.7986145
v -11.1270905 -3.45352197 -21.7980518
v -8.37427711 -3.45352221 -23.5781879
v -8.37427711 5.99291754 -23.5787525
v -5.40807915 5.99291754 -24.9791279
v -5.40807915 -3.45352268 -24.9785633
v -2.28340793 5.99291754 -25.9836292
v -2.28340793 -3.45352292 -25.9830666
v 0.945303619 5.99291754 -26.5826988
v 0.945303619 -3.45352316 -26.5821362
v 4.22472477 -3.4535234 -26.7742043
v 4.22472477 5.99291658 -26.7747669
v 7.50455904 5.99291754 -26.5638371
v 7.50455904 -3.4535234 -26.5632725
v 10.7367229 5.99291658 -25.9599991
v 10.7367229 -3.45352411 -25.9594345
v 13.8763905 5.99291468 -24.9782314
v 13.8763905 -3.45352435 -24.9776688
v 16.8815556 -3.45352435 -23.6374435
v 16.8815556 5.99291468 -23.6380043
v 19.7152328 5.99291468 -21.9626503
v 19.7152328 -3.45352459 -21.9620876
v 22.3432713 5.9929142 -19.9784012
v 22.3432713 -3.45352507 -19.9778366
v 24.7365055 5.99291325 -17.7145691
v 24.7365055 -3.4535253 -17.7140064
v 26.8686905 -3.45352554 -15.2018414
v 26.8686905 5.99291325 -15.2024059
v 28.7192421 5.99291325 -12.4746418
v 28.7192421 -3.45352554 -12.4740782
v 30.2702732 5.99291372 -9.56509018
v 30.2702732 -3.45352602 -9.56452656
v 31.509079 5.99291372 -6.50829458
v 31.509079 -3.45352626 -6.50773096
v 32.4256821 -3.45352626 -3.33874011
v 32.4256821 5.99291325 -3.33930373
v 33.0149689 5.99291182 -0.0924240872
v 33.0149689 -3.4535265 -0.0918605179
v 33.2745171 5.99291134 3.19807339
v 33.2745171 -3.45352674 3.19863701
v 33.2057762 5.99291086 6.49900055
v 33.2057762 -3.45352674 6.49956417
v 32.8132095 -3.45352721 9.77839947
v 32.8132095 5.99291182 9.77783585
v 32.1039886 5.99291134 13.0038414
v 32.1039886 -3.45352745 13.004405
v 31.0885143 5.99290991 16.1477795
v 31.0885143 -3.45352745 16.148344
v 29.778801 5.99291086 19.181673
v 29.778801 -3.45352769 19.1822376
v 28.190176 -3.45352817 22.0806313
v 28.190176 5.99291134 22.0800686
v 26.3387547 5.99291086 24.8187466
v 26.3387547 -3.45352817 24.8193111
v 24.2432861 5.99290991 27.376564
v 24.2432861 -3.4535284 27.3771286
v 21.9234715 5.99290943 29.7336121
v 21.9234715 -3.45352864 29.7341747
v 19.4004822 -3.45352864 31.8731709
v 19.4004822 5.99290943 31.8726063
v 16.6965141 5.99290991 33.7788429
v 16.6965141 -3.45352888 33.7794075
v 13.8342562 5.99290895 35.438942
v 13.8342562 -3.45352888 35.4395065
v 10.8373384 5.99290991 36.8430977
v 10.8373384 -3.4535296 36.8436623
v 7.72966528 -3.4535296 37.9828987
v 7.72966528 5.99290943 37.9823341
v 4.53511381 5.99290943 38.8508911
v 4.53511381 -3.4535296 38.8514557
v 1.2777549 5.99290943 39.4449387
v 1.2777549 -3.45352983 39.4455032
v -2.0185442 5.99290895 39.7619781
v -2.0185442 -3.45353031 39.7625389
v -5.33033133 -3.45353031 39.8033752
v -5.33033133 5.99290943 39.8028107
v -8.63450336 5.99290895 39.5689278
v -8.63450336 -3.45353055 39.5694923
v -11.908783 5.99290895 39.0642242
v -11.908783 -3.45353079 39.0647888
v -15.13165 5.99290895 38.29459
v -15.13165 -3.45353079 38.2951546
v -18.2819138 -3.45353103 37.2671165
v -18.2819138 5.992908 37.266552
v -21.3402119 5.99290752 35.9892464
v -21.3402119 -3.45353103 35.9898071
v -24.2876263 5.99290705 34.4725952
v -24.2876263 -3.4535315 34.4731598
v -27.1062717 5.99290752 32.7275734
v -27.1062717 -3.4535315 32.728138
v -29.780138 -3.45353174 30.7677097
v -29.780138 5.99290752 30.7671452
v -32.2936592 5.99290752 28.6044598
v -32.2936592 -3.45353198 28.6050243
v -34.6329727 5.99290705 26.2538719
v -34.6329727 -3.45353198 26.2544346
v -36.7859268 5.99290657 23.7308483
v -36.7859268 -3.45353222 23.7314129
v -38.7406502 -3.45353222 21.0515938
v -38.7406502 5.99290705 21.0510292
v -40.487648 5.99290657 18.2308922
v -40.487648 -3.4535327 18.2314548
v -42.0187111 5.99290657 15.287447
v -42.0187111 -3.45353293 15.2880096
v -43.3260689 5.99290562 12.2377825
v -43.3260689 -3.45353293 12.2383461
v -44.4044914 -3.45353317 9.10002518
v -44.4044914 5.99290514 9.09946156
v -45.2497597 5.99290562 5.89008188
v -45.2497597 -3.45353365 5.89064503
v -45.8581886 5.99290562 2.62727189
v -45.8581886 -3.45353365 2.62783527
v -46.2286377 5.99290514 -0.671462595
v -46.2286377 -3.45353389 -0.670899093
v -46.3607025 -3.45353389 -3.9880352
v -46.3607025 5.99290514 -3.98859882
v -46.2545738 5.99290466 -7.30687523
v -46.2545738 -3.45353413 -7.30631161
v -45.912796 5.99290466 -10.6096144
v -45.912796 -3.45353413 -10.6090498
v -45.3385506 5.99290466 -13.8803024
v -45.3385506 -3.45353436 -13.8797398
v -44.5354805 -3.45353484 -17.1020927
v -44.5354805 5.99290466 -17.1026573
v -43.5093651 5.99290371 -20.2614574
v -43.5093651 -3.45353484 -20.2608948
v -42.266571 5.99290371 -23.3417759
v -42.266571 -3.45353508 -23.3412132
v -40.8137665 5.99290371 -26.3289394
v -40.8137665 -3.45353508 -26.3283768
v -39.15942 -3.45353532 -29.2090492
v -39.15942 5.99290371 -29.2096138
v -37.3124619 5.99290323 -31.9712791
v -37.3124619 -3.4535358 -31.9707146
v -35.2820473 5.99290276 -34.6014175
v -35.2820473 -3.4535358 -34.600853
v -33.0786896 5.99290371 -37.0888481
v -33.0786896 -3.45353603 -37.0882835
v -30.713335 -3.45353603 -39.4227829
v -30.713335 5.99290371 -39.4233475
v -28.197506 5.99290276 -41.5942459
v -28.197506 -3.45353603 -41.5936813
v -25.5429192 5.99290323 -43.5933456
v -25.5429192 -3.45353627 -43.5927811
v -22.7616787 5.99290276 -45.4143333
v -22.7616787 -3.45353651 -45.4137726
v -19.86656 -3.45353651 -47.0500641
v -19.86656 5.99290276 -47.0506248
v -16.8701115 5.99290276 -48.4956436
v -16.8701115 -3.45353651 -48.4950752
v -13.7871799 5.99290228 -49.7411613
v -13.7871799 -3.45353699 -49.7406006
v -10.6327753 5.99290228 -50.7788429
v -10.6327753 -3.45353723 -50.7782745
vt 0 0
vt 0.00264090835 1
vt 0 1
vt 0.00264090835 0
vt 0.0052818167 0
vt 0.0052818167 1
vt 0.0105636334 0
vt 0.0105636334 1
vt 0.0158454496 1
vt 0.0158454496 0
vt 0.0211272668 0
vt 0.0211272668 1
vt 0.0316908993 0
vt 0.0316908993 1
vt 0.0422545336 0
vt 0.0422545336 1
vt 0.0522926822 1
vt 0.0522926822 0
vt 0.0623308308 0
vt 0.0623308308 1
vt 0.0723689795 0
vt 0.0723689795 1
vt 0.0824071318 0
vt 0.0824071318 1
vt 0.0924074203 1
vt 0.0924074203 0
vt 0.102407709 0
vt 0.102407709 1
vt 0.112407997 0
vt 0.112407997 1
vt 0.122408293 0
vt 0.122408293 1
vt 0.132396385 1
vt 0.132396385 0
vt 0.14238447 0
vt 0.14238447 1
vt 0.152372569 0
vt 0.152372569 1
vt 0.162360653 0
vt 0.162360653 1
vt 0.172342822 1
vt 0.172342822 0
vt 0.182325006 0
vt 0.182325006 1
vt 0.192307174 0
vt 0.192307174 1
vt 0.202289358 0
vt 0.202289358 1
vt 0.212268025 1
vt 0.212268025 0
vt 0.222246706 0
vt 0.222246706 1
vt 0.232225373 0
vt 0.232225373 1
vt 0.242204055 0
vt 0.242204055 1
vt 0.252180576 1
vt 0.252180576 0
vt 0.262157083 0
vt 0.262157083 1
vt 0.272133619 0
vt 0.272133619 1
vt 0.282110125 0
vt 0.282110125 1
vt 0.292085052 1
vt 0.292085052 0
vt 0.302059948 0
vt 0.302059948 1
vt 0.312034875 0
vt 0.312034875 1
vt 0.322009772 0
vt 0.322009772 1
vt 0.331983566 1
vt 0.331983566 0
vt 0.341957361 0
vt 0.341957361 1
vt 0.351931125 0
vt 0.351931125 1
vt 0.361904919 0
vt 0.361904919 1
vt 0.371877849 1
vt 0.371877849 0
vt 0.381850749 0
vt 0.381850749 1
vt 0.391823679 0
vt 0.391823679 1
vt 0.401796609 0
vt 0.401796609 1
vt 0.411768824 1
vt 0.411768824 0
vt 0.421741068 0
vt 0.421741068 1
vt 0.431713313 0
vt 0.431713313 1
vt 0.441685557 0
vt 0.441685557 1
vt 0.451657236 1
vt 0.451657236 0
vt 0.461628914 0
vt 0.461628914 1
vt 0.471600592 0
vt 0.471600592 1
vt 0.48157227 0
vt 0.48157227 1
vt 0.491543502 1
vt 0.491543502 0
vt 0.501514733 0
vt 0.501514733 1
vt 0.511485934 0
vt 0.511485934 1
vt 0.521457136 0
vt 0.521457136 1
vt 0.531427979 1
vt 0.531427979 0
vt 0.541398823 0
vt 0.541398823 1
vt 0.551369667 0
vt 0.551369667 1
vt 0.561340511 0
vt 0.561340511 1
vt 0.571311057 1
vt 0.571311057 0
vt 0.581281602 0
vt 0.581281602 1
vt 0.591252148 0
vt 0.591252148 1
vt 0.601222694 0
vt 0.601222694 1
vt 0.611192942 1
vt 0.611192942 0
vt 0.621163189 0
vt 0.621163189 1
vt 0.631133378 0
vt 0.631133378 1
vt 0.641103625 0
vt 0.641103625 1
vt 0.651073694 1
vt 0.651073694 0
vt 0.661043704 0
vt 0.661043704 1
vt 0.671013772 0
vt 0.671013772 1
vt 0.680983782 0
vt 0.680983782 1
vt 0.690953553 1
vt 0.690953553 0
vt 0.700923383 0
vt 0.700923383 1
vt 0.710893154 0
vt 0.710893154 1
vt 0.720862925 0
vt 0.720862925 1
vt 0.730832577 1
vt 0.730832577 0
vt 0.740802228 0
vt 0.740802228 1
vt 0.75077188 0
vt 0.75077188 1
vt 0.760741591 0
vt 0.760741591 1
vt 0.770711005 1
vt 0.770711005 0
vt 0.780680478 0
vt 0.780680478 1
vt 0.790649951 0
vt 0.790649951 1
vt 0.800619423 0
vt 0.800619423 1
vt 0.810588717 1
vt 0.810588717 0
vt 0.820558012 0
vt 0.820558012 1
vt 0.830527306 0
vt 0.830527306 1
vt 0.8404966 0
vt 0.8404966 1
vt 0.850465894 1
vt 0.850465894 0
vt 0.860435188 0
vt 0.860435188 1
vt 0.870404482 0
vt 0.870404482 1
vt 0.880373716 0
vt 0.880373716 1
vt 0.890342534 1
vt 0.890342534 0
vt 0.900311291 0
vt 0.900311291 1
vt 0.910280108 0
vt 0.910280108 1
vt 0.920248866 0
vt 0.920248866 1
vt 0.930218875 1
vt 0.930218875 0
vt 0.940188825 0
vt 0.940188825 1
vt 0.950158834 0
vt 0.950158834 1
vt 0.960128784 0
vt 0.960128784 1
vt 0.970096588 1
vt 0.970096588 0
vt 0.980064392 0
vt 0.980064392 1
vt 0.990032196 0
vt 0.990032196 1
vt 1 0
vt 1 1
vn 0.986409962 -9.8041528e-06 -0.164302528
vn 0.999052107 2.59709986e-06 0.043531023
vn 0.986409962 -9.80415189e-06 -0.164302513
vn 0.999051392 2.59804142e-06 0.0435467809
vn 0.808758974 3.50911287e-05 0.588140309
vn 0.808768332 3.50903574e-05 0.588127375
vn 0.440811753 5.35524377e-05 0.897599518
vn 0.440820456 5.3552194e-05 0.897595286
vn -0.0643025115 5.95327947e-05 0.997930527
vn -0.0643013343 5.95327947e-05 0.997930527
vn -0.588556767 4.82304749e-05 0.808455884
vn -0.588563859 4.82301693e-05 0.808450699
vn -0.873827875 2.90341504e-05 0.486235321
vn -0.873836339 2.90332464e-05 0.486220211
vn -0.999038577 2.67618748e-06 0.0438390747
vn -0.999039292 2.67525502e-06 0.043823421
vn -0.942465246 -1.99095102e-05 -0.334304273
vn -0.942469358 -1.99088099e-05 -0.33429262
vn -0.785744607 -3.68847504e-05 -0.618551135
vn -0.785738945 -3.68851724e-05 -0.618558288
vn -0.574100614 -4.88463957e-05 -0.818784773
vn -0.574095666 -4.88466139e-05 -0.81878823
vn -0.338111013 -5.61816305e-05 -0.94110626
vn -0.338107854 -5.61816923e-05 -0.941107333
vn -0.097957179 -5.93801051e-05 -0.99519062
vn -0.0979580581 -5.93801051e-05 -0.995190501
vn 0.131801918 -5.91101561e-05 -0.991276026
vn 0.13180083 -5.91101671e-05 -0.991276145
vn 0.342130601 -5.60629342e-05 -0.939652443
vn 0.342128038 -5.60629851e-05 -0.939653277
vn 0.526753604 -5.07091463e-05 -0.850018024
vn 0.526750207 -5.07092736e-05 -0.850020111
vn 0.682119489 -4.36315822e-05 -0.731240809
vn 0.682123125 -4.36313931e-05 -0.731237411
vn 0.806359053 -3.5335619e-05 -0.591426194
vn 0.806355774 -3.53358882e-05 -0.591430783
vn 0.899151146 -2.61064943e-05 -0.437638193
vn 0.899148524 -2.61068199e-05 -0.437643558
vn 0.961104095 -1.65675192e-05 -0.276186466
vn 0.961102366 -1.65678648e-05 -0.276192456
vn 0.993658006 -6.75742285e-06 -0.112444654
vn 0.993658721 -6.75704314e-06 -0.112438515
vn 0.99879837 3.02833246e-06 0.049009297
vn 0.998798609 3.02797571e-06 0.049003277
vn 0.978885591 1.23414939e-05 0.204408869
vn 0.978886724 1.23411528e-05 0.204403281
vn 0.93654716 2.10463149e-05 0.350541502
vn 0.936549067 2.10460221e-05 0.350536525
vn 0.874558806 2.8919625e-05 0.484919488
vn 0.874556541 2.89198742e-05 0.48492372
vn 0.795714438 3.60826198e-05 0.605671883
vn 0.79571712 3.60824197e-05 0.605668604
vn 0.702856719 4.24428908e-05 0.711331427
vn 0.702859342 4.24427344e-05 0.711328864
vn 0.598764062 4.78059446e-05 0.800925553
vn 0.598766506 4.78058355e-05 0.800923586
vn 0.486027688 5.21600268e-05 0.873943448
vn 0.486025542 5.21600959e-05 0.873944581
vn 0.367243469 5.55270453e-05 0.930124819
vn 0.367245197 5.55270126e-05 0.930124223
vn 0.244721115 5.78841136e-05 0.969593525
vn 0.244722232 5.78840845e-05 0.969593167
vn 0.120672889 5.92657561e-05 0.992692292
vn 0.12067344 5.92657561e-05 0.992692292
vn -0.00287570758 5.97018661e-05 0.999995947
vn -0.00287569268 5.97018661e-05 0.999995947
vn -0.124150373 5.92387769e-05 0.992263436
vn -0.124150932 5.92387696e-05 0.992263317
vn -0.241481006 5.79333137e-05 0.970405459
vn -0.241482124 5.79333027e-05 0.970405221
vn -0.353481084 5.5779441e-05 0.935441673
vn -0.353482544 5.57794119e-05 0.935441077
vn -0.458882242 5.28867058e-05 0.888497055
vn -0.458880395 5.28867604e-05 0.888498008
vn -0.556641877 4.94935084e-05 0.830752552
vn -0.556643903 4.9493432e-05 0.83075124
vn -0.645880103 4.54561523e-05 0.763438821
vn -0.645882189 4.54560468e-05 0.763437033
vn -0.725891352 4.09143504e-05 0.687809408
vn -0.725893438 4.09142231e-05 0.687807262
vn -0.796134353 3.604007e-05 0.605119824
vn -0.796132445 3.60402373e-05 0.605122447
vn -0.856203377 3.07553964e-05 0.516639054
vn -0.856205106 3.07552145e-05 0.516636014
vn -0.905859709 2.52213267e-05 0.423577815
vn -0.905861318 2.52211357e-05 0.423574537
vn -0.944970071 1.94357835e-05 0.327156842
vn -0.944971263 1.94355689e-05 0.327153265
vn -0.973543525 1.36206772e-05 0.228501469
vn -0.97354275 1.36208882e-05 0.228505164
vn -0.991675258 7.49760329e-06 0.128764451
vn -0.991675735 7.49735682e-06 0.128760666
vn -0.999581158 1.62054175e-06 0.0289380699
vn -0.999581277 1.62034439e-06 0.0289342925
vn -0.997551501 -4.30113323e-06 -0.0699363202
vn -0.997551262 -4.30138425e-06 -0.069940038
vn -0.985956311 -1.02170252e-05 -0.167003036
vn -0.985957026 -1.02168315e-05 -0.166999429
vn -0.965245843 -1.56161914e-05 -0.261343271
vn -0.965244949 -1.56164006e-05 -0.261346698
vn -0.935905695 -2.1062322e-05 -0.352250725
vn -0.935904443 -2.10625076e-05 -0.352253854
vn -0.898497999 -2.61797722e-05 -0.438977718
vn -0.898496509 -2.61799378e-05 -0.43898052
vn -0.853606522 -3.10306277e-05 -0.520918369
vn -0.853608072 -3.10304749e-05 -0.520915806
vn -0.801848888 -3.55969059e-05 -0.597526789
vn -0.801847279 -3.55970442e-05 -0.597529054
vn -0.743903935 -3.97802869e-05 -0.668286562
vn -0.743902326 -3.97803997e-05 -0.66828835
vn -0.680383146 -4.36113696e-05 -0.732856452
vn -0.680381536 -4.36114751e-05 -0.732858062
vn -0.612035811 -4.71574494e-05 -0.790829957
vn -0.612037539 -4.7157373e-05 -0.790828705
vn -0.539478421 -5.02859875e-05 -0.841999412
vn -0.539476931 -5.0286053e-05 -0.842000365
vn -0.463433236 -5.29008357e-05 -0.886131883
vn -0.463431895 -5.29008794e-05 -0.886132538
vn -0.384591818 -5.50951336e-05 -0.923086762
vn -0.384590626 -5.50951627e-05 -0.923087239
vn -0.303552598 -5.68772157e-05 -0.952814698
vn -0.303553492 -5.68771829e-05 -0.952814341
vn -0.221083954 -5.82198081e-05 -0.975254774
vn -0.221083269 -5.8219819e-05 -0.975255013
vn -0.137695178 -5.90665441e-05 -0.990474641
vn -0.137694746 -5.90665477e-05 -0.990474761
vn -0.0540784709 -5.94848243e-05 -0.998536706
vn -0.0540782996 -5.94848279e-05 -0.998536706
vn 0.0291668139 -5.96109858e-05 -0.999574602
vn 0.0291669071 -5.96109858e-05 -0.999574602
vn 0.111572579 -5.93262521e-05 -0.993756294
vn 0.111572228 -5.93262557e-05 -0.993756294
vn 0.192470238 -5.85811649e-05 -0.981302798
vn 0.192469656 -5.85811758e-05 -0.981302917
vn 0.271477669 -5.74560145e-05 -0.962444782
vn 0.271476895 -5.7456029e-05 -0.962445021
vn 0.348094136 -5.59542968e-05 -0.937459588
vn 0.348095179 -5.59542787e-05 -0.937459171
vn 0.421805501 -5.41104346e-05 -0.906686306
vn 0.421804309 -5.41104673e-05 -0.906686842
vn 0.492354602 -5.19640671e-05 -0.870394647
vn 0.49235332 -5.1964118e-05 -0.870395422
vn 0.559267044 -4.94724518e-05 -0.828987539
vn 0.559265614 -4.94725027e-05 -0.828988433
vn 0.622225225 -4.67092323e-05 -0.782838225
vn 0.622226655 -4.67091668e-05 -0.782837212
vn 0.681024134 -4.37086564e-05 -0.732260942
vn 0.681022704 -4.37087401e-05 -0.732262313
vn 0.73528862 -4.04188904e-05 -0.677754045
vn 0.735287189 -4.04189814e-05 -0.677755594
vn 0.784870923 -3.70205926e-05 -0.619659126
vn 0.784869611 -3.70206944e-05 -0.619660974
vn 0.829599261 -3.34584511e-05 -0.558359325
vn 0.829600632 -3.34583383e-05 -0.558357298
vn 0.869243383 -2.96149756e-05 -0.494384438
vn 0.869242132 -2.96151029e-05 -0.494386554
vn 0.903762877 -2.56620606e-05 -0.428033322
vn 0.903761864 -2.56621988e-05 -0.428035676
vn 0.933053493 -2.14164684e-05 -0.359737903
vn 0.933052421 -2.14166284e-05 -0.359740317
vn 0.957017839 -1.71097672e-05 -0.290028781
vn 0.957018733 -1.71096217e-05 -0.290026248
vn 0.975692153 -1.30519811e-05 -0.219145417
vn 0.975691617 -1.30521321e-05 -0.219148099
vn 0.98905468 -8.55954931e-06 -0.147549674
vn 0.989054203 -8.55973485e-06 -0.147552341
vn 0.997127831 -4.43672798e-06 -0.0757364035
vn 0.997127712 -4.43685258e-06 -0.0757391155
vn 0.999992371 -4.92115817e-07 -0.00391028589
vn 0.999992371 -4.91941307e-07 -0.00390756363
vn 0.997719467 4.06963272e-06 0.0674961135
vn 0.997719705 4.06946219e-06 0.0674934238
vn 0.990429401 8.24079689e-06 0.138020411
vn 0.990429699 8.24065319e-06 0.138017759
vn 0.978233755 1.24513263e-05 0.207505822
vn 0.978234351 1.24511562e-05 0.207503289
vn 0.961285293 1.66081099e-05 0.275555074
vn 0.961284518 1.66082464e-05 0.275557518
vn 0.939786255 2.05472406e-05 0.34176293
vn 0.93978709 2.05470933e-05 0.341760635
vn 0.913870275 2.44588009e-05 0.406006366
vn 0.913871288 2.44586754e-05 0.40600419
vn 0.883746922 2.78908774e-05 0.467965007
vn 0.883748055 2.78907646e-05 0.46796298
vn 0.849697411 3.14376848e-05 0.527270615
vn 0.849696279 3.14378085e-05 0.527272463
vn 0.81187129 3.4907629e-05 0.583836496
vn 0.811872542 3.49075381e-05 0.583834767
vn 0.770501673 3.80049205e-05 0.637438059
vn 0.770502865 3.80048259e-05 0.637436509
vn 0.725909233 4.11016881e-05 0.687790453
vn 0.725910544 4.11016081e-05 0.687789083
vn 0.678255439 4.39645373e-05 0.734826148
vn 0.678254187 4.39646137e-05 0.734827399
vn 0.627779841 4.64957302e-05 0.778390884
vn 0.627781153 4.64956684e-05 0.778389931
vn 0.57497704 4.8723552e-05 0.818169534
vn 0.574978232 4.87235011e-05 0.818168759
vn 0.520177245 5.075636e-05 0.854058325
vn 0.520178378 5.07563236e-05 0.85405767
vn 0.463446677 5.27798366e-05 0.88612473
vn 0.463445723 5.27798657e-05 0.886125326
vn 0.404705107 5.45858311e-05 0.914447248
vn 0.404706091 5.45858093e-05 0.91444689
vn 0.343747407 5.60481749e-05 0.939062119
vn 0.343748271 5.60481603e-05 0.939061821
vn 0.312488943 5.66978852e-05 0.949921429
vn 0.312488943 5.66978742e-05 0.949921429
f 1/1/1 3/3/3 2/2/2
f 1/1/1 2/2/2 4/4/4
f 2/2/2 5/5/5 4/4/4
f 2/2/2 6/6/6 5/5/5
f 7/7/7 5/5/5 6/6/6
f 7/7/7 6/6/6 8/8/8
f 7/7/7 8/8/8 9/9/9
f 7/7/7 9/9/9 10/10/10
f 11/11/11 10/10/10 9/9/9
f 11/11/11 9/9/9 12/12/12
f 12/12/12 13/13/13 11/11/11
f 12/12/12 14/14/14 13/13/13
f 14/14/14 15/15/15 13/13/13
f 14/14/14 16/16/16 15/15/15
f 15/15/15 16/16/16 17/17/17
f 15/15/15 17/17/17 18/18/18
f 17/17/17 19/19/19 18/18/18
f 17/17/17 20/20/20 19/19/19
f 20/20/20 21/21/21 19/19/19
f 20/20/20 22/22/22 21/21/21
f 22/22/22 23/23/23 21/21/21
f 22/22/22 24/24/24 23/23/23
f 23/23/23 24/24/24 25/25/25
f 23/23/23 25/25/25 26/26/26
f 25/25/25 27/27/27 26/26/26
f 25/25/25 28/28/28 27/27/27
f 28/28/28 29/29/29 27/27/27
f 28/28/28 30/30/30 29/29/29
f 30/30/30 31/31/31 29/29/29
f 30/30/30 32/32/32 31/31/31
f 31/31/31 32/32/32 33/33/33
f 31/31/31 33/33/33 34/34/34
f 33/33/33 35/35/35 34/34/34
f 33/33/33 36/36/36 35/35/35
f 36/36/36 37/37/37 35/35/35
f 36/36/36 38/38/38 37/37/37
f 38/38/38 39/39/39 37/37/37
f 38/38/38 40/40/40 39/39/39
f 39/39/39 40/40/40 41/41/41
f 39/39/39 41/41/41 42/42/42
f 41/41/41 43/43/43 42/42/42
f 41/41/41 44/44/44 43/43/43
f 44/44/44 45/45/45 43/43/43
f 44/44/44 46/46/46 45/45/45
f 46/46/46 47/47/47 45/45/45
f 46/46/46 48/48/48 47/47/47
f 47/47/47 48/48/48 49/49/49
f 47/47/47 49/49/49 50/50/50
f 49/49/49 51/51/51 50/50/50
f 49/49/49 52/52/52 51/51/51
f 52/52/52 53/53/53 51/51/51
f 52/52/52 54/54/54 53/53/53
f 54/54/54 55/55/55 53/53/53
f 54/54/54 56/56/56 55/55/55
f 55/55/55 56/56/56 57/57/57
f 55/55/55 57/57/57 58/58/58
f 57/57/57 59/59/59 58/58/58
f 57/57/57 60/60/60 59/59/59
f 60/60/60 61/61/61 59/59/59
f 60/60/60 62/62/62 61/61/61
f 62/62/62 63/63/63 61/61/61
f 62/62/62 64/64/64 63/63/63
f 63/63/63 64/64/64 65/65/65
f 63/63/63 65/65/65 66/66/66
f 65/65/65 67/67/67 66/66/66
f 65/65/65 68/68/68 67/67/67
f 68/68/68 69/69/69 67/67/67
f 68/68/68 70/70/70 69/69/69
f 70/70/70 71/71/71 69/69/69
f 70/70/70 72/72/72 71/71/71
f 71/71/71 72/72/72 73/73/73
f 71/71/71 73/73/73 74/74/74
f 73/73/73 75/75/75 74/74/74
f 73/73/73 76/76/76 75/75/75
f 76/76/76 77/77/77 75/75/75
f 76/76/76 78/78/78 77/77/77
f 78/78/78 79/79/79 77/77/77
f 78/78/78 80/80/80 79/79/79
f 79/79/79 80/80/80 81/81/81
f 79/79/79 81/81/81 82/82/82
f 81/81/81 83/83/83 82/82/82
f 81/81/81 84/84/84 83/83/83
f 84/84/84 85/85/85 83/83/83
f 84/84/84 86/86/86 85/85/85
f 86/86/86 87/87/87 85/85/85
f 86/86/86 88/88/88 87/87/87
f 87/87/87 88/88/88 89/89/89
f 87/87/87 89/89/89 90/90/90
f 89/89/89 91/91/91 90/90/90
f 89/89/89 92/92/92 91/91/91
f 92/92/92 93/93/93 91/91/91
f 92/92/92 94/94/94 93/93/93
f 94/94/94 95/95/95 93/93/93
f 94/94/94 96/96/96 95/95/95
f 95/95/95 96/96/96 97/97/97
f 95/95/95 97/97/97 98/98/98
f 97/97/97 99/99/99 98/98/98
f 97/97/97 100/100/100 99/99/99
f 100/100/100 101/101/101 99/99/99
f 100/100/100 102/102/102 101/101/101
f 102/102/102 103/103/103 101/101/101
f 102/102/102 104/104/104 103/103/103
f 103/103/103 104/104/104 105/105/105
f 103/103/103 105/105/105 106/106/106
f 105/105/105 107/107/107 106/106/106
f 105/105/105 108/108/108 107/107/107
f 108/108/108 109/109/109 107/107/107
f 108/108/108 110/110/110 109/109/109
f 110/110/110 111/111/111 109/109/109
f 110/110/110 112/112/112 111/111/111
f 111/111/111 112/112/112 113/113/113
f 111/111/111 113/113/113 114/114/114
f 113/113/113 115/115/115 114/114/114
f 113/113/113 116/116/116 115/115/115
f 116/116/116 117/117/117 115/115/115
f 116/116/116 118/118/118 117/117/117
f 118/118/118 119/119/119 117/117/117
f 118/118/118 120/120/120 119/119/119
f 119/119/119 120/120/120 121/121/121
f 119/119/119 121/121/121 122/122/122
f 121/121/121 123/123/123 122/122/122
f 121/121/121 124/124/124 123/123/123
f 124/124/124 125/125/125 123/123/123
f 124/124/124 126/126/126 125/125/125
f 126/126/126 127/127/127 125/125/125
f 126/126/126 128/128/128 127/127/127
f 127/127/127 128/128/128 129/129/129
f 127/127/127 129/129/129 130/130/130
f 129/129/129 131/131/131 130/130/130
f 129/129/129 132/132/132 131/131/131
f 132/132/132 133/133/133 131/131/131
f 132/132/132 134/134/134 133/133/133
f 134/134/134 135/135/135 133/133/133
f 134/134/134 136/136/136 135/135/135
f 135/135/135 136/136/136 137/137/137
f 135/135/135 137/137/137 138/138/138
f 137/137/137 139/139/139 138/138/138
f 137/137/137 140/140/140 139/139/139
f 140/140/140 141/141/141 139/139/139
f 140/140/140 142/142/142 141/141/141
f 142/142/142 143/143/143 141/141/141
f 142/142/142 144/144/144 143/143/143
f 143/143/143 144/144/144 145/145/145
f 143/143/143 145/145/145 146/146/146
f 145/145/145 147/147/147 146/146/146
f 145/145/145 148/148/148 147/147/147
f 148/148/148 149/149/149 147/147/147
f 148/148/148 150/150/150 149/149/149
f 150/150/150 151/151/151 149/149/149
f 150/150/150 152/152/152 151/151/151
f 151/151/151 152/152/152 153/153/153
f 151/151/151 153/153/153 154/154/154
f 153/153/153 155/155/155 154/154/154
f 153/153/153 156/156/156 155/155/155
f 156/156/156 157/157/157 155/155/155
f 156/156/156 158/158/158 157/157/157
f 158/158/158 159/159/159 157/157/157
f 158/158/158 160/160/160 159/159/159
f 159/159/159 160/160/160 161/161/161
f 159/159/159 161/161/161 162/162/162
f 161/161/161 163/163/163 162/162/162
f 161/161/161 164/164/164 163/163/163
f 164/164/164 165/165/165 163/163/163
f 164/164/164 166/166/166 165/165/165
f 166/166/166 167/167/167 165/165/165
f 166/166/166 168/168/168 167/167/167
f 167/167/167 168/168/168 169/169/169
f 167/167/167 169/169/169 170/170/170
f 169/169/169 171/171/171 170/170/170
f 169/169/169 172/172/172 171/171/171
f 172/172/172 173/173/173 171/171/171
f 172/172/172 174/174/174 173/173/173
f 174/174/174 175/175/175 173/173/173
f 174/174/174 176/176/176 175/175/175
f 175/175/175 176/176/176 177/177/177
f 175/175/175 177/177/177 178/178/178
f 177/177/177 179/179/179 178/178/178
f 177/177/177 180/180/180 179/179/179
f 180/180/180 181/181/181 179/179/179
f 180/180/180 182/182/182 181/181/181
f 182/182/182 183/183/183 181/181/181
f 182/182/182 184/184/184 183/183/183
f 183/183/183 184/184/184 185/185/185
f 183/183/183 185/185/185 186/186/186
f 185/185/185 187/187/187 186/186/186
f 185/185/185 188/188/188 187/187/187
f 188/188/188 189/189/189 187/187/187
f 188/188/188 190/190/190 189/189/189
f 190/190/190 191/191/191 189/189/189
f 190/190/190 192/192/192 191/191/191
f 191/191/191 192/192/192 193/193/193
f 191/191/191 193/193/193 194/194/194
f 193/193/193 195/195/195 194/194/194
f 193/193/193 196/196/196 195/195/195
f 196/196/196 197/197/197 195/195/195
f 196/196/196 198/198/198 197/197/197
f 198/198/198 199/199/199 197/197/197
f 198/198/198 200/200/200 199/199/199
f 199/199/199 200/200/200 201/201/201
f 199/199/199 201/201/201 202/202/202
f 201/201/201 203/203/203 202/202/202
f 201/201/201 204/204/204 203/203/203
f 204/204/204 205/205/205 203/203/203
f 204/204/204 206/206/206 205/205/205
f 206/206/206 207/207/207 205/205/205
f 206/206/206 208/208/208 207/207/207
