# Converted from XYZInMesh01.asset
o XYZInMesh01
v -1291.13318 7239.51172 3574.0918
v -1337.05029 7239.51172 2623.35864
v -1126.04016 7065.18408 2613.16748
v -1080.12305 7065.18408 3563.90039
v -1126.04016 7065.18408 2613.16748
v -892.294495 6910.16406 3559.40894
v -932.057983 6904.89893 2624.71973
v -744.615234 6787.56543 3541.09668
v -892.294495 6910.16406 3559.40894
v -761.663757 6763.6709 2626.71362
v -588.978882 6661.271 3520.58496
v -596.957153 6630.53369 2642.28467
v -416.834564 6522.68555 3486.60181
v -436.746246 6501.71533 2648.2229
v -200.118073 6349.47607 3446.98853
v -247.829254 6349.83691 2641.95239
v 42.6355324 6158.6001 3393.59644
v -27.6191654 6174.04297 2642.43433
v 285.295624 5972.66016 3348.75415
v 201.05069 5994.80908 2631.7002
v 519.485962 5803.63525 3269.75513
v 425.572357 5828.84961 2581.92993
v 748.343506 5649.87061 3161.58691
v 640.515259 5677.7793 2510.66748
v 967.099854 5508.41455 3052.30151
v 840.59021 5539.23926 2439.19873
v 1172.15601 5377.43164 2928.44971
v 1024.95764 5411.38965 2354.67285
v 1363.82129 5255.24902 2789.74316
v 1193.33057 5292.66992 2254.66382
v 1539.60767 5140.37354 2639.9375
v 1343.77185 5181.56836 2142.42285
v 1696.20715 5032.17432 2484.43359
v 1475.92432 5077.00146 2021.89343
v 1833.04907 4930.31299 2332.44043
v 1591.3667 4978.39795 1902.18274
v 1952.12524 4834.47119 2189.76807
v 1692.63428 4885.37988 1789.94153
v 2056.37061 4744.39941 2058.57422
v 1781.92468 4797.60547 1686.1449
v 2148.44092 4659.86328 1936.9845
v 1860.06396 4713.67871 1587.07275
v 2230.16187 4580.64258 1818.3053
v 1925.57812 4628.95557 1490.24426
v 2301.30786 4504.19678 1702.62634
v 1981.28857 4544.93994 1395.95374
v 2363.22876 4430.57031 1590.2218
v 2029.90088 4463.47021 1304.52844
v 2417.86499 4361.27002 1481.90881
v 2071.47827 4385.9292 1216.4552
v 2464.86108 4297.04004 1378.53162
v 2102.58276 4313.1626 1132.43665
v 2505.3396 4238.14648 1280.60107
v 2127.6875 4245.68994 1052.97815
v 2538.12695 4184.02686 1187.28528
v 2150.55542 4183.87793 978.384338
v 2562.24414 4134.104 1097.92773
v 2173.02881 4126.95459 908.361328
v 2590.12476 4064.7417 976.901184
v 2202.49292 4050.07275 807.238647
v 2608.84204 4007.82275 872.477966
v 2223.76294 3990.35742 732.063293
v 2235.17603 3926.00684 664.341309
v 2628.50537 3963.20166 772.340759
v 2249.00171 3834.26465 556.693665
v 2647.18164 3883.51904 624.61322
v 2254.32935 3741.9707 452.699402
v 2653.89917 3802.59033 484.550964
v 2251.63965 3646.06836 350.114105
v 2649.98804 3717.72656 350.396332
v 2240.2688 3549.05273 251.286194
v 2635.8103 3628.63281 220.944733
v 2219.78052 3452.02588 156.042877
v 2615.57251 3536.71289 95.7897949
v 2193.12134 3356.08057 63.9669189
v 2589.91479 3443.4917 -25.4785156
v 2159.99438 3262.20605 -25.3352661
v 2545.9165 3348.88184 -143.282837
v 2119.9502 3171.2207 -112.206726
v 2493.4856 3255.31982 -258.010864
v 2069.04321 3083.34863 -196.914429
v 2429.33691 3163.4917 -369.98053
v 2006.32068 2998.63184 -279.627075
v 2354.76929 3074.38672 -479.39624
v 1937.09668 2917.50195 -360.404114
v 2272.89868 2988.84033 -586.006714
v 1862.86719 2839.37354 -438.123047
v 2185.17798 2907.35449 -690.223206
v 1785.8623 2765.24854 -515.838135
v 2092.32007 2828.59521 -788.566833
v 1705.82166 2692.49414 -588.462402
v 1995.30481 2751.98145 -880.559692
v 1623.59607 2620.396 -655.685974
v 1894.79761 2677.36963 -965.728943
v 1539.75488 2548.80078 -717.258484
v 1789.8822 2608.18115 -1043.9856
v 1452.93286 2481.91064 -773.514404
v 1680.68481 2545.67676 -1115.19067
v 1362.88269 2421.12061 -824.526367
v 1567.63342 2490.38574 -1179.17456
v 1269.77869 2366.72754 -870.25415
v 1451.16333 2442.94434 -1235.78857
v 1173.75134 2318.97412 -910.665955
v 1331.70264 2403.15918 -1284.90503
v 1074.89209 2278.07617 -945.716614
v 1209.63306 2371.86572 -1326.43201
v 970.103882 2243.31201 -970.604797
v 1056.6731 2341.67969 -1363.53052
v 949.291626 2319.09082 -1378.66638
v 895.128784 2220.58789 -980.454651
v 825.544189 2296.04639 -1389.42712
v 794.774292 2194.16553 -989.704041
v 689.942871 2272.521 -1396.1604
v 675.931396 2165.38672 -996.871887
v 546.307007 2247.54443 -1398.97644
v 545.981934 2134.56934 -1001.05505
v 399.149139 2224.30078 -1397.7334
v 411.274261 2104.94385 -1001.76544
v 253.237274 2205.89746 -1392.19653
v 277.822601 2079.53613 -998.618469
v 112.524513 2186.58496 -1375.74988
v 150.648895 2055.21973 -986.070618
v -22.495142 2169.25391 -1348.48669
v 35.3775368 2033.96277 -965.225281
v -151.135406 2155.06104 -1313.87048
v -67.2822495 2014.28113 -934.391479
v -269.860626 2146.13184 -1281.94067
v -158.830475 1997.91711 -902.179016
v -379.187042 2141.15234 -1249.14478
v -240.846466 1984.84998 -871.058777
v -477.540802 2136.07764 -1205.18286
v -314.794769 1973.73413 -838.366821
v -564.829041 2131.64746 -1152.37134
v -382.007233 1963.4364 -801.283752
v -644.798828 2129.4082 -1098.20837
v -443.558197 1953.80518 -759.7276
v -720.434692 2128.43408 -1042.49658
v -500.67984 1945.30103 -716.225891
v -793.994263 2127.54639 -983.388855
v -554.546753 1938.53906 -672.738281
v -867.248169 2125.13525 -917.976929
v -605.886841 1933.99316 -627.810791
v -940.574463 2124.20166 -852.883972
v -653.946472 1930.69006 -580.510925
v -1012.76892 2122.72803 -783.545715
v -699.368652 1927.62341 -529.234009
v -1081.125 2120.68066 -705.638855
v -742.912292 1923.81995 -472.106934
v -1142.11475 2119.80957 -617.256592
v -785.382019 1918.36707 -408.751892
v -1199.72144 2120.10742 -524.643494
v -827.687012 1910.78577 -342.539978
v -1256.68018 2119.2417 -430.023743
v -870.886475 1901.88782 -273.827332
v -1314.3988 2114.56348 -332.210632
v -915.335999 1892.22961 -202.667664
v -1363.45935 2104.65869 -221.558716
v -948.337769 1883.30066 -122.606964
v -1393.17212 2094.34912 -90.4464264
v -966.247192 1876.78894 -39.1464691
v -1408.68689 2089.77295 70.7174072
v -959.915771 1874.50146 63.8518066
v -1389.70996 2080.81494 235.430878
v -944.227173 1874.85217 152.995392
v -1350.43774 2077.54248 407.181641
v -920.782715 1875.39417 275.316345
v -1311.83447 2077.31396 520.410461
v -895.342407 1876.27673 362.137878
v -1258.7959 2075.0376 637.624146
v -862.56665 1876.94214 444.616882
v -1155.76477 2068.61963 787.402405
v -795.722412 1875.90369 550.185608
v -1010.3894 2056.646 931.699036
v -707.497925 1871.16943 639.307678
v -865.008911 2043.04089 1027.51379
v -617.548279 1863.54187 697.223206
v -639.807739 2021.06409 1139.6665
v -465.119171 1846.46802 769.613403
v -449.377228 2001.19763 1199.79297
v -336.75589 1829.18762 808.636169
v -219.728485 1976.1604 1255.47351
v -160.271561 1804.03564 855.746216
v -4.52492714 1953.01111 1271.94885
v 4.78732872 1779.79456 875.1651
v 225.755142 1930.646 1255.10071
v 179.486984 1756.02698 868.907837
v 432.779755 1913.27502 1192.0697
v 336.059296 1736.63611 823.912659
v 634.002808 1899.51221 1084.97888
v 470.937683 1722.21838 746.20575
v 800.427002 1890.05273 935.933655
v 578.452881 1711.77246 635.851868
v 928.350952 1881.90723 777.592896
v 654.374817 1703.23621 523.818176
v 1027.71582 1873.1051 585.811707
v 710.056641 1694.14746 390.435394
v 1098.09998 1860.62805 397.789124
v 749.797058 1683.54236 272.084503
v 1130.71729 1847.66113 253.303833
v 764.939819 1672.19043 190.378174
v 1149.24158 1828.96143 122.883667
v 777.245605 1652.2406 82.5353394
v 1136.14978 1786.00989 -44.6188583
v 768.28125 1628.3446 12.0566406
v 1099.82166 1732.44421 -206.336792
v 738.652344 1588.77832 -64.8389893
v 1040.20789 1671.26843 -342.659729
v 701.45459 1544.15979 -142.172852
v 971.470459 1610.48645 -451.177124
v 660.791626 1501.32898 -200.839722
v 893.823242 1548.65906 -538.188049
v 619.944702 1462.34167 -240.454895
v 810.153931 1487.29211 -604.219177
v 577.460083 1421.16626 -265.124878
v 693.40509 1403.11731 -659.853577
v 522.495178 1365.26172 -280.955444
v 450.61142 1272.18286 -280.953033
v 562.095093 1323.87439 -698.344849
v 355.848053 1142.5072 -270.153717
v 418.932281 1221.2428 -701.98877
v 266.996094 1006.05017 -248.017014
v 280.660492 1088.20483 -665.399475
v 183.47258 861.579346 -213.603897
v 168.576859 954.196045 -605.703491
v 129.241104 747.137329 -178.702911
v 85.5924301 831.300964 -537.024963
v 96.5285034 659.85376 -148.195297
v 23.2004528 713.094482 -461.388489
v 70.4517136 575.104004 -116.073463
v -26.2505131 581.055054 -369.240906
v 49.3237038 487.935791 -82.1829834
v -51.3886986 484.474976 -299.097778
v 35.3326149 410.16394 -53.2319336
v -65.8932114 388.83374 -229.067871
v 24.4920406 333.249329 -27.0281982
v -70.9868393 310.279602 -172.852356
v 16.8708935 267.587341 -7.55027771
v -70.5407181 236.415024 -124.115646
v 9.84763145 193.574219 10.3684082
v -59.0414391 170.910156 -96.4707031
v 9.00792503 109.928429 26.1548462
v -50.8655815 91.7486572 -42.5349731
v 17.7034664 26.1033936 38.494873
v -24.9453373 2.48689958e-14 5.68434189e-13
vt 0.99609375 0.0009765625
vt 0.99609375 0.999157429
vt 0.982910156 0.999157429
vt 0.982910156 0.0009765625
vt 0.982910156 0.999157429
vt 0.970703125 0.0009765625
vt 0.970703125 0.999157429
vt 0.961425781 0.0009765625
vt 0.970703125 0.0009765625
vt 0.961425781 0.999157429
vt 0.951171875 0.0009765625
vt 0.951171875 0.999157429
vt 0.939941406 0.0009765625
vt 0.939941406 0.999157429
vt 0.926269531 0.0009765625
vt 0.926269531 0.999157429
vt 0.911132812 0.0009765625
vt 0.911132812 0.999157429
vt 0.895507812 0.0009765625
vt 0.895507812 0.999157429
vt 0.881347656 0.0009765625
vt 0.881347656 0.999157429
vt 0.867675781 0.0009765625
vt 0.867675781 0.999157429
vt 0.854980469 0.0009765625
vt 0.854980469 0.999157429
vt 0.842773438 0.0009765625
vt 0.842773438 0.999157429
vt 0.831542969 0.0009765625
vt 0.831542969 0.999157429
vt 0.820800781 0.0009765625
vt 0.820800781 0.999157429
vt 0.810058594 0.0009765625
vt 0.810058594 0.999157429
vt 0.800292969 0.0009765625
vt 0.800292969 0.999157429
vt 0.791015625 0.0009765625
vt 0.791015625 0.999157429
vt 0.781738281 0.0009765625
vt 0.781738281 0.999157429
vt 0.772949219 0.0009765625
vt 0.772949219 0.999157429
vt 0.764648438 0.0009765625
vt 0.764648438 0.999157429
vt 0.756835938 0.0009765625
vt 0.756835938 0.999157429
vt 0.749511719 0.0009765625
vt 0.749511719 0.999157429
vt 0.742675781 0.0009765625
vt 0.742675781 0.999157429
vt 0.735839844 0.0009765625
vt 0.735839844 0.999157429
vt 0.729980469 0.0009765625
vt 0.729980469 0.999157429
vt 0.724121094 0.0009765625
vt 0.724121094 0.999157429
vt 0.718261719 0.0009765625
vt 0.718261719 0.999157429
vt 0.7109375 0.0009765625
vt 0.7109375 0.999157429
vt 0.704589844 0.0009765625
vt 0.705078125 0.999157429
vt 0.698730469 0.999157429
vt 0.698730469 0.0009765625
vt 0.690429688 0.999157429
vt 0.690429688 0.0009765625
vt 0.681640625 0.999157429
vt 0.681640625 0.0009765625
vt 0.673828125 0.999157429
vt 0.673828125 0.0009765625
vt 0.665527344 0.999157429
vt 0.665527344 0.0009765625
vt 0.657714844 0.999157429
vt 0.657714844 0.0009765625
vt 0.649902344 0.999157429
vt 0.649902344 0.0009765625
vt 0.642089844 0.999157429
vt 0.642089844 0.0009765625
vt 0.634277344 0.999157429
vt 0.634277344 0.0009765625
vt 0.626953125 0.999157429
vt 0.626953125 0.0009765625
vt 0.619628906 0.999157429
vt 0.619628906 0.0009765625
vt 0.612304688 0.999157429
vt 0.612304688 0.0009765625
vt 0.604980469 0.999157429
vt 0.604980469 0.0009765625
vt 0.59765625 0.999157429
vt 0.59765625 0.0009765625
vt 0.590820312 0.999157429
vt 0.590820312 0.0009765625
vt 0.583984375 0.999157429
vt 0.583984375 0.0009765625
vt 0.577148438 0.999157429
vt 0.577148438 0.0009765625
vt 0.5703125 0.999157429
vt 0.5703125 0.0009765625
vt 0.563476562 0.999157429
vt 0.563476562 0.0009765625
vt 0.557128906 0.999157429
vt 0.557128906 0.0009765625
vt 0.550292969 0.999157429
vt 0.550292969 0.0009765625
vt 0.543945312 0.999157429
vt 0.543945312 0.0009765625
vt 0.536132812 0.999157429
vt 0.536132812 0.0009765625
vt 0.530761719 0.0009765625
vt 0.530761719 0.999157429
vt 0.524902344 0.0009765625
vt 0.524902344 0.999157429
vt 0.518066406 0.0009765625
vt 0.518066406 0.999157429
vt 0.510742188 0.0009765625
vt 0.510742188 0.999157429
vt 0.503417969 0.0009765625
vt 0.503417969 0.999157429
vt 0.49609375 0.0009765625
vt 0.49609375 0.999157429
vt 0.489257812 0.0009765625
vt 0.489257812 0.999157429
vt 0.482421875 0.0009765625
vt 0.482421875 0.999157429
vt 0.475830078 0.0009765625
vt 0.475830078 0.999157429
vt 0.469482422 0.0009765625
vt 0.469482422 0.999157429
vt 0.463378906 0.0009765625
vt 0.463378906 0.999157429
vt 0.457519531 0.0009765625
vt 0.457519531 0.999157429
vt 0.451660156 0.0009765625
vt 0.451660156 0.999157429
vt 0.445800781 0.0009765625
vt 0.445800781 0.999157429
vt 0.440185547 0.0009765625
vt 0.440185547 0.999157429
vt 0.434570312 0.0009765625
vt 0.434570312 0.999157429
vt 0.428955078 0.0009765625
vt 0.428955078 0.999157429
vt 0.423339844 0.0009765625
vt 0.423339844 0.999157429
vt 0.417480469 0.0009765625
vt 0.417480469 0.999157429
vt 0.411865234 0.0009765625
vt 0.411865234 0.999157429
vt 0.405761719 0.0009765625
vt 0.405761719 0.999157429
vt 0.399658203 0.0009765625
vt 0.399658203 0.999157429
vt 0.393554688 0.0009765625
vt 0.393554688 0.999157429
vt 0.386962891 0.0009765625
vt 0.386962891 0.999157429
vt 0.379882812 0.0009765625
vt 0.37890625 0.999157429
vt 0.373046875 0.0009765625
vt 0.370849609 0.999157429
vt 0.362548828 0.0009765625
vt 0.361083984 0.999157429
vt 0.353759766 0.0009765625
vt 0.352539062 0.999157429
vt 0.342529297 0.0009765625
vt 0.342529297 0.999157429
vt 0.335693359 0.0009765625
vt 0.335693359 0.999157429
vt 0.328613281 0.0009765625
vt 0.328613281 0.999157429
vt 0.318359375 0.0009765625
vt 0.318359375 0.999157429
vt 0.307617188 0.0009765625
vt 0.307617188 0.999157429
vt 0.298828125 0.0009765625
vt 0.298828125 0.999157429
vt 0.285888672 0.0009765625
vt 0.285888672 0.999157429
vt 0.275634766 0.0009765625
vt 0.275634766 0.999157429
vt 0.262695312 0.0009765625
vt 0.262695312 0.999157429
vt 0.250976562 0.0009765625
vt 0.250976562 0.999157429
vt 0.238525391 0.0009765625
vt 0.238525391 0.999157429
vt 0.226928711 0.0009765625
vt 0.226928711 0.999157429
vt 0.215576172 0.0009765625
vt 0.215576172 0.999157429
vt 0.204711914 0.0009765625
vt 0.204711914 0.999157429
vt 0.194702148 0.0009765625
vt 0.194702148 0.999157429
vt 0.184204102 0.0009765625
vt 0.184204102 0.999157429
vt 0.173583984 0.0009765625
vt 0.175415039 0.999157429
vt 0.167114258 0.0009765625
vt 0.169433594 0.999157429
vt 0.160644531 0.0009765625
vt 0.160644531 0.999157429
vt 0.151977539 0.0009765625
vt 0.154174805 0.999157429
vt 0.143554688 0.0009765625
vt 0.143554688 0.999157429
vt 0.135620117 0.0009765625
vt 0.135620117 0.999157429
vt 0.128662109 0.0009765625
vt 0.128662109 0.999157429
vt 0.122253418 0.0009765625
vt 0.122253418 0.999157429
vt 0.116210938 0.0009765625
vt 0.116210938 0.999157429
vt 0.108276367 0.0009765625
vt 0.110473633 0.999157429
vt 0.102966309 0.999157429
vt 0.100830078 0.0009765625
vt 0.0952148438 0.999157429
vt 0.0930786133 0.0009765625
vt 0.0884399414 0.999157429
vt 0.0855102539 0.0009765625
vt 0.0813598633 0.999157429
vt 0.0791625977 0.0009765625
vt 0.0751342773 0.999157429
vt 0.0738525391 0.0009765625
vt 0.0698242188 0.999157429
vt 0.0689697266 0.0009765625
vt 0.064453125 0.999157429
vt 0.0632324219 0.0009765625
vt 0.058807373 0.999157429
vt 0.058807373 0.0009765625
vt 0.0541381836 0.999157429
vt 0.0541381836 0.0009765625
vt 0.0498046875 0.999157429
vt 0.0498046875 0.0009765625
vt 0.0433654785 0.999157429
vt 0.0424499512 0.0009765625
vt 0.0350646973 0.999157429
vt 0.0350646973 0.0009765625
vt 0.023651123 0.999157429
vt 0.023651123 0.0009765625
vt 0.00754165649 0.999157429
vt 0.00754165649 0.0009765625
vn 0.635742188 0.771484375 -0.0307006836
vn 0.635742188 0.771484375 -0.0307006836
vn 0.635742188 0.771484375 -0.0307006836
vn 0.635742188 0.771484375 -0.0307006836
vn 0.63671875 0.770507812 -0.0310821533
vn 0.63671875 0.770507812 -0.0310821533
vn 0.63671875 0.770507812 -0.0310821533
vn 0.633300781 0.7734375 -0.032043457
vn 0.637207031 0.770019531 -0.0317077637
vn 0.633300781 0.7734375 -0.0320739746
vn 0.626953125 0.778320312 -0.032989502
vn 0.626953125 0.778320312 -0.0330200195
vn 0.623535156 0.780761719 -0.0345153809
vn 0.623535156 0.780761719 -0.0346069336
vn 0.620117188 0.783691406 -0.0370788574
vn 0.620117188 0.783691406 -0.0371704102
vn 0.61328125 0.788574219 -0.0411376953
vn 0.61328125 0.788574219 -0.0411376953
vn 0.596191406 0.801757812 -0.0448913574
vn 0.595214844 0.802246094 -0.0449523926
vn 0.568359375 0.821289062 -0.0478515625
vn 0.565917969 0.822753906 -0.0481872559
vn 0.545410156 0.836425781 -0.0542297363
vn 0.543945312 0.837402344 -0.0553283691
vn 0.531738281 0.844238281 -0.0660400391
vn 0.530273438 0.845214844 -0.0676269531
vn 0.519042969 0.851074219 -0.0811157227
vn 0.517089844 0.8515625 -0.0834350586
vn 0.5078125 0.85546875 -0.0997924805
vn 0.506835938 0.855957031 -0.103149414
vn 0.500976562 0.856933594 -0.123046875
vn 0.5 0.856445312 -0.127319336
vn 0.497070312 0.854492188 -0.150146484
vn 0.496826172 0.854003906 -0.154907227
vn 0.495849609 0.849609375 -0.17980957
vn 0.495849609 0.848632812 -0.184326172
vn 0.494873047 0.843261719 -0.210327148
vn 0.494628906 0.842285156 -0.214111328
vn 0.4921875 0.836425781 -0.240722656
vn 0.491699219 0.8359375 -0.243774414
vn 0.486572266 0.829101562 -0.275146484
vn 0.485839844 0.828613281 -0.278808594
vn 0.474853516 0.820800781 -0.317382812
vn 0.473144531 0.8203125 -0.321533203
vn 0.453369141 0.815429688 -0.359863281
vn 0.450683594 0.815429688 -0.363525391
vn 0.423339844 0.815429688 -0.395263672
vn 0.419921875 0.815429688 -0.398193359
vn 0.388183594 0.816894531 -0.426513672
vn 0.384765625 0.816894531 -0.429443359
vn 0.349121094 0.819824219 -0.453857422
vn 0.344482422 0.8203125 -0.456054688
vn 0.306152344 0.826660156 -0.472412109
vn 0.301757812 0.827148438 -0.473876953
vn 0.265625 0.833496094 -0.484375
vn 0.26171875 0.833984375 -0.485351562
vn 0.225097656 0.839355469 -0.495117188
vn 0.221435547 0.839355469 -0.49609375
vn 0.193359375 0.841796875 -0.50390625
vn 0.189453125 0.842285156 -0.504882812
vn 0.143798828 0.84375 -0.517578125
vn 0.138305664 0.84375 -0.519042969
vn 0.0593566895 0.836425781 -0.544921875
vn 0.0661010742 0.837402344 -0.542480469
vn -0.00609588623 0.822753906 -0.568359375
vn 7.79628754e-05 0.82421875 -0.565917969
vn -0.0763549805 0.802246094 -0.591796875
vn -0.0701904297 0.804199219 -0.58984375
vn -0.141967773 0.781738281 -0.606933594
vn -0.135375977 0.783691406 -0.605957031
vn -0.202514648 0.765625 -0.610351562
vn -0.196044922 0.767578125 -0.610351562
vn -0.255371094 0.755371094 -0.603515625
vn -0.249633789 0.756347656 -0.604492188
vn -0.30078125 0.754882812 -0.582519531
vn -0.295410156 0.754394531 -0.586425781
vn -0.341308594 0.76171875 -0.55078125
vn -0.336181641 0.760742188 -0.555664062
vn -0.374755859 0.774902344 -0.508789062
vn -0.370849609 0.772460938 -0.515136719
vn -0.398193359 0.794433594 -0.458496094
vn -0.395507812 0.791503906 -0.465820312
vn -0.413818359 0.8125 -0.41015625
vn -0.412109375 0.810546875 -0.416503906
vn -0.425048828 0.827636719 -0.366943359
vn -0.423828125 0.825683594 -0.372070312
vn -0.433349609 0.839355469 -0.328125
vn -0.432617188 0.838378906 -0.331787109
vn -0.442382812 0.845703125 -0.298583984
vn -0.44140625 0.845214844 -0.30078125
vn -0.454101562 0.847167969 -0.275146484
vn -0.453125 0.847167969 -0.276855469
vn -0.464599609 0.851074219 -0.244628906
vn -0.463867188 0.850585938 -0.247436523
vn -0.465820312 0.862792969 -0.197387695
vn -0.466064453 0.861328125 -0.201416016
vn -0.454589844 0.879882812 -0.137451172
vn -0.455810547 0.87890625 -0.141845703
vn -0.432861328 0.8984375 -0.0729980469
vn -0.434570312 0.897460938 -0.0774536133
vn -0.401611328 0.916015625 -0.00727844238
vn -0.403808594 0.914550781 -0.0115966797
vn -0.359863281 0.931152344 0.0588378906
vn -0.363037109 0.930175781 0.0546264648
vn -0.303222656 0.944335938 0.127685547
vn -0.307617188 0.943359375 0.122924805
vn -0.269775391 0.947753906 0.170898438
vn -0.270507812 0.947753906 0.169067383
vn -0.244140625 0.948242188 0.202392578
vn -0.242553711 0.948730469 0.203613281
vn -0.218139648 0.94921875 0.225708008
vn -0.217407227 0.94921875 0.2265625
vn -0.203735352 0.947265625 0.247070312
vn -0.203491211 0.947265625 0.247802734
vn -0.188110352 0.944824219 0.268066406
vn -0.1875 0.944824219 0.268554688
vn -0.158203125 0.943847656 0.289306641
vn -0.157348633 0.943847656 0.289794922
vn -0.129150391 0.942382812 0.309082031
vn -0.128540039 0.941894531 0.309814453
vn -0.10144043 0.939941406 0.325683594
vn -0.0991210938 0.939941406 0.326660156
vn -0.0620727539 0.938476562 0.339599609
vn -0.0587768555 0.938476562 0.340576172
vn -0.0228881836 0.936035156 0.351074219
vn -0.0203857422 0.936035156 0.351806641
vn 0.0141830444 0.933105469 0.359863281
vn 0.0157012939 0.932617188 0.360107422
vn 0.0537109375 0.9296875 0.364746094
vn 0.0551757812 0.9296875 0.364746094
vn 0.0981445312 0.92578125 0.365722656
vn 0.100708008 0.925292969 0.365722656
vn 0.14465332 0.919921875 0.364257812
vn 0.147583008 0.919433594 0.364013672
vn 0.185668945 0.913574219 0.362304688
vn 0.188110352 0.913085938 0.362060547
vn 0.219116211 0.906738281 0.360107422
vn 0.220825195 0.90625 0.359863281
vn 0.247558594 0.901367188 0.355224609
vn 0.248535156 0.901367188 0.354980469
vn 0.271728516 0.8984375 0.344970703
vn 0.271972656 0.8984375 0.344970703
vn 0.290283203 0.897949219 0.330810547
vn 0.290039062 0.897949219 0.331054688
vn 0.307373047 0.898925781 0.311523438
vn 0.307128906 0.898925781 0.312011719
vn 0.330322266 0.899902344 0.28515625
vn 0.330078125 0.899902344 0.285644531
vn 0.352050781 0.896484375 0.269287109
vn 0.3515625 0.896484375 0.26953125
vn 0.366699219 0.888671875 0.274902344
vn 0.366210938 0.889160156 0.274414062
vn 0.376220703 0.87890625 0.293457031
vn 0.375732422 0.879394531 0.291748047
vn 0.393310547 0.875976562 0.279785156
vn 0.391845703 0.875488281 0.282470703
vn 0.419921875 0.8828125 0.210449219
vn 0.419433594 0.8828125 0.212280273
vn 0.438232422 0.894042969 0.0954589844
vn 0.438232422 0.894042969 0.0936279297
vn 0.432861328 0.901367188 0.00629043579
vn 0.432373047 0.901855469 0.0040473938
vn 0.4140625 0.908691406 -0.0545654297
vn 0.4140625 0.908691406 -0.0545654297
vn 0.399414062 0.911621094 -0.0987548828
vn 0.399902344 0.911621094 -0.09765625
vn 0.385498047 0.911621094 -0.142089844
vn 0.385498047 0.911621094 -0.141967773
vn 0.365234375 0.912109375 -0.185180664
vn 0.364501953 0.912109375 -0.186645508
vn 0.336914062 0.913085938 -0.229492188
vn 0.334472656 0.913085938 -0.232666016
vn 0.30078125 0.914550781 -0.270019531
vn 0.297119141 0.915039062 -0.2734375
vn 0.260009766 0.916015625 -0.304931641
vn 0.257568359 0.916503906 -0.306640625
vn 0.233276367 0.916992188 -0.323730469
vn 0.230957031 0.916992188 -0.325195312
vn 0.206665039 0.915039062 -0.346191406
vn 0.206420898 0.915039062 -0.346679688
vn 0.177978516 0.913085938 -0.366943359
vn 0.177124023 0.913085938 -0.367431641
vn 0.115783691 0.911132812 -0.395263672
vn 0.113525391 0.911132812 -0.395996094
vn 0.0304107666 0.910644531 -0.412597656
vn 0.0238494873 0.91015625 -0.413085938
vn -0.0821533203 0.908203125 -0.41015625
vn -0.0938110352 0.908203125 -0.408447266
vn -0.19519043 0.905273438 -0.376953125
vn -0.209716797 0.905273438 -0.369873047
vn -0.284912109 0.901855469 -0.324462891
vn -0.292724609 0.901855469 -0.317871094
vn -0.343017578 0.901367188 -0.264404297
vn -0.350341797 0.901367188 -0.255126953
vn -0.376464844 0.900390625 -0.217651367
vn -0.377685547 0.900390625 -0.215209961
vn -0.388183594 0.900390625 -0.195678711
vn -0.388916016 0.900390625 -0.194091797
vn -0.398193359 0.897460938 -0.188720703
vn -0.3984375 0.897460938 -0.189453125
vn -0.402832031 0.892578125 -0.203613281
vn -0.403564453 0.891601562 -0.205322266
vn -0.414794922 0.883300781 -0.218383789
vn -0.416503906 0.882324219 -0.219726562
vn -0.434326172 0.872070312 -0.225952148
vn -0.436035156 0.87109375 -0.226074219
vn -0.455078125 0.861328125 -0.225830078
vn -0.456542969 0.860351562 -0.225585938
vn -0.475830078 0.851074219 -0.221557617
vn -0.477539062 0.850585938 -0.220947266
vn -0.501464844 0.837890625 -0.216308594
vn -0.504394531 0.8359375 -0.215942383
vn -0.543457031 0.812988281 -0.208618164
vn -0.549316406 0.809570312 -0.207275391
vn -0.59765625 0.783691406 -0.168945312
vn -0.603515625 0.780761719 -0.161743164
vn -0.673828125 0.735351562 -0.0704345703
vn -0.6640625 0.742675781 -0.0844726562
vn -0.735839844 0.676757812 0.0202331543
vn -0.723632812 0.689941406 0.0017490387
vn -0.77734375 0.62109375 0.0993652344
vn -0.76953125 0.633789062 0.0805053711
vn -0.802246094 0.573730469 0.165893555
vn -0.795898438 0.587402344 0.147094727
vn -0.818847656 0.528320312 0.224853516
vn -0.813964844 0.542480469 0.20715332
vn -0.831054688 0.480957031 0.279052734
vn -0.827636719 0.495849609 0.262939453
vn -0.837890625 0.437011719 0.327392578
vn -0.836425781 0.448242188 0.314941406
vn -0.837890625 0.389892578 0.381835938
vn -0.838378906 0.399169922 0.370605469
vn -0.831542969 0.350097656 0.431640625
vn -0.833007812 0.356445312 0.423339844
vn -0.819824219 0.310791016 0.480957031
vn -0.821289062 0.315673828 0.474853516
vn -0.820800781 0.229980469 0.5234375
vn -0.819824219 0.237304688 0.521484375
vn -0.819824219 0.173706055 0.545898438
vn -0.821289062 0.169067383 0.544921875
vn -0.783691406 0.144287109 0.604492188
vn -0.7890625 0.154785156 0.594238281
vn -0.734375 0.0662231445 0.675292969
vn -0.734375 0.0662231445 0.675292969
f 1/1/1 3/3/3 2/2/2
f 1/1/1 4/4/4 3/3/3
f 5/5/5 4/4/4 6/6/6
f 5/5/5 6/6/6 7/7/7
f 7/7/7 9/9/9 8/8/8
f 7/7/7 8/8/8 10/10/10
f 10/10/10 8/8/8 11/11/11
f 10/10/10 11/11/11 12/12/12
f 12/12/12 11/11/11 13/13/13
f 12/12/12 13/13/13 14/14/14
f 14/14/14 13/13/13 15/15/15
f 14/14/14 15/15/15 16/16/16
f 16/16/16 15/15/15 17/17/17
f 16/16/16 17/17/17 18/18/18
f 18/18/18 17/17/17 19/19/19
f 18/18/18 19/19/19 20/20/20
f 20/20/20 19/19/19 21/21/21
f 20/20/20 21/21/21 22/22/22
f 22/22/22 21/21/21 23/23/23
f 22/22/22 23/23/23 24/24/24
f 24/24/24 23/23/23 25/25/25
f 24/24/24 25/25/25 26/26/26
f 26/26/26 25/25/25 27/27/27
f 26/26/26 27/27/27 28/28/28
f 28/28/28 27/27/27 29/29/29
f 28/28/28 29/29/29 30/30/30
f 30/30/30 29/29/29 31/31/31
f 30/30/30 31/31/31 32/32/32
f 32/32/32 31/31/31 33/33/33
f 32/32/32 33/33/33 34/34/34
f 34/34/34 33/33/33 35/35/35
f 34/34/34 35/35/35 36/36/36
f 36/36/36 35/35/35 37/37/37
f 36/36/36 37/37/37 38/38/38
f 38/38/38 37/37/37 39/39/39
f 38/38/38 39/39/39 40/40/40
f 40/40/40 39/39/39 41/41/41
f 40/40/40 41/41/41 42/42/42
f 42/42/42 41/41/41 43/43/43
f 42/42/42 43/43/43 44/44/44
f 44/44/44 43/43/43 45/45/45
f 44/44/44 45/45/45 46/46/46
f 46/46/46 45/45/45 47/47/47
f 46/46/46 47/47/47 48/48/48
f 48/48/48 47/47/47 49/49/49
f 48/48/48 49/49/49 50/50/50
f 50/50/50 49/49/49 51/51/51
f 50/50/50 51/51/51 52/52/52
f 52/52/52 51/51/51 53/53/53
f 52/52/52 53/53/53 54/54/54
f 54/54/54 53/53/53 55/55/55
f 54/54/54 55/55/55 56/56/56
f 56/56/56 55/55/55 57/57/57
f 56/56/56 57/57/57 58/58/58
f 58/58/58 57/57/57 59/59/59
f 58/58/58 59/59/59 60/60/60
f 60/60/60 59/59/59 61/61/61
f 60/60/60 61/61/61 62/62/62
f 63/63/63 62/62/62 61/61/61
f 63/63/63 61/61/61 64/64/64
f 65/65/65 63/63/63 64/64/64
f 65/65/65 64/64/64 66/66/66
f 67/67/67 65/65/65 66/66/66
f 67/67/67 66/66/66 68/68/68
f 69/69/69 67/67/67 68/68/68
f 69/69/69 68/68/68 70/70/70
f 71/71/71 69/69/69 70/70/70
f 71/71/71 70/70/70 72/72/72
f 73/73/73 71/71/71 72/72/72
f 73/73/73 72/72/72 74/74/74
f 75/75/75 73/73/73 74/74/74
f 75/75/75 74/74/74 76/76/76
f 77/77/77 75/75/75 76/76/76
f 77/77/77 76/76/76 78/78/78
f 79/79/79 77/77/77 78/78/78
f 79/79/79 78/78/78 80/80/80
f 81/81/81 79/79/79 80/80/80
f 81/81/81 80/80/80 82/82/82
f 83/83/83 81/81/81 82/82/82
f 83/83/83 82/82/82 84/84/84
f 85/85/85 83/83/83 84/84/84
f 85/85/85 84/84/84 86/86/86
f 87/87/87 85/85/85 86/86/86
f 87/87/87 86/86/86 88/88/88
f 89/89/89 87/87/87 88/88/88
f 89/89/89 88/88/88 90/90/90
f 91/91/91 89/89/89 90/90/90
f 91/91/91 90/90/90 92/92/92
f 93/93/93 91/91/91 92/92/92
f 93/93/93 92/92/92 94/94/94
f 95/95/95 93/93/93 94/94/94
f 95/95/95 94/94/94 96/96/96
f 97/97/97 95/95/95 96/96/96
f 97/97/97 96/96/96 98/98/98
f 99/99/99 97/97/97 98/98/98
f 99/99/99 98/98/98 100/100/100
f 101/101/101 99/99/99 100/100/100
f 101/101/101 100/100/100 102/102/102
f 103/103/103 101/101/101 102/102/102
f 103/103/103 102/102/102 104/104/104
f 105/105/105 103/103/103 104/104/104
f 105/105/105 104/104/104 106/106/106
f 107/107/107 105/105/105 106/106/106
f 107/107/107 106/106/106 108/108/108
f 107/107/107 108/108/108 109/109/109
f 107/107/107 109/109/109 110/110/110
f 110/110/110 109/109/109 111/111/111
f 110/110/110 111/111/111 112/112/112
f 112/112/112 111/111/111 113/113/113
f 112/112/112 113/113/113 114/114/114
f 114/114/114 113/113/113 115/115/115
f 114/114/114 115/115/115 116/116/116
f 116/116/116 115/115/115 117/117/117
f 116/116/116 117/117/117 118/118/118
f 118/118/118 117/117/117 119/119/119
f 118/118/118 119/119/119 120/120/120
f 120/120/120 119/119/119 121/121/121
f 120/120/120 121/121/121 122/122/122
f 122/122/122 121/121/121 123/123/123
f 122/122/122 123/123/123 124/124/124
f 124/124/124 123/123/123 125/125/125
f 124/124/124 125/125/125 126/126/126
f 126/126/126 125/125/125 127/127/127
f 126/126/126 127/127/127 128/128/128
f 128/128/128 127/127/127 129/129/129
f 128/128/128 129/129/129 130/130/130
f 130/130/130 129/129/129 131/131/131
f 130/130/130 131/131/131 132/132/132
f 132/132/132 131/131/131 133/133/133
f 132/132/132 133/133/133 134/134/134
f 134/134/134 133/133/133 135/135/135
f 134/134/134 135/135/135 136/136/136
f 136/136/136 135/135/135 137/137/137
f 136/136/136 137/137/137 138/138/138
f 138/138/138 137/137/137 139/139/139
f 138/138/138 139/139/139 140/140/140
f 140/140/140 139/139/139 141/141/141
f 140/140/140 141/141/141 142/142/142
f 142/142/142 141/141/141 143/143/143
f 142/142/142 143/143/143 144/144/144
f 144/144/144 143/143/143 145/145/145
f 144/144/144 145/145/145 146/146/146
f 146/146/146 145/145/145 147/147/147
f 146/146/146 147/147/147 148/148/148
f 148/148/148 147/147/147 149/149/149
f 148/148/148 149/149/149 150/150/150
f 150/150/150 149/149/149 151/151/151
f 150/150/150 151/151/151 152/152/152
f 152/152/152 151/151/151 153/153/153
f 152/152/152 153/153/153 154/154/154
f 154/154/154 153/153/153 155/155/155
f 154/154/154 155/155/155 156/156/156
f 156/156/156 155/155/155 157/157/157
f 156/156/156 157/157/157 158/158/158
f 158/158/158 157/157/157 159/159/159
f 158/158/158 159/159/159 160/160/160
f 160/160/160 159/159/159 161/161/161
f 160/160/160 161/161/161 162/162/162
f 162/162/162 161/161/161 163/163/163
f 162/162/162 163/163/163 164/164/164
f 164/164/164 163/163/163 165/165/165
f 164/164/164 165/165/165 166/166/166
f 166/166/166 165/165/165 167/167/167
f 166/166/166 167/167/167 168/168/168
f 168/168/168 167/167/167 169/169/169
f 168/168/168 169/169/169 170/170/170
f 170/170/170 169/169/169 171/171/171
f 170/170/170 171/171/171 172/172/172
f 172/172/172 171/171/171 173/173/173
f 172/172/172 173/173/173 174/174/174
f 174/174/174 173/173/173 175/175/175
f 174/174/174 175/175/175 176/176/176
f 176/176/176 175/175/175 177/177/177
f 176/176/176 177/177/177 178/178/178
f 178/178/178 177/177/177 179/179/179
f 178/178/178 179/179/179 180/180/180
f 180/180/180 179/179/179 181/181/181
f 180/180/180 181/181/181 182/182/182
f 182/182/182 181/181/181 183/183/183
f 182/182/182 183/183/183 184/184/184
f 184/184/184 183/183/183 185/185/185
f 184/184/184 185/185/185 186/186/186
f 186/186/186 185/185/185 187/187/187
f 186/186/186 187/187/187 188/188/188
f 188/188/188 187/187/187 189/189/189
f 188/188/188 189/189/189 190/190/190
f 190/190/190 189/189/189 191/191/191
f 190/190/190 191/191/191 192/192/192
f 192/192/192 191/191/191 193/193/193
f 192/192/192 193/193/193 194/194/194
f 194/194/194 193/193/193 195/195/195
f 194/194/194 195/195/195 196/196/196
f 196/196/196 195/195/195 197/197/197
f 196/196/196 197/197/197 198/198/198
f 198/198/198 197/197/197 199/199/199
f 198/198/198 199/199/199 200/200/200
f 200/200/200 199/199/199 201/201/201
f 200/200/200 201/201/201 202/202/202
f 202/202/202 201/201/201 203/203/203
f 202/202/202 203/203/203 204/204/204
f 204/204/204 203/203/203 205/205/205
f 204/204/204 205/205/205 206/206/206
f 206/206/206 205/205/205 207/207/207
f 206/206/206 207/207/207 208/208/208
f 208/208/208 207/207/207 209/209/209
f 208/208/208 209/209/209 210/210/210
f 210/210/210 209/209/209 211/211/211
f 210/210/210 211/211/211 212/212/212
f 212/212/212 211/211/211 213/213/213
f 212/212/212 213/213/213 214/214/214
f 214/214/214 213/213/213 215/215/215
f 214/214/214 215/215/215 216/216/216
f 217/217/217 216/216/216 215/215/215
f 217/217/217 215/215/215 218/218/218
f 219/219/219 217/217/217 218/218/218
f 219/219/219 218/218/218 220/220/220
f 221/221/221 219/219/219 220/220/220
f 221/221/221 220/220/220 222/222/222
f 223/223/223 221/221/221 222/222/222
f 223/223/223 222/222/222 224/224/224
f 225/225/225 223/223/223 224/224/224
f 225/225/225 224/224/224 226/226/226
f 227/227/227 225/225/225 226/226/226
f 227/227/227 226/226/226 228/228/228
f 229/229/229 227/227/227 228/228/228
f 229/229/229 228/228/228 230/230/230
f 231/231/231 229/229/229 230/230/230
f 231/231/231 230/230/230 232/232/232
f 233/233/233 231/231/231 232/232/232
f 233/233/233 232/232/232 234/234/234
f 235/235/235 233/233/233 234/234/234
f 235/235/235 234/234/234 236/236/236
f 237/237/237 235/235/235 236/236/236
f 237/237/237 236/236/236 238/238/238
f 239/239/239 237/237/237 238/238/238
f 239/239/239 238/238/238 240/240/240
f 241/241/241 239/239/239 240/240/240
f 241/241/241 240/240/240 242/242/242
f 243/243/243 241/241/241 242/242/242
f 243/243/243 242/242/242 244/244/244
